<?xml version="1.0" encoding="us-ascii" standalone="no"?><svg xmlns="http://www.w3.org/2000/svg" xmlns:xlink="http://www.w3.org/1999/xlink" contentStyleType="text/css" height="259px" preserveAspectRatio="none" style="width:665px;height:259px;background:#FFFFFF;" version="1.1" viewBox="0 0 665 259" width="665px" zoomAndPan="magnify"><defs/><g><!--cluster eMSPP1--><g id="cluster_eMSPP1"><rect fill="none" height="103.49" rx="4" ry="4" style="stroke:#181818;stroke-width:1.0;" width="133" x="7" y="7"/><text fill="#000000" font-family="sans-serif" font-size="14" font-weight="bold" lengthAdjust="spacing" textLength="80" x="33.5" y="22.5352">PLATFORM</text></g><!--cluster eMSPP2--><g id="cluster_eMSPP2"><rect fill="none" height="103.49" rx="4" ry="4" style="stroke:#181818;stroke-width:1.0;" width="133" x="353" y="7"/><text fill="#000000" font-family="sans-serif" font-size="14" font-weight="bold" lengthAdjust="spacing" textLength="80" x="379.5" y="22.5352">PLATFORM</text></g><!--cluster eMSPP3--><g id="cluster_eMSPP3"><rect fill="none" height="103.49" rx="4" ry="4" style="stroke:#181818;stroke-width:1.0;" width="133" x="180" y="7"/><text fill="#000000" font-family="sans-serif" font-size="14" font-weight="bold" lengthAdjust="spacing" textLength="80" x="206.5" y="22.5352">PLATFORM</text></g><!--cluster eMSPP4--><g id="cluster_eMSPP4"><rect fill="none" height="103.49" rx="4" ry="4" style="stroke:#181818;stroke-width:1.0;" width="133" x="526" y="7"/><text fill="#000000" font-family="sans-serif" font-size="14" font-weight="bold" lengthAdjust="spacing" textLength="80" x="552.5" y="22.5352">PLATFORM</text></g><!--cluster CPOP1--><g id="cluster_CPOP1"><rect fill="none" height="103.49" rx="4" ry="4" style="stroke:#181818;stroke-width:1.0;" width="125" x="351" y="150.49"/><text fill="#000000" font-family="sans-serif" font-size="14" font-weight="bold" lengthAdjust="spacing" textLength="80" x="373.5" y="166.0252">PLATFORM</text></g><!--cluster CPOP2--><g id="cluster_CPOP2"><rect fill="none" height="103.49" rx="4" ry="4" style="stroke:#181818;stroke-width:1.0;" width="125" x="182" y="150.49"/><text fill="#000000" font-family="sans-serif" font-size="14" font-weight="bold" lengthAdjust="spacing" textLength="80" x="204.5" y="166.0252">PLATFORM</text></g><!--cluster CPOP3--><g id="cluster_CPOP3"><rect fill="none" height="103.49" rx="4" ry="4" style="stroke:#181818;stroke-width:1.0;" width="125" x="522" y="150.49"/><text fill="#000000" font-family="sans-serif" font-size="14" font-weight="bold" lengthAdjust="spacing" textLength="80" x="544.5" y="166.0252">PLATFORM</text></g><!--entity eMSP1--><g id="elem_eMSP1"><rect fill="#F1F1F1" height="36.4883" rx="4" ry="4" style="stroke:#181818;stroke-width:0.5;" width="65" x="50.5" y="50"/><text fill="#000000" font-family="sans-serif" font-size="14" lengthAdjust="spacing" textLength="45" x="60.5" y="73.5352">eMSP1</text></g><!--entity eMSP2--><g id="elem_eMSP2"><rect fill="#F1F1F1" height="36.4883" rx="4" ry="4" style="stroke:#181818;stroke-width:0.5;" width="65" x="396.5" y="50"/><text fill="#000000" font-family="sans-serif" font-size="14" lengthAdjust="spacing" textLength="45" x="406.5" y="73.5352">eMSP2</text></g><!--entity eMSP3--><g id="elem_eMSP3"><rect fill="#F1F1F1" height="36.4883" rx="4" ry="4" style="stroke:#181818;stroke-width:0.5;" width="65" x="223.5" y="50"/><text fill="#000000" font-family="sans-serif" font-size="14" lengthAdjust="spacing" textLength="45" x="233.5" y="73.5352">eMSP3</text></g><!--entity eMSP4--><g id="elem_eMSP4"><rect fill="#F1F1F1" height="36.4883" rx="4" ry="4" style="stroke:#181818;stroke-width:0.5;" width="65" x="569.5" y="50"/><text fill="#000000" font-family="sans-serif" font-size="14" lengthAdjust="spacing" textLength="45" x="579.5" y="73.5352">eMSP4</text></g><!--entity CPO1--><g id="elem_CPO1"><rect fill="#F1F1F1" height="36.4883" rx="4" ry="4" style="stroke:#181818;stroke-width:0.5;" width="58" x="394" y="193.49"/><text fill="#000000" font-family="sans-serif" font-size="14" lengthAdjust="spacing" textLength="38" x="404" y="217.0252">CPO1</text></g><!--entity CPO2--><g id="elem_CPO2"><rect fill="#F1F1F1" height="36.4883" rx="4" ry="4" style="stroke:#181818;stroke-width:0.5;" width="58" x="225" y="193.49"/><text fill="#000000" font-family="sans-serif" font-size="14" lengthAdjust="spacing" textLength="38" x="235" y="217.0252">CPO2</text></g><!--entity CPO3--><g id="elem_CPO3"><rect fill="#F1F1F1" height="36.4883" rx="4" ry="4" style="stroke:#181818;stroke-width:0.5;" width="58" x="565" y="193.49"/><text fill="#000000" font-family="sans-serif" font-size="14" lengthAdjust="spacing" textLength="38" x="575" y="217.0252">CPO3</text></g><!--link eMSPP1 to CPOP1--><g id="link_eMSPP1_CPOP1"><path d="M21.8427,110.5314 C21.8844,110.6242 21.9264,110.7169 21.9687,110.8095 C22.0532,110.9947 22.1387,111.1793 22.2252,111.3634 C24.9931,117.2556 28.7925,122.6125 34,126.49 C57.62,144.09 272.7,121.23 299,134.49 C317.65,143.895 332.31,162.0775 342.47,178.3275 C345.01,182.39 347.2688,186.3317 349.2383,189.9853 C349.7307,190.8987 350.205,191.7941 350.6611,192.6689 C350.7751,192.8876 350.888,193.105 350.9997,193.321 " fill="none" id="eMSPP1-CPOP1" style="stroke:#181818;stroke-width:1.0;"/></g><!--link eMSPP2 to CPOP2--><g id="link_eMSPP2_CPOP2"><path d="M352.9519,81.7 C352.7288,82.0175 352.5015,82.3391 352.27,82.6646 C351.807,83.3156 351.3274,83.9821 350.8315,84.6623 C348.848,87.3828 346.6047,90.3213 344.1288,93.355 C334.225,105.49 320.6,119.15 305,126.49 C285.63,135.61 225.31,120.62 209,134.49 C205.7788,137.23 203.0591,140.4245 200.7667,143.9233 C199.6205,145.6727 198.5812,147.4982 197.6394,149.3809 C197.5216,149.6163 197.4054,149.8525 197.2907,150.0896 C197.2334,150.2081 197.1764,150.3269 197.1198,150.4459 " fill="none" id="eMSPP2-CPOP2" style="stroke:#181818;stroke-width:1.0;"/></g><!--link eMSPP1 to CPOP2--><g id="link_eMSPP1_CPOP2"><path d="M24.4957,110.6221 C24.6609,111.0028 24.8289,111.3826 24.9998,111.7612 C25.3416,112.5184 25.695,113.2711 26.0602,114.0177 C26.7906,115.511 27.5685,116.9802 28.3971,118.4136 C30.0542,121.2803 31.9138,124.0038 34,126.49 C58.925,156.2 97.105,177.0725 129.4538,190.61 C145.6281,197.3788 160.3447,202.3138 171.2177,205.6028 C173.9359,206.4251 176.4139,207.1445 178.6144,207.7639 C179.7147,208.0737 180.7456,208.3584 181.7024,208.6185 " fill="none" id="eMSPP1-CPOP2" style="stroke:#181818;stroke-width:1.0;"/></g><!--link eMSPP2 to CPOP1--><g id="link_eMSPP2_CPOP1"><path d="M360.4096,111.07 C360.4061,111.3168 360.4026,111.5642 360.3991,111.8121 C360.3851,112.8038 360.3709,113.8043 360.3566,114.8127 C360.2425,122.8795 360.1213,131.4488 360,140.0175 C359.9697,142.1597 359.9394,144.3018 359.9092,146.4361 C359.8941,147.5033 359.879,148.5684 359.864,149.6306 C359.8602,149.8962 359.8565,150.1616 359.8527,150.4267 " fill="none" id="eMSPP2-CPOP1" style="stroke:#181818;stroke-width:1.0;"/></g><!--link eMSPP2 to CPOP3--><g id="link_eMSPP2_CPOP3"><path d="M368.1776,110.5393 C368.2614,110.7253 368.3462,110.911 368.4319,111.0961 C371.175,117.0206 374.9125,122.4575 380,126.49 C395.39,138.69 450.67,125.26 468,134.49 C486.675,144.435 501.805,162.635 512.4425,178.76 C515.1019,182.7913 517.4805,186.6928 519.5635,190.3033 C520.0842,191.2059 520.5865,192.0903 521.0701,192.954 C521.3119,193.3859 521.549,193.8126 521.7814,194.2337 C521.8395,194.339 521.8973,194.444 521.9548,194.5486 " fill="none" id="eMSPP2-CPOP3" style="stroke:#181818;stroke-width:1.0;"/></g><!--link eMSPP3 to CPOP1--><g id="link_eMSPP3_CPOP1"><path d="M195.1648,110.5563 C195.2487,110.7423 195.3335,110.9279 195.4192,111.113 C198.1638,117.0356 201.905,122.4675 207,126.49 C223.1,139.21 280.95,124.74 299,134.49 C317.375,144.42 332.0275,162.62 342.2525,178.7488 C344.8088,182.7809 347.0883,186.6837 349.0801,190.2954 C349.578,191.1983 350.058,192.083 350.5198,192.9471 C350.6353,193.1631 350.7496,193.3778 350.8628,193.5911 " fill="none" id="eMSPP3-CPOP1" style="stroke:#181818;stroke-width:1.0;"/></g><!--link eMSPP3 to CPOP2--><g id="link_eMSPP3_CPOP2"><path d="M188.5904,111.07 C188.5939,111.3168 188.5974,111.5642 188.6009,111.8121 C188.6149,112.8038 188.6291,113.8043 188.6434,114.8127 C188.7575,122.8795 188.8788,131.4488 189,140.0175 C189.0303,142.1597 189.0606,144.3018 189.0908,146.4361 C189.1059,147.5033 189.121,148.5684 189.136,149.6306 C189.1398,149.8962 189.1435,150.1616 189.1473,150.4267 " fill="none" id="eMSPP3-CPOP2" style="stroke:#181818;stroke-width:1.0;"/></g><!--link eMSPP4 to CPOP1--><g id="link_eMSPP4_CPOP1"><path d="M525.9607,81.7153 C525.7377,82.0331 525.5105,82.3549 525.2791,82.6807 C524.8163,83.3322 524.3369,83.9992 523.8412,84.6798 C521.8584,87.4023 519.6156,90.3425 517.14,93.3775 C507.2375,105.5175 493.61,119.175 478,126.49 C457.81,135.95 395,120.08 378,134.49 C374.7738,137.225 372.0503,140.4156 369.7552,143.9114 C368.6077,145.6593 367.5672,147.4835 366.6245,149.3652 C366.5067,149.6004 366.3904,149.8365 366.2756,150.0735 C366.2182,150.192 366.1611,150.3107 366.1045,150.4296 " fill="none" id="eMSPP4-CPOP1" style="stroke:#181818;stroke-width:1.0;"/></g><!--link eMSPP4 to CPOP2--><g id="link_eMSPP4_CPOP2"><path d="M525.8811,82.1467 C525.8253,82.2277 525.7692,82.3089 525.7129,82.3904 C525.6002,82.5534 525.4865,82.7173 525.3717,82.8822 C524.9127,83.5419 524.437,84.2171 523.9449,84.9057 C521.9767,87.6602 519.7475,90.6303 517.2825,93.6888 C507.4225,105.9225 493.79,119.57 478,126.49 C450.61,138.49 232.29,115.73 209,134.49 C205.7063,137.1438 202.9316,140.2728 200.5985,143.7232 C199.432,145.4483 198.3759,147.2538 197.4206,149.1204 C197.3011,149.3537 197.1833,149.588 197.067,149.8232 C197.0089,149.9408 196.9511,150.0586 196.8937,150.1767 " fill="none" id="eMSPP4-CPOP2" style="stroke:#181818;stroke-width:1.0;"/></g><!--link eMSPP4 to CPOP3--><g id="link_eMSPP4_CPOP3"><path d="M532.8192,111.07 C532.8122,111.3168 532.8052,111.5642 532.7982,111.8121 C532.7701,112.8038 532.7418,113.8043 532.7133,114.8127 C532.485,122.8795 532.2425,131.4488 532,140.0175 C531.9394,142.1597 531.8788,144.3018 531.8183,146.4361 C531.7881,147.5033 531.758,148.5684 531.7279,149.6306 C531.7204,149.8962 531.7129,150.1616 531.7054,150.4267 " fill="none" id="eMSPP4-CPOP3" style="stroke:#181818;stroke-width:1.0;"/></g></g></svg>