<?xml version="1.0" encoding="us-ascii" standalone="no"?><svg xmlns="http://www.w3.org/2000/svg" xmlns:xlink="http://www.w3.org/1999/xlink" contentStyleType="text/css" height="290px" preserveAspectRatio="none" style="width:578px;height:290px;background:#FFFFFF;" version="1.1" viewBox="0 0 578 290" width="578px" zoomAndPan="magnify"><defs/><g><!--cluster MSPP1--><g id="cluster_MSPP1"><rect fill="none" height="194" rx="4" ry="4" style="stroke:#181818;stroke-width:1.0;" width="113" x="7" y="69"/><text fill="#000000" font-family="sans-serif" font-size="14" font-weight="bold" lengthAdjust="spacing" textLength="80" x="23.5" y="84.5352">PLATFORM</text></g><!--cluster CPOP1--><g id="cluster_CPOP1"><rect fill="none" height="194" rx="4" ry="4" style="stroke:#181818;stroke-width:1.0;" width="106" x="160" y="69"/><text fill="#000000" font-family="sans-serif" font-size="14" font-weight="bold" lengthAdjust="spacing" textLength="80" x="173" y="84.5352">PLATFORM</text></g><!--cluster CPOMSP1--><g id="cluster_CPOMSP1"><rect fill="none" height="194" rx="4" ry="4" style="stroke:#181818;stroke-width:1.0;" width="113" x="306" y="7"/><text fill="#000000" font-family="sans-serif" font-size="14" font-weight="bold" lengthAdjust="spacing" textLength="80" x="322.5" y="22.5352">PLATFORM</text></g><!--cluster CPOMSP2--><g id="cluster_CPOMSP2"><rect fill="none" height="194" rx="4" ry="4" style="stroke:#181818;stroke-width:1.0;" width="113" x="459" y="60"/><text fill="#000000" font-family="sans-serif" font-size="14" font-weight="bold" lengthAdjust="spacing" textLength="80" x="475.5" y="75.5352">PLATFORM</text></g><!--entity eMSP1--><g id="elem_eMSP1"><rect fill="#F1F1F1" height="36.4883" rx="4" ry="4" style="stroke:#181818;stroke-width:0.5;" width="65" x="31" y="111.76"/><text fill="#000000" font-family="sans-serif" font-size="14" lengthAdjust="spacing" textLength="45" x="41" y="135.2952">eMSP1</text></g><!--entity eMSP2--><g id="elem_eMSP2"><rect fill="#F1F1F1" height="36.4883" rx="4" ry="4" style="stroke:#181818;stroke-width:0.5;" width="65" x="31" y="182.76"/><text fill="#000000" font-family="sans-serif" font-size="14" lengthAdjust="spacing" textLength="45" x="41" y="206.2952">eMSP2</text></g><!--entity CPO1--><g id="elem_CPO1"><rect fill="#F1F1F1" height="36.4883" rx="4" ry="4" style="stroke:#181818;stroke-width:0.5;" width="58" x="184" y="111.76"/><text fill="#000000" font-family="sans-serif" font-size="14" lengthAdjust="spacing" textLength="38" x="194" y="135.2952">CPO1</text></g><!--entity CPO2--><g id="elem_CPO2"><rect fill="#F1F1F1" height="36.4883" rx="4" ry="4" style="stroke:#181818;stroke-width:0.5;" width="58" x="184" y="182.76"/><text fill="#000000" font-family="sans-serif" font-size="14" lengthAdjust="spacing" textLength="38" x="194" y="206.2952">CPO2</text></g><!--entity eMSP3--><g id="elem_eMSP3"><rect fill="#F1F1F1" height="36.4883" rx="4" ry="4" style="stroke:#181818;stroke-width:0.5;" width="65" x="330" y="49.76"/><text fill="#000000" font-family="sans-serif" font-size="14" lengthAdjust="spacing" textLength="45" x="340" y="73.2952">eMSP3</text></g><!--entity CPO3--><g id="elem_CPO3"><rect fill="#F1F1F1" height="36.4883" rx="4" ry="4" style="stroke:#181818;stroke-width:0.5;" width="58" x="333.5" y="120.76"/><text fill="#000000" font-family="sans-serif" font-size="14" lengthAdjust="spacing" textLength="38" x="343.5" y="144.2952">CPO3</text></g><!--entity eMSP4--><g id="elem_eMSP4"><rect fill="#F1F1F1" height="36.4883" rx="4" ry="4" style="stroke:#181818;stroke-width:0.5;" width="65" x="483" y="102.76"/><text fill="#000000" font-family="sans-serif" font-size="14" lengthAdjust="spacing" textLength="45" x="493" y="126.2952">eMSP4</text></g><!--entity CPO4--><g id="elem_CPO4"><rect fill="#F1F1F1" height="36.4883" rx="4" ry="4" style="stroke:#181818;stroke-width:0.5;" width="58" x="486.5" y="173.76"/><text fill="#000000" font-family="sans-serif" font-size="14" lengthAdjust="spacing" textLength="38" x="496.5" y="197.2952">CPO4</text></g><!--link MSPP1 to CPOP1--><g id="link_MSPP1_CPOP1"><path d="M120.0226,255 C120.5655,255 121.1098,255 121.6553,255 C122.7464,255 123.8427,255 124.943,255 C129.3443,255 133.8109,255 138.2775,255 C142.7441,255 147.2105,255 151.6113,255 C153.8117,255 155.9957,255 158.1551,255 C158.6949,255 159.2332,255 159.7699,255 " fill="none" id="MSPP1-CPOP1" style="stroke:#181818;stroke-width:1.0;"/></g><!--link MSPP1 to CPOMSP1--><g id="link_MSPP1_CPOMSP1"><path d="M120.2354,247.1398 C120.4596,247.0307 120.683,246.9202 120.9056,246.8083 C121.3507,246.5846 121.7926,246.3553 122.2309,246.1204 C123.9843,245.1808 125.6812,244.1507 127.3036,243.022 C130.5483,240.7645 133.495,238.1125 136,235 C145.7,222.95 132.75,106.62 144,96 C188.6,53.9 236.45,54.93 282,96 C294.78,107.52 278.91,159.85 290,173 C292.5763,176.0538 295.577,178.6613 298.8618,180.8858 C300.5041,181.998 302.2175,183.0146 303.9842,183.9433 C304.4259,184.1754 304.871,184.4021 305.319,184.6234 C305.5431,184.7341 305.7679,184.8434 305.9934,184.9514 " fill="none" id="MSPP1-CPOMSP1" style="stroke:#181818;stroke-width:1.0;"/></g><!--link MSPP1 to CPOMSP2--><g id="link_MSPP1_CPOMSP2"><path d="M97.001,263.0604 C97.1255,263.0878 97.2502,263.1153 97.375,263.1427 C97.6248,263.1976 97.8754,263.2525 98.1268,263.3074 C100.138,263.7466 102.2006,264.1864 104.3031,264.6221 C108.5082,265.4936 112.8732,266.3485 117.3067,267.1492 C126.1737,268.7506 135.315,270.135 144,271 C272.77,283.83 306.61,277.25 435,261 C443.64,259.9075 452.7581,258.4644 461.6159,256.9045 C466.0448,256.1246 470.4087,255.3155 474.6151,254.5065 C475.1409,254.4053 475.6643,254.3042 476.185,254.2031 C476.4453,254.1526 476.705,254.1021 476.964,254.0516 " fill="none" id="MSPP1-CPOMSP2" style="stroke:#181818;stroke-width:1.0;"/></g><!--link CPOP1 to CPOMSP1--><g id="link_CPOP1_CPOMSP1"><path d="M266.1697,244.4473 C266.2813,244.3982 266.3928,244.3488 266.5041,244.2992 C266.7268,244.2 266.9491,244.0999 267.171,243.9988 C268.9458,243.1903 270.6921,242.3224 272.3961,241.3907 C275.8041,239.5273 279.0425,237.4088 282,235 C287.86,230.23 284.32,224.99 290,220 C296.18,214.57 303.5606,210.1863 311.1978,206.6605 C315.0164,204.8976 318.8991,203.3492 322.728,201.9917 C323.6852,201.6524 324.6391,201.325 325.5877,201.0091 " fill="none" id="CPOP1-CPOMSP1" style="stroke:#181818;stroke-width:1.0;"/></g><!--link CPOP1 to CPOMSP2--><g id="link_CPOP1_CPOMSP2"><path d="M266.2828,253.4346 C266.7335,253.4211 267.1862,253.4075 267.641,253.3939 C269.4602,253.3394 271.3122,253.284 273.1948,253.2276 C276.96,253.1148 280.8477,252.9983 284.8403,252.8788 C292.8256,252.6396 301.2308,252.3879 309.9158,252.1277 C327.2859,251.6075 345.7756,251.0538 364.265,250.5 C382.7544,249.9462 401.2434,249.3925 418.6123,248.8723 C427.2967,248.6121 435.7011,248.3604 443.6855,248.1212 C447.6776,248.0017 451.5648,247.8852 455.3295,247.7724 C456.2706,247.7442 457.2041,247.7163 458.1297,247.6885 C458.3611,247.6816 458.592,247.6747 458.8224,247.6678 " fill="none" id="CPOP1-CPOMSP2" style="stroke:#181818;stroke-width:1.0;"/></g><!--link CPOMSP1 to CPOMSP2--><g id="link_CPOMSP1_CPOMSP2"><path d="M390.0804,201.0359 C390.2996,201.11 390.5196,201.1845 390.7404,201.2595 C391.182,201.4096 391.6266,201.5614 392.074,201.7151 C392.9689,202.0225 393.8751,202.3371 394.7913,202.6589 C396.6236,203.3025 398.4955,203.9747 400.395,204.6743 C404.1941,206.0737 408.1038,207.583 412.0288,209.1934 C419.8788,212.4144 427.79,216.04 435,220 C438.9,222.14 439.01,224.03 443,226 C446.5838,227.7675 450.348,229.4002 454.1964,230.9047 C455.1585,231.2808 456.1259,231.649 457.097,232.0092 C457.5826,232.1893 458.0691,232.3675 458.5564,232.5436 C458.6782,232.5877 458.8,232.6316 458.9219,232.6754 " fill="none" id="CPOMSP1-CPOMSP2" style="stroke:#181818;stroke-width:1.0;"/></g></g></svg>