<?xml version="1.0" encoding="us-ascii" standalone="no"?><svg xmlns="http://www.w3.org/2000/svg" xmlns:xlink="http://www.w3.org/1999/xlink" contentStyleType="text/css" height="136px" preserveAspectRatio="none" style="width:294px;height:136px;background:#FFFFFF;" version="1.1" viewBox="0 0 294 136" width="294px" zoomAndPan="magnify"><defs/><g><!--cluster eMSPP--><g id="cluster_eMSPP"><rect fill="none" height="123" rx="4" ry="4" style="stroke:#181818;stroke-width:1.0;" width="104" x="7" y="7"/><text fill="#000000" font-family="sans-serif" font-size="14" font-weight="bold" lengthAdjust="spacing" textLength="80" x="19" y="22.5352">PLATFORM</text></g><!--cluster CPOP--><g id="cluster_CPOP"><rect fill="none" height="123" rx="4" ry="4" style="stroke:#181818;stroke-width:1.0;" width="97" x="191" y="7"/><text fill="#000000" font-family="sans-serif" font-size="14" font-weight="bold" lengthAdjust="spacing" textLength="80" x="199.5" y="22.5352">PLATFORM</text></g><!--entity eMSP--><g id="elem_eMSP"><rect fill="#F1F1F1" height="36.4883" rx="4" ry="4" style="stroke:#181818;stroke-width:0.5;" width="56" x="31" y="49.76"/><text fill="#000000" font-family="sans-serif" font-size="14" lengthAdjust="spacing" textLength="36" x="41" y="73.2952">eMSP</text></g><!--entity CPO--><g id="elem_CPO"><rect fill="#F1F1F1" height="36.4883" rx="4" ry="4" style="stroke:#181818;stroke-width:0.5;" width="49" x="215" y="49.76"/><text fill="#000000" font-family="sans-serif" font-size="14" lengthAdjust="spacing" textLength="29" x="225" y="73.2952">CPO</text></g><!--link eMSPP to CPOP--><g id="link_eMSPP_CPOP"><path d="M111.8314,122 C112.4513,122 113.074,122 113.6996,122 C114.9507,122 116.213,122 117.4851,122 C127.6624,122 138.4734,122 149.2838,122 C160.0941,122 170.9037,122 181.0781,122 C183.6218,122 186.1257,122 188.58,122 C189.1936,122 189.8041,122 190.4113,122 C190.5631,122 190.7147,122 190.8661,122 " fill="none" id="eMSPP-CPOP" style="stroke:#181818;stroke-width:1.0;"/><text fill="#000000" font-family="sans-serif" font-size="13" lengthAdjust="spacing" textLength="30" x="136" y="118.5684">OCPI</text></g></g></svg>