<?xml version="1.0" encoding="UTF-8" standalone="no"?><svg xmlns="http://www.w3.org/2000/svg" xmlns:xlink="http://www.w3.org/1999/xlink" contentScriptType="application/ecmascript" contentStyleType="text/css" height="308px" preserveAspectRatio="none" style="width:340px;height:308px;" version="1.1" viewBox="0 0 340 308" width="340px" zoomAndPan="magnify"><defs><filter height="300%" id="fgvl4yzdm755e" width="300%" x="-1" y="-1"><feGaussianBlur result="blurOut" stdDeviation="2.0"/><feColorMatrix in="blurOut" result="blurOut2" type="matrix" values="0 0 0 0 0 0 0 0 0 0 0 0 0 0 0 0 0 0 .4 0"/><feOffset dx="4.0" dy="4.0" in="blurOut2" result="blurOut3"/><feBlend in="SourceGraphic" in2="blurOut3" mode="normal"/></filter></defs><g><!--cluster MSPPP--><rect fill="#FFFFFF" filter="url(#fgvl4yzdm755e)" height="265" rx="4" ry="4" style="stroke: #000000; stroke-width: 1.5;" width="113" x="30" y="32"/><text fill="#000000" font-family="sans-serif" font-size="14" font-weight="bold" lengthAdjust="spacingAndGlyphs" textLength="80" x="46.5" y="47.5352">PLATFORM</text><!--cluster CPOPP--><rect fill="#FFFFFF" filter="url(#fgvl4yzdm755e)" height="194" rx="4" ry="4" style="stroke: #000000; stroke-width: 1.5;" width="106" x="223" y="36"/><text fill="#000000" font-family="sans-serif" font-size="14" font-weight="bold" lengthAdjust="spacingAndGlyphs" textLength="80" x="236" y="51.5352">PLATFORM</text><!--entity eMSP1--><rect fill="#FEFECE" filter="url(#fgvl4yzdm755e)" height="36.4883" rx="4" ry="4" style="stroke: #A80036; stroke-width: 1.5;" width="65" x="54" y="94.76"/><text fill="#000000" font-family="sans-serif" font-size="14" lengthAdjust="spacingAndGlyphs" textLength="45" x="64" y="118.2952">eMSP1</text><!--entity eMSP2--><rect fill="#FEFECE" filter="url(#fgvl4yzdm755e)" height="36.4883" rx="4" ry="4" style="stroke: #A80036; stroke-width: 1.5;" width="65" x="54" y="165.76"/><text fill="#000000" font-family="sans-serif" font-size="14" lengthAdjust="spacingAndGlyphs" textLength="45" x="64" y="189.2952">eMSP2</text><!--entity eMSP3--><rect fill="#FEFECE" filter="url(#fgvl4yzdm755e)" height="36.4883" rx="4" ry="4" style="stroke: #A80036; stroke-width: 1.5;" width="65" x="54" y="236.76"/><text fill="#000000" font-family="sans-serif" font-size="14" lengthAdjust="spacingAndGlyphs" textLength="45" x="64" y="260.2952">eMSP3</text><!--entity CPO1--><rect fill="#FEFECE" filter="url(#fgvl4yzdm755e)" height="36.4883" rx="4" ry="4" style="stroke: #A80036; stroke-width: 1.5;" width="58" x="247" y="98.76"/><text fill="#000000" font-family="sans-serif" font-size="14" lengthAdjust="spacingAndGlyphs" textLength="38" x="257" y="122.2952">CPO1</text><!--entity CPO2--><rect fill="#FEFECE" filter="url(#fgvl4yzdm755e)" height="36.4883" rx="4" ry="4" style="stroke: #A80036; stroke-width: 1.5;" width="58" x="247" y="169.76"/><text fill="#000000" font-family="sans-serif" font-size="14" lengthAdjust="spacingAndGlyphs" textLength="38" x="257" y="193.2952">CPO2</text><!--link MSPPP to CPOPP--><path d="M143.9063,60.2018 C145.2205,60.2299 146.5464,60.2582 147.8827,60.2867 C158.5731,60.515 169.9294,60.7575 181.285,61 C192.6406,61.2425 203.9956,61.485 214.6836,61.7133 C217.3555,61.7704 219.9858,61.8265 222.564,61.8816 " fill="none" id="MSPPP-CPOPP" style="stroke: #A80036; stroke-width: 1.0;"/><text fill="#000000" font-family="sans-serif" font-size="13" lengthAdjust="spacingAndGlyphs" textLength="30" x="168" y="57.5684">OCPI</text><!--link eMSP1 to CPO1--><!--link eMSP3 to CPO2--></g></svg>