<?xml version="1.0" encoding="us-ascii" standalone="no"?><svg xmlns="http://www.w3.org/2000/svg" xmlns:xlink="http://www.w3.org/1999/xlink" contentStyleType="text/css" height="349px" preserveAspectRatio="none" style="width:319px;height:349px;background:#FFFFFF;" version="1.1" viewBox="0 0 319 349" width="319px" zoomAndPan="magnify"><defs/><g><!--cluster CPOMSP1--><g id="cluster_CPOMSP1"><rect fill="none" height="336" rx="4" ry="4" style="stroke:#181818;stroke-width:1.0;" width="113" x="7" y="7"/><text fill="#000000" font-family="sans-serif" font-size="14" font-weight="bold" lengthAdjust="spacing" textLength="80" x="23.5" y="22.5352">PLATFORM</text></g><!--cluster CPOMSP2--><g id="cluster_CPOMSP2"><rect fill="none" height="336" rx="4" ry="4" style="stroke:#181818;stroke-width:1.0;" width="113" x="200" y="7"/><text fill="#000000" font-family="sans-serif" font-size="14" font-weight="bold" lengthAdjust="spacing" textLength="80" x="216.5" y="22.5352">PLATFORM</text></g><!--entity eMSP1--><g id="elem_eMSP1"><rect fill="#F1F1F1" height="36.4883" rx="4" ry="4" style="stroke:#181818;stroke-width:0.5;" width="65" x="31" y="69.76"/><text fill="#000000" font-family="sans-serif" font-size="14" lengthAdjust="spacing" textLength="45" x="41" y="93.2952">eMSP1</text></g><!--entity eMSP2--><g id="elem_eMSP2"><rect fill="#F1F1F1" height="36.4883" rx="4" ry="4" style="stroke:#181818;stroke-width:0.5;" width="65" x="31" y="140.76"/><text fill="#000000" font-family="sans-serif" font-size="14" lengthAdjust="spacing" textLength="45" x="41" y="164.2952">eMSP2</text></g><!--entity CPO1--><g id="elem_CPO1"><rect fill="#F1F1F1" height="36.4883" rx="4" ry="4" style="stroke:#181818;stroke-width:0.5;" width="58" x="34.5" y="211.76"/><text fill="#000000" font-family="sans-serif" font-size="14" lengthAdjust="spacing" textLength="38" x="44.5" y="235.2952">CPO1</text></g><!--entity CPO2--><g id="elem_CPO2"><rect fill="#F1F1F1" height="36.4883" rx="4" ry="4" style="stroke:#181818;stroke-width:0.5;" width="58" x="34.5" y="282.76"/><text fill="#000000" font-family="sans-serif" font-size="14" lengthAdjust="spacing" textLength="38" x="44.5" y="306.2952">CPO2</text></g><!--entity eMSP4--><g id="elem_eMSP4"><rect fill="#F1F1F1" height="36.4883" rx="4" ry="4" style="stroke:#181818;stroke-width:0.5;" width="65" x="224" y="69.76"/><text fill="#000000" font-family="sans-serif" font-size="14" lengthAdjust="spacing" textLength="45" x="234" y="93.2952">eMSP4</text></g><!--entity CPO5--><g id="elem_CPO5"><rect fill="#F1F1F1" height="36.4883" rx="4" ry="4" style="stroke:#181818;stroke-width:0.5;" width="58" x="227.5" y="140.76"/><text fill="#000000" font-family="sans-serif" font-size="14" lengthAdjust="spacing" textLength="38" x="237.5" y="164.2952">CPO5</text></g><!--entity CPO6--><g id="elem_CPO6"><rect fill="#F1F1F1" height="36.4883" rx="4" ry="4" style="stroke:#181818;stroke-width:0.5;" width="58" x="227.5" y="211.76"/><text fill="#000000" font-family="sans-serif" font-size="14" lengthAdjust="spacing" textLength="38" x="237.5" y="235.2952">CPO6</text></g><!--entity CPO7--><g id="elem_CPO7"><rect fill="#F1F1F1" height="36.4883" rx="4" ry="4" style="stroke:#181818;stroke-width:0.5;" width="58" x="227.5" y="282.76"/><text fill="#000000" font-family="sans-serif" font-size="14" lengthAdjust="spacing" textLength="38" x="237.5" y="306.2952">CPO7</text></g><!--link CPOMSP1 to CPOMSP2--><g id="link_CPOMSP1_CPOMSP2"><path d="M120.9571,34 C121.2902,34 121.6242,34 121.9588,34 C123.2976,34 124.6482,34 126.0095,34 C136.8994,34 148.4675,34 160.035,34 C171.6025,34 183.1694,34 194.0568,34 C195.4177,34 196.768,34 198.1064,34 C198.441,34 198.7748,34 199.1079,34 C199.2745,34 199.4408,34 199.607,34 " fill="none" id="CPOMSP1-CPOMSP2" style="stroke:#181818;stroke-width:1.0;"/><text fill="#000000" font-family="sans-serif" font-size="13" lengthAdjust="spacing" textLength="30" x="145" y="30.5684">OCPI</text></g><!--link eMSP1 to eMSP4--><!--link CPO2 to CPO7--></g></svg>