<?xml version="1.0" encoding="us-ascii" standalone="no"?><svg xmlns="http://www.w3.org/2000/svg" xmlns:xlink="http://www.w3.org/1999/xlink" contentStyleType="text/css" height="604px" preserveAspectRatio="none" style="width:495px;height:604px;background:#FFFFFF;" version="1.1" viewBox="0 0 495 604" width="495px" zoomAndPan="magnify"><defs/><g><!--cluster MSP1--><g id="cluster_MSP1"><rect fill="none" height="194" rx="4" ry="4" style="stroke:#181818;stroke-width:1.0;" width="113" x="7" y="7"/><text fill="#000000" font-family="sans-serif" font-size="14" font-weight="bold" lengthAdjust="spacing" textLength="80" x="23.5" y="22.5352">PLATFORM</text></g><!--cluster MSP2--><g id="cluster_MSP2"><rect fill="none" height="194" rx="4" ry="4" style="stroke:#181818;stroke-width:1.0;" width="113" x="7" y="241"/><text fill="#000000" font-family="sans-serif" font-size="14" font-weight="bold" lengthAdjust="spacing" textLength="80" x="23.5" y="256.5352">PLATFORM</text></g><!--cluster MSP3--><g id="cluster_MSP3"><rect fill="none" height="123" rx="4" ry="4" style="stroke:#181818;stroke-width:1.0;" width="113" x="7" y="475"/><text fill="#000000" font-family="sans-serif" font-size="14" font-weight="bold" lengthAdjust="spacing" textLength="80" x="23.5" y="490.5352">PLATFORM</text></g><!--cluster CPOP1--><g id="cluster_CPOP1"><rect fill="none" height="194" rx="4" ry="4" style="stroke:#181818;stroke-width:1.0;" width="113" x="376" y="7"/><text fill="#000000" font-family="sans-serif" font-size="14" font-weight="bold" lengthAdjust="spacing" textLength="80" x="392.5" y="22.5352">PLATFORM</text></g><!--cluster CPOP2--><g id="cluster_CPOP2"><rect fill="none" height="194" rx="4" ry="4" style="stroke:#181818;stroke-width:1.0;" width="106" x="379.5" y="241"/><text fill="#000000" font-family="sans-serif" font-size="14" font-weight="bold" lengthAdjust="spacing" textLength="80" x="392.5" y="256.5352">PLATFORM</text></g><!--cluster CPOP3--><g id="cluster_CPOP3"><rect fill="none" height="123" rx="4" ry="4" style="stroke:#181818;stroke-width:1.0;" width="106" x="379.5" y="475"/><text fill="#000000" font-family="sans-serif" font-size="14" font-weight="bold" lengthAdjust="spacing" textLength="80" x="392.5" y="490.5352">PLATFORM</text></g><!--cluster HUBPL--><g id="cluster_HUBPL"><rect fill="none" height="123" rx="4" ry="4" style="stroke:#181818;stroke-width:1.0;" width="96" x="200" y="312"/><text fill="#000000" font-family="sans-serif" font-size="14" font-weight="bold" lengthAdjust="spacing" textLength="80" x="208" y="327.5352">PLATFORM</text></g><!--entity CPO2--><g id="elem_CPO2"><rect fill="#F1F1F1" height="36.4883" rx="4" ry="4" style="stroke:#181818;stroke-width:0.5;" width="58" x="34.5" y="49.76"/><text fill="#000000" font-family="sans-serif" font-size="14" lengthAdjust="spacing" textLength="38" x="44.5" y="73.2952">CPO2</text></g><!--entity eMSP2--><g id="elem_eMSP2"><rect fill="#F1F1F1" height="36.4883" rx="4" ry="4" style="stroke:#181818;stroke-width:0.5;" width="65" x="31" y="120.76"/><text fill="#000000" font-family="sans-serif" font-size="14" lengthAdjust="spacing" textLength="45" x="41" y="144.2952">eMSP2</text></g><!--entity eMSP3--><g id="elem_eMSP3"><rect fill="#F1F1F1" height="36.4883" rx="4" ry="4" style="stroke:#181818;stroke-width:0.5;" width="65" x="31" y="283.76"/><text fill="#000000" font-family="sans-serif" font-size="14" lengthAdjust="spacing" textLength="45" x="41" y="307.2952">eMSP3</text></g><!--entity eMSP4--><g id="elem_eMSP4"><rect fill="#F1F1F1" height="36.4883" rx="4" ry="4" style="stroke:#181818;stroke-width:0.5;" width="65" x="31" y="354.76"/><text fill="#000000" font-family="sans-serif" font-size="14" lengthAdjust="spacing" textLength="45" x="41" y="378.2952">eMSP4</text></g><!--entity eMSP5--><g id="elem_eMSP5"><rect fill="#F1F1F1" height="36.4883" rx="4" ry="4" style="stroke:#181818;stroke-width:0.5;" width="65" x="31" y="517.76"/><text fill="#000000" font-family="sans-serif" font-size="14" lengthAdjust="spacing" textLength="45" x="41" y="541.2952">eMSP5</text></g><!--entity CPO1--><g id="elem_CPO1"><rect fill="#F1F1F1" height="36.4883" rx="4" ry="4" style="stroke:#181818;stroke-width:0.5;" width="58" x="403.5" y="49.76"/><text fill="#000000" font-family="sans-serif" font-size="14" lengthAdjust="spacing" textLength="38" x="413.5" y="73.2952">CPO1</text></g><!--entity eMSP1--><g id="elem_eMSP1"><rect fill="#F1F1F1" height="36.4883" rx="4" ry="4" style="stroke:#181818;stroke-width:0.5;" width="65" x="400" y="120.76"/><text fill="#000000" font-family="sans-serif" font-size="14" lengthAdjust="spacing" textLength="45" x="410" y="144.2952">eMSP1</text></g><!--entity CPO3--><g id="elem_CPO3"><rect fill="#F1F1F1" height="36.4883" rx="4" ry="4" style="stroke:#181818;stroke-width:0.5;" width="58" x="403.5" y="283.76"/><text fill="#000000" font-family="sans-serif" font-size="14" lengthAdjust="spacing" textLength="38" x="413.5" y="307.2952">CPO3</text></g><!--entity CPO4--><g id="elem_CPO4"><rect fill="#F1F1F1" height="36.4883" rx="4" ry="4" style="stroke:#181818;stroke-width:0.5;" width="58" x="403.5" y="354.76"/><text fill="#000000" font-family="sans-serif" font-size="14" lengthAdjust="spacing" textLength="38" x="413.5" y="378.2952">CPO4</text></g><!--entity CPO5--><g id="elem_CPO5"><rect fill="#F1F1F1" height="36.4883" rx="4" ry="4" style="stroke:#181818;stroke-width:0.5;" width="58" x="403.5" y="517.76"/><text fill="#000000" font-family="sans-serif" font-size="14" lengthAdjust="spacing" textLength="38" x="413.5" y="541.2952">CPO5</text></g><!--entity Hub--><g id="elem_Hub"><rect fill="#F1F1F1" height="36.4883" rx="4" ry="4" style="stroke:#181818;stroke-width:0.5;" width="48" x="224" y="354.76"/><text fill="#000000" font-family="sans-serif" font-size="14" lengthAdjust="spacing" textLength="28" x="234" y="378.2952">Hub</text></g><!--link MSP1 to HUBPL--><g id="link_MSP1_HUBPL"><path d="M74.6697,201.1395 C74.9954,201.4108 75.3272,201.6882 75.665,201.9715 C76.3406,202.5381 77.0399,203.1284 77.7611,203.7417 C79.2034,204.9683 80.7329,206.2864 82.3338,207.689 C85.5356,210.4941 89.0231,213.6372 92.67,217.0613 C107.2575,230.7575 124.395,248.95 136,268 C169.99,323.82 137.21,361.37 184,407 C186.5463,409.4838 189.3997,411.6592 192.4486,413.5646 C193.973,414.5174 195.5463,415.4026 197.1545,416.225 C197.9586,416.6363 198.7714,417.0318 199.5913,417.4123 C199.6937,417.4599 199.7963,417.5072 199.899,417.5543 " fill="none" id="MSP1-HUBPL" style="stroke:#181818;stroke-width:1.0;"/><text fill="#000000" font-family="sans-serif" font-size="13" lengthAdjust="spacing" textLength="30" x="145" y="281.5684">OCPI</text></g><!--link MSP2 to HUBPL--><g id="link_MSP2_HUBPL"><path d="M120.3629,427 C120.6841,427 121.006,427 121.3286,427 C121.9737,427 122.6215,427 123.2719,427 C133.6774,427 144.7309,427 155.7838,427 C166.8366,427 177.8887,427 188.2914,427 C190.8921,427 193.4522,427 195.9616,427 C197.2163,427 198.4583,427 199.6864,427 " fill="none" id="MSP2-HUBPL" style="stroke:#181818;stroke-width:1.0;"/><text fill="#000000" font-family="sans-serif" font-size="13" lengthAdjust="spacing" textLength="30" x="145" y="423.5684">OCPI</text></g><!--link MSP3 to HUBPL--><g id="link_MSP3_HUBPL"><path d="M120.1425,578.3104 C120.2614,578.2616 120.3802,578.2125 120.4989,578.1633 C120.7363,578.0648 120.9733,577.9655 121.21,577.8654 C121.6833,577.6652 122.1551,577.4617 122.6252,577.2548 C123.5654,576.8412 124.4987,576.4143 125.4234,575.9736 C129.1222,574.2109 132.6838,572.2288 136,570 C168.865,547.91 196.2675,512.9225 215.6238,483.085 C225.3019,468.1662 232.9684,454.535 238.3005,444.4472 C239.6335,441.9252 240.8206,439.6247 241.8567,437.581 C242.1158,437.07 242.3654,436.5751 242.6054,436.0968 C242.7255,435.8577 242.8432,435.6227 242.9584,435.3919 C243.0161,435.2765 243.0731,435.1622 243.1296,435.0489 " fill="none" id="MSP3-HUBPL" style="stroke:#181818;stroke-width:1.0;"/><text fill="#000000" font-family="sans-serif" font-size="13" lengthAdjust="spacing" textLength="30" x="145" y="533.5684">OCPI</text></g><!--link HUBPL to CPOP1--><g id="link_HUBPL_CPOP1"><path d="M296.101,417.5543 C296.2037,417.5072 296.3063,417.4599 296.4087,417.4123 C297.2286,417.0318 298.0414,416.6363 298.8455,416.225 C300.4537,415.4026 302.027,414.5174 303.5514,413.5646 C306.6003,411.6592 309.4538,409.4838 312,407 C358.79,361.37 326.01,323.82 360,268 C371.605,248.95 388.7425,230.7575 403.33,217.0613 C406.9769,213.6372 410.4644,210.4941 413.6662,207.689 C415.2671,206.2864 416.7966,204.9683 418.2389,203.7417 C418.9601,203.1284 419.6594,202.5381 420.335,201.9715 C420.6728,201.6882 421.0046,201.4108 421.3303,201.1395 " fill="none" id="HUBPL-CPOP1" style="stroke:#181818;stroke-width:1.0;"/><text fill="#000000" font-family="sans-serif" font-size="13" lengthAdjust="spacing" textLength="30" x="321" y="281.5684">OCPI</text></g><!--link HUBPL to CPOP2--><g id="link_HUBPL_CPOP2"><path d="M296.3732,427 C297.6017,427 298.8442,427 300.0993,427 C302.6096,427 305.1705,427 307.7719,427 C318.1774,427 329.2309,427 340.2838,427 C351.3366,427 362.3887,427 372.7914,427 C374.0918,427 375.382,427 376.6608,427 C377.3001,427 377.9367,427 378.5702,427 C378.7286,427 378.8868,427 379.0448,427 " fill="none" id="HUBPL-CPOP2" style="stroke:#181818;stroke-width:1.0;"/><text fill="#000000" font-family="sans-serif" font-size="13" lengthAdjust="spacing" textLength="30" x="321" y="423.5684">OCPI</text></g><!--link HUBPL to CPOP3--><g id="link_HUBPL_CPOP3"><path d="M252.8704,435.0489 C252.9269,435.1622 252.9839,435.2765 253.0416,435.3919 C253.1568,435.6227 253.2745,435.8577 253.3946,436.0968 C253.6346,436.5751 253.8842,437.07 254.1433,437.581 C255.1794,439.6247 256.3665,441.9252 257.6995,444.4472 C263.0316,454.535 270.6981,468.1662 280.3762,483.085 C299.7325,512.9225 327.135,547.91 360,570 C363.3162,572.2288 366.8778,574.2109 370.5766,575.9736 C372.4261,576.8549 374.3098,577.6814 376.2143,578.4563 C377.1666,578.8438 378.1241,579.2184 379.0851,579.5805 C379.2052,579.6258 379.3254,579.6709 379.4456,579.7157 " fill="none" id="HUBPL-CPOP3" style="stroke:#181818;stroke-width:1.0;"/><text fill="#000000" font-family="sans-serif" font-size="13" lengthAdjust="spacing" textLength="30" x="321" y="533.5684">OCPI</text></g></g></svg>