<?xml version="1.0" encoding="UTF-8" standalone="no"?><svg xmlns="http://www.w3.org/2000/svg" xmlns:xlink="http://www.w3.org/1999/xlink" contentScriptType="application/ecmascript" contentStyleType="text/css" height="379px" preserveAspectRatio="none" style="width:347px;height:379px;" version="1.1" viewBox="0 0 347 379" width="347px" zoomAndPan="magnify"><defs><filter height="300%" id="fuf7qm4hck23" width="300%" x="-1" y="-1"><feGaussianBlur result="blurOut" stdDeviation="2.0"/><feColorMatrix in="blurOut" result="blurOut2" type="matrix" values="0 0 0 0 0 0 0 0 0 0 0 0 0 0 0 0 0 0 .4 0"/><feOffset dx="4.0" dy="4.0" in="blurOut2" result="blurOut3"/><feBlend in="SourceGraphic" in2="blurOut3" mode="normal"/></filter></defs><g><!--cluster CPOMSP1--><rect fill="#FFFFFF" filter="url(#fuf7qm4hck23)" height="336" rx="4" ry="4" style="stroke: #000000; stroke-width: 1.5;" width="113" x="30" y="32"/><text fill="#000000" font-family="sans-serif" font-size="14" font-weight="bold" lengthAdjust="spacingAndGlyphs" textLength="80" x="46.5" y="47.5352">PLATFORM</text><!--cluster CPOMSP2--><rect fill="#FFFFFF" filter="url(#fuf7qm4hck23)" height="336" rx="4" ry="4" style="stroke: #000000; stroke-width: 1.5;" width="113" x="223" y="32"/><text fill="#000000" font-family="sans-serif" font-size="14" font-weight="bold" lengthAdjust="spacingAndGlyphs" textLength="80" x="239.5" y="47.5352">PLATFORM</text><!--entity eMSP1--><rect fill="#FEFECE" filter="url(#fuf7qm4hck23)" height="36.4883" rx="4" ry="4" style="stroke: #A80036; stroke-width: 1.5;" width="65" x="54" y="94.76"/><text fill="#000000" font-family="sans-serif" font-size="14" lengthAdjust="spacingAndGlyphs" textLength="45" x="64" y="118.2952">eMSP1</text><!--entity eMSP2--><rect fill="#FEFECE" filter="url(#fuf7qm4hck23)" height="36.4883" rx="4" ry="4" style="stroke: #A80036; stroke-width: 1.5;" width="65" x="54" y="165.76"/><text fill="#000000" font-family="sans-serif" font-size="14" lengthAdjust="spacingAndGlyphs" textLength="45" x="64" y="189.2952">eMSP2</text><!--entity CPO1--><rect fill="#FEFECE" filter="url(#fuf7qm4hck23)" height="36.4883" rx="4" ry="4" style="stroke: #A80036; stroke-width: 1.5;" width="58" x="57.5" y="236.76"/><text fill="#000000" font-family="sans-serif" font-size="14" lengthAdjust="spacingAndGlyphs" textLength="38" x="67.5" y="260.2952">CPO1</text><!--entity CPO2--><rect fill="#FEFECE" filter="url(#fuf7qm4hck23)" height="36.4883" rx="4" ry="4" style="stroke: #A80036; stroke-width: 1.5;" width="58" x="57.5" y="307.76"/><text fill="#000000" font-family="sans-serif" font-size="14" lengthAdjust="spacingAndGlyphs" textLength="38" x="67.5" y="331.2952">CPO2</text><!--entity eMSP4--><rect fill="#FEFECE" filter="url(#fuf7qm4hck23)" height="36.4883" rx="4" ry="4" style="stroke: #A80036; stroke-width: 1.5;" width="65" x="247" y="94.76"/><text fill="#000000" font-family="sans-serif" font-size="14" lengthAdjust="spacingAndGlyphs" textLength="45" x="257" y="118.2952">eMSP4</text><!--entity CPO5--><rect fill="#FEFECE" filter="url(#fuf7qm4hck23)" height="36.4883" rx="4" ry="4" style="stroke: #A80036; stroke-width: 1.5;" width="58" x="250.5" y="165.76"/><text fill="#000000" font-family="sans-serif" font-size="14" lengthAdjust="spacingAndGlyphs" textLength="38" x="260.5" y="189.2952">CPO5</text><!--entity CPO6--><rect fill="#FEFECE" filter="url(#fuf7qm4hck23)" height="36.4883" rx="4" ry="4" style="stroke: #A80036; stroke-width: 1.5;" width="58" x="250.5" y="236.76"/><text fill="#000000" font-family="sans-serif" font-size="14" lengthAdjust="spacingAndGlyphs" textLength="38" x="260.5" y="260.2952">CPO6</text><!--entity CPO7--><rect fill="#FEFECE" filter="url(#fuf7qm4hck23)" height="36.4883" rx="4" ry="4" style="stroke: #A80036; stroke-width: 1.5;" width="58" x="250.5" y="307.76"/><text fill="#000000" font-family="sans-serif" font-size="14" lengthAdjust="spacingAndGlyphs" textLength="38" x="260.5" y="331.2952">CPO7</text><!--link CPOMSP1 to CPOMSP2--><path d="M143.9571,59 C144.2902,59 144.6242,59 144.9588,59 C146.2976,59 147.6482,59 149.0095,59 C159.8994,59 171.4675,59 183.035,59 C194.6025,59 206.1694,59 217.0568,59 C218.4177,59 219.768,59 221.1064,59 C221.441,59 221.7748,59 222.1079,59 C222.2745,59 222.4408,59 222.607,59 " fill="none" id="CPOMSP1-CPOMSP2" style="stroke: #A80036; stroke-width: 1.0;"/><text fill="#000000" font-family="sans-serif" font-size="13" lengthAdjust="spacingAndGlyphs" textLength="30" x="168" y="55.5684">OCPI</text><!--link eMSP1 to eMSP4--><!--link CPO2 to CPO7--></g></svg>