<?xml version="1.0" encoding="UTF-8" standalone="no"?><svg xmlns="http://www.w3.org/2000/svg" xmlns:xlink="http://www.w3.org/1999/xlink" contentScriptType="application/ecmascript" contentStyleType="text/css" height="257px" preserveAspectRatio="none" style="width:347px;height:257px;" version="1.1" viewBox="0 0 347 257" width="347px" zoomAndPan="magnify"><defs><filter height="300%" id="f1bjzop427fszh" width="300%" x="-1" y="-1"><feGaussianBlur result="blurOut" stdDeviation="2.0"/><feColorMatrix in="blurOut" result="blurOut2" type="matrix" values="0 0 0 0 0 0 0 0 0 0 0 0 0 0 0 0 0 0 .4 0"/><feOffset dx="4.0" dy="4.0" in="blurOut2" result="blurOut3"/><feBlend in="SourceGraphic" in2="blurOut3" mode="normal"/></filter></defs><g><!--cluster CPOMSP1--><rect fill="#FFFFFF" filter="url(#f1bjzop427fszh)" height="212" rx="4" ry="4" style="stroke: #000000; stroke-width: 1.5;" width="113" x="30" y="34"/><text fill="#000000" font-family="sans-serif" font-size="14" font-weight="bold" lengthAdjust="spacingAndGlyphs" textLength="80" x="46.5" y="49.5352">PLATFORM</text><!--cluster CPOMSP2--><rect fill="#FFFFFF" filter="url(#f1bjzop427fszh)" height="194" rx="4" ry="4" style="stroke: #000000; stroke-width: 1.5;" width="113" x="223" y="32"/><text fill="#000000" font-family="sans-serif" font-size="14" font-weight="bold" lengthAdjust="spacingAndGlyphs" textLength="80" x="239.5" y="47.5352">PLATFORM</text><!--entity eMSP1--><rect fill="#FEFECE" filter="url(#f1bjzop427fszh)" height="36.4883" rx="4" ry="4" style="stroke: #A80036; stroke-width: 1.5;" width="65" x="54" y="96.76"/><text fill="#000000" font-family="sans-serif" font-size="14" lengthAdjust="spacingAndGlyphs" textLength="45" x="64" y="120.2952">eMSP1</text><!--entity CPO1--><rect fill="#FEFECE" filter="url(#f1bjzop427fszh)" height="36.4883" rx="4" ry="4" style="stroke: #A80036; stroke-width: 1.5;" width="58" x="57.5" y="185.76"/><text fill="#000000" font-family="sans-serif" font-size="14" lengthAdjust="spacingAndGlyphs" textLength="38" x="67.5" y="209.2952">CPO1</text><!--entity eMSP2--><rect fill="#FEFECE" filter="url(#f1bjzop427fszh)" height="36.4883" rx="4" ry="4" style="stroke: #A80036; stroke-width: 1.5;" width="65" x="247" y="94.76"/><text fill="#000000" font-family="sans-serif" font-size="14" lengthAdjust="spacingAndGlyphs" textLength="45" x="257" y="118.2952">eMSP2</text><!--entity CPO2--><rect fill="#FEFECE" filter="url(#f1bjzop427fszh)" height="36.4883" rx="4" ry="4" style="stroke: #A80036; stroke-width: 1.5;" width="58" x="250.5" y="165.76"/><text fill="#000000" font-family="sans-serif" font-size="14" lengthAdjust="spacingAndGlyphs" textLength="38" x="260.5" y="189.2952">CPO2</text><!--link CPOMSP1 to CPOMSP2--><path d="M143.9571,60.4096 C144.2902,60.4061 144.6242,60.4026 144.9588,60.3991 C146.2976,60.3851 147.6482,60.3709 149.0095,60.3566 C159.8994,60.2425 171.4675,60.1213 183.035,60 C194.6025,59.8788 206.1694,59.7575 217.0568,59.6434 C218.4177,59.6291 219.768,59.6149 221.1064,59.6009 C221.441,59.5974 221.7748,59.5939 222.1079,59.5904 C222.2745,59.5887 222.4408,59.5869 222.607,59.5852 " fill="none" id="CPOMSP1-CPOMSP2" style="stroke: #A80036; stroke-width: 1.0;"/><text fill="#000000" font-family="sans-serif" font-size="13" lengthAdjust="spacingAndGlyphs" textLength="30" x="168" y="56.5684">OCPI</text><!--link CPO1 to CPO1--><!--link eMSP1 to eMSP2--></g></svg>