<?xml version="1.0" encoding="us-ascii" standalone="no"?><svg xmlns="http://www.w3.org/2000/svg" xmlns:xlink="http://www.w3.org/1999/xlink" contentStyleType="text/css" height="604px" preserveAspectRatio="none" style="width:495px;height:604px;background:#FFFFFF;" version="1.1" viewBox="0 0 495 604" width="495px" zoomAndPan="magnify"><defs/><g><!--cluster MSP1--><g id="cluster_MSP1"><rect fill="none" height="194" rx="4" ry="4" style="stroke:#181818;stroke-width:1.0;" width="113" x="7" y="404"/><text fill="#000000" font-family="sans-serif" font-size="14" font-weight="bold" lengthAdjust="spacing" textLength="80" x="23.5" y="419.5352">PLATFORM</text></g><!--cluster MSP2--><g id="cluster_MSP2"><rect fill="none" height="194" rx="4" ry="4" style="stroke:#181818;stroke-width:1.0;" width="113" x="7" y="170"/><text fill="#000000" font-family="sans-serif" font-size="14" font-weight="bold" lengthAdjust="spacing" textLength="80" x="23.5" y="185.5352">PLATFORM</text></g><!--cluster MSP3--><g id="cluster_MSP3"><rect fill="none" height="123" rx="4" ry="4" style="stroke:#181818;stroke-width:1.0;" width="113" x="7" y="7"/><text fill="#000000" font-family="sans-serif" font-size="14" font-weight="bold" lengthAdjust="spacing" textLength="80" x="23.5" y="22.5352">PLATFORM</text></g><!--cluster CPOP1--><g id="cluster_CPOP1"><rect fill="none" height="194" rx="4" ry="4" style="stroke:#181818;stroke-width:1.0;" width="113" x="376" y="404"/><text fill="#000000" font-family="sans-serif" font-size="14" font-weight="bold" lengthAdjust="spacing" textLength="80" x="392.5" y="419.5352">PLATFORM</text></g><!--cluster CPOP2--><g id="cluster_CPOP2"><rect fill="none" height="194" rx="4" ry="4" style="stroke:#181818;stroke-width:1.0;" width="106" x="379.5" y="170"/><text fill="#000000" font-family="sans-serif" font-size="14" font-weight="bold" lengthAdjust="spacing" textLength="80" x="392.5" y="185.5352">PLATFORM</text></g><!--cluster CPOP3--><g id="cluster_CPOP3"><rect fill="none" height="123" rx="4" ry="4" style="stroke:#181818;stroke-width:1.0;" width="106" x="379.5" y="7"/><text fill="#000000" font-family="sans-serif" font-size="14" font-weight="bold" lengthAdjust="spacing" textLength="80" x="392.5" y="22.5352">PLATFORM</text></g><!--cluster HUB_PLATFORM--><g id="cluster_HUB_PLATFORM"><rect fill="none" height="123" rx="4" ry="4" style="stroke:#181818;stroke-width:1.0;" width="96" x="200" y="241"/><text fill="#000000" font-family="sans-serif" font-size="14" font-weight="bold" lengthAdjust="spacing" textLength="80" x="208" y="256.5352">PLATFORM</text></g><!--entity CPO2--><g id="elem_CPO2"><rect fill="#F1F1F1" height="36.4883" rx="4" ry="4" style="stroke:#181818;stroke-width:0.5;" width="58" x="34.5" y="446.76"/><text fill="#000000" font-family="sans-serif" font-size="14" lengthAdjust="spacing" textLength="38" x="44.5" y="470.2952">CPO2</text></g><!--entity eMSP2--><g id="elem_eMSP2"><rect fill="#F1F1F1" height="36.4883" rx="4" ry="4" style="stroke:#181818;stroke-width:0.5;" width="65" x="31" y="517.76"/><text fill="#000000" font-family="sans-serif" font-size="14" lengthAdjust="spacing" textLength="45" x="41" y="541.2952">eMSP2</text></g><!--entity eMSP3--><g id="elem_eMSP3"><rect fill="#F1F1F1" height="36.4883" rx="4" ry="4" style="stroke:#181818;stroke-width:0.5;" width="65" x="31" y="212.76"/><text fill="#000000" font-family="sans-serif" font-size="14" lengthAdjust="spacing" textLength="45" x="41" y="236.2952">eMSP3</text></g><!--entity eMSP4--><g id="elem_eMSP4"><rect fill="#F1F1F1" height="36.4883" rx="4" ry="4" style="stroke:#181818;stroke-width:0.5;" width="65" x="31" y="283.76"/><text fill="#000000" font-family="sans-serif" font-size="14" lengthAdjust="spacing" textLength="45" x="41" y="307.2952">eMSP4</text></g><!--entity eMSP5--><g id="elem_eMSP5"><rect fill="#F1F1F1" height="36.4883" rx="4" ry="4" style="stroke:#181818;stroke-width:0.5;" width="65" x="31" y="49.76"/><text fill="#000000" font-family="sans-serif" font-size="14" lengthAdjust="spacing" textLength="45" x="41" y="73.2952">eMSP5</text></g><!--entity CPO1--><g id="elem_CPO1"><rect fill="#F1F1F1" height="36.4883" rx="4" ry="4" style="stroke:#181818;stroke-width:0.5;" width="58" x="403.5" y="446.76"/><text fill="#000000" font-family="sans-serif" font-size="14" lengthAdjust="spacing" textLength="38" x="413.5" y="470.2952">CPO1</text></g><!--entity eMSP1--><g id="elem_eMSP1"><rect fill="#F1F1F1" height="36.4883" rx="4" ry="4" style="stroke:#181818;stroke-width:0.5;" width="65" x="400" y="517.76"/><text fill="#000000" font-family="sans-serif" font-size="14" lengthAdjust="spacing" textLength="45" x="410" y="541.2952">eMSP1</text></g><!--entity CPO3--><g id="elem_CPO3"><rect fill="#F1F1F1" height="36.4883" rx="4" ry="4" style="stroke:#181818;stroke-width:0.5;" width="58" x="403.5" y="212.76"/><text fill="#000000" font-family="sans-serif" font-size="14" lengthAdjust="spacing" textLength="38" x="413.5" y="236.2952">CPO3</text></g><!--entity CPO4--><g id="elem_CPO4"><rect fill="#F1F1F1" height="36.4883" rx="4" ry="4" style="stroke:#181818;stroke-width:0.5;" width="58" x="403.5" y="283.76"/><text fill="#000000" font-family="sans-serif" font-size="14" lengthAdjust="spacing" textLength="38" x="413.5" y="307.2952">CPO4</text></g><!--entity CPO5--><g id="elem_CPO5"><rect fill="#F1F1F1" height="36.4883" rx="4" ry="4" style="stroke:#181818;stroke-width:0.5;" width="58" x="403.5" y="49.76"/><text fill="#000000" font-family="sans-serif" font-size="14" lengthAdjust="spacing" textLength="38" x="413.5" y="73.2952">CPO5</text></g><!--entity Hub--><g id="elem_Hub"><rect fill="#F1F1F1" height="36.4883" rx="4" ry="4" style="stroke:#181818;stroke-width:0.5;" width="48" x="224" y="283.76"/><text fill="#000000" font-family="sans-serif" font-size="14" lengthAdjust="spacing" textLength="28" x="234" y="307.2952">Hub</text></g><!--link MSP1 to HUB_PLATFORM--><g id="link_MSP1_HUB_PLATFORM"><path d="M120.0839,579.4892 C120.2006,579.4379 120.3173,579.3863 120.4338,579.3344 C122.2983,578.5052 124.1325,577.6116 125.9217,576.6487 C129.5002,574.723 132.8988,572.52 136,570 C176.92,536.735 204.45,484.375 221.8575,439.775 C230.5613,417.475 236.7344,397.115 240.7853,382.0519 C241.798,378.2861 242.6781,374.8514 243.432,371.8001 C243.8089,370.2745 244.1543,368.8448 244.4689,367.5175 C244.6262,366.8539 244.7758,366.2158 244.9178,365.6042 C244.9888,365.2984 245.0579,364.9992 245.1251,364.7067 C245.1587,364.5604 245.1919,364.4159 245.2245,364.273 " fill="none" id="MSP1-HUB_PLATFORM" style="stroke:#181818;stroke-width:1.0;"/><text fill="#000000" font-family="sans-serif" font-size="13" lengthAdjust="spacing" textLength="30" x="145" y="524.5684">OCPI</text></g><!--link MSP2 to HUB_PLATFORM--><g id="link_MSP2_HUB_PLATFORM"><path d="M120.3629,356 C120.6841,356 121.006,356 121.3286,356 C121.9737,356 122.6215,356 123.2719,356 C133.6774,356 144.7309,356 155.7838,356 C166.8366,356 177.8887,356 188.2914,356 C190.8921,356 193.4522,356 195.9616,356 C197.2163,356 198.4583,356 199.6864,356 " fill="none" id="MSP2-HUB_PLATFORM" style="stroke:#181818;stroke-width:1.0;"/><text fill="#000000" font-family="sans-serif" font-size="13" lengthAdjust="spacing" textLength="30" x="145" y="352.5684">OCPI</text></g><!--link MSP3 to HUB_PLATFORM--><g id="link_MSP3_HUB_PLATFORM"><path d="M74.6697,130.1395 C74.9954,130.4108 75.3272,130.6882 75.665,130.9715 C76.3406,131.5381 77.0399,132.1284 77.7611,132.7417 C79.2034,133.9683 80.7329,135.2864 82.3338,136.689 C85.5356,139.4941 89.0231,142.6372 92.67,146.0613 C107.2575,159.7575 124.395,177.95 136,197 C169.99,252.82 137.21,290.37 184,336 C186.5463,338.4838 189.3997,340.6592 192.4486,342.5646 C193.973,343.5174 195.5463,344.4026 197.1545,345.225 C197.9586,345.6363 198.7714,346.0318 199.5913,346.4123 C199.6937,346.4599 199.7963,346.5072 199.899,346.5543 " fill="none" id="MSP3-HUB_PLATFORM" style="stroke:#181818;stroke-width:1.0;"/><text fill="#000000" font-family="sans-serif" font-size="13" lengthAdjust="spacing" textLength="30" x="145" y="210.5684">OCPI</text></g><!--link HUB_PLATFORM to CPOP1--><g id="link_HUB_PLATFORM_CPOP1"><path d="M250.7755,364.273 C250.8081,364.4159 250.8413,364.5604 250.8749,364.7067 C250.9421,364.9992 251.0112,365.2984 251.0822,365.6042 C251.2242,366.2158 251.3738,366.8539 251.5311,367.5175 C251.8457,368.8448 252.1911,370.2745 252.568,371.8001 C253.3219,374.8514 254.202,378.2861 255.2147,382.0519 C259.2656,397.115 265.4388,417.475 274.1425,439.775 C291.55,484.375 319.08,536.735 360,570 C363.1013,572.52 366.4998,574.723 370.0783,576.6487 C371.8675,577.6116 373.7017,578.5052 375.5662,579.3344 C375.6827,579.3863 375.7994,579.4379 375.9161,579.4892 " fill="none" id="HUB_PLATFORM-CPOP1" style="stroke:#181818;stroke-width:1.0;"/><text fill="#000000" font-family="sans-serif" font-size="13" lengthAdjust="spacing" textLength="30" x="321" y="524.5684">OCPI</text></g><!--link HUB_PLATFORM to CPOP2--><g id="link_HUB_PLATFORM_CPOP2"><path d="M296.3732,356 C297.6017,356 298.8442,356 300.0993,356 C302.6096,356 305.1705,356 307.7719,356 C318.1774,356 329.2309,356 340.2838,356 C351.3366,356 362.3887,356 372.7914,356 C374.0918,356 375.382,356 376.6608,356 C377.3001,356 377.9367,356 378.5702,356 C378.7286,356 378.8868,356 379.0448,356 " fill="none" id="HUB_PLATFORM-CPOP2" style="stroke:#181818;stroke-width:1.0;"/><text fill="#000000" font-family="sans-serif" font-size="13" lengthAdjust="spacing" textLength="30" x="321" y="352.5684">OCPI</text></g><!--link HUB_PLATFORM to CPOP3--><g id="link_HUB_PLATFORM_CPOP3"><path d="M296.101,346.5543 C296.2037,346.5072 296.3063,346.4599 296.4087,346.4123 C297.2286,346.0318 298.0414,345.6363 298.8455,345.225 C300.4537,344.4026 302.027,343.5174 303.5514,342.5646 C306.6003,340.6592 309.4538,338.4838 312,336 C358.79,290.37 326.01,252.82 360,197 C371.605,177.95 388.7425,159.7575 403.33,146.0613 C406.9769,142.6372 410.4644,139.4941 413.6662,136.689 C415.2671,135.2864 416.7966,133.9683 418.2389,132.7417 C418.9601,132.1284 419.6594,131.5381 420.335,130.9715 C420.6728,130.6882 421.0046,130.4108 421.3303,130.1395 " fill="none" id="HUB_PLATFORM-CPOP3" style="stroke:#181818;stroke-width:1.0;"/><text fill="#000000" font-family="sans-serif" font-size="13" lengthAdjust="spacing" textLength="30" x="321" y="210.5684">OCPI</text></g><!--link MSP1 to CPOP1--><g id="link_MSP1_CPOP1"><path d="M120.298,590 C121.3457,590 122.4045,590 123.4739,590 C157.6959,590 202.8581,590 248.0187,590 C293.1794,590 338.3384,590 372.5542,590 C373.6235,590 374.682,590 375.7296,590 " fill="none" id="MSP1-CPOP1" style="stroke:#181818;stroke-width:1.0;"/></g><!--link MSP3 to CPOP3--><g id="link_MSP3_CPOP3"><path d="M120.298,122 C121.3457,122 122.4045,122 123.4739,122 C157.6959,122 202.8581,122 248.0187,122 C293.1794,122 338.3384,122 372.5542,122 C374.6927,122 376.7884,122 378.8388,122 " fill="none" id="MSP3-CPOP3" style="stroke:#181818;stroke-width:1.0;"/></g></g></svg>