<?xml version="1.0" encoding="UTF-8" standalone="no"?><svg xmlns="http://www.w3.org/2000/svg" xmlns:xlink="http://www.w3.org/1999/xlink" contentScriptType="application/ecmascript" contentStyleType="text/css" height="166px" preserveAspectRatio="none" style="width:322px;height:166px;" version="1.1" viewBox="0 0 322 166" width="322px" zoomAndPan="magnify"><defs><filter height="300%" id="fli3oj92s0rlv" width="300%" x="-1" y="-1"><feGaussianBlur result="blurOut" stdDeviation="2.0"/><feColorMatrix in="blurOut" result="blurOut2" type="matrix" values="0 0 0 0 0 0 0 0 0 0 0 0 0 0 0 0 0 0 .4 0"/><feOffset dx="4.0" dy="4.0" in="blurOut2" result="blurOut3"/><feBlend in="SourceGraphic" in2="blurOut3" mode="normal"/></filter></defs><g><!--cluster eMSPP--><rect fill="#FFFFFF" filter="url(#fli3oj92s0rlv)" height="123" rx="4" ry="4" style="stroke: #000000; stroke-width: 1.5;" width="104" x="30" y="32"/><text fill="#000000" font-family="sans-serif" font-size="14" font-weight="bold" lengthAdjust="spacingAndGlyphs" textLength="80" x="42" y="47.5352">PLATFORM</text><!--cluster CPOP--><rect fill="#FFFFFF" filter="url(#fli3oj92s0rlv)" height="123" rx="4" ry="4" style="stroke: #000000; stroke-width: 1.5;" width="97" x="214" y="32"/><text fill="#000000" font-family="sans-serif" font-size="14" font-weight="bold" lengthAdjust="spacingAndGlyphs" textLength="80" x="222.5" y="47.5352">PLATFORM</text><!--entity eMSP--><rect fill="#FEFECE" filter="url(#fli3oj92s0rlv)" height="36.4883" rx="4" ry="4" style="stroke: #A80036; stroke-width: 1.5;" width="56" x="54" y="74.76"/><text fill="#000000" font-family="sans-serif" font-size="14" lengthAdjust="spacingAndGlyphs" textLength="36" x="64" y="98.2952">eMSP</text><!--entity CPO--><rect fill="#FEFECE" filter="url(#fli3oj92s0rlv)" height="36.4883" rx="4" ry="4" style="stroke: #A80036; stroke-width: 1.5;" width="49" x="238" y="74.76"/><text fill="#000000" font-family="sans-serif" font-size="14" lengthAdjust="spacingAndGlyphs" textLength="29" x="248" y="98.2952">CPO</text><!--link eMSPP to CPOP--><path d="M134.8314,147 C135.4513,147 136.074,147 136.6996,147 C137.9507,147 139.213,147 140.4851,147 C150.6624,147 161.4734,147 172.2838,147 C183.0941,147 193.9037,147 204.0781,147 C206.6218,147 209.1257,147 211.58,147 C212.1936,147 212.8041,147 213.4113,147 C213.5631,147 213.7147,147 213.8661,147 " fill="none" id="eMSPP-CPOP" style="stroke: #A80036; stroke-width: 1.0;"/><text fill="#000000" font-family="sans-serif" font-size="13" lengthAdjust="spacingAndGlyphs" textLength="30" x="159" y="143.5684">OCPI</text></g></svg>