<?xml version="1.0" encoding="UTF-8" standalone="no"?><svg xmlns="http://www.w3.org/2000/svg" xmlns:xlink="http://www.w3.org/1999/xlink" contentScriptType="application/ecmascript" contentStyleType="text/css" height="634px" preserveAspectRatio="none" style="width:523px;height:634px;" version="1.1" viewBox="0 0 523 634" width="523px" zoomAndPan="magnify"><defs><filter height="300%" id="f1ecnlh3q0a57l" width="300%" x="-1" y="-1"><feGaussianBlur result="blurOut" stdDeviation="2.0"/><feColorMatrix in="blurOut" result="blurOut2" type="matrix" values="0 0 0 0 0 0 0 0 0 0 0 0 0 0 0 0 0 0 .4 0"/><feOffset dx="4.0" dy="4.0" in="blurOut2" result="blurOut3"/><feBlend in="SourceGraphic" in2="blurOut3" mode="normal"/></filter></defs><g><!--cluster MSP1--><rect fill="#FFFFFF" filter="url(#f1ecnlh3q0a57l)" height="194" rx="4" ry="4" style="stroke: #000000; stroke-width: 1.5;" width="113" x="30" y="32"/><text fill="#000000" font-family="sans-serif" font-size="14" font-weight="bold" lengthAdjust="spacingAndGlyphs" textLength="80" x="46.5" y="47.5352">PLATFORM</text><!--cluster MSP2--><rect fill="#FFFFFF" filter="url(#f1ecnlh3q0a57l)" height="194" rx="4" ry="4" style="stroke: #000000; stroke-width: 1.5;" width="113" x="30" y="266"/><text fill="#000000" font-family="sans-serif" font-size="14" font-weight="bold" lengthAdjust="spacingAndGlyphs" textLength="80" x="46.5" y="281.5352">PLATFORM</text><!--cluster MSP3--><rect fill="#FFFFFF" filter="url(#f1ecnlh3q0a57l)" height="123" rx="4" ry="4" style="stroke: #000000; stroke-width: 1.5;" width="113" x="30" y="500"/><text fill="#000000" font-family="sans-serif" font-size="14" font-weight="bold" lengthAdjust="spacingAndGlyphs" textLength="80" x="46.5" y="515.5352">PLATFORM</text><!--cluster CPOP1--><rect fill="#FFFFFF" filter="url(#f1ecnlh3q0a57l)" height="194" rx="4" ry="4" style="stroke: #000000; stroke-width: 1.5;" width="113" x="399" y="32"/><text fill="#000000" font-family="sans-serif" font-size="14" font-weight="bold" lengthAdjust="spacingAndGlyphs" textLength="80" x="415.5" y="47.5352">PLATFORM</text><!--cluster CPOP2--><rect fill="#FFFFFF" filter="url(#f1ecnlh3q0a57l)" height="194" rx="4" ry="4" style="stroke: #000000; stroke-width: 1.5;" width="106" x="402.5" y="266"/><text fill="#000000" font-family="sans-serif" font-size="14" font-weight="bold" lengthAdjust="spacingAndGlyphs" textLength="80" x="415.5" y="281.5352">PLATFORM</text><!--cluster CPOP3--><rect fill="#FFFFFF" filter="url(#f1ecnlh3q0a57l)" height="123" rx="4" ry="4" style="stroke: #000000; stroke-width: 1.5;" width="106" x="402.5" y="500"/><text fill="#000000" font-family="sans-serif" font-size="14" font-weight="bold" lengthAdjust="spacingAndGlyphs" textLength="80" x="415.5" y="515.5352">PLATFORM</text><!--cluster HUBPL--><rect fill="#FFFFFF" filter="url(#f1ecnlh3q0a57l)" height="123" rx="4" ry="4" style="stroke: #000000; stroke-width: 1.5;" width="96" x="223" y="337"/><text fill="#000000" font-family="sans-serif" font-size="14" font-weight="bold" lengthAdjust="spacingAndGlyphs" textLength="80" x="231" y="352.5352">PLATFORM</text><!--entity CPO2--><rect fill="#FEFECE" filter="url(#f1ecnlh3q0a57l)" height="36.4883" rx="4" ry="4" style="stroke: #A80036; stroke-width: 1.5;" width="58" x="57.5" y="74.76"/><text fill="#000000" font-family="sans-serif" font-size="14" lengthAdjust="spacingAndGlyphs" textLength="38" x="67.5" y="98.2952">CPO2</text><!--entity eMSP2--><rect fill="#FEFECE" filter="url(#f1ecnlh3q0a57l)" height="36.4883" rx="4" ry="4" style="stroke: #A80036; stroke-width: 1.5;" width="65" x="54" y="145.76"/><text fill="#000000" font-family="sans-serif" font-size="14" lengthAdjust="spacingAndGlyphs" textLength="45" x="64" y="169.2952">eMSP2</text><!--entity eMSP3--><rect fill="#FEFECE" filter="url(#f1ecnlh3q0a57l)" height="36.4883" rx="4" ry="4" style="stroke: #A80036; stroke-width: 1.5;" width="65" x="54" y="308.76"/><text fill="#000000" font-family="sans-serif" font-size="14" lengthAdjust="spacingAndGlyphs" textLength="45" x="64" y="332.2952">eMSP3</text><!--entity eMSP4--><rect fill="#FEFECE" filter="url(#f1ecnlh3q0a57l)" height="36.4883" rx="4" ry="4" style="stroke: #A80036; stroke-width: 1.5;" width="65" x="54" y="379.76"/><text fill="#000000" font-family="sans-serif" font-size="14" lengthAdjust="spacingAndGlyphs" textLength="45" x="64" y="403.2952">eMSP4</text><!--entity eMSP5--><rect fill="#FEFECE" filter="url(#f1ecnlh3q0a57l)" height="36.4883" rx="4" ry="4" style="stroke: #A80036; stroke-width: 1.5;" width="65" x="54" y="542.76"/><text fill="#000000" font-family="sans-serif" font-size="14" lengthAdjust="spacingAndGlyphs" textLength="45" x="64" y="566.2952">eMSP5</text><!--entity CPO1--><rect fill="#FEFECE" filter="url(#f1ecnlh3q0a57l)" height="36.4883" rx="4" ry="4" style="stroke: #A80036; stroke-width: 1.5;" width="58" x="426.5" y="74.76"/><text fill="#000000" font-family="sans-serif" font-size="14" lengthAdjust="spacingAndGlyphs" textLength="38" x="436.5" y="98.2952">CPO1</text><!--entity eMSP1--><rect fill="#FEFECE" filter="url(#f1ecnlh3q0a57l)" height="36.4883" rx="4" ry="4" style="stroke: #A80036; stroke-width: 1.5;" width="65" x="423" y="145.76"/><text fill="#000000" font-family="sans-serif" font-size="14" lengthAdjust="spacingAndGlyphs" textLength="45" x="433" y="169.2952">eMSP1</text><!--entity CPO3--><rect fill="#FEFECE" filter="url(#f1ecnlh3q0a57l)" height="36.4883" rx="4" ry="4" style="stroke: #A80036; stroke-width: 1.5;" width="58" x="426.5" y="308.76"/><text fill="#000000" font-family="sans-serif" font-size="14" lengthAdjust="spacingAndGlyphs" textLength="38" x="436.5" y="332.2952">CPO3</text><!--entity CPO4--><rect fill="#FEFECE" filter="url(#f1ecnlh3q0a57l)" height="36.4883" rx="4" ry="4" style="stroke: #A80036; stroke-width: 1.5;" width="58" x="426.5" y="379.76"/><text fill="#000000" font-family="sans-serif" font-size="14" lengthAdjust="spacingAndGlyphs" textLength="38" x="436.5" y="403.2952">CPO4</text><!--entity CPO5--><rect fill="#FEFECE" filter="url(#f1ecnlh3q0a57l)" height="36.4883" rx="4" ry="4" style="stroke: #A80036; stroke-width: 1.5;" width="58" x="426.5" y="542.76"/><text fill="#000000" font-family="sans-serif" font-size="14" lengthAdjust="spacingAndGlyphs" textLength="38" x="436.5" y="566.2952">CPO5</text><!--entity Hub--><rect fill="#FEFECE" filter="url(#f1ecnlh3q0a57l)" height="36.4883" rx="4" ry="4" style="stroke: #A80036; stroke-width: 1.5;" width="48" x="247" y="379.76"/><text fill="#000000" font-family="sans-serif" font-size="14" lengthAdjust="spacingAndGlyphs" textLength="28" x="257" y="403.2952">Hub</text><!--link MSP1 to HUBPL--><path d="M97.6697,226.1395 C97.9954,226.4108 98.3272,226.6882 98.665,226.9715 C99.3406,227.5381 100.0399,228.1284 100.7611,228.7417 C102.2034,229.9683 103.7329,231.2864 105.3338,232.689 C108.5356,235.4941 112.0231,238.6372 115.67,242.0613 C130.2575,255.7575 147.395,273.95 159,293 C192.99,348.82 160.21,386.37 207,432 C209.5463,434.4838 212.3997,436.6592 215.4486,438.5646 C216.973,439.5174 218.5463,440.4026 220.1545,441.225 C220.9586,441.6363 221.7714,442.0318 222.5913,442.4123 C222.6937,442.4599 222.7963,442.5072 222.899,442.5543 " fill="none" id="MSP1-HUBPL" style="stroke: #A80036; stroke-width: 1.0;"/><text fill="#000000" font-family="sans-serif" font-size="13" lengthAdjust="spacingAndGlyphs" textLength="30" x="168" y="306.5684">OCPI</text><!--link MSP2 to HUBPL--><path d="M143.3629,452 C143.6841,452 144.006,452 144.3286,452 C144.9737,452 145.6215,452 146.2719,452 C156.6774,452 167.7309,452 178.7838,452 C189.8366,452 200.8887,452 211.2914,452 C213.8921,452 216.4522,452 218.9616,452 C220.2163,452 221.4583,452 222.6864,452 " fill="none" id="MSP2-HUBPL" style="stroke: #A80036; stroke-width: 1.0;"/><text fill="#000000" font-family="sans-serif" font-size="13" lengthAdjust="spacingAndGlyphs" textLength="30" x="168" y="448.5684">OCPI</text><!--link MSP3 to HUBPL--><path d="M143.1425,603.3104 C143.2614,603.2616 143.3802,603.2125 143.4989,603.1633 C143.7363,603.0648 143.9733,602.9655 144.21,602.8654 C144.6833,602.6652 145.1551,602.4617 145.6252,602.2548 C146.5654,601.8412 147.4987,601.4143 148.4234,600.9736 C152.1222,599.2109 155.6838,597.2288 159,595 C191.865,572.91 219.2675,537.9225 238.6238,508.085 C248.3019,493.1662 255.9684,479.535 261.3005,469.4472 C262.6335,466.9252 263.8206,464.6247 264.8567,462.581 C265.1158,462.07 265.3654,461.5751 265.6054,461.0968 C265.7255,460.8577 265.8432,460.6227 265.9584,460.3919 C266.0161,460.2765 266.0731,460.1622 266.1296,460.0489 " fill="none" id="MSP3-HUBPL" style="stroke: #A80036; stroke-width: 1.0;"/><text fill="#000000" font-family="sans-serif" font-size="13" lengthAdjust="spacingAndGlyphs" textLength="30" x="168" y="558.5684">OCPI</text><!--link HUBPL to CPOP1--><path d="M319.101,442.5543 C319.2037,442.5072 319.3063,442.4599 319.4087,442.4123 C320.2286,442.0318 321.0414,441.6363 321.8455,441.225 C323.4537,440.4026 325.027,439.5174 326.5514,438.5646 C329.6003,436.6592 332.4538,434.4838 335,432 C381.79,386.37 349.01,348.82 383,293 C394.605,273.95 411.7425,255.7575 426.33,242.0613 C429.9769,238.6372 433.4644,235.4941 436.6662,232.689 C438.2671,231.2864 439.7966,229.9683 441.2389,228.7417 C441.9601,228.1284 442.6594,227.5381 443.335,226.9715 C443.6728,226.6882 444.0046,226.4108 444.3303,226.1395 " fill="none" id="HUBPL-CPOP1" style="stroke: #A80036; stroke-width: 1.0;"/><text fill="#000000" font-family="sans-serif" font-size="13" lengthAdjust="spacingAndGlyphs" textLength="30" x="344" y="306.5684">OCPI</text><!--link HUBPL to CPOP2--><path d="M319.3732,452 C320.6017,452 321.8442,452 323.0993,452 C325.6096,452 328.1705,452 330.7719,452 C341.1774,452 352.2309,452 363.2838,452 C374.3366,452 385.3887,452 395.7914,452 C397.0918,452 398.382,452 399.6608,452 C400.3001,452 400.9367,452 401.5702,452 C401.7286,452 401.8868,452 402.0448,452 " fill="none" id="HUBPL-CPOP2" style="stroke: #A80036; stroke-width: 1.0;"/><text fill="#000000" font-family="sans-serif" font-size="13" lengthAdjust="spacingAndGlyphs" textLength="30" x="344" y="448.5684">OCPI</text><!--link HUBPL to CPOP3--><path d="M275.8704,460.0489 C275.9269,460.1622 275.9839,460.2765 276.0416,460.3919 C276.1568,460.6227 276.2745,460.8577 276.3946,461.0968 C276.6346,461.5751 276.8842,462.07 277.1433,462.581 C278.1794,464.6247 279.3665,466.9252 280.6995,469.4472 C286.0316,479.535 293.6981,493.1662 303.3762,508.085 C322.7325,537.9225 350.135,572.91 383,595 C386.3162,597.2288 389.8778,599.2109 393.5766,600.9736 C395.4261,601.8549 397.3098,602.6814 399.2143,603.4563 C400.1666,603.8438 401.1241,604.2184 402.0851,604.5805 C402.2052,604.6258 402.3254,604.6709 402.4456,604.7157 " fill="none" id="HUBPL-CPOP3" style="stroke: #A80036; stroke-width: 1.0;"/><text fill="#000000" font-family="sans-serif" font-size="13" lengthAdjust="spacingAndGlyphs" textLength="30" x="344" y="558.5684">OCPI</text></g></svg>