<?xml version="1.0" encoding="us-ascii" standalone="no"?><svg xmlns="http://www.w3.org/2000/svg" xmlns:xlink="http://www.w3.org/1999/xlink" contentStyleType="text/css" height="227px" preserveAspectRatio="none" style="width:319px;height:227px;background:#FFFFFF;" version="1.1" viewBox="0 0 319 227" width="319px" zoomAndPan="magnify"><defs/><g><!--cluster CPOMSP1--><g id="cluster_CPOMSP1"><rect fill="none" height="212" rx="4" ry="4" style="stroke:#181818;stroke-width:1.0;" width="113" x="7" y="9"/><text fill="#000000" font-family="sans-serif" font-size="14" font-weight="bold" lengthAdjust="spacing" textLength="80" x="23.5" y="24.5352">PLATFORM</text></g><!--cluster CPOMSP2--><g id="cluster_CPOMSP2"><rect fill="none" height="194" rx="4" ry="4" style="stroke:#181818;stroke-width:1.0;" width="113" x="200" y="7"/><text fill="#000000" font-family="sans-serif" font-size="14" font-weight="bold" lengthAdjust="spacing" textLength="80" x="216.5" y="22.5352">PLATFORM</text></g><!--entity eMSP1--><g id="elem_eMSP1"><rect fill="#F1F1F1" height="36.4883" rx="4" ry="4" style="stroke:#181818;stroke-width:0.5;" width="65" x="31" y="71.76"/><text fill="#000000" font-family="sans-serif" font-size="14" lengthAdjust="spacing" textLength="45" x="41" y="95.2952">eMSP1</text></g><!--entity CPO1--><g id="elem_CPO1"><rect fill="#F1F1F1" height="36.4883" rx="4" ry="4" style="stroke:#181818;stroke-width:0.5;" width="58" x="34.5" y="160.76"/><text fill="#000000" font-family="sans-serif" font-size="14" lengthAdjust="spacing" textLength="38" x="44.5" y="184.2952">CPO1</text></g><!--entity eMSP2--><g id="elem_eMSP2"><rect fill="#F1F1F1" height="36.4883" rx="4" ry="4" style="stroke:#181818;stroke-width:0.5;" width="65" x="224" y="69.76"/><text fill="#000000" font-family="sans-serif" font-size="14" lengthAdjust="spacing" textLength="45" x="234" y="93.2952">eMSP2</text></g><!--entity CPO2--><g id="elem_CPO2"><rect fill="#F1F1F1" height="36.4883" rx="4" ry="4" style="stroke:#181818;stroke-width:0.5;" width="58" x="227.5" y="140.76"/><text fill="#000000" font-family="sans-serif" font-size="14" lengthAdjust="spacing" textLength="38" x="237.5" y="164.2952">CPO2</text></g><!--link CPOMSP1 to CPOMSP2--><g id="link_CPOMSP1_CPOMSP2"><path d="M120.9571,35.4096 C121.2902,35.4061 121.6242,35.4026 121.9588,35.3991 C123.2976,35.3851 124.6482,35.3709 126.0095,35.3566 C136.8994,35.2425 148.4675,35.1213 160.035,35 C171.6025,34.8788 183.1694,34.7575 194.0568,34.6434 C195.4177,34.6291 196.768,34.6149 198.1064,34.6009 C198.441,34.5974 198.7748,34.5939 199.1079,34.5904 C199.2745,34.5887 199.4408,34.5869 199.607,34.5852 " fill="none" id="CPOMSP1-CPOMSP2" style="stroke:#181818;stroke-width:1.0;"/><text fill="#000000" font-family="sans-serif" font-size="13" lengthAdjust="spacing" textLength="30" x="145" y="31.5684">OCPI</text></g><!--link CPO1 to CPO1--><!--link eMSP1 to eMSP2--></g></svg>