<?xml version="1.0" encoding="us-ascii" standalone="no"?><svg xmlns="http://www.w3.org/2000/svg" xmlns:xlink="http://www.w3.org/1999/xlink" contentStyleType="text/css" height="278px" preserveAspectRatio="none" style="width:312px;height:278px;background:#FFFFFF;" version="1.1" viewBox="0 0 312 278" width="312px" zoomAndPan="magnify"><defs/><g><!--cluster MSPPP--><g id="cluster_MSPPP"><rect fill="none" height="265" rx="4" ry="4" style="stroke:#181818;stroke-width:1.0;" width="113" x="7" y="7"/><text fill="#000000" font-family="sans-serif" font-size="14" font-weight="bold" lengthAdjust="spacing" textLength="80" x="23.5" y="22.5352">PLATFORM</text></g><!--cluster CPOPP--><g id="cluster_CPOPP"><rect fill="none" height="194" rx="4" ry="4" style="stroke:#181818;stroke-width:1.0;" width="106" x="200" y="11"/><text fill="#000000" font-family="sans-serif" font-size="14" font-weight="bold" lengthAdjust="spacing" textLength="80" x="213" y="26.5352">PLATFORM</text></g><!--entity eMSP1--><g id="elem_eMSP1"><rect fill="#F1F1F1" height="36.4883" rx="4" ry="4" style="stroke:#181818;stroke-width:0.5;" width="65" x="31" y="69.76"/><text fill="#000000" font-family="sans-serif" font-size="14" lengthAdjust="spacing" textLength="45" x="41" y="93.2952">eMSP1</text></g><!--entity eMSP2--><g id="elem_eMSP2"><rect fill="#F1F1F1" height="36.4883" rx="4" ry="4" style="stroke:#181818;stroke-width:0.5;" width="65" x="31" y="140.76"/><text fill="#000000" font-family="sans-serif" font-size="14" lengthAdjust="spacing" textLength="45" x="41" y="164.2952">eMSP2</text></g><!--entity eMSP3--><g id="elem_eMSP3"><rect fill="#F1F1F1" height="36.4883" rx="4" ry="4" style="stroke:#181818;stroke-width:0.5;" width="65" x="31" y="211.76"/><text fill="#000000" font-family="sans-serif" font-size="14" lengthAdjust="spacing" textLength="45" x="41" y="235.2952">eMSP3</text></g><!--entity CPO1--><g id="elem_CPO1"><rect fill="#F1F1F1" height="36.4883" rx="4" ry="4" style="stroke:#181818;stroke-width:0.5;" width="58" x="224" y="73.76"/><text fill="#000000" font-family="sans-serif" font-size="14" lengthAdjust="spacing" textLength="38" x="234" y="97.2952">CPO1</text></g><!--entity CPO2--><g id="elem_CPO2"><rect fill="#F1F1F1" height="36.4883" rx="4" ry="4" style="stroke:#181818;stroke-width:0.5;" width="58" x="224" y="144.76"/><text fill="#000000" font-family="sans-serif" font-size="14" lengthAdjust="spacing" textLength="38" x="234" y="168.2952">CPO2</text></g><!--link MSPPP to CPOPP--><g id="link_MSPPP_CPOPP"><path d="M120.9063,35.2018 C122.2205,35.2299 123.5464,35.2582 124.8827,35.2867 C135.5731,35.515 146.9294,35.7575 158.285,36 C169.6406,36.2425 180.9956,36.485 191.6836,36.7133 C194.3555,36.7704 196.9858,36.8265 199.564,36.8816 " fill="none" id="MSPPP-CPOPP" style="stroke:#181818;stroke-width:1.0;"/><text fill="#000000" font-family="sans-serif" font-size="13" lengthAdjust="spacing" textLength="30" x="145" y="32.5684">OCPI</text></g><!--link eMSP1 to CPO1--><!--link eMSP3 to CPO2--></g></svg>