<?xml version="1.0" encoding="UTF-8" standalone="no"?><svg xmlns="http://www.w3.org/2000/svg" xmlns:xlink="http://www.w3.org/1999/xlink" contentScriptType="application/ecmascript" contentStyleType="text/css" height="320px" preserveAspectRatio="none" style="width:606px;height:320px;" version="1.1" viewBox="0 0 606 320" width="606px" zoomAndPan="magnify"><defs><filter height="300%" id="fmwma03bu4mcb" width="300%" x="-1" y="-1"><feGaussianBlur result="blurOut" stdDeviation="2.0"/><feColorMatrix in="blurOut" result="blurOut2" type="matrix" values="0 0 0 0 0 0 0 0 0 0 0 0 0 0 0 0 0 0 .4 0"/><feOffset dx="4.0" dy="4.0" in="blurOut2" result="blurOut3"/><feBlend in="SourceGraphic" in2="blurOut3" mode="normal"/></filter></defs><g><!--cluster MSPP1--><rect fill="#FFFFFF" filter="url(#fmwma03bu4mcb)" height="194" rx="4" ry="4" style="stroke: #000000; stroke-width: 1.5;" width="113" x="30" y="94"/><text fill="#000000" font-family="sans-serif" font-size="14" font-weight="bold" lengthAdjust="spacingAndGlyphs" textLength="80" x="46.5" y="109.5352">PLATFORM</text><!--cluster CPOP1--><rect fill="#FFFFFF" filter="url(#fmwma03bu4mcb)" height="194" rx="4" ry="4" style="stroke: #000000; stroke-width: 1.5;" width="106" x="183" y="94"/><text fill="#000000" font-family="sans-serif" font-size="14" font-weight="bold" lengthAdjust="spacingAndGlyphs" textLength="80" x="196" y="109.5352">PLATFORM</text><!--cluster CPOMSP1--><rect fill="#FFFFFF" filter="url(#fmwma03bu4mcb)" height="194" rx="4" ry="4" style="stroke: #000000; stroke-width: 1.5;" width="113" x="329" y="32"/><text fill="#000000" font-family="sans-serif" font-size="14" font-weight="bold" lengthAdjust="spacingAndGlyphs" textLength="80" x="345.5" y="47.5352">PLATFORM</text><!--cluster CPOMSP2--><rect fill="#FFFFFF" filter="url(#fmwma03bu4mcb)" height="194" rx="4" ry="4" style="stroke: #000000; stroke-width: 1.5;" width="113" x="482" y="85"/><text fill="#000000" font-family="sans-serif" font-size="14" font-weight="bold" lengthAdjust="spacingAndGlyphs" textLength="80" x="498.5" y="100.5352">PLATFORM</text><!--entity eMSP1--><rect fill="#FEFECE" filter="url(#fmwma03bu4mcb)" height="36.4883" rx="4" ry="4" style="stroke: #A80036; stroke-width: 1.5;" width="65" x="54" y="136.76"/><text fill="#000000" font-family="sans-serif" font-size="14" lengthAdjust="spacingAndGlyphs" textLength="45" x="64" y="160.2952">eMSP1</text><!--entity eMSP2--><rect fill="#FEFECE" filter="url(#fmwma03bu4mcb)" height="36.4883" rx="4" ry="4" style="stroke: #A80036; stroke-width: 1.5;" width="65" x="54" y="207.76"/><text fill="#000000" font-family="sans-serif" font-size="14" lengthAdjust="spacingAndGlyphs" textLength="45" x="64" y="231.2952">eMSP2</text><!--entity CPO1--><rect fill="#FEFECE" filter="url(#fmwma03bu4mcb)" height="36.4883" rx="4" ry="4" style="stroke: #A80036; stroke-width: 1.5;" width="58" x="207" y="136.76"/><text fill="#000000" font-family="sans-serif" font-size="14" lengthAdjust="spacingAndGlyphs" textLength="38" x="217" y="160.2952">CPO1</text><!--entity CPO2--><rect fill="#FEFECE" filter="url(#fmwma03bu4mcb)" height="36.4883" rx="4" ry="4" style="stroke: #A80036; stroke-width: 1.5;" width="58" x="207" y="207.76"/><text fill="#000000" font-family="sans-serif" font-size="14" lengthAdjust="spacingAndGlyphs" textLength="38" x="217" y="231.2952">CPO2</text><!--entity eMSP3--><rect fill="#FEFECE" filter="url(#fmwma03bu4mcb)" height="36.4883" rx="4" ry="4" style="stroke: #A80036; stroke-width: 1.5;" width="65" x="353" y="74.76"/><text fill="#000000" font-family="sans-serif" font-size="14" lengthAdjust="spacingAndGlyphs" textLength="45" x="363" y="98.2952">eMSP3</text><!--entity CPO3--><rect fill="#FEFECE" filter="url(#fmwma03bu4mcb)" height="36.4883" rx="4" ry="4" style="stroke: #A80036; stroke-width: 1.5;" width="58" x="356.5" y="145.76"/><text fill="#000000" font-family="sans-serif" font-size="14" lengthAdjust="spacingAndGlyphs" textLength="38" x="366.5" y="169.2952">CPO3</text><!--entity eMSP4--><rect fill="#FEFECE" filter="url(#fmwma03bu4mcb)" height="36.4883" rx="4" ry="4" style="stroke: #A80036; stroke-width: 1.5;" width="65" x="506" y="127.76"/><text fill="#000000" font-family="sans-serif" font-size="14" lengthAdjust="spacingAndGlyphs" textLength="45" x="516" y="151.2952">eMSP4</text><!--entity CPO4--><rect fill="#FEFECE" filter="url(#fmwma03bu4mcb)" height="36.4883" rx="4" ry="4" style="stroke: #A80036; stroke-width: 1.5;" width="58" x="509.5" y="198.76"/><text fill="#000000" font-family="sans-serif" font-size="14" lengthAdjust="spacingAndGlyphs" textLength="38" x="519.5" y="222.2952">CPO4</text><!--link MSPP1 to CPOP1--><path d="M143.0226,280 C143.5655,280 144.1098,280 144.6553,280 C145.7464,280 146.8427,280 147.943,280 C152.3443,280 156.8109,280 161.2775,280 C165.7441,280 170.2105,280 174.6113,280 C176.8117,280 178.9957,280 181.1551,280 C181.6949,280 182.2332,280 182.7699,280 " fill="none" id="MSPP1-CPOP1" style="stroke: #A80036; stroke-width: 1.0;"/><!--link MSPP1 to CPOMSP1--><path d="M143.2354,272.1398 C143.4596,272.0307 143.683,271.9202 143.9056,271.8083 C144.3507,271.5846 144.7926,271.3553 145.2309,271.1204 C146.9843,270.1808 148.6812,269.1507 150.3036,268.022 C153.5483,265.7645 156.495,263.1125 159,260 C168.7,247.95 155.75,131.62 167,121 C211.6,78.9 259.45,79.93 305,121 C317.78,132.52 301.91,184.85 313,198 C315.5763,201.0538 318.577,203.6613 321.8618,205.8858 C323.5041,206.998 325.2175,208.0146 326.9842,208.9433 C327.4259,209.1754 327.871,209.4021 328.319,209.6234 C328.5431,209.7341 328.7679,209.8434 328.9934,209.9514 " fill="none" id="MSPP1-CPOMSP1" style="stroke: #A80036; stroke-width: 1.0;"/><!--link MSPP1 to CPOMSP2--><path d="M120.001,288.0604 C120.1255,288.0878 120.2502,288.1153 120.375,288.1427 C120.6248,288.1976 120.8754,288.2525 121.1268,288.3074 C123.138,288.7466 125.2006,289.1864 127.3031,289.6221 C131.5082,290.4936 135.8732,291.3485 140.3067,292.1492 C149.1737,293.7506 158.315,295.135 167,296 C295.77,308.83 329.61,302.25 458,286 C466.64,284.9075 475.7581,283.4644 484.6159,281.9045 C489.0448,281.1246 493.4087,280.3155 497.6151,279.5065 C498.1409,279.4053 498.6643,279.3042 499.185,279.2031 C499.4453,279.1526 499.705,279.1021 499.964,279.0516 " fill="none" id="MSPP1-CPOMSP2" style="stroke: #A80036; stroke-width: 1.0;"/><!--link CPOP1 to CPOMSP1--><path d="M289.1697,269.4473 C289.2813,269.3982 289.3928,269.3488 289.5041,269.2992 C289.7268,269.2 289.9491,269.0999 290.171,268.9988 C291.9458,268.1903 293.6921,267.3224 295.3961,266.3907 C298.8041,264.5273 302.0425,262.4088 305,260 C310.86,255.23 307.32,249.99 313,245 C319.18,239.57 326.5606,235.1863 334.1978,231.6605 C338.0164,229.8976 341.8991,228.3492 345.728,226.9917 C346.6852,226.6524 347.6391,226.325 348.5877,226.0091 " fill="none" id="CPOP1-CPOMSP1" style="stroke: #A80036; stroke-width: 1.0;"/><!--link CPOP1 to CPOMSP2--><path d="M289.2828,278.4346 C289.7335,278.4211 290.1862,278.4075 290.641,278.3939 C292.4602,278.3394 294.3122,278.284 296.1948,278.2276 C299.96,278.1148 303.8477,277.9983 307.8403,277.8788 C315.8256,277.6396 324.2308,277.3879 332.9158,277.1277 C350.2859,276.6075 368.7756,276.0538 387.265,275.5 C405.7544,274.9462 424.2434,274.3925 441.6123,273.8723 C450.2967,273.6121 458.7011,273.3604 466.6855,273.1212 C470.6776,273.0017 474.5648,272.8852 478.3295,272.7724 C479.2706,272.7442 480.2041,272.7163 481.1297,272.6885 C481.3611,272.6816 481.592,272.6747 481.8224,272.6678 " fill="none" id="CPOP1-CPOMSP2" style="stroke: #A80036; stroke-width: 1.0;"/><!--link CPOMSP1 to CPOMSP2--><path d="M413.0804,226.0359 C413.2996,226.11 413.5196,226.1845 413.7404,226.2595 C414.182,226.4096 414.6266,226.5614 415.074,226.7151 C415.9689,227.0225 416.8751,227.3371 417.7913,227.6589 C419.6236,228.3025 421.4955,228.9747 423.395,229.6743 C427.1941,231.0737 431.1038,232.583 435.0288,234.1934 C442.8788,237.4144 450.79,241.04 458,245 C461.9,247.14 462.01,249.03 466,251 C469.5838,252.7675 473.348,254.4002 477.1964,255.9047 C478.1585,256.2808 479.1259,256.649 480.097,257.0092 C480.5826,257.1893 481.0691,257.3675 481.5564,257.5436 C481.6782,257.5877 481.8,257.6316 481.9219,257.6754 " fill="none" id="CPOMSP1-CPOMSP2" style="stroke: #A80036; stroke-width: 1.0;"/></g></svg>