<?xml version="1.0" encoding="UTF-8" standalone="no"?><svg xmlns="http://www.w3.org/2000/svg" xmlns:xlink="http://www.w3.org/1999/xlink" contentScriptType="application/ecmascript" contentStyleType="text/css" height="290px" preserveAspectRatio="none" style="width:693px;height:290px;" version="1.1" viewBox="0 0 693 290" width="693px" zoomAndPan="magnify"><defs><filter height="300%" id="fym9sfrwb82e1" width="300%" x="-1" y="-1"><feGaussianBlur result="blurOut" stdDeviation="2.0"/><feColorMatrix in="blurOut" result="blurOut2" type="matrix" values="0 0 0 0 0 0 0 0 0 0 0 0 0 0 0 0 0 0 .4 0"/><feOffset dx="4.0" dy="4.0" in="blurOut2" result="blurOut3"/><feBlend in="SourceGraphic" in2="blurOut3" mode="normal"/></filter></defs><g><!--cluster eMSPP1--><rect fill="#FFFFFF" filter="url(#fym9sfrwb82e1)" height="103.49" rx="4" ry="4" style="stroke: #000000; stroke-width: 1.5;" width="133" x="30" y="32.02"/><text fill="#000000" font-family="sans-serif" font-size="14" font-weight="bold" lengthAdjust="spacingAndGlyphs" textLength="80" x="56.5" y="47.5552">PLATFORM</text><!--cluster eMSPP2--><rect fill="#FFFFFF" filter="url(#fym9sfrwb82e1)" height="103.49" rx="4" ry="4" style="stroke: #000000; stroke-width: 1.5;" width="133" x="376" y="32.02"/><text fill="#000000" font-family="sans-serif" font-size="14" font-weight="bold" lengthAdjust="spacingAndGlyphs" textLength="80" x="402.5" y="47.5552">PLATFORM</text><!--cluster eMSPP3--><rect fill="#FFFFFF" filter="url(#fym9sfrwb82e1)" height="103.49" rx="4" ry="4" style="stroke: #000000; stroke-width: 1.5;" width="133" x="203" y="32.02"/><text fill="#000000" font-family="sans-serif" font-size="14" font-weight="bold" lengthAdjust="spacingAndGlyphs" textLength="80" x="229.5" y="47.5552">PLATFORM</text><!--cluster eMSPP4--><rect fill="#FFFFFF" filter="url(#fym9sfrwb82e1)" height="103.49" rx="4" ry="4" style="stroke: #000000; stroke-width: 1.5;" width="133" x="549" y="32.02"/><text fill="#000000" font-family="sans-serif" font-size="14" font-weight="bold" lengthAdjust="spacingAndGlyphs" textLength="80" x="575.5" y="47.5552">PLATFORM</text><!--cluster CPOP1--><rect fill="#FFFFFF" filter="url(#fym9sfrwb82e1)" height="103.49" rx="4" ry="4" style="stroke: #000000; stroke-width: 1.5;" width="125" x="374" y="175.51"/><text fill="#000000" font-family="sans-serif" font-size="14" font-weight="bold" lengthAdjust="spacingAndGlyphs" textLength="80" x="396.5" y="191.0452">PLATFORM</text><!--cluster CPOP2--><rect fill="#FFFFFF" filter="url(#fym9sfrwb82e1)" height="103.49" rx="4" ry="4" style="stroke: #000000; stroke-width: 1.5;" width="125" x="205" y="175.51"/><text fill="#000000" font-family="sans-serif" font-size="14" font-weight="bold" lengthAdjust="spacingAndGlyphs" textLength="80" x="227.5" y="191.0452">PLATFORM</text><!--cluster CPOP3--><rect fill="#FFFFFF" filter="url(#fym9sfrwb82e1)" height="103.49" rx="4" ry="4" style="stroke: #000000; stroke-width: 1.5;" width="125" x="545" y="175.51"/><text fill="#000000" font-family="sans-serif" font-size="14" font-weight="bold" lengthAdjust="spacingAndGlyphs" textLength="80" x="567.5" y="191.0452">PLATFORM</text><!--entity eMSP1--><rect fill="#FEFECE" filter="url(#fym9sfrwb82e1)" height="36.4883" rx="4" ry="4" style="stroke: #A80036; stroke-width: 1.5;" width="65" x="73.5" y="75.02"/><text fill="#000000" font-family="sans-serif" font-size="14" lengthAdjust="spacingAndGlyphs" textLength="45" x="83.5" y="98.5552">eMSP1</text><!--entity eMSP2--><rect fill="#FEFECE" filter="url(#fym9sfrwb82e1)" height="36.4883" rx="4" ry="4" style="stroke: #A80036; stroke-width: 1.5;" width="65" x="419.5" y="75.02"/><text fill="#000000" font-family="sans-serif" font-size="14" lengthAdjust="spacingAndGlyphs" textLength="45" x="429.5" y="98.5552">eMSP2</text><!--entity eMSP3--><rect fill="#FEFECE" filter="url(#fym9sfrwb82e1)" height="36.4883" rx="4" ry="4" style="stroke: #A80036; stroke-width: 1.5;" width="65" x="246.5" y="75.02"/><text fill="#000000" font-family="sans-serif" font-size="14" lengthAdjust="spacingAndGlyphs" textLength="45" x="256.5" y="98.5552">eMSP3</text><!--entity eMSP4--><rect fill="#FEFECE" filter="url(#fym9sfrwb82e1)" height="36.4883" rx="4" ry="4" style="stroke: #A80036; stroke-width: 1.5;" width="65" x="592.5" y="75.02"/><text fill="#000000" font-family="sans-serif" font-size="14" lengthAdjust="spacingAndGlyphs" textLength="45" x="602.5" y="98.5552">eMSP4</text><!--entity CPO1--><rect fill="#FEFECE" filter="url(#fym9sfrwb82e1)" height="36.4883" rx="4" ry="4" style="stroke: #A80036; stroke-width: 1.5;" width="58" x="417" y="218.51"/><text fill="#000000" font-family="sans-serif" font-size="14" lengthAdjust="spacingAndGlyphs" textLength="38" x="427" y="242.0452">CPO1</text><!--entity CPO2--><rect fill="#FEFECE" filter="url(#fym9sfrwb82e1)" height="36.4883" rx="4" ry="4" style="stroke: #A80036; stroke-width: 1.5;" width="58" x="248" y="218.51"/><text fill="#000000" font-family="sans-serif" font-size="14" lengthAdjust="spacingAndGlyphs" textLength="38" x="258" y="242.0452">CPO2</text><!--entity CPO3--><rect fill="#FEFECE" filter="url(#fym9sfrwb82e1)" height="36.4883" rx="4" ry="4" style="stroke: #A80036; stroke-width: 1.5;" width="58" x="588" y="218.51"/><text fill="#000000" font-family="sans-serif" font-size="14" lengthAdjust="spacingAndGlyphs" textLength="38" x="598" y="242.0452">CPO3</text><!--link eMSPP1 to CPOP1--><path d="M44.8427,135.5514 C44.8844,135.6442 44.9264,135.7369 44.9687,135.8295 C45.0532,136.0147 45.1387,136.1993 45.2252,136.3834 C47.9931,142.2756 51.7925,147.6325 57,151.51 C80.62,169.11 295.7,146.25 322,159.51 C340.65,168.915 355.31,187.0975 365.47,203.3475 C368.01,207.41 370.2688,211.3517 372.2383,215.0053 C372.7307,215.9187 373.205,216.8141 373.6611,217.6889 C373.7751,217.9076 373.888,218.125 373.9997,218.341 " fill="none" id="eMSPP1-CPOP1" style="stroke: #A80036; stroke-width: 1.0;"/><!--link eMSPP2 to CPOP2--><path d="M375.9519,106.72 C375.7288,107.0375 375.5015,107.3591 375.27,107.6846 C374.807,108.3356 374.3274,109.0021 373.8315,109.6823 C371.848,112.4028 369.6047,115.3413 367.1288,118.375 C357.225,130.51 343.6,144.17 328,151.51 C308.63,160.63 248.31,145.64 232,159.51 C228.7788,162.25 226.0591,165.4445 223.7667,168.9433 C222.6205,170.6927 221.5812,172.5182 220.6394,174.4009 C220.5216,174.6363 220.4054,174.8725 220.2907,175.1096 C220.2334,175.2281 220.1764,175.3469 220.1198,175.4659 " fill="none" id="eMSPP2-CPOP2" style="stroke: #A80036; stroke-width: 1.0;"/><!--link eMSPP1 to CPOP2--><path d="M47.4957,135.6421 C47.6609,136.0228 47.8289,136.4026 47.9998,136.7812 C48.3416,137.5384 48.695,138.2911 49.0602,139.0377 C49.7906,140.531 50.5685,142.0002 51.3971,143.4336 C53.0542,146.3003 54.9138,149.0238 57,151.51 C81.925,181.22 120.105,202.0925 152.4538,215.63 C168.6281,222.3988 183.3447,227.3338 194.2177,230.6228 C196.9359,231.4451 199.4139,232.1645 201.6144,232.7839 C202.7147,233.0937 203.7456,233.3784 204.7024,233.6385 " fill="none" id="eMSPP1-CPOP2" style="stroke: #A80036; stroke-width: 1.0;"/><!--link eMSPP2 to CPOP1--><path d="M383.4096,136.09 C383.4061,136.3368 383.4026,136.5842 383.3991,136.8321 C383.3851,137.8238 383.3709,138.8243 383.3566,139.8327 C383.2425,147.8995 383.1213,156.4688 383,165.0375 C382.9697,167.1797 382.9394,169.3218 382.9092,171.4561 C382.8941,172.5233 382.879,173.5884 382.864,174.6506 C382.8602,174.9162 382.8565,175.1816 382.8527,175.4467 " fill="none" id="eMSPP2-CPOP1" style="stroke: #A80036; stroke-width: 1.0;"/><!--link eMSPP2 to CPOP3--><path d="M391.1776,135.5593 C391.2614,135.7453 391.3462,135.931 391.4319,136.1161 C394.175,142.0406 397.9125,147.4775 403,151.51 C418.39,163.71 473.67,150.28 491,159.51 C509.675,169.455 524.805,187.655 535.4425,203.78 C538.1019,207.8113 540.4805,211.7128 542.5635,215.3233 C543.0842,216.2259 543.5865,217.1103 544.0701,217.974 C544.3119,218.4059 544.549,218.8326 544.7814,219.2537 C544.8395,219.359 544.8973,219.464 544.9548,219.5686 " fill="none" id="eMSPP2-CPOP3" style="stroke: #A80036; stroke-width: 1.0;"/><!--link eMSPP3 to CPOP1--><path d="M218.1648,135.5763 C218.2487,135.7623 218.3335,135.9479 218.4192,136.133 C221.1638,142.0556 224.905,147.4875 230,151.51 C246.1,164.23 303.95,149.76 322,159.51 C340.375,169.44 355.0275,187.64 365.2525,203.7687 C367.8088,207.8009 370.0883,211.7037 372.0801,215.3154 C372.578,216.2183 373.058,217.103 373.5198,217.9671 C373.6353,218.1831 373.7496,218.3978 373.8628,218.6111 " fill="none" id="eMSPP3-CPOP1" style="stroke: #A80036; stroke-width: 1.0;"/><!--link eMSPP3 to CPOP2--><path d="M211.5904,136.09 C211.5939,136.3368 211.5974,136.5842 211.6009,136.8321 C211.6149,137.8238 211.6291,138.8243 211.6434,139.8327 C211.7575,147.8995 211.8788,156.4688 212,165.0375 C212.0303,167.1797 212.0606,169.3218 212.0908,171.4561 C212.1059,172.5233 212.121,173.5884 212.136,174.6506 C212.1398,174.9162 212.1435,175.1816 212.1473,175.4467 " fill="none" id="eMSPP3-CPOP2" style="stroke: #A80036; stroke-width: 1.0;"/><!--link eMSPP4 to CPOP1--><path d="M548.9607,106.7353 C548.7377,107.0531 548.5105,107.3749 548.2791,107.7007 C547.8163,108.3522 547.3369,109.0192 546.8412,109.6998 C544.8584,112.4223 542.6156,115.3625 540.14,118.3975 C530.2375,130.5375 516.61,144.195 501,151.51 C480.81,160.97 418,145.1 401,159.51 C397.7738,162.245 395.0503,165.4356 392.7552,168.9314 C391.6077,170.6793 390.5672,172.5035 389.6245,174.3852 C389.5067,174.6204 389.3904,174.8565 389.2756,175.0935 C389.2182,175.212 389.1611,175.3307 389.1045,175.4496 " fill="none" id="eMSPP4-CPOP1" style="stroke: #A80036; stroke-width: 1.0;"/><!--link eMSPP4 to CPOP2--><path d="M548.8811,107.1667 C548.8253,107.2477 548.7692,107.3289 548.7129,107.4104 C548.6002,107.5734 548.4865,107.7373 548.3717,107.9022 C547.9127,108.5619 547.437,109.2371 546.9449,109.9257 C544.9767,112.6802 542.7475,115.6503 540.2825,118.7088 C530.4225,130.9425 516.79,144.59 501,151.51 C473.61,163.51 255.29,140.75 232,159.51 C228.7063,162.1638 225.9316,165.2928 223.5985,168.7432 C222.432,170.4683 221.3759,172.2738 220.4206,174.1404 C220.3011,174.3737 220.1833,174.608 220.067,174.8432 C220.0089,174.9608 219.9511,175.0786 219.8937,175.1967 " fill="none" id="eMSPP4-CPOP2" style="stroke: #A80036; stroke-width: 1.0;"/><!--link eMSPP4 to CPOP3--><path d="M555.8192,136.09 C555.8122,136.3368 555.8052,136.5842 555.7982,136.8321 C555.7701,137.8238 555.7418,138.8243 555.7133,139.8327 C555.485,147.8995 555.2425,156.4688 555,165.0375 C554.9394,167.1797 554.8788,169.3218 554.8183,171.4561 C554.7881,172.5233 554.758,173.5884 554.7279,174.6506 C554.7204,174.9162 554.7129,175.1816 554.7054,175.4467 " fill="none" id="eMSPP4-CPOP3" style="stroke: #A80036; stroke-width: 1.0;"/></g></svg>