<?xml version="1.0" encoding="UTF-8" standalone="no"?><svg xmlns="http://www.w3.org/2000/svg" xmlns:xlink="http://www.w3.org/1999/xlink" contentScriptType="application/ecmascript" contentStyleType="text/css" height="634px" preserveAspectRatio="none" style="width:523px;height:634px;" version="1.1" viewBox="0 0 523 634" width="523px" zoomAndPan="magnify"><defs><filter height="300%" id="fbilh7ibzg56i" width="300%" x="-1" y="-1"><feGaussianBlur result="blurOut" stdDeviation="2.0"/><feColorMatrix in="blurOut" result="blurOut2" type="matrix" values="0 0 0 0 0 0 0 0 0 0 0 0 0 0 0 0 0 0 .4 0"/><feOffset dx="4.0" dy="4.0" in="blurOut2" result="blurOut3"/><feBlend in="SourceGraphic" in2="blurOut3" mode="normal"/></filter></defs><g><!--cluster MSP1--><rect fill="#FFFFFF" filter="url(#fbilh7ibzg56i)" height="194" rx="4" ry="4" style="stroke: #000000; stroke-width: 1.5;" width="113" x="30" y="429"/><text fill="#000000" font-family="sans-serif" font-size="14" font-weight="bold" lengthAdjust="spacingAndGlyphs" textLength="80" x="46.5" y="444.5352">PLATFORM</text><!--cluster MSP2--><rect fill="#FFFFFF" filter="url(#fbilh7ibzg56i)" height="194" rx="4" ry="4" style="stroke: #000000; stroke-width: 1.5;" width="113" x="30" y="195"/><text fill="#000000" font-family="sans-serif" font-size="14" font-weight="bold" lengthAdjust="spacingAndGlyphs" textLength="80" x="46.5" y="210.5352">PLATFORM</text><!--cluster MSP3--><rect fill="#FFFFFF" filter="url(#fbilh7ibzg56i)" height="123" rx="4" ry="4" style="stroke: #000000; stroke-width: 1.5;" width="113" x="30" y="32"/><text fill="#000000" font-family="sans-serif" font-size="14" font-weight="bold" lengthAdjust="spacingAndGlyphs" textLength="80" x="46.5" y="47.5352">PLATFORM</text><!--cluster CPOP1--><rect fill="#FFFFFF" filter="url(#fbilh7ibzg56i)" height="194" rx="4" ry="4" style="stroke: #000000; stroke-width: 1.5;" width="113" x="399" y="429"/><text fill="#000000" font-family="sans-serif" font-size="14" font-weight="bold" lengthAdjust="spacingAndGlyphs" textLength="80" x="415.5" y="444.5352">PLATFORM</text><!--cluster CPOP2--><rect fill="#FFFFFF" filter="url(#fbilh7ibzg56i)" height="194" rx="4" ry="4" style="stroke: #000000; stroke-width: 1.5;" width="106" x="402.5" y="195"/><text fill="#000000" font-family="sans-serif" font-size="14" font-weight="bold" lengthAdjust="spacingAndGlyphs" textLength="80" x="415.5" y="210.5352">PLATFORM</text><!--cluster CPOP3--><rect fill="#FFFFFF" filter="url(#fbilh7ibzg56i)" height="123" rx="4" ry="4" style="stroke: #000000; stroke-width: 1.5;" width="106" x="402.5" y="32"/><text fill="#000000" font-family="sans-serif" font-size="14" font-weight="bold" lengthAdjust="spacingAndGlyphs" textLength="80" x="415.5" y="47.5352">PLATFORM</text><!--cluster HUB_PLATFORM--><rect fill="#FFFFFF" filter="url(#fbilh7ibzg56i)" height="123" rx="4" ry="4" style="stroke: #000000; stroke-width: 1.5;" width="96" x="223" y="266"/><text fill="#000000" font-family="sans-serif" font-size="14" font-weight="bold" lengthAdjust="spacingAndGlyphs" textLength="80" x="231" y="281.5352">PLATFORM</text><!--entity CPO2--><rect fill="#FEFECE" filter="url(#fbilh7ibzg56i)" height="36.4883" rx="4" ry="4" style="stroke: #A80036; stroke-width: 1.5;" width="58" x="57.5" y="471.76"/><text fill="#000000" font-family="sans-serif" font-size="14" lengthAdjust="spacingAndGlyphs" textLength="38" x="67.5" y="495.2952">CPO2</text><!--entity eMSP2--><rect fill="#FEFECE" filter="url(#fbilh7ibzg56i)" height="36.4883" rx="4" ry="4" style="stroke: #A80036; stroke-width: 1.5;" width="65" x="54" y="542.76"/><text fill="#000000" font-family="sans-serif" font-size="14" lengthAdjust="spacingAndGlyphs" textLength="45" x="64" y="566.2952">eMSP2</text><!--entity eMSP3--><rect fill="#FEFECE" filter="url(#fbilh7ibzg56i)" height="36.4883" rx="4" ry="4" style="stroke: #A80036; stroke-width: 1.5;" width="65" x="54" y="237.76"/><text fill="#000000" font-family="sans-serif" font-size="14" lengthAdjust="spacingAndGlyphs" textLength="45" x="64" y="261.2952">eMSP3</text><!--entity eMSP4--><rect fill="#FEFECE" filter="url(#fbilh7ibzg56i)" height="36.4883" rx="4" ry="4" style="stroke: #A80036; stroke-width: 1.5;" width="65" x="54" y="308.76"/><text fill="#000000" font-family="sans-serif" font-size="14" lengthAdjust="spacingAndGlyphs" textLength="45" x="64" y="332.2952">eMSP4</text><!--entity eMSP5--><rect fill="#FEFECE" filter="url(#fbilh7ibzg56i)" height="36.4883" rx="4" ry="4" style="stroke: #A80036; stroke-width: 1.5;" width="65" x="54" y="74.76"/><text fill="#000000" font-family="sans-serif" font-size="14" lengthAdjust="spacingAndGlyphs" textLength="45" x="64" y="98.2952">eMSP5</text><!--entity CPO1--><rect fill="#FEFECE" filter="url(#fbilh7ibzg56i)" height="36.4883" rx="4" ry="4" style="stroke: #A80036; stroke-width: 1.5;" width="58" x="426.5" y="471.76"/><text fill="#000000" font-family="sans-serif" font-size="14" lengthAdjust="spacingAndGlyphs" textLength="38" x="436.5" y="495.2952">CPO1</text><!--entity eMSP1--><rect fill="#FEFECE" filter="url(#fbilh7ibzg56i)" height="36.4883" rx="4" ry="4" style="stroke: #A80036; stroke-width: 1.5;" width="65" x="423" y="542.76"/><text fill="#000000" font-family="sans-serif" font-size="14" lengthAdjust="spacingAndGlyphs" textLength="45" x="433" y="566.2952">eMSP1</text><!--entity CPO3--><rect fill="#FEFECE" filter="url(#fbilh7ibzg56i)" height="36.4883" rx="4" ry="4" style="stroke: #A80036; stroke-width: 1.5;" width="58" x="426.5" y="237.76"/><text fill="#000000" font-family="sans-serif" font-size="14" lengthAdjust="spacingAndGlyphs" textLength="38" x="436.5" y="261.2952">CPO3</text><!--entity CPO4--><rect fill="#FEFECE" filter="url(#fbilh7ibzg56i)" height="36.4883" rx="4" ry="4" style="stroke: #A80036; stroke-width: 1.5;" width="58" x="426.5" y="308.76"/><text fill="#000000" font-family="sans-serif" font-size="14" lengthAdjust="spacingAndGlyphs" textLength="38" x="436.5" y="332.2952">CPO4</text><!--entity CPO5--><rect fill="#FEFECE" filter="url(#fbilh7ibzg56i)" height="36.4883" rx="4" ry="4" style="stroke: #A80036; stroke-width: 1.5;" width="58" x="426.5" y="74.76"/><text fill="#000000" font-family="sans-serif" font-size="14" lengthAdjust="spacingAndGlyphs" textLength="38" x="436.5" y="98.2952">CPO5</text><!--entity Hub--><rect fill="#FEFECE" filter="url(#fbilh7ibzg56i)" height="36.4883" rx="4" ry="4" style="stroke: #A80036; stroke-width: 1.5;" width="48" x="247" y="308.76"/><text fill="#000000" font-family="sans-serif" font-size="14" lengthAdjust="spacingAndGlyphs" textLength="28" x="257" y="332.2952">Hub</text><!--link MSP1 to HUB_PLATFORM--><path d="M143.0839,604.4892 C143.2006,604.4379 143.3173,604.3863 143.4338,604.3344 C145.2983,603.5052 147.1325,602.6116 148.9217,601.6487 C152.5002,599.723 155.8988,597.52 159,595 C199.92,561.735 227.45,509.375 244.8575,464.775 C253.5613,442.475 259.7344,422.115 263.7853,407.0519 C264.798,403.2861 265.6781,399.8514 266.432,396.8001 C266.8089,395.2745 267.1543,393.8448 267.4689,392.5175 C267.6262,391.8539 267.7758,391.2158 267.9178,390.6042 C267.9888,390.2984 268.0579,389.9992 268.1251,389.7067 C268.1587,389.5604 268.1919,389.4159 268.2245,389.273 " fill="none" id="MSP1-HUB_PLATFORM" style="stroke: #A80036; stroke-width: 1.0;"/><text fill="#000000" font-family="sans-serif" font-size="13" lengthAdjust="spacingAndGlyphs" textLength="30" x="168" y="549.5684">OCPI</text><!--link MSP2 to HUB_PLATFORM--><path d="M143.3629,381 C143.6841,381 144.006,381 144.3286,381 C144.9737,381 145.6215,381 146.2719,381 C156.6774,381 167.7309,381 178.7838,381 C189.8366,381 200.8887,381 211.2914,381 C213.8921,381 216.4522,381 218.9616,381 C220.2163,381 221.4583,381 222.6864,381 " fill="none" id="MSP2-HUB_PLATFORM" style="stroke: #A80036; stroke-width: 1.0;"/><text fill="#000000" font-family="sans-serif" font-size="13" lengthAdjust="spacingAndGlyphs" textLength="30" x="168" y="377.5684">OCPI</text><!--link MSP3 to HUB_PLATFORM--><path d="M97.6697,155.1395 C97.9954,155.4108 98.3272,155.6882 98.665,155.9715 C99.3406,156.5381 100.0399,157.1284 100.7611,157.7417 C102.2034,158.9683 103.7329,160.2864 105.3338,161.689 C108.5356,164.4941 112.0231,167.6372 115.67,171.0613 C130.2575,184.7575 147.395,202.95 159,222 C192.99,277.82 160.21,315.37 207,361 C209.5463,363.4838 212.3997,365.6592 215.4486,367.5646 C216.973,368.5174 218.5463,369.4026 220.1545,370.225 C220.9586,370.6363 221.7714,371.0318 222.5913,371.4123 C222.6937,371.4599 222.7963,371.5072 222.899,371.5543 " fill="none" id="MSP3-HUB_PLATFORM" style="stroke: #A80036; stroke-width: 1.0;"/><text fill="#000000" font-family="sans-serif" font-size="13" lengthAdjust="spacingAndGlyphs" textLength="30" x="168" y="235.5684">OCPI</text><!--link HUB_PLATFORM to CPOP1--><path d="M273.7755,389.273 C273.8081,389.4159 273.8413,389.5604 273.8749,389.7067 C273.9421,389.9992 274.0112,390.2984 274.0822,390.6042 C274.2242,391.2158 274.3738,391.8539 274.5311,392.5175 C274.8457,393.8448 275.1911,395.2745 275.568,396.8001 C276.3219,399.8514 277.202,403.2861 278.2147,407.0519 C282.2656,422.115 288.4388,442.475 297.1425,464.775 C314.55,509.375 342.08,561.735 383,595 C386.1013,597.52 389.4998,599.723 393.0783,601.6487 C394.8675,602.6116 396.7017,603.5052 398.5662,604.3344 C398.6827,604.3863 398.7994,604.4379 398.9161,604.4892 " fill="none" id="HUB_PLATFORM-CPOP1" style="stroke: #A80036; stroke-width: 1.0;"/><text fill="#000000" font-family="sans-serif" font-size="13" lengthAdjust="spacingAndGlyphs" textLength="30" x="344" y="549.5684">OCPI</text><!--link HUB_PLATFORM to CPOP2--><path d="M319.3732,381 C320.6017,381 321.8442,381 323.0993,381 C325.6096,381 328.1705,381 330.7719,381 C341.1774,381 352.2309,381 363.2838,381 C374.3366,381 385.3887,381 395.7914,381 C397.0918,381 398.382,381 399.6608,381 C400.3001,381 400.9367,381 401.5702,381 C401.7286,381 401.8868,381 402.0448,381 " fill="none" id="HUB_PLATFORM-CPOP2" style="stroke: #A80036; stroke-width: 1.0;"/><text fill="#000000" font-family="sans-serif" font-size="13" lengthAdjust="spacingAndGlyphs" textLength="30" x="344" y="377.5684">OCPI</text><!--link HUB_PLATFORM to CPOP3--><path d="M319.101,371.5543 C319.2037,371.5072 319.3063,371.4599 319.4087,371.4123 C320.2286,371.0318 321.0414,370.6363 321.8455,370.225 C323.4537,369.4026 325.027,368.5174 326.5514,367.5646 C329.6003,365.6592 332.4538,363.4838 335,361 C381.79,315.37 349.01,277.82 383,222 C394.605,202.95 411.7425,184.7575 426.33,171.0613 C429.9769,167.6372 433.4644,164.4941 436.6662,161.689 C438.2671,160.2864 439.7966,158.9683 441.2389,157.7417 C441.9601,157.1284 442.6594,156.5381 443.335,155.9715 C443.6728,155.6882 444.0046,155.4108 444.3303,155.1395 " fill="none" id="HUB_PLATFORM-CPOP3" style="stroke: #A80036; stroke-width: 1.0;"/><text fill="#000000" font-family="sans-serif" font-size="13" lengthAdjust="spacingAndGlyphs" textLength="30" x="344" y="235.5684">OCPI</text><!--link MSP1 to CPOP1--><path d="M143.298,615 C144.3457,615 145.4045,615 146.4739,615 C180.6959,615 225.8581,615 271.0187,615 C316.1794,615 361.3384,615 395.5542,615 C396.6235,615 397.682,615 398.7296,615 " fill="none" id="MSP1-CPOP1" style="stroke: #A80036; stroke-width: 1.0;"/><!--link MSP3 to CPOP3--><path d="M143.298,147 C144.3457,147 145.4045,147 146.4739,147 C180.6959,147 225.8581,147 271.0187,147 C316.1794,147 361.3384,147 395.5542,147 C397.6927,147 399.7884,147 401.8388,147 " fill="none" id="MSP3-CPOP3" style="stroke: #A80036; stroke-width: 1.0;"/></g></svg>