<?xml version="1.0" encoding="UTF-8" standalone="no"?><svg xmlns="http://www.w3.org/2000/svg" xmlns:xlink="http://www.w3.org/1999/xlink" contentScriptType="application/ecmascript" contentStyleType="text/css" height="273px" preserveAspectRatio="none" style="width:1040px;height:273px;" version="1.1" viewBox="0 0 1040 273" width="1040px" zoomAndPan="magnify"><defs><filter height="300%" id="fqc03dfre2qdf" width="300%" x="-1" y="-1"><feGaussianBlur result="blurOut" stdDeviation="2.0"/><feColorMatrix in="blurOut" result="blurOut2" type="matrix" values="0 0 0 0 0 0 0 0 0 0 0 0 0 0 0 0 0 0 .4 0"/><feOffset dx="4.0" dy="4.0" in="blurOut2" result="blurOut3"/><feBlend in="SourceGraphic" in2="blurOut3" mode="normal"/></filter></defs><g><rect fill="#FFFFFF" filter="url(#fqc03dfre2qdf)" height="29.3105" style="stroke: #A80036; stroke-width: 1.0;" width="10" x="30" y="69.7988"/><rect fill="#FFFFFF" filter="url(#fqc03dfre2qdf)" height="14" style="stroke: #A80036; stroke-width: 1.0;" width="10" x="30" y="187.041"/><rect fill="#FFFFFF" filter="url(#fqc03dfre2qdf)" height="58.6211" style="stroke: #A80036; stroke-width: 1.0;" width="10" x="505" y="69.7988"/><rect fill="#FFFFFF" filter="url(#fqc03dfre2qdf)" height="43.3105" style="stroke: #A80036; stroke-width: 1.0;" width="10" x="505" y="157.7305"/><rect fill="#FFFFFF" filter="url(#fqc03dfre2qdf)" height="107.9316" style="stroke: #A80036; stroke-width: 1.0;" width="10" x="789" y="128.4199"/><line style="stroke: #A80036; stroke-width: 1.0; stroke-dasharray: 5.0,5.0;" x1="35" x2="35" y1="38.4883" y2="261.3516"/><line style="stroke: #A80036; stroke-width: 1.0; stroke-dasharray: 5.0,5.0;" x1="509.5" x2="509.5" y1="38.4883" y2="261.3516"/><line style="stroke: #A80036; stroke-width: 1.0; stroke-dasharray: 5.0,5.0;" x1="793.5" x2="793.5" y1="38.4883" y2="261.3516"/><rect fill="#FEFECE" filter="url(#fqc03dfre2qdf)" height="30.4883" style="stroke: #A80036; stroke-width: 1.5;" width="50" x="8" y="3"/><text fill="#000000" font-family="sans-serif" font-size="14" lengthAdjust="spacingAndGlyphs" textLength="36" x="15" y="23.5352">eMSP</text><rect fill="#FEFECE" filter="url(#fqc03dfre2qdf)" height="30.4883" style="stroke: #A80036; stroke-width: 1.5;" width="43" x="486.5" y="3"/><text fill="#000000" font-family="sans-serif" font-size="14" lengthAdjust="spacingAndGlyphs" textLength="29" x="493.5" y="23.5352">CPO</text><rect fill="#FEFECE" filter="url(#fqc03dfre2qdf)" height="30.4883" style="stroke: #A80036; stroke-width: 1.5;" width="103" x="740.5" y="3"/><text fill="#000000" font-family="sans-serif" font-size="14" lengthAdjust="spacingAndGlyphs" textLength="89" x="747.5" y="23.5352">Charge Point</text><rect fill="#FFFFFF" filter="url(#fqc03dfre2qdf)" height="29.3105" style="stroke: #A80036; stroke-width: 1.0;" width="10" x="30" y="69.7988"/><rect fill="#FFFFFF" filter="url(#fqc03dfre2qdf)" height="14" style="stroke: #A80036; stroke-width: 1.0;" width="10" x="30" y="187.041"/><rect fill="#FFFFFF" filter="url(#fqc03dfre2qdf)" height="58.6211" style="stroke: #A80036; stroke-width: 1.0;" width="10" x="505" y="69.7988"/><rect fill="#FFFFFF" filter="url(#fqc03dfre2qdf)" height="43.3105" style="stroke: #A80036; stroke-width: 1.0;" width="10" x="505" y="157.7305"/><rect fill="#FFFFFF" filter="url(#fqc03dfre2qdf)" height="107.9316" style="stroke: #A80036; stroke-width: 1.0;" width="10" x="789" y="128.4199"/><polygon fill="#A80036" points="493,65.7988,503,69.7988,493,73.7988,497,69.7988" style="stroke: #A80036; stroke-width: 1.0;"/><line style="stroke: #A80036; stroke-width: 1.0;" x1="40" x2="499" y1="69.7988" y2="69.7988"/><text fill="#000000" font-family="sans-serif" font-size="13" lengthAdjust="spacingAndGlyphs" textLength="369" x="47" y="65.0566">Command(START_SESSION, location_id=1234, token=200)</text><polygon fill="#A80036" points="46,95.1094,36,99.1094,46,103.1094,42,99.1094" style="stroke: #A80036; stroke-width: 1.0;"/><line style="stroke: #A80036; stroke-width: 1.0; stroke-dasharray: 2.0,2.0;" x1="40" x2="504" y1="99.1094" y2="99.1094"/><text fill="#000000" font-family="sans-serif" font-size="13" lengthAdjust="spacingAndGlyphs" textLength="441" x="52" y="94.3672">status_code = 1000, data: {CommandResponse { result = ACCEPTED }}</text><polygon fill="#A80036" points="777,124.4199,787,128.4199,777,132.4199,781,128.4199" style="stroke: #A80036; stroke-width: 1.0;"/><line style="stroke: #A80036; stroke-width: 1.0;" x1="510" x2="783" y1="128.4199" y2="128.4199"/><text fill="#000000" font-family="sans-serif" font-size="13" lengthAdjust="spacingAndGlyphs" textLength="255" x="517" y="123.6777">RemoteStartTransaction.req(Token=200)</text><polygon fill="#A80036" points="526,153.7305,516,157.7305,526,161.7305,522,157.7305" style="stroke: #A80036; stroke-width: 1.0;"/><line style="stroke: #A80036; stroke-width: 1.0;" x1="520" x2="788" y1="157.7305" y2="157.7305"/><text fill="#000000" font-family="sans-serif" font-size="13" lengthAdjust="spacingAndGlyphs" textLength="248" x="532" y="152.9883">RemoteStartTransaction.conf(Accepted)</text><polygon fill="#A80036" points="51,183.041,41,187.041,51,191.041,47,187.041" style="stroke: #A80036; stroke-width: 1.0;"/><line style="stroke: #A80036; stroke-width: 1.0;" x1="45" x2="504" y1="187.041" y2="187.041"/><text fill="#000000" font-family="sans-serif" font-size="13" lengthAdjust="spacingAndGlyphs" textLength="231" x="57" y="182.2988">CommandResult(result = ACCEPTED)</text><polygon fill="#A80036" points="498,197.041,508,201.041,498,205.041,502,201.041" style="stroke: #A80036; stroke-width: 1.0;"/><line style="stroke: #A80036; stroke-width: 1.0; stroke-dasharray: 2.0,2.0;" x1="35" x2="504" y1="201.041" y2="201.041"/><line style="stroke: #A80036; stroke-width: 1.0; stroke-dasharray: 2.0,2.0;" x1="799" x2="841" y1="235.3516" y2="235.3516"/><line style="stroke: #A80036; stroke-width: 1.0; stroke-dasharray: 2.0,2.0;" x1="841" x2="841" y1="235.3516" y2="248.3516"/><line style="stroke: #A80036; stroke-width: 1.0; stroke-dasharray: 2.0,2.0;" x1="794" x2="841" y1="248.3516" y2="248.3516"/><polygon fill="#A80036" points="804,244.3516,794,248.3516,804,252.3516,800,248.3516" style="stroke: #A80036; stroke-width: 1.0;"/><text fill="#000000" font-family="sans-serif" font-size="13" lengthAdjust="spacingAndGlyphs" textLength="222" x="806" y="230.6094">EV NOT Plugged in before time-out</text></g></svg>