<?xml version="1.0" encoding="UTF-8" standalone="no"?><svg xmlns="http://www.w3.org/2000/svg" xmlns:xlink="http://www.w3.org/1999/xlink" contentScriptType="application/ecmascript" contentStyleType="text/css" height="270px" preserveAspectRatio="none" style="width:873px;height:270px;" version="1.1" viewBox="0 0 873 270" width="873px" zoomAndPan="magnify"><defs><filter height="300%" id="f1phzcy7xrvxii" width="300%" x="-1" y="-1"><feGaussianBlur result="blurOut" stdDeviation="2.0"/><feColorMatrix in="blurOut" result="blurOut2" type="matrix" values="0 0 0 0 0 0 0 0 0 0 0 0 0 0 0 0 0 0 .4 0"/><feOffset dx="4.0" dy="4.0" in="blurOut2" result="blurOut3"/><feBlend in="SourceGraphic" in2="blurOut3" mode="normal"/></filter></defs><g><rect fill="#FFFFFF" filter="url(#f1phzcy7xrvxii)" height="29.3105" style="stroke: #A80036; stroke-width: 1.0;" width="10" x="30" y="109.1094"/><rect fill="#FFFFFF" filter="url(#f1phzcy7xrvxii)" height="14" style="stroke: #A80036; stroke-width: 1.0;" width="10" x="30" y="226.3516"/><rect fill="#FFFFFF" filter="url(#f1phzcy7xrvxii)" height="58.6211" style="stroke: #A80036; stroke-width: 1.0;" width="10" x="505" y="109.1094"/><rect fill="#FFFFFF" filter="url(#f1phzcy7xrvxii)" height="43.3105" style="stroke: #A80036; stroke-width: 1.0;" width="10" x="505" y="197.041"/><rect fill="#FFFFFF" filter="url(#f1phzcy7xrvxii)" height="72.6211" style="stroke: #A80036; stroke-width: 1.0;" width="10" x="789" y="167.7305"/><line style="stroke: #A80036; stroke-width: 1.0; stroke-dasharray: 5.0,5.0;" x1="35" x2="35" y1="38.4883" y2="258.3516"/><line style="stroke: #A80036; stroke-width: 1.0; stroke-dasharray: 5.0,5.0;" x1="509.5" x2="509.5" y1="38.4883" y2="258.3516"/><line style="stroke: #A80036; stroke-width: 1.0; stroke-dasharray: 5.0,5.0;" x1="793.5" x2="793.5" y1="38.4883" y2="258.3516"/><rect fill="#FEFECE" filter="url(#f1phzcy7xrvxii)" height="30.4883" style="stroke: #A80036; stroke-width: 1.5;" width="50" x="8" y="3"/><text fill="#000000" font-family="sans-serif" font-size="14" lengthAdjust="spacingAndGlyphs" textLength="36" x="15" y="23.5352">eMSP</text><rect fill="#FEFECE" filter="url(#f1phzcy7xrvxii)" height="30.4883" style="stroke: #A80036; stroke-width: 1.5;" width="43" x="486.5" y="3"/><text fill="#000000" font-family="sans-serif" font-size="14" lengthAdjust="spacingAndGlyphs" textLength="29" x="493.5" y="23.5352">CPO</text><rect fill="#FEFECE" filter="url(#f1phzcy7xrvxii)" height="30.4883" style="stroke: #A80036; stroke-width: 1.5;" width="103" x="740.5" y="3"/><text fill="#000000" font-family="sans-serif" font-size="14" lengthAdjust="spacingAndGlyphs" textLength="89" x="747.5" y="23.5352">Charge Point</text><rect fill="#FFFFFF" filter="url(#f1phzcy7xrvxii)" height="29.3105" style="stroke: #A80036; stroke-width: 1.0;" width="10" x="30" y="109.1094"/><rect fill="#FFFFFF" filter="url(#f1phzcy7xrvxii)" height="14" style="stroke: #A80036; stroke-width: 1.0;" width="10" x="30" y="226.3516"/><rect fill="#FFFFFF" filter="url(#f1phzcy7xrvxii)" height="58.6211" style="stroke: #A80036; stroke-width: 1.0;" width="10" x="505" y="109.1094"/><rect fill="#FFFFFF" filter="url(#f1phzcy7xrvxii)" height="43.3105" style="stroke: #A80036; stroke-width: 1.0;" width="10" x="505" y="197.041"/><rect fill="#FFFFFF" filter="url(#f1phzcy7xrvxii)" height="72.6211" style="stroke: #A80036; stroke-width: 1.0;" width="10" x="789" y="167.7305"/><path d="M723,53.4883 L723,78.4883 L861,78.4883 L861,63.4883 L851,53.4883 L723,53.4883 " fill="#FBFB77" filter="url(#f1phzcy7xrvxii)" style="stroke: #A80036; stroke-width: 1.0;"/><path d="M851,53.4883 L851,63.4883 L861,63.4883 L851,53.4883 " fill="#FBFB77" style="stroke: #A80036; stroke-width: 1.0;"/><text fill="#000000" font-family="sans-serif" font-size="13" lengthAdjust="spacingAndGlyphs" textLength="117" x="729" y="71.0566">EV NOT Plugged in</text><polygon fill="#A80036" points="493,105.1094,503,109.1094,493,113.1094,497,109.1094" style="stroke: #A80036; stroke-width: 1.0;"/><line style="stroke: #A80036; stroke-width: 1.0;" x1="40" x2="499" y1="109.1094" y2="109.1094"/><text fill="#000000" font-family="sans-serif" font-size="13" lengthAdjust="spacingAndGlyphs" textLength="369" x="47" y="104.3672">Command(START_SESSION, location_id=1234, token=200)</text><polygon fill="#A80036" points="46,134.4199,36,138.4199,46,142.4199,42,138.4199" style="stroke: #A80036; stroke-width: 1.0;"/><line style="stroke: #A80036; stroke-width: 1.0; stroke-dasharray: 2.0,2.0;" x1="40" x2="504" y1="138.4199" y2="138.4199"/><text fill="#000000" font-family="sans-serif" font-size="13" lengthAdjust="spacingAndGlyphs" textLength="441" x="52" y="133.6777">status_code = 1000, data: {CommandResponse { result = ACCEPTED }}</text><polygon fill="#A80036" points="777,163.7305,787,167.7305,777,171.7305,781,167.7305" style="stroke: #A80036; stroke-width: 1.0;"/><line style="stroke: #A80036; stroke-width: 1.0;" x1="510" x2="783" y1="167.7305" y2="167.7305"/><text fill="#000000" font-family="sans-serif" font-size="13" lengthAdjust="spacingAndGlyphs" textLength="255" x="517" y="162.9883">RemoteStartTransaction.req(Token=200)</text><polygon fill="#A80036" points="526,193.041,516,197.041,526,201.041,522,197.041" style="stroke: #A80036; stroke-width: 1.0;"/><line style="stroke: #A80036; stroke-width: 1.0;" x1="520" x2="788" y1="197.041" y2="197.041"/><text fill="#000000" font-family="sans-serif" font-size="13" lengthAdjust="spacingAndGlyphs" textLength="243" x="532" y="192.2988">RemoteStartTransaction.conf(Rejected)</text><polygon fill="#A80036" points="51,222.3516,41,226.3516,51,230.3516,47,226.3516" style="stroke: #A80036; stroke-width: 1.0;"/><line style="stroke: #A80036; stroke-width: 1.0;" x1="45" x2="504" y1="226.3516" y2="226.3516"/><text fill="#000000" font-family="sans-serif" font-size="13" lengthAdjust="spacingAndGlyphs" textLength="209" x="57" y="221.6094">CommandResult(result = FAILED)</text><polygon fill="#A80036" points="498,236.3516,508,240.3516,498,244.3516,502,240.3516" style="stroke: #A80036; stroke-width: 1.0;"/><line style="stroke: #A80036; stroke-width: 1.0; stroke-dasharray: 2.0,2.0;" x1="35" x2="504" y1="240.3516" y2="240.3516"/></g></svg>