<?xml version="1.0" encoding="UTF-8" standalone="no"?><svg xmlns="http://www.w3.org/2000/svg" xmlns:xlink="http://www.w3.org/1999/xlink" contentScriptType="application/ecmascript" contentStyleType="text/css" height="231px" preserveAspectRatio="none" style="width:958px;height:231px;" version="1.1" viewBox="0 0 958 231" width="958px" zoomAndPan="magnify"><defs><filter height="300%" id="f10svwmuaicvel" width="300%" x="-1" y="-1"><feGaussianBlur result="blurOut" stdDeviation="2.0"/><feColorMatrix in="blurOut" result="blurOut2" type="matrix" values="0 0 0 0 0 0 0 0 0 0 0 0 0 0 0 0 0 0 .4 0"/><feOffset dx="4.0" dy="4.0" in="blurOut2" result="blurOut3"/><feBlend in="SourceGraphic" in2="blurOut3" mode="normal"/></filter></defs><g><rect fill="#FFFFFF" filter="url(#f10svwmuaicvel)" height="29.3105" style="stroke: #A80036; stroke-width: 1.0;" width="10" x="30" y="69.7988"/><rect fill="#FFFFFF" filter="url(#f10svwmuaicvel)" height="14" style="stroke: #A80036; stroke-width: 1.0;" width="10" x="30" y="187.041"/><rect fill="#FFFFFF" filter="url(#f10svwmuaicvel)" height="58.6211" style="stroke: #A80036; stroke-width: 1.0;" width="10" x="563" y="69.7988"/><rect fill="#FFFFFF" filter="url(#f10svwmuaicvel)" height="43.3105" style="stroke: #A80036; stroke-width: 1.0;" width="10" x="563" y="157.7305"/><rect fill="#FFFFFF" filter="url(#f10svwmuaicvel)" height="29.3105" style="stroke: #A80036; stroke-width: 1.0;" width="10" x="893" y="128.4199"/><line style="stroke: #A80036; stroke-width: 1.0; stroke-dasharray: 5.0,5.0;" x1="35" x2="35" y1="38.4883" y2="219.041"/><line style="stroke: #A80036; stroke-width: 1.0; stroke-dasharray: 5.0,5.0;" x1="567.5" x2="567.5" y1="38.4883" y2="219.041"/><line style="stroke: #A80036; stroke-width: 1.0; stroke-dasharray: 5.0,5.0;" x1="897.5" x2="897.5" y1="38.4883" y2="219.041"/><rect fill="#FEFECE" filter="url(#f10svwmuaicvel)" height="30.4883" style="stroke: #A80036; stroke-width: 1.5;" width="50" x="8" y="3"/><text fill="#000000" font-family="sans-serif" font-size="14" lengthAdjust="spacingAndGlyphs" textLength="36" x="15" y="23.5352">eMSP</text><rect fill="#FEFECE" filter="url(#f10svwmuaicvel)" height="30.4883" style="stroke: #A80036; stroke-width: 1.5;" width="43" x="544.5" y="3"/><text fill="#000000" font-family="sans-serif" font-size="14" lengthAdjust="spacingAndGlyphs" textLength="29" x="551.5" y="23.5352">CPO</text><rect fill="#FEFECE" filter="url(#f10svwmuaicvel)" height="30.4883" style="stroke: #A80036; stroke-width: 1.5;" width="103" x="844.5" y="3"/><text fill="#000000" font-family="sans-serif" font-size="14" lengthAdjust="spacingAndGlyphs" textLength="89" x="851.5" y="23.5352">Charge Point</text><rect fill="#FFFFFF" filter="url(#f10svwmuaicvel)" height="29.3105" style="stroke: #A80036; stroke-width: 1.0;" width="10" x="30" y="69.7988"/><rect fill="#FFFFFF" filter="url(#f10svwmuaicvel)" height="14" style="stroke: #A80036; stroke-width: 1.0;" width="10" x="30" y="187.041"/><rect fill="#FFFFFF" filter="url(#f10svwmuaicvel)" height="58.6211" style="stroke: #A80036; stroke-width: 1.0;" width="10" x="563" y="69.7988"/><rect fill="#FFFFFF" filter="url(#f10svwmuaicvel)" height="43.3105" style="stroke: #A80036; stroke-width: 1.0;" width="10" x="563" y="157.7305"/><rect fill="#FFFFFF" filter="url(#f10svwmuaicvel)" height="29.3105" style="stroke: #A80036; stroke-width: 1.0;" width="10" x="893" y="128.4199"/><polygon fill="#A80036" points="551,65.7988,561,69.7988,551,73.7988,555,69.7988" style="stroke: #A80036; stroke-width: 1.0;"/><line style="stroke: #A80036; stroke-width: 1.0;" x1="40" x2="557" y1="69.7988" y2="69.7988"/><text fill="#000000" font-family="sans-serif" font-size="13" lengthAdjust="spacingAndGlyphs" textLength="509" x="47" y="65.0566">Command(RESERVE_NOW, location_id=1234, token=200, reservationId=ABC123)</text><polygon fill="#A80036" points="46,95.1094,36,99.1094,46,103.1094,42,99.1094" style="stroke: #A80036; stroke-width: 1.0;"/><line style="stroke: #A80036; stroke-width: 1.0; stroke-dasharray: 2.0,2.0;" x1="40" x2="562" y1="99.1094" y2="99.1094"/><text fill="#000000" font-family="sans-serif" font-size="13" lengthAdjust="spacingAndGlyphs" textLength="441" x="52" y="94.3672">status_code = 1000, data: {CommandResponse { result = ACCEPTED }}</text><polygon fill="#A80036" points="881,124.4199,891,128.4199,881,132.4199,885,128.4199" style="stroke: #A80036; stroke-width: 1.0;"/><line style="stroke: #A80036; stroke-width: 1.0;" x1="568" x2="887" y1="128.4199" y2="128.4199"/><text fill="#000000" font-family="sans-serif" font-size="13" lengthAdjust="spacingAndGlyphs" textLength="301" x="575" y="123.6777">ReserveNow.req(idTag=200, reservationId=456)</text><polygon fill="#A80036" points="584,153.7305,574,157.7305,584,161.7305,580,157.7305" style="stroke: #A80036; stroke-width: 1.0;"/><line style="stroke: #A80036; stroke-width: 1.0;" x1="578" x2="897" y1="157.7305" y2="157.7305"/><text fill="#000000" font-family="sans-serif" font-size="13" lengthAdjust="spacingAndGlyphs" textLength="169" x="590" y="152.9883">ReserveNow.conf(Rejected)</text><polygon fill="#A80036" points="51,183.041,41,187.041,51,191.041,47,187.041" style="stroke: #A80036; stroke-width: 1.0;"/><line style="stroke: #A80036; stroke-width: 1.0;" x1="45" x2="562" y1="187.041" y2="187.041"/><text fill="#000000" font-family="sans-serif" font-size="13" lengthAdjust="spacingAndGlyphs" textLength="225" x="57" y="182.2988">CommandResult(result = REJECTED)</text><polygon fill="#A80036" points="556,197.041,566,201.041,556,205.041,560,201.041" style="stroke: #A80036; stroke-width: 1.0;"/><line style="stroke: #A80036; stroke-width: 1.0; stroke-dasharray: 2.0,2.0;" x1="35" x2="562" y1="201.041" y2="201.041"/></g></svg>