<?xml version="1.0" encoding="UTF-8" standalone="no"?><svg xmlns="http://www.w3.org/2000/svg" xmlns:xlink="http://www.w3.org/1999/xlink" contentScriptType="application/ecmascript" contentStyleType="text/css" height="276px" preserveAspectRatio="none" style="width:900px;height:276px;" version="1.1" viewBox="0 0 900 276" width="900px" zoomAndPan="magnify"><defs><filter height="300%" id="f1l6yc8ct7icb3" width="300%" x="-1" y="-1"><feGaussianBlur result="blurOut" stdDeviation="2.0"/><feColorMatrix in="blurOut" result="blurOut2" type="matrix" values="0 0 0 0 0 0 0 0 0 0 0 0 0 0 0 0 0 0 .4 0"/><feOffset dx="4.0" dy="4.0" in="blurOut2" result="blurOut3"/><feBlend in="SourceGraphic" in2="blurOut3" mode="normal"/></filter></defs><g><rect fill="#FFFFFF" filter="url(#f1l6yc8ct7icb3)" height="29.3105" style="stroke: #A80036; stroke-width: 1.0;" width="10" x="30" y="100.4199"/><rect fill="#FFFFFF" filter="url(#f1l6yc8ct7icb3)" height="14" style="stroke: #A80036; stroke-width: 1.0;" width="10" x="30" y="232.9727"/><rect fill="#FFFFFF" filter="url(#f1l6yc8ct7icb3)" height="58.6211" style="stroke: #A80036; stroke-width: 1.0;" width="10" x="505" y="100.4199"/><rect fill="#FFFFFF" filter="url(#f1l6yc8ct7icb3)" height="58.6211" style="stroke: #A80036; stroke-width: 1.0;" width="10" x="505" y="188.3516"/><rect fill="#FFFFFF" filter="url(#f1l6yc8ct7icb3)" height="29.3105" style="stroke: #A80036; stroke-width: 1.0;" width="10" x="835" y="159.041"/><line style="stroke: #A80036; stroke-width: 1.0; stroke-dasharray: 5.0,5.0;" x1="35" x2="35" y1="38.4883" y2="264.9727"/><line style="stroke: #A80036; stroke-width: 1.0; stroke-dasharray: 5.0,5.0;" x1="509.5" x2="509.5" y1="38.4883" y2="264.9727"/><line style="stroke: #A80036; stroke-width: 1.0; stroke-dasharray: 5.0,5.0;" x1="839.5" x2="839.5" y1="38.4883" y2="264.9727"/><rect fill="#FEFECE" filter="url(#f1l6yc8ct7icb3)" height="30.4883" style="stroke: #A80036; stroke-width: 1.5;" width="50" x="8" y="3"/><text fill="#000000" font-family="sans-serif" font-size="14" lengthAdjust="spacingAndGlyphs" textLength="36" x="15" y="23.5352">eMSP</text><rect fill="#FEFECE" filter="url(#f1l6yc8ct7icb3)" height="30.4883" style="stroke: #A80036; stroke-width: 1.5;" width="43" x="486.5" y="3"/><text fill="#000000" font-family="sans-serif" font-size="14" lengthAdjust="spacingAndGlyphs" textLength="29" x="493.5" y="23.5352">CPO</text><rect fill="#FEFECE" filter="url(#f1l6yc8ct7icb3)" height="30.4883" style="stroke: #A80036; stroke-width: 1.5;" width="103" x="786.5" y="3"/><text fill="#000000" font-family="sans-serif" font-size="14" lengthAdjust="spacingAndGlyphs" textLength="89" x="793.5" y="23.5352">Charge Point</text><rect fill="#FFFFFF" filter="url(#f1l6yc8ct7icb3)" height="29.3105" style="stroke: #A80036; stroke-width: 1.0;" width="10" x="30" y="100.4199"/><rect fill="#FFFFFF" filter="url(#f1l6yc8ct7icb3)" height="14" style="stroke: #A80036; stroke-width: 1.0;" width="10" x="30" y="232.9727"/><rect fill="#FFFFFF" filter="url(#f1l6yc8ct7icb3)" height="58.6211" style="stroke: #A80036; stroke-width: 1.0;" width="10" x="505" y="100.4199"/><rect fill="#FFFFFF" filter="url(#f1l6yc8ct7icb3)" height="58.6211" style="stroke: #A80036; stroke-width: 1.0;" width="10" x="505" y="188.3516"/><rect fill="#FFFFFF" filter="url(#f1l6yc8ct7icb3)" height="29.3105" style="stroke: #A80036; stroke-width: 1.0;" width="10" x="835" y="159.041"/><polygon fill="#A80036" points="493,96.4199,503,100.4199,493,104.4199,497,100.4199" style="stroke: #A80036; stroke-width: 1.0;"/><line style="stroke: #A80036; stroke-width: 1.0;" x1="40" x2="499" y1="100.4199" y2="100.4199"/><text fill="#000000" font-family="sans-serif" font-size="13" lengthAdjust="spacingAndGlyphs" textLength="360" x="47" y="65.0566">Command(RESERVE_NOW, location_id=1234, token=200,</text><text fill="#000000" font-family="sans-serif" font-size="13" lengthAdjust="spacingAndGlyphs" textLength="145" x="119" y="80.3672">reservationId=ABC123,</text><text fill="#000000" font-family="sans-serif" font-size="13" lengthAdjust="spacingAndGlyphs" textLength="348" x="119" y="95.6777">response_url=https://server.com/reservation/ABC123)</text><polygon fill="#A80036" points="46,125.7305,36,129.7305,46,133.7305,42,129.7305" style="stroke: #A80036; stroke-width: 1.0;"/><line style="stroke: #A80036; stroke-width: 1.0; stroke-dasharray: 2.0,2.0;" x1="40" x2="504" y1="129.7305" y2="129.7305"/><text fill="#000000" font-family="sans-serif" font-size="13" lengthAdjust="spacingAndGlyphs" textLength="441" x="52" y="124.9883">status_code = 1000, data: {CommandResponse { result = ACCEPTED }}</text><polygon fill="#A80036" points="823,155.041,833,159.041,823,163.041,827,159.041" style="stroke: #A80036; stroke-width: 1.0;"/><line style="stroke: #A80036; stroke-width: 1.0;" x1="510" x2="829" y1="159.041" y2="159.041"/><text fill="#000000" font-family="sans-serif" font-size="13" lengthAdjust="spacingAndGlyphs" textLength="301" x="517" y="154.2988">ReserveNow.req(idTag=200, reservationId=456)</text><polygon fill="#A80036" points="526,184.3516,516,188.3516,526,192.3516,522,188.3516" style="stroke: #A80036; stroke-width: 1.0;"/><line style="stroke: #A80036; stroke-width: 1.0;" x1="520" x2="839" y1="188.3516" y2="188.3516"/><text fill="#000000" font-family="sans-serif" font-size="13" lengthAdjust="spacingAndGlyphs" textLength="174" x="532" y="183.6094">ReserveNow.conf(Accepted)</text><polygon fill="#A80036" points="51,228.9727,41,232.9727,51,236.9727,47,232.9727" style="stroke: #A80036; stroke-width: 1.0;"/><line style="stroke: #A80036; stroke-width: 1.0;" x1="45" x2="504" y1="232.9727" y2="232.9727"/><text fill="#000000" font-family="sans-serif" font-size="13" lengthAdjust="spacingAndGlyphs" textLength="293" x="57" y="212.9199">POST: https://server.com/reservation/ABC123</text><text fill="#000000" font-family="sans-serif" font-size="13" lengthAdjust="spacingAndGlyphs" textLength="231" x="77" y="228.2305">CommandResult(result = ACCEPTED)</text><polygon fill="#A80036" points="498,242.9727,508,246.9727,498,250.9727,502,246.9727" style="stroke: #A80036; stroke-width: 1.0;"/><line style="stroke: #A80036; stroke-width: 1.0; stroke-dasharray: 2.0,2.0;" x1="35" x2="504" y1="246.9727" y2="246.9727"/></g></svg>