<?xml version="1.0" encoding="UTF-8" standalone="no"?><svg xmlns="http://www.w3.org/2000/svg" xmlns:xlink="http://www.w3.org/1999/xlink" contentScriptType="application/ecmascript" contentStyleType="text/css" height="511px" preserveAspectRatio="none" style="width:898px;height:511px;" version="1.1" viewBox="0 0 898 511" width="898px" zoomAndPan="magnify"><defs><filter height="300%" id="f295rh0texqa3" width="300%" x="-1" y="-1"><feGaussianBlur result="blurOut" stdDeviation="2.0"/><feColorMatrix in="blurOut" result="blurOut2" type="matrix" values="0 0 0 0 0 0 0 0 0 0 0 0 0 0 0 0 0 0 .4 0"/><feOffset dx="4.0" dy="4.0" in="blurOut2" result="blurOut3"/><feBlend in="SourceGraphic" in2="blurOut3" mode="normal"/></filter></defs><g><rect fill="#FFFFFF" filter="url(#f295rh0texqa3)" height="29.3105" style="stroke: #A80036; stroke-width: 1.0;" width="10" x="30" y="100.4199"/><rect fill="#FFFFFF" filter="url(#f295rh0texqa3)" height="14" style="stroke: #A80036; stroke-width: 1.0;" width="10" x="30" y="217.6621"/><rect fill="#FFFFFF" filter="url(#f295rh0texqa3)" height="14" style="stroke: #A80036; stroke-width: 1.0;" width="10" x="30" y="467.1465"/><rect fill="#FFFFFF" filter="url(#f295rh0texqa3)" height="58.6211" style="stroke: #A80036; stroke-width: 1.0;" width="10" x="505" y="100.4199"/><rect fill="#FFFFFF" filter="url(#f295rh0texqa3)" height="43.3105" style="stroke: #A80036; stroke-width: 1.0;" width="10" x="505" y="188.3516"/><rect fill="#FFFFFF" filter="url(#f295rh0texqa3)" height="29.3105" style="stroke: #A80036; stroke-width: 1.0;" width="10" x="505" y="285.2832"/><rect fill="#FFFFFF" filter="url(#f295rh0texqa3)" height="87.9316" style="stroke: #A80036; stroke-width: 1.0;" width="10" x="505" y="393.2148"/><rect fill="#FFFFFF" filter="url(#f295rh0texqa3)" height="155.5527" style="stroke: #A80036; stroke-width: 1.0;" width="10" x="789" y="159.041"/><rect fill="#FFFFFF" filter="url(#f295rh0texqa3)" height="75.9316" style="stroke: #000000; stroke-width: 2.0;" width="381" x="476.5" y="246.6621"/><line style="stroke: #A80036; stroke-width: 1.0; stroke-dasharray: 5.0,5.0;" x1="35" x2="35" y1="38.4883" y2="499.1465"/><line style="stroke: #A80036; stroke-width: 1.0; stroke-dasharray: 5.0,5.0;" x1="509.5" x2="509.5" y1="38.4883" y2="499.1465"/><line style="stroke: #A80036; stroke-width: 1.0; stroke-dasharray: 5.0,5.0;" x1="793.5" x2="793.5" y1="38.4883" y2="499.1465"/><rect fill="#FEFECE" filter="url(#f295rh0texqa3)" height="30.4883" style="stroke: #A80036; stroke-width: 1.5;" width="50" x="8" y="3"/><text fill="#000000" font-family="sans-serif" font-size="14" lengthAdjust="spacingAndGlyphs" textLength="36" x="15" y="23.5352">eMSP</text><rect fill="#FEFECE" filter="url(#f295rh0texqa3)" height="30.4883" style="stroke: #A80036; stroke-width: 1.5;" width="43" x="486.5" y="3"/><text fill="#000000" font-family="sans-serif" font-size="14" lengthAdjust="spacingAndGlyphs" textLength="29" x="493.5" y="23.5352">CPO</text><rect fill="#FEFECE" filter="url(#f295rh0texqa3)" height="30.4883" style="stroke: #A80036; stroke-width: 1.5;" width="103" x="740.5" y="3"/><text fill="#000000" font-family="sans-serif" font-size="14" lengthAdjust="spacingAndGlyphs" textLength="89" x="747.5" y="23.5352">Charge Point</text><rect fill="#FFFFFF" filter="url(#f295rh0texqa3)" height="29.3105" style="stroke: #A80036; stroke-width: 1.0;" width="10" x="30" y="100.4199"/><rect fill="#FFFFFF" filter="url(#f295rh0texqa3)" height="14" style="stroke: #A80036; stroke-width: 1.0;" width="10" x="30" y="217.6621"/><rect fill="#FFFFFF" filter="url(#f295rh0texqa3)" height="14" style="stroke: #A80036; stroke-width: 1.0;" width="10" x="30" y="467.1465"/><rect fill="#FFFFFF" filter="url(#f295rh0texqa3)" height="58.6211" style="stroke: #A80036; stroke-width: 1.0;" width="10" x="505" y="100.4199"/><rect fill="#FFFFFF" filter="url(#f295rh0texqa3)" height="43.3105" style="stroke: #A80036; stroke-width: 1.0;" width="10" x="505" y="188.3516"/><rect fill="#FFFFFF" filter="url(#f295rh0texqa3)" height="29.3105" style="stroke: #A80036; stroke-width: 1.0;" width="10" x="505" y="285.2832"/><rect fill="#FFFFFF" filter="url(#f295rh0texqa3)" height="87.9316" style="stroke: #A80036; stroke-width: 1.0;" width="10" x="505" y="393.2148"/><rect fill="#FFFFFF" filter="url(#f295rh0texqa3)" height="155.5527" style="stroke: #A80036; stroke-width: 1.0;" width="10" x="789" y="159.041"/><polygon fill="#A80036" points="493,96.4199,503,100.4199,493,104.4199,497,100.4199" style="stroke: #A80036; stroke-width: 1.0;"/><line style="stroke: #A80036; stroke-width: 1.0;" x1="40" x2="499" y1="100.4199" y2="100.4199"/><text fill="#000000" font-family="sans-serif" font-size="13" lengthAdjust="spacingAndGlyphs" textLength="291" x="47" y="65.0566">Command(START_SESSION, location_id=1234,</text><text fill="#000000" font-family="sans-serif" font-size="13" lengthAdjust="spacingAndGlyphs" textLength="276" x="115" y="80.3672">token.uid=200, token.type=AD_HOC_USER,</text><text fill="#000000" font-family="sans-serif" font-size="13" lengthAdjust="spacingAndGlyphs" textLength="251" x="115" y="95.6777">token.authorization_reference=567890)</text><polygon fill="#A80036" points="46,125.7305,36,129.7305,46,133.7305,42,129.7305" style="stroke: #A80036; stroke-width: 1.0;"/><line style="stroke: #A80036; stroke-width: 1.0; stroke-dasharray: 2.0,2.0;" x1="40" x2="504" y1="129.7305" y2="129.7305"/><text fill="#000000" font-family="sans-serif" font-size="13" lengthAdjust="spacingAndGlyphs" textLength="441" x="52" y="124.9883">status_code = 1000, data: {CommandResponse { result = ACCEPTED }}</text><polygon fill="#A80036" points="777,155.041,787,159.041,777,163.041,781,159.041" style="stroke: #A80036; stroke-width: 1.0;"/><line style="stroke: #A80036; stroke-width: 1.0;" x1="510" x2="783" y1="159.041" y2="159.041"/><text fill="#000000" font-family="sans-serif" font-size="13" lengthAdjust="spacingAndGlyphs" textLength="255" x="517" y="154.2988">RemoteStartTransaction.req(Token=200)</text><polygon fill="#A80036" points="526,184.3516,516,188.3516,526,192.3516,522,188.3516" style="stroke: #A80036; stroke-width: 1.0;"/><line style="stroke: #A80036; stroke-width: 1.0;" x1="520" x2="788" y1="188.3516" y2="188.3516"/><text fill="#000000" font-family="sans-serif" font-size="13" lengthAdjust="spacingAndGlyphs" textLength="248" x="532" y="183.6094">RemoteStartTransaction.conf(Accepted)</text><polygon fill="#A80036" points="51,213.6621,41,217.6621,51,221.6621,47,217.6621" style="stroke: #A80036; stroke-width: 1.0;"/><line style="stroke: #A80036; stroke-width: 1.0;" x1="45" x2="504" y1="217.6621" y2="217.6621"/><text fill="#000000" font-family="sans-serif" font-size="13" lengthAdjust="spacingAndGlyphs" textLength="231" x="57" y="212.9199">CommandResult(result = ACCEPTED)</text><polygon fill="#A80036" points="498,227.6621,508,231.6621,498,235.6621,502,231.6621" style="stroke: #A80036; stroke-width: 1.0;"/><line style="stroke: #A80036; stroke-width: 1.0; stroke-dasharray: 2.0,2.0;" x1="35" x2="504" y1="231.6621" y2="231.6621"/><path d="M476.5,246.6621 L543.5,246.6621 L543.5,253.6621 L533.5,263.6621 L476.5,263.6621 L476.5,246.6621 " fill="#EEEEEE" style="stroke: #000000; stroke-width: 1.0;"/><rect fill="none" height="75.9316" style="stroke: #000000; stroke-width: 2.0;" width="381" x="476.5" y="246.6621"/><text fill="#000000" font-family="sans-serif" font-size="13" font-weight="bold" lengthAdjust="spacingAndGlyphs" textLength="22" x="491.5" y="260.2305">opt</text><polygon fill="#A80036" points="526,281.2832,516,285.2832,526,289.2832,522,285.2832" style="stroke: #A80036; stroke-width: 1.0;"/><line style="stroke: #A80036; stroke-width: 1.0;" x1="520" x2="788" y1="285.2832" y2="285.2832"/><text fill="#000000" font-family="sans-serif" font-size="13" lengthAdjust="spacingAndGlyphs" textLength="166" x="532" y="280.541">Authorize.req(Token=200)</text><polygon fill="#A80036" points="782,310.5938,792,314.5938,782,318.5938,786,314.5938" style="stroke: #A80036; stroke-width: 1.0;"/><line style="stroke: #A80036; stroke-width: 1.0;" x1="510" x2="788" y1="314.5938" y2="314.5938"/><text fill="#000000" font-family="sans-serif" font-size="13" lengthAdjust="spacingAndGlyphs" textLength="159" x="517" y="309.8516">Authorize.conf(Accepted)</text><line style="stroke: #A80036; stroke-width: 1.0; stroke-dasharray: 2.0,2.0;" x1="794" x2="836" y1="350.9043" y2="350.9043"/><line style="stroke: #A80036; stroke-width: 1.0; stroke-dasharray: 2.0,2.0;" x1="836" x2="836" y1="350.9043" y2="363.9043"/><line style="stroke: #A80036; stroke-width: 1.0; stroke-dasharray: 2.0,2.0;" x1="795" x2="836" y1="363.9043" y2="363.9043"/><polygon fill="#A80036" points="805,359.9043,795,363.9043,805,367.9043,801,363.9043" style="stroke: #A80036; stroke-width: 1.0;"/><text fill="#000000" font-family="sans-serif" font-size="13" lengthAdjust="spacingAndGlyphs" textLength="85" x="801" y="346.1621">EV Plugged in</text><polygon fill="#A80036" points="526,389.2148,516,393.2148,526,397.2148,522,393.2148" style="stroke: #A80036; stroke-width: 1.0;"/><line style="stroke: #A80036; stroke-width: 1.0;" x1="520" x2="793" y1="393.2148" y2="393.2148"/><text fill="#000000" font-family="sans-serif" font-size="13" lengthAdjust="spacingAndGlyphs" textLength="208" x="532" y="388.4727">StartTransaction.req(Token=200)</text><polygon fill="#A80036" points="782,418.5254,792,422.5254,782,426.5254,786,422.5254" style="stroke: #A80036; stroke-width: 1.0;"/><line style="stroke: #A80036; stroke-width: 1.0;" x1="515" x2="788" y1="422.5254" y2="422.5254"/><text fill="#000000" font-family="sans-serif" font-size="13" lengthAdjust="spacingAndGlyphs" textLength="255" x="522" y="417.7832">StartTransaction.conf(TransactionId=15)</text><polygon fill="#A80036" points="51,463.1465,41,467.1465,51,471.1465,47,467.1465" style="stroke: #A80036; stroke-width: 1.0;"/><line style="stroke: #A80036; stroke-width: 1.0;" x1="45" x2="504" y1="467.1465" y2="467.1465"/><text fill="#000000" font-family="sans-serif" font-size="13" lengthAdjust="spacingAndGlyphs" textLength="288" x="57" y="447.0938">Session(id=15, token=200, location_id=1234</text><text fill="#000000" font-family="sans-serif" font-size="13" lengthAdjust="spacingAndGlyphs" textLength="211" x="113" y="462.4043">authorization_reference=567890)</text><polygon fill="#A80036" points="498,477.1465,508,481.1465,498,485.1465,502,481.1465" style="stroke: #A80036; stroke-width: 1.0;"/><line style="stroke: #A80036; stroke-width: 1.0; stroke-dasharray: 2.0,2.0;" x1="35" x2="504" y1="481.1465" y2="481.1465"/></g></svg>