<?xml version="1.0" encoding="us-ascii" standalone="no"?><svg xmlns="http://www.w3.org/2000/svg" xmlns:xlink="http://www.w3.org/1999/xlink" contentStyleType="text/css" height="504px" preserveAspectRatio="none" style="width:893px;height:504px;background:#FFFFFF;" version="1.1" viewBox="0 0 893 504" width="893px" zoomAndPan="magnify"><defs/><g><rect fill="#FFFFFF" height="29.3105" style="stroke:#181818;stroke-width:1.0;" width="10" x="25" y="140.7305"/><rect fill="#FFFFFF" height="14" style="stroke:#181818;stroke-width:1.0;" width="10" x="25" y="257.9727"/><rect fill="#FFFFFF" height="14" style="stroke:#181818;stroke-width:1.0;" width="10" x="25" y="465.1465"/><rect fill="#FFFFFF" height="58.6211" style="stroke:#181818;stroke-width:1.0;" width="10" x="500" y="140.7305"/><rect fill="#FFFFFF" height="43.3105" style="stroke:#181818;stroke-width:1.0;" width="10" x="500" y="228.6621"/><rect fill="#FFFFFF" height="29.3105" style="stroke:#181818;stroke-width:1.0;" width="10" x="500" y="325.5938"/><rect fill="#FFFFFF" height="87.9316" style="stroke:#181818;stroke-width:1.0;" width="10" x="500" y="391.2148"/><rect fill="#FFFFFF" height="221.1738" style="stroke:#181818;stroke-width:1.0;" width="10" x="789" y="199.3516"/><rect fill="none" height="75.9316" style="stroke:#000000;stroke-width:1.5;" width="382" x="473.5" y="286.9727"/><line style="stroke:#181818;stroke-width:0.5;stroke-dasharray:5.0,5.0;" x1="30" x2="30" y1="36.4883" y2="497.1465"/><line style="stroke:#181818;stroke-width:0.5;stroke-dasharray:5.0,5.0;" x1="504.5" x2="504.5" y1="36.4883" y2="497.1465"/><line style="stroke:#181818;stroke-width:0.5;stroke-dasharray:5.0,5.0;" x1="793.5" x2="793.5" y1="36.4883" y2="497.1465"/><rect fill="#E2E2F0" height="30.4883" rx="2.5" ry="2.5" style="stroke:#181818;stroke-width:0.5;" width="50" x="5" y="5"/><text fill="#000000" font-family="sans-serif" font-size="14" lengthAdjust="spacing" textLength="36" x="12" y="25.5352">eMSP</text><rect fill="#E2E2F0" height="30.4883" rx="2.5" ry="2.5" style="stroke:#181818;stroke-width:0.5;" width="43" x="483.5" y="5"/><text fill="#000000" font-family="sans-serif" font-size="14" lengthAdjust="spacing" textLength="29" x="490.5" y="25.5352">CPO</text><rect fill="#E2E2F0" height="30.4883" rx="2.5" ry="2.5" style="stroke:#181818;stroke-width:0.5;" width="103" x="742.5" y="5"/><text fill="#000000" font-family="sans-serif" font-size="14" lengthAdjust="spacing" textLength="89" x="749.5" y="25.5352">Charge Point</text><rect fill="#FFFFFF" height="29.3105" style="stroke:#181818;stroke-width:1.0;" width="10" x="25" y="140.7305"/><rect fill="#FFFFFF" height="14" style="stroke:#181818;stroke-width:1.0;" width="10" x="25" y="257.9727"/><rect fill="#FFFFFF" height="14" style="stroke:#181818;stroke-width:1.0;" width="10" x="25" y="465.1465"/><rect fill="#FFFFFF" height="58.6211" style="stroke:#181818;stroke-width:1.0;" width="10" x="500" y="140.7305"/><rect fill="#FFFFFF" height="43.3105" style="stroke:#181818;stroke-width:1.0;" width="10" x="500" y="228.6621"/><rect fill="#FFFFFF" height="29.3105" style="stroke:#181818;stroke-width:1.0;" width="10" x="500" y="325.5938"/><rect fill="#FFFFFF" height="87.9316" style="stroke:#181818;stroke-width:1.0;" width="10" x="500" y="391.2148"/><rect fill="#FFFFFF" height="221.1738" style="stroke:#181818;stroke-width:1.0;" width="10" x="789" y="199.3516"/><line style="stroke:#181818;stroke-width:1.0;stroke-dasharray:2.0,2.0;" x1="794" x2="836" y1="67.7988" y2="67.7988"/><line style="stroke:#181818;stroke-width:1.0;stroke-dasharray:2.0,2.0;" x1="836" x2="836" y1="67.7988" y2="80.7988"/><line style="stroke:#181818;stroke-width:1.0;stroke-dasharray:2.0,2.0;" x1="795" x2="836" y1="80.7988" y2="80.7988"/><polygon fill="#181818" points="805,76.7988,795,80.7988,805,84.7988,801,80.7988" style="stroke:#181818;stroke-width:1.0;"/><text fill="#000000" font-family="sans-serif" font-size="13" lengthAdjust="spacing" textLength="85" x="801" y="63.0566">EV Plugged in</text><polygon fill="#181818" points="488,136.7305,498,140.7305,488,144.7305,492,140.7305" style="stroke:#181818;stroke-width:1.0;"/><line style="stroke:#181818;stroke-width:1.0;" x1="35" x2="494" y1="140.7305" y2="140.7305"/><text fill="#000000" font-family="sans-serif" font-size="13" lengthAdjust="spacing" textLength="393" x="42" y="105.3672">Command(START_SESSION, location_id=1234, token.uid=123,</text><text fill="#000000" font-family="sans-serif" font-size="13" lengthAdjust="spacing" textLength="294" x="110" y="120.6777">token.type=APP_USER, token.whitelist=NEVER,</text><text fill="#000000" font-family="sans-serif" font-size="13" lengthAdjust="spacing" textLength="251" x="110" y="135.9883">token.authorization_reference=567890)</text><polygon fill="#181818" points="41,166.041,31,170.041,41,174.041,37,170.041" style="stroke:#181818;stroke-width:1.0;"/><line style="stroke:#181818;stroke-width:1.0;stroke-dasharray:2.0,2.0;" x1="35" x2="499" y1="170.041" y2="170.041"/><text fill="#000000" font-family="sans-serif" font-size="13" lengthAdjust="spacing" textLength="441" x="47" y="165.2988">status_code = 1000, data: {CommandResponse { result = ACCEPTED }}</text><polygon fill="#181818" points="777,195.3516,787,199.3516,777,203.3516,781,199.3516" style="stroke:#181818;stroke-width:1.0;"/><line style="stroke:#181818;stroke-width:1.0;" x1="505" x2="783" y1="199.3516" y2="199.3516"/><text fill="#000000" font-family="sans-serif" font-size="13" lengthAdjust="spacing" textLength="255" x="512" y="194.6094">RemoteStartTransaction.req(Token=123)</text><polygon fill="#181818" points="521,224.6621,511,228.6621,521,232.6621,517,228.6621" style="stroke:#181818;stroke-width:1.0;"/><line style="stroke:#181818;stroke-width:1.0;" x1="515" x2="788" y1="228.6621" y2="228.6621"/><text fill="#000000" font-family="sans-serif" font-size="13" lengthAdjust="spacing" textLength="248" x="527" y="223.9199">RemoteStartTransaction.conf(Accepted)</text><polygon fill="#181818" points="46,253.9727,36,257.9727,46,261.9727,42,257.9727" style="stroke:#181818;stroke-width:1.0;"/><line style="stroke:#181818;stroke-width:1.0;" x1="40" x2="499" y1="257.9727" y2="257.9727"/><text fill="#000000" font-family="sans-serif" font-size="13" lengthAdjust="spacing" textLength="231" x="52" y="253.2305">CommandResult(result = ACCEPTED)</text><polygon fill="#181818" points="493,267.9727,503,271.9727,493,275.9727,497,271.9727" style="stroke:#181818;stroke-width:1.0;"/><line style="stroke:#181818;stroke-width:1.0;stroke-dasharray:2.0,2.0;" x1="30" x2="499" y1="271.9727" y2="271.9727"/><path d="M473.5,286.9727 L540.5,286.9727 L540.5,294.2832 L530.5,304.2832 L473.5,304.2832 L473.5,286.9727 " fill="#EEEEEE" style="stroke:#000000;stroke-width:1.5;"/><rect fill="none" height="75.9316" style="stroke:#000000;stroke-width:1.5;" width="382" x="473.5" y="286.9727"/><text fill="#000000" font-family="sans-serif" font-size="13" font-weight="bold" lengthAdjust="spacing" textLength="22" x="488.5" y="300.541">opt</text><polygon fill="#181818" points="521,321.5938,511,325.5938,521,329.5938,517,325.5938" style="stroke:#181818;stroke-width:1.0;"/><line style="stroke:#181818;stroke-width:1.0;" x1="515" x2="788" y1="325.5938" y2="325.5938"/><text fill="#000000" font-family="sans-serif" font-size="13" lengthAdjust="spacing" textLength="166" x="527" y="320.8516">Authorize.req(Token=123)</text><polygon fill="#181818" points="777,350.9043,787,354.9043,777,358.9043,781,354.9043" style="stroke:#181818;stroke-width:1.0;"/><line style="stroke:#181818;stroke-width:1.0;" x1="505" x2="783" y1="354.9043" y2="354.9043"/><text fill="#000000" font-family="sans-serif" font-size="13" lengthAdjust="spacing" textLength="159" x="512" y="350.1621">Authorize.conf(Accepted)</text><polygon fill="#181818" points="521,387.2148,511,391.2148,521,395.2148,517,391.2148" style="stroke:#181818;stroke-width:1.0;"/><line style="stroke:#181818;stroke-width:1.0;" x1="515" x2="788" y1="391.2148" y2="391.2148"/><text fill="#000000" font-family="sans-serif" font-size="13" lengthAdjust="spacing" textLength="208" x="527" y="386.4727">StartTransaction.req(Token=123)</text><polygon fill="#181818" points="782,416.5254,792,420.5254,782,424.5254,786,420.5254" style="stroke:#181818;stroke-width:1.0;"/><line style="stroke:#181818;stroke-width:1.0;" x1="510" x2="788" y1="420.5254" y2="420.5254"/><text fill="#000000" font-family="sans-serif" font-size="13" lengthAdjust="spacing" textLength="255" x="517" y="415.7832">StartTransaction.conf(TransactionId=15)</text><polygon fill="#181818" points="46,461.1465,36,465.1465,46,469.1465,42,465.1465" style="stroke:#181818;stroke-width:1.0;"/><line style="stroke:#181818;stroke-width:1.0;" x1="40" x2="499" y1="465.1465" y2="465.1465"/><text fill="#000000" font-family="sans-serif" font-size="13" lengthAdjust="spacing" textLength="292" x="52" y="445.0938">Session(id=15, token=123, location_id=1234,</text><text fill="#000000" font-family="sans-serif" font-size="13" lengthAdjust="spacing" textLength="211" x="108" y="460.4043">authorization_reference=567890)</text><polygon fill="#181818" points="493,475.1465,503,479.1465,493,483.1465,497,479.1465" style="stroke:#181818;stroke-width:1.0;"/><line style="stroke:#181818;stroke-width:1.0;stroke-dasharray:2.0,2.0;" x1="30" x2="499" y1="479.1465" y2="479.1465"/></g></svg>