<?xml version="1.0" encoding="UTF-8" standalone="no"?><svg xmlns="http://www.w3.org/2000/svg" xmlns:xlink="http://www.w3.org/1999/xlink" contentScriptType="application/ecmascript" contentStyleType="text/css" height="511px" preserveAspectRatio="none" style="width:903px;height:511px;" version="1.1" viewBox="0 0 903 511" width="903px" zoomAndPan="magnify"><defs><filter height="300%" id="fs40qrqq1bgjg" width="300%" x="-1" y="-1"><feGaussianBlur result="blurOut" stdDeviation="2.0"/><feColorMatrix in="blurOut" result="blurOut2" type="matrix" values="0 0 0 0 0 0 0 0 0 0 0 0 0 0 0 0 0 0 .4 0"/><feOffset dx="4.0" dy="4.0" in="blurOut2" result="blurOut3"/><feBlend in="SourceGraphic" in2="blurOut3" mode="normal"/></filter></defs><g><rect fill="#FFFFFF" filter="url(#fs40qrqq1bgjg)" height="29.3105" style="stroke: #A80036; stroke-width: 1.0;" width="10" x="30" y="142.7305"/><rect fill="#FFFFFF" filter="url(#fs40qrqq1bgjg)" height="14" style="stroke: #A80036; stroke-width: 1.0;" width="10" x="30" y="259.9727"/><rect fill="#FFFFFF" filter="url(#fs40qrqq1bgjg)" height="14" style="stroke: #A80036; stroke-width: 1.0;" width="10" x="30" y="467.1465"/><rect fill="#FFFFFF" filter="url(#fs40qrqq1bgjg)" height="58.6211" style="stroke: #A80036; stroke-width: 1.0;" width="10" x="505" y="142.7305"/><rect fill="#FFFFFF" filter="url(#fs40qrqq1bgjg)" height="43.3105" style="stroke: #A80036; stroke-width: 1.0;" width="10" x="505" y="230.6621"/><rect fill="#FFFFFF" filter="url(#fs40qrqq1bgjg)" height="29.3105" style="stroke: #A80036; stroke-width: 1.0;" width="10" x="505" y="327.5938"/><rect fill="#FFFFFF" filter="url(#fs40qrqq1bgjg)" height="87.9316" style="stroke: #A80036; stroke-width: 1.0;" width="10" x="505" y="393.2148"/><rect fill="#FFFFFF" filter="url(#fs40qrqq1bgjg)" height="221.1738" style="stroke: #A80036; stroke-width: 1.0;" width="10" x="794" y="201.3516"/><rect fill="#FFFFFF" filter="url(#fs40qrqq1bgjg)" height="75.9316" style="stroke: #000000; stroke-width: 2.0;" width="386" x="476.5" y="288.9727"/><line style="stroke: #A80036; stroke-width: 1.0; stroke-dasharray: 5.0,5.0;" x1="35" x2="35" y1="38.4883" y2="499.1465"/><line style="stroke: #A80036; stroke-width: 1.0; stroke-dasharray: 5.0,5.0;" x1="509.5" x2="509.5" y1="38.4883" y2="499.1465"/><line style="stroke: #A80036; stroke-width: 1.0; stroke-dasharray: 5.0,5.0;" x1="798.5" x2="798.5" y1="38.4883" y2="499.1465"/><rect fill="#FEFECE" filter="url(#fs40qrqq1bgjg)" height="30.4883" style="stroke: #A80036; stroke-width: 1.5;" width="50" x="8" y="3"/><text fill="#000000" font-family="sans-serif" font-size="14" lengthAdjust="spacingAndGlyphs" textLength="36" x="15" y="23.5352">eMSP</text><rect fill="#FEFECE" filter="url(#fs40qrqq1bgjg)" height="30.4883" style="stroke: #A80036; stroke-width: 1.5;" width="43" x="486.5" y="3"/><text fill="#000000" font-family="sans-serif" font-size="14" lengthAdjust="spacingAndGlyphs" textLength="29" x="493.5" y="23.5352">CPO</text><rect fill="#FEFECE" filter="url(#fs40qrqq1bgjg)" height="30.4883" style="stroke: #A80036; stroke-width: 1.5;" width="103" x="745.5" y="3"/><text fill="#000000" font-family="sans-serif" font-size="14" lengthAdjust="spacingAndGlyphs" textLength="89" x="752.5" y="23.5352">Charge Point</text><rect fill="#FFFFFF" filter="url(#fs40qrqq1bgjg)" height="29.3105" style="stroke: #A80036; stroke-width: 1.0;" width="10" x="30" y="142.7305"/><rect fill="#FFFFFF" filter="url(#fs40qrqq1bgjg)" height="14" style="stroke: #A80036; stroke-width: 1.0;" width="10" x="30" y="259.9727"/><rect fill="#FFFFFF" filter="url(#fs40qrqq1bgjg)" height="14" style="stroke: #A80036; stroke-width: 1.0;" width="10" x="30" y="467.1465"/><rect fill="#FFFFFF" filter="url(#fs40qrqq1bgjg)" height="58.6211" style="stroke: #A80036; stroke-width: 1.0;" width="10" x="505" y="142.7305"/><rect fill="#FFFFFF" filter="url(#fs40qrqq1bgjg)" height="43.3105" style="stroke: #A80036; stroke-width: 1.0;" width="10" x="505" y="230.6621"/><rect fill="#FFFFFF" filter="url(#fs40qrqq1bgjg)" height="29.3105" style="stroke: #A80036; stroke-width: 1.0;" width="10" x="505" y="327.5938"/><rect fill="#FFFFFF" filter="url(#fs40qrqq1bgjg)" height="87.9316" style="stroke: #A80036; stroke-width: 1.0;" width="10" x="505" y="393.2148"/><rect fill="#FFFFFF" filter="url(#fs40qrqq1bgjg)" height="221.1738" style="stroke: #A80036; stroke-width: 1.0;" width="10" x="794" y="201.3516"/><line style="stroke: #A80036; stroke-width: 1.0; stroke-dasharray: 2.0,2.0;" x1="799" x2="841" y1="69.7988" y2="69.7988"/><line style="stroke: #A80036; stroke-width: 1.0; stroke-dasharray: 2.0,2.0;" x1="841" x2="841" y1="69.7988" y2="82.7988"/><line style="stroke: #A80036; stroke-width: 1.0; stroke-dasharray: 2.0,2.0;" x1="800" x2="841" y1="82.7988" y2="82.7988"/><polygon fill="#A80036" points="810,78.7988,800,82.7988,810,86.7988,806,82.7988" style="stroke: #A80036; stroke-width: 1.0;"/><text fill="#000000" font-family="sans-serif" font-size="13" lengthAdjust="spacingAndGlyphs" textLength="85" x="806" y="65.0566">EV Plugged in</text><polygon fill="#A80036" points="493,138.7305,503,142.7305,493,146.7305,497,142.7305" style="stroke: #A80036; stroke-width: 1.0;"/><line style="stroke: #A80036; stroke-width: 1.0;" x1="40" x2="499" y1="142.7305" y2="142.7305"/><text fill="#000000" font-family="sans-serif" font-size="13" lengthAdjust="spacingAndGlyphs" textLength="393" x="47" y="107.3672">Command(START_SESSION, location_id=1234, token.uid=123,</text><text fill="#000000" font-family="sans-serif" font-size="13" lengthAdjust="spacingAndGlyphs" textLength="294" x="115" y="122.6777">token.type=APP_USER, token.whitelist=NEVER,</text><text fill="#000000" font-family="sans-serif" font-size="13" lengthAdjust="spacingAndGlyphs" textLength="251" x="115" y="137.9883">token.authorization_reference=567890)</text><polygon fill="#A80036" points="46,168.041,36,172.041,46,176.041,42,172.041" style="stroke: #A80036; stroke-width: 1.0;"/><line style="stroke: #A80036; stroke-width: 1.0; stroke-dasharray: 2.0,2.0;" x1="40" x2="504" y1="172.041" y2="172.041"/><text fill="#000000" font-family="sans-serif" font-size="13" lengthAdjust="spacingAndGlyphs" textLength="441" x="52" y="167.2988">status_code = 1000, data: {CommandResponse { result = ACCEPTED }}</text><polygon fill="#A80036" points="782,197.3516,792,201.3516,782,205.3516,786,201.3516" style="stroke: #A80036; stroke-width: 1.0;"/><line style="stroke: #A80036; stroke-width: 1.0;" x1="510" x2="788" y1="201.3516" y2="201.3516"/><text fill="#000000" font-family="sans-serif" font-size="13" lengthAdjust="spacingAndGlyphs" textLength="255" x="517" y="196.6094">RemoteStartTransaction.req(Token=123)</text><polygon fill="#A80036" points="526,226.6621,516,230.6621,526,234.6621,522,230.6621" style="stroke: #A80036; stroke-width: 1.0;"/><line style="stroke: #A80036; stroke-width: 1.0;" x1="520" x2="793" y1="230.6621" y2="230.6621"/><text fill="#000000" font-family="sans-serif" font-size="13" lengthAdjust="spacingAndGlyphs" textLength="248" x="532" y="225.9199">RemoteStartTransaction.conf(Accepted)</text><polygon fill="#A80036" points="51,255.9727,41,259.9727,51,263.9727,47,259.9727" style="stroke: #A80036; stroke-width: 1.0;"/><line style="stroke: #A80036; stroke-width: 1.0;" x1="45" x2="504" y1="259.9727" y2="259.9727"/><text fill="#000000" font-family="sans-serif" font-size="13" lengthAdjust="spacingAndGlyphs" textLength="231" x="57" y="255.2305">CommandResult(result = ACCEPTED)</text><polygon fill="#A80036" points="498,269.9727,508,273.9727,498,277.9727,502,273.9727" style="stroke: #A80036; stroke-width: 1.0;"/><line style="stroke: #A80036; stroke-width: 1.0; stroke-dasharray: 2.0,2.0;" x1="35" x2="504" y1="273.9727" y2="273.9727"/><path d="M476.5,288.9727 L543.5,288.9727 L543.5,295.9727 L533.5,305.9727 L476.5,305.9727 L476.5,288.9727 " fill="#EEEEEE" style="stroke: #000000; stroke-width: 1.0;"/><rect fill="none" height="75.9316" style="stroke: #000000; stroke-width: 2.0;" width="386" x="476.5" y="288.9727"/><text fill="#000000" font-family="sans-serif" font-size="13" font-weight="bold" lengthAdjust="spacingAndGlyphs" textLength="22" x="491.5" y="302.541">opt</text><polygon fill="#A80036" points="526,323.5938,516,327.5938,526,331.5938,522,327.5938" style="stroke: #A80036; stroke-width: 1.0;"/><line style="stroke: #A80036; stroke-width: 1.0;" x1="520" x2="793" y1="327.5938" y2="327.5938"/><text fill="#000000" font-family="sans-serif" font-size="13" lengthAdjust="spacingAndGlyphs" textLength="166" x="532" y="322.8516">Authorize.req(Token=123)</text><polygon fill="#A80036" points="782,352.9043,792,356.9043,782,360.9043,786,356.9043" style="stroke: #A80036; stroke-width: 1.0;"/><line style="stroke: #A80036; stroke-width: 1.0;" x1="510" x2="788" y1="356.9043" y2="356.9043"/><text fill="#000000" font-family="sans-serif" font-size="13" lengthAdjust="spacingAndGlyphs" textLength="159" x="517" y="352.1621">Authorize.conf(Accepted)</text><polygon fill="#A80036" points="526,389.2148,516,393.2148,526,397.2148,522,393.2148" style="stroke: #A80036; stroke-width: 1.0;"/><line style="stroke: #A80036; stroke-width: 1.0;" x1="520" x2="793" y1="393.2148" y2="393.2148"/><text fill="#000000" font-family="sans-serif" font-size="13" lengthAdjust="spacingAndGlyphs" textLength="208" x="532" y="388.4727">StartTransaction.req(Token=123)</text><polygon fill="#A80036" points="787,418.5254,797,422.5254,787,426.5254,791,422.5254" style="stroke: #A80036; stroke-width: 1.0;"/><line style="stroke: #A80036; stroke-width: 1.0;" x1="515" x2="793" y1="422.5254" y2="422.5254"/><text fill="#000000" font-family="sans-serif" font-size="13" lengthAdjust="spacingAndGlyphs" textLength="255" x="522" y="417.7832">StartTransaction.conf(TransactionId=15)</text><polygon fill="#A80036" points="51,463.1465,41,467.1465,51,471.1465,47,467.1465" style="stroke: #A80036; stroke-width: 1.0;"/><line style="stroke: #A80036; stroke-width: 1.0;" x1="45" x2="504" y1="467.1465" y2="467.1465"/><text fill="#000000" font-family="sans-serif" font-size="13" lengthAdjust="spacingAndGlyphs" textLength="292" x="57" y="447.0938">Session(id=15, token=123, location_id=1234,</text><text fill="#000000" font-family="sans-serif" font-size="13" lengthAdjust="spacingAndGlyphs" textLength="211" x="113" y="462.4043">authorization_reference=567890)</text><polygon fill="#A80036" points="498,477.1465,508,481.1465,498,485.1465,502,481.1465" style="stroke: #A80036; stroke-width: 1.0;"/><line style="stroke: #A80036; stroke-width: 1.0; stroke-dasharray: 2.0,2.0;" x1="35" x2="504" y1="481.1465" y2="481.1465"/></g></svg>