<?xml version="1.0" encoding="UTF-8" standalone="no"?><svg xmlns="http://www.w3.org/2000/svg" xmlns:xlink="http://www.w3.org/1999/xlink" contentScriptType="application/ecmascript" contentStyleType="text/css" height="171px" preserveAspectRatio="none" style="width:610px;height:171px;" version="1.1" viewBox="0 0 610 171" width="610px" zoomAndPan="magnify"><defs><filter height="300%" id="fkvjrzgpz9n0w" width="300%" x="-1" y="-1"><feGaussianBlur result="blurOut" stdDeviation="2.0"/><feColorMatrix in="blurOut" result="blurOut2" type="matrix" values="0 0 0 0 0 0 0 0 0 0 0 0 0 0 0 0 0 0 .4 0"/><feOffset dx="4.0" dy="4.0" in="blurOut2" result="blurOut3"/><feBlend in="SourceGraphic" in2="blurOut3" mode="normal"/></filter></defs><g><rect fill="#FFFFFF" filter="url(#fkvjrzgpz9n0w)" height="14" style="stroke: #A80036; stroke-width: 1.0;" width="10" x="30" y="127.4199"/><rect fill="#FFFFFF" filter="url(#fkvjrzgpz9n0w)" height="92.9316" style="stroke: #A80036; stroke-width: 1.0;" width="10" x="405" y="48.4883"/><line style="stroke: #A80036; stroke-width: 1.0; stroke-dasharray: 5.0,5.0;" x1="35" x2="35" y1="38.4883" y2="159.4199"/><line style="stroke: #A80036; stroke-width: 1.0; stroke-dasharray: 5.0,5.0;" x1="409.5" x2="409.5" y1="38.4883" y2="159.4199"/><rect fill="#FEFECE" filter="url(#fkvjrzgpz9n0w)" height="30.4883" style="stroke: #A80036; stroke-width: 1.5;" width="50" x="8" y="3"/><text fill="#000000" font-family="sans-serif" font-size="14" lengthAdjust="spacingAndGlyphs" textLength="36" x="15" y="23.5352">eMSP</text><rect fill="#FEFECE" filter="url(#fkvjrzgpz9n0w)" height="30.4883" style="stroke: #A80036; stroke-width: 1.5;" width="43" x="386.5" y="3"/><text fill="#000000" font-family="sans-serif" font-size="14" lengthAdjust="spacingAndGlyphs" textLength="29" x="393.5" y="23.5352">CPO</text><rect fill="#FFFFFF" filter="url(#fkvjrzgpz9n0w)" height="14" style="stroke: #A80036; stroke-width: 1.0;" width="10" x="30" y="127.4199"/><rect fill="#FFFFFF" filter="url(#fkvjrzgpz9n0w)" height="92.9316" style="stroke: #A80036; stroke-width: 1.0;" width="10" x="405" y="48.4883"/><line style="stroke: #A80036; stroke-width: 1.0; stroke-dasharray: 2.0,2.0;" x1="415" x2="457" y1="69.7988" y2="69.7988"/><line style="stroke: #A80036; stroke-width: 1.0; stroke-dasharray: 2.0,2.0;" x1="457" x2="457" y1="69.7988" y2="82.7988"/><line style="stroke: #A80036; stroke-width: 1.0; stroke-dasharray: 2.0,2.0;" x1="416" x2="457" y1="82.7988" y2="82.7988"/><polygon fill="#A80036" points="426,78.7988,416,82.7988,426,86.7988,422,82.7988" style="stroke: #A80036; stroke-width: 1.0;"/><text fill="#000000" font-family="sans-serif" font-size="13" lengthAdjust="spacingAndGlyphs" textLength="176" x="422" y="65.0566">Problem with Location 1234</text><polygon fill="#A80036" points="51,123.4199,41,127.4199,51,131.4199,47,127.4199" style="stroke: #A80036; stroke-width: 1.0;"/><line style="stroke: #A80036; stroke-width: 1.0;" x1="45" x2="404" y1="127.4199" y2="127.4199"/><text fill="#000000" font-family="sans-serif" font-size="13" lengthAdjust="spacingAndGlyphs" textLength="293" x="57" y="107.3672">POST: https://server.com/reservation/ABC123</text><text fill="#000000" font-family="sans-serif" font-size="13" lengthAdjust="spacingAndGlyphs" textLength="326" x="77" y="122.6777">CommandResult(result = CANCELED_RESERVATION)</text><polygon fill="#A80036" points="398,137.4199,408,141.4199,398,145.4199,402,141.4199" style="stroke: #A80036; stroke-width: 1.0;"/><line style="stroke: #A80036; stroke-width: 1.0; stroke-dasharray: 2.0,2.0;" x1="35" x2="404" y1="141.4199" y2="141.4199"/></g></svg>