<?xml version="1.0" encoding="us-ascii" standalone="no"?><svg xmlns="http://www.w3.org/2000/svg" xmlns:xlink="http://www.w3.org/1999/xlink" contentStyleType="text/css" height="504px" preserveAspectRatio="none" style="width:888px;height:504px;background:#FFFFFF;" version="1.1" viewBox="0 0 888 504" width="888px" zoomAndPan="magnify"><defs/><g><rect fill="#FFFFFF" height="29.3105" style="stroke:#181818;stroke-width:1.0;" width="10" x="25" y="98.4199"/><rect fill="#FFFFFF" height="14" style="stroke:#181818;stroke-width:1.0;" width="10" x="25" y="215.6621"/><rect fill="#FFFFFF" height="14" style="stroke:#181818;stroke-width:1.0;" width="10" x="25" y="465.1465"/><rect fill="#FFFFFF" height="58.6211" style="stroke:#181818;stroke-width:1.0;" width="10" x="500" y="98.4199"/><rect fill="#FFFFFF" height="43.3105" style="stroke:#181818;stroke-width:1.0;" width="10" x="500" y="186.3516"/><rect fill="#FFFFFF" height="29.3105" style="stroke:#181818;stroke-width:1.0;" width="10" x="500" y="283.2832"/><rect fill="#FFFFFF" height="87.9316" style="stroke:#181818;stroke-width:1.0;" width="10" x="500" y="391.2148"/><rect fill="#FFFFFF" height="155.5527" style="stroke:#181818;stroke-width:1.0;" width="10" x="784" y="157.041"/><rect fill="none" height="75.9316" style="stroke:#000000;stroke-width:1.5;" width="377" x="473.5" y="244.6621"/><line style="stroke:#181818;stroke-width:0.5;stroke-dasharray:5.0,5.0;" x1="30" x2="30" y1="36.4883" y2="497.1465"/><line style="stroke:#181818;stroke-width:0.5;stroke-dasharray:5.0,5.0;" x1="504.5" x2="504.5" y1="36.4883" y2="497.1465"/><line style="stroke:#181818;stroke-width:0.5;stroke-dasharray:5.0,5.0;" x1="788.5" x2="788.5" y1="36.4883" y2="497.1465"/><rect fill="#E2E2F0" height="30.4883" rx="2.5" ry="2.5" style="stroke:#181818;stroke-width:0.5;" width="50" x="5" y="5"/><text fill="#000000" font-family="sans-serif" font-size="14" lengthAdjust="spacing" textLength="36" x="12" y="25.5352">eMSP</text><rect fill="#E2E2F0" height="30.4883" rx="2.5" ry="2.5" style="stroke:#181818;stroke-width:0.5;" width="43" x="483.5" y="5"/><text fill="#000000" font-family="sans-serif" font-size="14" lengthAdjust="spacing" textLength="29" x="490.5" y="25.5352">CPO</text><rect fill="#E2E2F0" height="30.4883" rx="2.5" ry="2.5" style="stroke:#181818;stroke-width:0.5;" width="103" x="737.5" y="5"/><text fill="#000000" font-family="sans-serif" font-size="14" lengthAdjust="spacing" textLength="89" x="744.5" y="25.5352">Charge Point</text><rect fill="#FFFFFF" height="29.3105" style="stroke:#181818;stroke-width:1.0;" width="10" x="25" y="98.4199"/><rect fill="#FFFFFF" height="14" style="stroke:#181818;stroke-width:1.0;" width="10" x="25" y="215.6621"/><rect fill="#FFFFFF" height="14" style="stroke:#181818;stroke-width:1.0;" width="10" x="25" y="465.1465"/><rect fill="#FFFFFF" height="58.6211" style="stroke:#181818;stroke-width:1.0;" width="10" x="500" y="98.4199"/><rect fill="#FFFFFF" height="43.3105" style="stroke:#181818;stroke-width:1.0;" width="10" x="500" y="186.3516"/><rect fill="#FFFFFF" height="29.3105" style="stroke:#181818;stroke-width:1.0;" width="10" x="500" y="283.2832"/><rect fill="#FFFFFF" height="87.9316" style="stroke:#181818;stroke-width:1.0;" width="10" x="500" y="391.2148"/><rect fill="#FFFFFF" height="155.5527" style="stroke:#181818;stroke-width:1.0;" width="10" x="784" y="157.041"/><polygon fill="#181818" points="488,94.4199,498,98.4199,488,102.4199,492,98.4199" style="stroke:#181818;stroke-width:1.0;"/><line style="stroke:#181818;stroke-width:1.0;" x1="35" x2="494" y1="98.4199" y2="98.4199"/><text fill="#000000" font-family="sans-serif" font-size="13" lengthAdjust="spacing" textLength="291" x="42" y="63.0566">Command(START_SESSION, location_id=1234,</text><text fill="#000000" font-family="sans-serif" font-size="13" lengthAdjust="spacing" textLength="276" x="110" y="78.3672">token.uid=200, token.type=AD_HOC_USER,</text><text fill="#000000" font-family="sans-serif" font-size="13" lengthAdjust="spacing" textLength="251" x="110" y="93.6777">token.authorization_reference=567890)</text><polygon fill="#181818" points="41,123.7305,31,127.7305,41,131.7305,37,127.7305" style="stroke:#181818;stroke-width:1.0;"/><line style="stroke:#181818;stroke-width:1.0;stroke-dasharray:2.0,2.0;" x1="35" x2="499" y1="127.7305" y2="127.7305"/><text fill="#000000" font-family="sans-serif" font-size="13" lengthAdjust="spacing" textLength="441" x="47" y="122.9883">status_code = 1000, data: {CommandResponse { result = ACCEPTED }}</text><polygon fill="#181818" points="772,153.041,782,157.041,772,161.041,776,157.041" style="stroke:#181818;stroke-width:1.0;"/><line style="stroke:#181818;stroke-width:1.0;" x1="505" x2="778" y1="157.041" y2="157.041"/><text fill="#000000" font-family="sans-serif" font-size="13" lengthAdjust="spacing" textLength="255" x="512" y="152.2988">RemoteStartTransaction.req(Token=200)</text><polygon fill="#181818" points="521,182.3516,511,186.3516,521,190.3516,517,186.3516" style="stroke:#181818;stroke-width:1.0;"/><line style="stroke:#181818;stroke-width:1.0;" x1="515" x2="783" y1="186.3516" y2="186.3516"/><text fill="#000000" font-family="sans-serif" font-size="13" lengthAdjust="spacing" textLength="248" x="527" y="181.6094">RemoteStartTransaction.conf(Accepted)</text><polygon fill="#181818" points="46,211.6621,36,215.6621,46,219.6621,42,215.6621" style="stroke:#181818;stroke-width:1.0;"/><line style="stroke:#181818;stroke-width:1.0;" x1="40" x2="499" y1="215.6621" y2="215.6621"/><text fill="#000000" font-family="sans-serif" font-size="13" lengthAdjust="spacing" textLength="231" x="52" y="210.9199">CommandResult(result = ACCEPTED)</text><polygon fill="#181818" points="493,225.6621,503,229.6621,493,233.6621,497,229.6621" style="stroke:#181818;stroke-width:1.0;"/><line style="stroke:#181818;stroke-width:1.0;stroke-dasharray:2.0,2.0;" x1="30" x2="499" y1="229.6621" y2="229.6621"/><path d="M473.5,244.6621 L540.5,244.6621 L540.5,251.9727 L530.5,261.9727 L473.5,261.9727 L473.5,244.6621 " fill="#EEEEEE" style="stroke:#000000;stroke-width:1.5;"/><rect fill="none" height="75.9316" style="stroke:#000000;stroke-width:1.5;" width="377" x="473.5" y="244.6621"/><text fill="#000000" font-family="sans-serif" font-size="13" font-weight="bold" lengthAdjust="spacing" textLength="22" x="488.5" y="258.2305">opt</text><polygon fill="#181818" points="521,279.2832,511,283.2832,521,287.2832,517,283.2832" style="stroke:#181818;stroke-width:1.0;"/><line style="stroke:#181818;stroke-width:1.0;" x1="515" x2="783" y1="283.2832" y2="283.2832"/><text fill="#000000" font-family="sans-serif" font-size="13" lengthAdjust="spacing" textLength="166" x="527" y="278.541">Authorize.req(Token=200)</text><polygon fill="#181818" points="777,308.5938,787,312.5938,777,316.5938,781,312.5938" style="stroke:#181818;stroke-width:1.0;"/><line style="stroke:#181818;stroke-width:1.0;" x1="505" x2="783" y1="312.5938" y2="312.5938"/><text fill="#000000" font-family="sans-serif" font-size="13" lengthAdjust="spacing" textLength="159" x="512" y="307.8516">Authorize.conf(Accepted)</text><line style="stroke:#181818;stroke-width:1.0;stroke-dasharray:2.0,2.0;" x1="789" x2="831" y1="348.9043" y2="348.9043"/><line style="stroke:#181818;stroke-width:1.0;stroke-dasharray:2.0,2.0;" x1="831" x2="831" y1="348.9043" y2="361.9043"/><line style="stroke:#181818;stroke-width:1.0;stroke-dasharray:2.0,2.0;" x1="790" x2="831" y1="361.9043" y2="361.9043"/><polygon fill="#181818" points="800,357.9043,790,361.9043,800,365.9043,796,361.9043" style="stroke:#181818;stroke-width:1.0;"/><text fill="#000000" font-family="sans-serif" font-size="13" lengthAdjust="spacing" textLength="85" x="796" y="344.1621">EV Plugged in</text><polygon fill="#181818" points="521,387.2148,511,391.2148,521,395.2148,517,391.2148" style="stroke:#181818;stroke-width:1.0;"/><line style="stroke:#181818;stroke-width:1.0;" x1="515" x2="788" y1="391.2148" y2="391.2148"/><text fill="#000000" font-family="sans-serif" font-size="13" lengthAdjust="spacing" textLength="208" x="527" y="386.4727">StartTransaction.req(Token=200)</text><polygon fill="#181818" points="777,416.5254,787,420.5254,777,424.5254,781,420.5254" style="stroke:#181818;stroke-width:1.0;"/><line style="stroke:#181818;stroke-width:1.0;" x1="510" x2="783" y1="420.5254" y2="420.5254"/><text fill="#000000" font-family="sans-serif" font-size="13" lengthAdjust="spacing" textLength="255" x="517" y="415.7832">StartTransaction.conf(TransactionId=15)</text><polygon fill="#181818" points="46,461.1465,36,465.1465,46,469.1465,42,465.1465" style="stroke:#181818;stroke-width:1.0;"/><line style="stroke:#181818;stroke-width:1.0;" x1="40" x2="499" y1="465.1465" y2="465.1465"/><text fill="#000000" font-family="sans-serif" font-size="13" lengthAdjust="spacing" textLength="288" x="52" y="445.0938">Session(id=15, token=200, location_id=1234</text><text fill="#000000" font-family="sans-serif" font-size="13" lengthAdjust="spacing" textLength="211" x="108" y="460.4043">authorization_reference=567890)</text><polygon fill="#181818" points="493,475.1465,503,479.1465,493,483.1465,497,479.1465" style="stroke:#181818;stroke-width:1.0;"/><line style="stroke:#181818;stroke-width:1.0;stroke-dasharray:2.0,2.0;" x1="30" x2="499" y1="479.1465" y2="479.1465"/></g></svg>