<?xml version="1.0" encoding="UTF-8" standalone="no"?><svg xmlns="http://www.w3.org/2000/svg" xmlns:xlink="http://www.w3.org/1999/xlink" contentScriptType="application/ecmascript" contentStyleType="text/css" height="168px" preserveAspectRatio="none" style="width:616px;height:168px;" version="1.1" viewBox="0 0 616 168" width="616px" zoomAndPan="magnify"><defs><filter height="300%" id="f19cu5oiufl0bs" width="300%" x="-1" y="-1"><feGaussianBlur result="blurOut" stdDeviation="2.0"/><feColorMatrix in="blurOut" result="blurOut2" type="matrix" values="0 0 0 0 0 0 0 0 0 0 0 0 0 0 0 0 0 0 .4 0"/><feOffset dx="4.0" dy="4.0" in="blurOut2" result="blurOut3"/><feBlend in="SourceGraphic" in2="blurOut3" mode="normal"/></filter></defs><g><rect fill="#FFFFFF" filter="url(#f19cu5oiufl0bs)" height="29.3105" style="stroke: #A80036; stroke-width: 1.0;" width="10" x="30" y="69.7988"/><rect fill="#FFFFFF" filter="url(#f19cu5oiufl0bs)" height="29.3105" style="stroke: #A80036; stroke-width: 1.0;" width="10" x="581" y="69.7988"/><line style="stroke: #A80036; stroke-width: 1.0; stroke-dasharray: 5.0,5.0;" x1="35" x2="35" y1="38.4883" y2="156.4199"/><line style="stroke: #A80036; stroke-width: 1.0; stroke-dasharray: 5.0,5.0;" x1="585.5" x2="585.5" y1="38.4883" y2="156.4199"/><rect fill="#FEFECE" filter="url(#f19cu5oiufl0bs)" height="30.4883" style="stroke: #A80036; stroke-width: 1.5;" width="50" x="8" y="3"/><text fill="#000000" font-family="sans-serif" font-size="14" lengthAdjust="spacingAndGlyphs" textLength="36" x="15" y="23.5352">eMSP</text><rect fill="#FEFECE" filter="url(#f19cu5oiufl0bs)" height="30.4883" style="stroke: #A80036; stroke-width: 1.5;" width="43" x="562.5" y="3"/><text fill="#000000" font-family="sans-serif" font-size="14" lengthAdjust="spacingAndGlyphs" textLength="29" x="569.5" y="23.5352">CPO</text><rect fill="#FFFFFF" filter="url(#f19cu5oiufl0bs)" height="29.3105" style="stroke: #A80036; stroke-width: 1.0;" width="10" x="30" y="69.7988"/><rect fill="#FFFFFF" filter="url(#f19cu5oiufl0bs)" height="29.3105" style="stroke: #A80036; stroke-width: 1.0;" width="10" x="581" y="69.7988"/><polygon fill="#A80036" points="569,65.7988,579,69.7988,569,73.7988,573,69.7988" style="stroke: #A80036; stroke-width: 1.0;"/><line style="stroke: #A80036; stroke-width: 1.0;" x1="40" x2="575" y1="69.7988" y2="69.7988"/><text fill="#000000" font-family="sans-serif" font-size="13" lengthAdjust="spacingAndGlyphs" textLength="527" x="47" y="65.0566">Command(UNLOCK_CONNECTOR, location_id=1234, evse_uid=1234, connector=1)</text><polygon fill="#A80036" points="46,95.1094,36,99.1094,46,103.1094,42,99.1094" style="stroke: #A80036; stroke-width: 1.0;"/><line style="stroke: #A80036; stroke-width: 1.0; stroke-dasharray: 2.0,2.0;" x1="40" x2="585" y1="99.1094" y2="99.1094"/><text fill="#000000" font-family="sans-serif" font-size="13" lengthAdjust="spacingAndGlyphs" textLength="435" x="52" y="94.3672">status_code = 2003, data: {CommandResponse { result = REJECTED }}</text><path d="M40,112.1094 L40,137.1094 L228,137.1094 L228,122.1094 L218,112.1094 L40,112.1094 " fill="#FBFB77" filter="url(#f19cu5oiufl0bs)" style="stroke: #A80036; stroke-width: 1.0;"/><path d="M218,112.1094 L218,122.1094 L228,122.1094 L218,112.1094 " fill="#FBFB77" style="stroke: #A80036; stroke-width: 1.0;"/><text fill="#000000" font-family="sans-serif" font-size="13" lengthAdjust="spacingAndGlyphs" textLength="167" x="46" y="129.6777">2003 = Unknown Location</text></g></svg>