<?xml version="1.0" encoding="us-ascii" standalone="no"?><svg xmlns="http://www.w3.org/2000/svg" xmlns:xlink="http://www.w3.org/1999/xlink" contentStyleType="text/css" height="315px" preserveAspectRatio="none" style="width:202px;height:315px;background:#FFFFFF;" version="1.1" viewBox="0 0 202 315" width="202px" zoomAndPan="magnify"><defs/><g><text fill="#000000" font-family="sans-serif" font-size="14" font-weight="bold" lengthAdjust="spacing" textLength="174" x="10" y="23.5352">Locations class diagram</text><!--class Location--><g id="elem_Location"><rect fill="#F1F1F1" height="48" id="Location" rx="2.5" ry="2.5" style="stroke:#181818;stroke-width:0.5;" width="90" x="59" y="44.4883"/><ellipse cx="74" cy="60.4883" fill="#ADD1B2" rx="11" ry="11" style="stroke:#181818;stroke-width:1.0;"/><path d="M76.4731,66.6313 Q75.8921,66.9302 75.2529,67.0796 Q74.6138,67.229 73.9082,67.229 Q71.4014,67.229 70.0815,65.5771 Q68.7617,63.9253 68.7617,60.8042 Q68.7617,57.6748 70.0815,56.0229 Q71.4014,54.3711 73.9082,54.3711 Q74.6138,54.3711 75.2612,54.5205 Q75.9087,54.6699 76.4731,54.9688 L76.4731,57.6914 Q75.8423,57.1104 75.2488,56.8406 Q74.6553,56.5708 74.0244,56.5708 Q72.6797,56.5708 71.9949,57.6375 Q71.3101,58.7041 71.3101,60.8042 Q71.3101,62.896 71.9949,63.9626 Q72.6797,65.0293 74.0244,65.0293 Q74.6553,65.0293 75.2488,64.7595 Q75.8423,64.4897 76.4731,63.9087 Z " fill="#000000"/><text fill="#000000" font-family="sans-serif" font-size="14" lengthAdjust="spacing" textLength="58" x="88" y="65.7793">Location</text><line style="stroke:#181818;stroke-width:0.5;" x1="60" x2="148" y1="76.4883" y2="76.4883"/><line style="stroke:#181818;stroke-width:0.5;" x1="60" x2="148" y1="84.4883" y2="84.4883"/></g><!--class EVSE--><g id="elem_EVSE"><rect fill="#F1F1F1" height="48" id="EVSE" rx="2.5" ry="2.5" style="stroke:#181818;stroke-width:0.5;" width="65" x="71.5" y="152.4883"/><ellipse cx="86.5" cy="168.4883" fill="#ADD1B2" rx="11" ry="11" style="stroke:#181818;stroke-width:1.0;"/><path d="M88.9731,174.6313 Q88.3921,174.9302 87.7529,175.0796 Q87.1138,175.229 86.4082,175.229 Q83.9014,175.229 82.5815,173.5771 Q81.2617,171.9253 81.2617,168.8042 Q81.2617,165.6748 82.5815,164.0229 Q83.9014,162.3711 86.4082,162.3711 Q87.1138,162.3711 87.7612,162.5205 Q88.4087,162.6699 88.9731,162.9688 L88.9731,165.6914 Q88.3423,165.1104 87.7488,164.8406 Q87.1553,164.5708 86.5244,164.5708 Q85.1797,164.5708 84.4949,165.6375 Q83.8101,166.7041 83.8101,168.8042 Q83.8101,170.896 84.4949,171.9626 Q85.1797,173.0293 86.5244,173.0293 Q87.1553,173.0293 87.7488,172.7595 Q88.3423,172.4897 88.9731,171.9087 Z " fill="#000000"/><text fill="#000000" font-family="sans-serif" font-size="14" lengthAdjust="spacing" textLength="33" x="100.5" y="173.7793">EVSE</text><line style="stroke:#181818;stroke-width:0.5;" x1="72.5" x2="135.5" y1="184.4883" y2="184.4883"/><line style="stroke:#181818;stroke-width:0.5;" x1="72.5" x2="135.5" y1="192.4883" y2="192.4883"/></g><!--class Connector--><g id="elem_Connector"><rect fill="#F1F1F1" height="48" id="Connector" rx="2.5" ry="2.5" style="stroke:#181818;stroke-width:0.5;" width="104" x="52" y="260.4883"/><ellipse cx="67" cy="276.4883" fill="#ADD1B2" rx="11" ry="11" style="stroke:#181818;stroke-width:1.0;"/><path d="M69.4731,282.6313 Q68.8921,282.9302 68.2529,283.0796 Q67.6138,283.229 66.9082,283.229 Q64.4014,283.229 63.0815,281.5771 Q61.7617,279.9253 61.7617,276.8042 Q61.7617,273.6748 63.0815,272.0229 Q64.4014,270.3711 66.9082,270.3711 Q67.6138,270.3711 68.2612,270.5205 Q68.9087,270.6699 69.4731,270.9688 L69.4731,273.6914 Q68.8423,273.1104 68.2488,272.8406 Q67.6553,272.5708 67.0244,272.5708 Q65.6797,272.5708 64.9949,273.6375 Q64.3101,274.7041 64.3101,276.8042 Q64.3101,278.896 64.9949,279.9626 Q65.6797,281.0293 67.0244,281.0293 Q67.6553,281.0293 68.2488,280.7595 Q68.8423,280.4897 69.4731,279.9087 Z " fill="#000000"/><text fill="#000000" font-family="sans-serif" font-size="14" lengthAdjust="spacing" textLength="72" x="81" y="281.7793">Connector</text><line style="stroke:#181818;stroke-width:0.5;" x1="53" x2="155" y1="292.4883" y2="292.4883"/><line style="stroke:#181818;stroke-width:0.5;" x1="53" x2="155" y1="300.4883" y2="300.4883"/></g><!--reverse link Location to EVSE--><g id="link_Location_EVSE"><path codeLine="3" d="M104,106.5583 C104,121.7583 104,138.8983 104,152.2783 " fill="none" id="Location-backto-EVSE" style="stroke:#181818;stroke-width:1.0;"/><polygon fill="#181818" points="104,93.7483,100,99.7483,104,105.7483,108,99.7483,104,93.7483" style="stroke:#181818;stroke-width:1.0;"/><text fill="#000000" font-family="sans-serif" font-size="13" lengthAdjust="spacing" textLength="8" x="95.025" y="113.096">1</text><text fill="#000000" font-family="sans-serif" font-size="13" lengthAdjust="spacing" textLength="24" x="76.925" y="141.7607">0..n</text></g><!--reverse link EVSE to Connector--><g id="link_EVSE_Connector"><path codeLine="4" d="M104,214.5583 C104,229.7583 104,246.8983 104,260.2783 " fill="none" id="EVSE-backto-Connector" style="stroke:#181818;stroke-width:1.0;"/><polygon fill="#181818" points="104,201.7483,100,207.7483,104,213.7483,108,207.7483,104,201.7483" style="stroke:#181818;stroke-width:1.0;"/><text fill="#000000" font-family="sans-serif" font-size="13" lengthAdjust="spacing" textLength="8" x="95.025" y="221.096">1</text><text fill="#000000" font-family="sans-serif" font-size="13" lengthAdjust="spacing" textLength="24" x="76.925" y="249.7607">1..n</text></g></g></svg>