<?xml version="1.0" encoding="UTF-8" standalone="no"?><svg xmlns="http://www.w3.org/2000/svg" xmlns:xlink="http://www.w3.org/1999/xlink" contentScriptType="application/ecmascript" contentStyleType="text/css" height="233px" preserveAspectRatio="none" style="width:382px;height:233px;" version="1.1" viewBox="0 0 382 233" width="382px" zoomAndPan="magnify"><defs/><g><line style="stroke: #000000; stroke-width: 1.7;" x1="10" x2="10" y1="10" y2="202.7969"/><line style="stroke: #000000; stroke-width: 1.7;" x1="370" x2="370" y1="10" y2="202.7969"/><line style="stroke: #AAAAAA; stroke-width: 0.5; stroke-dasharray: 3.0,5.0;" x1="15" x2="15" y1="10" y2="202.7969"/><line style="stroke: #AAAAAA; stroke-width: 0.5; stroke-dasharray: 3.0,5.0;" x1="65" x2="65" y1="10" y2="202.7969"/><line style="stroke: #AAAAAA; stroke-width: 0.5; stroke-dasharray: 3.0,5.0;" x1="115" x2="115" y1="10" y2="202.7969"/><line style="stroke: #AAAAAA; stroke-width: 0.5; stroke-dasharray: 3.0,5.0;" x1="165" x2="165" y1="10" y2="202.7969"/><line style="stroke: #AAAAAA; stroke-width: 0.5; stroke-dasharray: 3.0,5.0;" x1="215" x2="215" y1="10" y2="202.7969"/><line style="stroke: #AAAAAA; stroke-width: 0.5; stroke-dasharray: 3.0,5.0;" x1="265" x2="265" y1="10" y2="202.7969"/><line style="stroke: #AAAAAA; stroke-width: 0.5; stroke-dasharray: 3.0,5.0;" x1="315" x2="315" y1="10" y2="202.7969"/><line style="stroke: #AAAAAA; stroke-width: 0.5; stroke-dasharray: 3.0,5.0;" x1="365" x2="365" y1="10" y2="202.7969"/><text fill="#000000" font-family="sans-serif" font-size="12" lengthAdjust="spacingAndGlyphs" textLength="79" x="15" y="21.6016">regular_hours</text><line style="stroke: #000000; stroke-width: 1.0;" x1="10" x2="95" y1="25.1328" y2="25.1328"/><line style="stroke: #000000; stroke-width: 1.0;" x1="95" x2="105" y1="25.1328" y2="10"/><line style="stroke: #038048; stroke-width: 1.5;" x1="15" x2="65" y1="44.2656" y2="44.2656"/><polygon fill="#D7E0F2" points="77,32.2656,303,32.2656,315,44.2656,303,56.2656,77,56.2656,65,44.2656" style="stroke: #038048; stroke-width: 1.5;"/><line style="stroke: #038048; stroke-width: 1.5;" x1="315" x2="365" y1="44.2656" y2="44.2656"/><text fill="#000000" font-family="sans-serif" font-size="12" lengthAdjust="spacingAndGlyphs" textLength="31" x="174.5" y="48.8008">Open</text><line style="stroke: #000000; stroke-width: 1.7;" x1="10" x2="370" y1="10" y2="10"/><text fill="#000000" font-family="sans-serif" font-size="12" lengthAdjust="spacingAndGlyphs" textLength="111" x="15" y="85.8672">exceptional_closing</text><line style="stroke: #000000; stroke-width: 1.0;" x1="10" x2="127" y1="89.3984" y2="89.3984"/><line style="stroke: #000000; stroke-width: 1.0;" x1="127" x2="137" y1="89.3984" y2="74.2656"/><line style="stroke: #038048; stroke-width: 1.5;" x1="15" x2="165" y1="108.5313" y2="108.5313"/><polygon fill="#D7E0F2" points="177,96.5313,253,96.5313,265,108.5313,253,120.5313,177,120.5313,165,108.5313" style="stroke: #038048; stroke-width: 1.5;"/><line style="stroke: #038048; stroke-width: 1.5;" x1="265" x2="365" y1="108.5313" y2="108.5313"/><text fill="#000000" font-family="sans-serif" font-size="12" lengthAdjust="spacingAndGlyphs" textLength="39" x="195.5" y="113.0664">Closed</text><line style="stroke: #000000; stroke-width: 1.7;" x1="10" x2="370" y1="74.2656" y2="74.2656"/><text fill="#000000" font-family="sans-serif" font-size="12" lengthAdjust="spacingAndGlyphs" textLength="118" x="15" y="150.1328">result opening hours</text><line style="stroke: #000000; stroke-width: 1.0;" x1="10" x2="134" y1="153.6641" y2="153.6641"/><line style="stroke: #000000; stroke-width: 1.0;" x1="134" x2="144" y1="153.6641" y2="138.5313"/><line style="stroke: #038048; stroke-width: 1.5;" x1="15" x2="65" y1="172.7969" y2="172.7969"/><polygon fill="#D7E0F2" points="77,160.7969,153,160.7969,165,172.7969,153,184.7969,77,184.7969,65,172.7969" style="stroke: #038048; stroke-width: 1.5;"/><line style="stroke: #038048; stroke-width: 1.5;" x1="165" x2="265" y1="172.7969" y2="172.7969"/><polygon fill="#D7E0F2" points="277,160.7969,303,160.7969,315,172.7969,303,184.7969,277,184.7969,265,172.7969" style="stroke: #038048; stroke-width: 1.5;"/><line style="stroke: #038048; stroke-width: 1.5;" x1="315" x2="365" y1="172.7969" y2="172.7969"/><text fill="#000000" font-family="sans-serif" font-size="12" lengthAdjust="spacingAndGlyphs" textLength="31" x="99.5" y="177.332">Open</text><text fill="#000000" font-family="sans-serif" font-size="12" lengthAdjust="spacingAndGlyphs" textLength="31" x="274.5" y="177.332">Open</text><line style="stroke: #000000; stroke-width: 1.7;" x1="10" x2="370" y1="138.5313" y2="138.5313"/><line style="stroke: #000000; stroke-width: 2.0;" x1="15" x2="15" y1="202.7969" y2="207.7969"/><line style="stroke: #000000; stroke-width: 2.0;" x1="65" x2="65" y1="202.7969" y2="207.7969"/><line style="stroke: #000000; stroke-width: 2.0;" x1="115" x2="115" y1="202.7969" y2="207.7969"/><line style="stroke: #000000; stroke-width: 2.0;" x1="165" x2="165" y1="202.7969" y2="207.7969"/><line style="stroke: #000000; stroke-width: 2.0;" x1="215" x2="215" y1="202.7969" y2="207.7969"/><line style="stroke: #000000; stroke-width: 2.0;" x1="265" x2="265" y1="202.7969" y2="207.7969"/><line style="stroke: #000000; stroke-width: 2.0;" x1="315" x2="315" y1="202.7969" y2="207.7969"/><line style="stroke: #000000; stroke-width: 2.0;" x1="365" x2="365" y1="202.7969" y2="207.7969"/><line style="stroke: #000000; stroke-width: 2.0;" x1="15" x2="365" y1="202.7969" y2="202.7969"/><text fill="#000000" font-family="sans-serif" font-size="12" lengthAdjust="spacingAndGlyphs" textLength="8" x="11" y="220.3984">0</text><text fill="#000000" font-family="sans-serif" font-size="12" lengthAdjust="spacingAndGlyphs" textLength="8" x="61" y="220.3984">1</text><text fill="#000000" font-family="sans-serif" font-size="12" lengthAdjust="spacingAndGlyphs" textLength="8" x="111" y="220.3984">2</text><text fill="#000000" font-family="sans-serif" font-size="12" lengthAdjust="spacingAndGlyphs" textLength="8" x="161" y="220.3984">3</text><text fill="#000000" font-family="sans-serif" font-size="12" lengthAdjust="spacingAndGlyphs" textLength="8" x="211" y="220.3984">4</text><text fill="#000000" font-family="sans-serif" font-size="12" lengthAdjust="spacingAndGlyphs" textLength="8" x="261" y="220.3984">5</text><text fill="#000000" font-family="sans-serif" font-size="12" lengthAdjust="spacingAndGlyphs" textLength="8" x="311" y="220.3984">6</text></g></svg>