<?xml version="1.0" encoding="UTF-8" standalone="no"?><svg xmlns="http://www.w3.org/2000/svg" xmlns:xlink="http://www.w3.org/1999/xlink" contentScriptType="application/ecmascript" contentStyleType="text/css" height="304px" preserveAspectRatio="none" style="width:222px;height:304px;" version="1.1" viewBox="0 0 222 304" width="222px" zoomAndPan="magnify"><defs><filter height="300%" id="f1pm1vw3d8gca5" width="300%" x="-1" y="-1"><feGaussianBlur result="blurOut" stdDeviation="2.0"/><feColorMatrix in="blurOut" result="blurOut2" type="matrix" values="0 0 0 0 0 0 0 0 0 0 0 0 0 0 0 0 0 0 .4 0"/><feOffset dx="4.0" dy="4.0" in="blurOut2" result="blurOut3"/><feBlend in="SourceGraphic" in2="blurOut3" mode="normal"/></filter></defs><g><text fill="#000000" font-family="sans-serif" font-size="18" lengthAdjust="spacingAndGlyphs" textLength="208" x="2" y="17.4023">Locations class diagram</text><!--class Location--><rect fill="#FEFECE" filter="url(#f1pm1vw3d8gca5)" height="48" id="Location" style="stroke: #A80036; stroke-width: 1.5;" width="79" x="60.5" y="29.1992"/><ellipse cx="75.5" cy="45.1992" fill="#ADD1B2" rx="11" ry="11" style="stroke: #A80036; stroke-width: 1.0;"/><path d="M77.9731,51.3423 Q77.3921,51.6411 76.7529,51.7905 Q76.1138,51.9399 75.4082,51.9399 Q72.9014,51.9399 71.5815,50.2881 Q70.2617,48.6362 70.2617,45.5151 Q70.2617,42.3857 71.5815,40.7339 Q72.9014,39.082 75.4082,39.082 Q76.1138,39.082 76.7612,39.2314 Q77.4087,39.3809 77.9731,39.6797 L77.9731,42.4023 Q77.3423,41.8213 76.7488,41.5515 Q76.1553,41.2817 75.5244,41.2817 Q74.1797,41.2817 73.4949,42.3484 Q72.8101,43.415 72.8101,45.5151 Q72.8101,47.6069 73.4949,48.6736 Q74.1797,49.7402 75.5244,49.7402 Q76.1553,49.7402 76.7488,49.4705 Q77.3423,49.2007 77.9731,48.6196 Z "/><text fill="#000000" font-family="sans-serif" font-size="12" lengthAdjust="spacingAndGlyphs" textLength="47" x="89.5" y="49.7344">Location</text><line style="stroke: #A80036; stroke-width: 1.5;" x1="61.5" x2="138.5" y1="61.1992" y2="61.1992"/><line style="stroke: #A80036; stroke-width: 1.5;" x1="61.5" x2="138.5" y1="69.1992" y2="69.1992"/><!--class EVSE--><rect fill="#FEFECE" filter="url(#f1pm1vw3d8gca5)" height="48" id="EVSE" style="stroke: #A80036; stroke-width: 1.5;" width="60" x="70" y="137.1992"/><ellipse cx="85" cy="153.1992" fill="#ADD1B2" rx="11" ry="11" style="stroke: #A80036; stroke-width: 1.0;"/><path d="M87.4731,159.3423 Q86.8921,159.6411 86.2529,159.7905 Q85.6138,159.9399 84.9082,159.9399 Q82.4014,159.9399 81.0815,158.2881 Q79.7617,156.6362 79.7617,153.5151 Q79.7617,150.3857 81.0815,148.7339 Q82.4014,147.082 84.9082,147.082 Q85.6138,147.082 86.2612,147.2314 Q86.9087,147.3809 87.4731,147.6797 L87.4731,150.4023 Q86.8423,149.8213 86.2488,149.5515 Q85.6553,149.2817 85.0244,149.2817 Q83.6797,149.2817 82.9949,150.3484 Q82.3101,151.415 82.3101,153.5151 Q82.3101,155.6069 82.9949,156.6736 Q83.6797,157.7402 85.0244,157.7402 Q85.6553,157.7402 86.2488,157.4705 Q86.8423,157.2007 87.4731,156.6196 Z "/><text fill="#000000" font-family="sans-serif" font-size="12" lengthAdjust="spacingAndGlyphs" textLength="28" x="99" y="157.7344">EVSE</text><line style="stroke: #A80036; stroke-width: 1.5;" x1="71" x2="129" y1="169.1992" y2="169.1992"/><line style="stroke: #A80036; stroke-width: 1.5;" x1="71" x2="129" y1="177.1992" y2="177.1992"/><!--class Connector--><rect fill="#FEFECE" filter="url(#f1pm1vw3d8gca5)" height="48" id="Connector" style="stroke: #A80036; stroke-width: 1.5;" width="90" x="55" y="245.1992"/><ellipse cx="70" cy="261.1992" fill="#ADD1B2" rx="11" ry="11" style="stroke: #A80036; stroke-width: 1.0;"/><path d="M72.4731,267.3423 Q71.8921,267.6411 71.2529,267.7905 Q70.6138,267.9399 69.9082,267.9399 Q67.4014,267.9399 66.0815,266.2881 Q64.7617,264.6362 64.7617,261.5151 Q64.7617,258.3857 66.0815,256.7339 Q67.4014,255.082 69.9082,255.082 Q70.6138,255.082 71.2612,255.2314 Q71.9087,255.3809 72.4731,255.6797 L72.4731,258.4023 Q71.8423,257.8213 71.2488,257.5515 Q70.6553,257.2817 70.0244,257.2817 Q68.6797,257.2817 67.9949,258.3484 Q67.3101,259.415 67.3101,261.5151 Q67.3101,263.6069 67.9949,264.6736 Q68.6797,265.7402 70.0244,265.7402 Q70.6553,265.7402 71.2488,265.4705 Q71.8423,265.2007 72.4731,264.6196 Z "/><text fill="#000000" font-family="sans-serif" font-size="12" lengthAdjust="spacingAndGlyphs" textLength="58" x="84" y="265.7344">Connector</text><line style="stroke: #A80036; stroke-width: 1.5;" x1="56" x2="144" y1="277.1992" y2="277.1992"/><line style="stroke: #A80036; stroke-width: 1.5;" x1="56" x2="144" y1="285.1992" y2="285.1992"/><!--link Location to EVSE--><path d="M100,91.2692 C100,106.4692 100,123.6092 100,136.9892 " fill="none" id="Location-EVSE" style="stroke: #A80036; stroke-width: 1.0;"/><polygon fill="#A80036" points="100,78.4592,96,84.4592,100,90.4592,104,84.4592,100,78.4592" style="stroke: #A80036; stroke-width: 1.0;"/><text fill="#000000" font-family="sans-serif" font-size="13" lengthAdjust="spacingAndGlyphs" textLength="8" x="91.025" y="97.8069">1</text><text fill="#000000" font-family="sans-serif" font-size="13" lengthAdjust="spacingAndGlyphs" textLength="24" x="72.925" y="126.4717">0..n</text><!--link EVSE to Connector--><path d="M100,199.2692 C100,214.4692 100,231.6092 100,244.9892 " fill="none" id="EVSE-Connector" style="stroke: #A80036; stroke-width: 1.0;"/><polygon fill="#A80036" points="100,186.4592,96,192.4592,100,198.4592,104,192.4592,100,186.4592" style="stroke: #A80036; stroke-width: 1.0;"/><text fill="#000000" font-family="sans-serif" font-size="13" lengthAdjust="spacingAndGlyphs" textLength="8" x="91.025" y="205.8069">1</text><text fill="#000000" font-family="sans-serif" font-size="13" lengthAdjust="spacingAndGlyphs" textLength="24" x="72.925" y="234.4717">1..n</text></g></svg>