<?xml version="1.0" encoding="us-ascii" standalone="no"?><svg xmlns="http://www.w3.org/2000/svg" xmlns:xlink="http://www.w3.org/1999/xlink" contentStyleType="text/css" height="209px" preserveAspectRatio="none" style="width:382px;height:209px;background:#FFFFFF;" version="1.1" viewBox="0 0 382 209" width="382px" zoomAndPan="magnify"><defs/><g><line style="stroke:#333333;stroke-width:0.5;" x1="10" x2="10" y1="10" y2="179.4648"/><line style="stroke:#333333;stroke-width:0.5;" x1="370" x2="370" y1="10" y2="179.4648"/><line style="stroke:#333333;stroke-width:0.5;stroke-dasharray:3.0,5.0;" x1="15" x2="15" y1="10" y2="179.4648"/><line style="stroke:#333333;stroke-width:0.5;stroke-dasharray:3.0,5.0;" x1="65" x2="65" y1="10" y2="179.4648"/><line style="stroke:#333333;stroke-width:0.5;stroke-dasharray:3.0,5.0;" x1="115" x2="115" y1="10" y2="179.4648"/><line style="stroke:#333333;stroke-width:0.5;stroke-dasharray:3.0,5.0;" x1="165" x2="165" y1="10" y2="179.4648"/><line style="stroke:#333333;stroke-width:0.5;stroke-dasharray:3.0,5.0;" x1="215" x2="215" y1="10" y2="179.4648"/><line style="stroke:#333333;stroke-width:0.5;stroke-dasharray:3.0,5.0;" x1="265" x2="265" y1="10" y2="179.4648"/><line style="stroke:#333333;stroke-width:0.5;stroke-dasharray:3.0,5.0;" x1="315" x2="315" y1="10" y2="179.4648"/><line style="stroke:#333333;stroke-width:0.5;stroke-dasharray:3.0,5.0;" x1="365" x2="365" y1="10" y2="179.4648"/><line style="stroke:#333333;stroke-width:0.5;" x1="10" x2="370" y1="10" y2="10"/><text fill="#333333" font-family="sans-serif" font-size="14" font-weight="bold" lengthAdjust="spacing" textLength="99" x="15" y="23.5352">regular_hours</text><line style="stroke:#333333;stroke-width:0.5;" x1="10" x2="115" y1="27.4883" y2="27.4883"/><line style="stroke:#333333;stroke-width:0.5;" x1="115" x2="125" y1="27.4883" y2="10"/><polygon fill="#E2E2F0" points="27,32.4883,203,32.4883,215,44.4883,203,56.4883,27,56.4883,15,44.4883" style="stroke:#006400;stroke-width:1.5;"/><line style="stroke:#006400;stroke-width:1.5;" x1="215" x2="365" y1="44.4883" y2="44.4883"/><text fill="#333333" font-family="sans-serif" font-size="12" font-weight="bold" lengthAdjust="spacing" textLength="33" x="98.5" y="49.0234">Open</text><line style="stroke:#333333;stroke-width:0.5;" x1="10" x2="370" y1="66.4883" y2="66.4883"/><text fill="#333333" font-family="sans-serif" font-size="14" font-weight="bold" lengthAdjust="spacing" textLength="155" x="15" y="80.0234">exceptional_openings</text><line style="stroke:#333333;stroke-width:0.5;" x1="10" x2="171" y1="83.9766" y2="83.9766"/><line style="stroke:#333333;stroke-width:0.5;" x1="171" x2="181" y1="83.9766" y2="66.4883"/><line style="stroke:#006400;stroke-width:1.5;" x1="15" x2="265" y1="100.9766" y2="100.9766"/><polygon fill="#E2E2F0" points="277,88.9766,303,88.9766,315,100.9766,303,112.9766,277,112.9766,265,100.9766" style="stroke:#006400;stroke-width:1.5;"/><line style="stroke:#006400;stroke-width:1.5;" x1="315" x2="365" y1="100.9766" y2="100.9766"/><text fill="#333333" font-family="sans-serif" font-size="12" font-weight="bold" lengthAdjust="spacing" textLength="33" x="273.5" y="105.5117">Open</text><line style="stroke:#333333;stroke-width:0.5;" x1="10" x2="370" y1="122.9766" y2="122.9766"/><text fill="#333333" font-family="sans-serif" font-size="14" font-weight="bold" lengthAdjust="spacing" textLength="151" x="15" y="136.5117">result opening hours</text><line style="stroke:#333333;stroke-width:0.5;" x1="10" x2="167" y1="140.4648" y2="140.4648"/><line style="stroke:#333333;stroke-width:0.5;" x1="167" x2="177" y1="140.4648" y2="122.9766"/><polygon fill="#E2E2F0" points="27,145.4648,203,145.4648,215,157.4648,203,169.4648,27,169.4648,15,157.4648" style="stroke:#006400;stroke-width:1.5;"/><line style="stroke:#006400;stroke-width:1.5;" x1="215" x2="265" y1="157.4648" y2="157.4648"/><polygon fill="#E2E2F0" points="277,145.4648,303,145.4648,315,157.4648,303,169.4648,277,169.4648,265,157.4648" style="stroke:#006400;stroke-width:1.5;"/><line style="stroke:#006400;stroke-width:1.5;" x1="315" x2="365" y1="157.4648" y2="157.4648"/><text fill="#333333" font-family="sans-serif" font-size="12" font-weight="bold" lengthAdjust="spacing" textLength="33" x="98.5" y="162">Open</text><text fill="#333333" font-family="sans-serif" font-size="12" font-weight="bold" lengthAdjust="spacing" textLength="33" x="273.5" y="162">Open</text><line style="stroke:#333333;stroke-width:2.0;" x1="15" x2="15" y1="179.4648" y2="184.4648"/><line style="stroke:#333333;stroke-width:2.0;" x1="65" x2="65" y1="179.4648" y2="184.4648"/><line style="stroke:#333333;stroke-width:2.0;" x1="115" x2="115" y1="179.4648" y2="184.4648"/><line style="stroke:#333333;stroke-width:2.0;" x1="165" x2="165" y1="179.4648" y2="184.4648"/><line style="stroke:#333333;stroke-width:2.0;" x1="215" x2="215" y1="179.4648" y2="184.4648"/><line style="stroke:#333333;stroke-width:2.0;" x1="265" x2="265" y1="179.4648" y2="184.4648"/><line style="stroke:#333333;stroke-width:2.0;" x1="315" x2="315" y1="179.4648" y2="184.4648"/><line style="stroke:#333333;stroke-width:2.0;" x1="365" x2="365" y1="179.4648" y2="184.4648"/><line style="stroke:#333333;stroke-width:2.0;" x1="15" x2="365" y1="179.4648" y2="179.4648"/><text fill="#333333" font-family="sans-serif" font-size="11" lengthAdjust="spacing" textLength="7" x="11.5" y="196.0996">0</text><text fill="#333333" font-family="sans-serif" font-size="11" lengthAdjust="spacing" textLength="7" x="61.5" y="196.0996">1</text><text fill="#333333" font-family="sans-serif" font-size="11" lengthAdjust="spacing" textLength="7" x="111.5" y="196.0996">2</text><text fill="#333333" font-family="sans-serif" font-size="11" lengthAdjust="spacing" textLength="7" x="161.5" y="196.0996">3</text><text fill="#333333" font-family="sans-serif" font-size="11" lengthAdjust="spacing" textLength="7" x="211.5" y="196.0996">4</text><text fill="#333333" font-family="sans-serif" font-size="11" lengthAdjust="spacing" textLength="7" x="261.5" y="196.0996">5</text><text fill="#333333" font-family="sans-serif" font-size="11" lengthAdjust="spacing" textLength="7" x="311.5" y="196.0996">6</text></g></svg>