<?xml version="1.0" encoding="us-ascii" standalone="no"?><svg xmlns="http://www.w3.org/2000/svg" xmlns:xlink="http://www.w3.org/1999/xlink" contentStyleType="text/css" height="291px" preserveAspectRatio="none" style="width:971px;height:291px;background:#FFFFFF;" version="1.1" viewBox="0 0 971 291" width="971px" zoomAndPan="magnify"><defs/><g><rect fill="#FFFFFF" height="85.9316" style="stroke:#181818;stroke-width:1.0;" width="10" x="53.5" y="62.9766"/><rect fill="#FFFFFF" height="14" style="stroke:#181818;stroke-width:1.0;" width="10" x="53.5" y="252.1504"/><rect fill="#FFFFFF" height="58.6211" style="stroke:#181818;stroke-width:1.0;" width="10" x="718.5" y="119.5977"/><rect fill="#FFFFFF" height="58.6211" style="stroke:#181818;stroke-width:1.0;" width="10" x="718.5" y="207.5293"/><rect fill="#FFFFFF" height="29.3105" style="stroke:#181818;stroke-width:1.0;" width="10" x="908.5" y="178.2188"/><line style="stroke:#181818;stroke-width:0.5;stroke-dasharray:5.0,5.0;" x1="58" x2="58" y1="52.9766" y2="284.1504"/><line style="stroke:#181818;stroke-width:0.5;stroke-dasharray:5.0,5.0;" x1="723" x2="723" y1="52.9766" y2="284.1504"/><line style="stroke:#181818;stroke-width:0.5;stroke-dasharray:5.0,5.0;" x1="913" x2="913" y1="52.9766" y2="284.1504"/><rect fill="#E2E2F0" height="46.9766" rx="2.5" ry="2.5" style="stroke:#181818;stroke-width:0.5;" width="107" x="5" y="5"/><text fill="#000000" font-family="sans-serif" font-size="14" lengthAdjust="spacing" textLength="48" x="34.5" y="25.5352">Sender</text><text fill="#000000" font-family="sans-serif" font-size="14" lengthAdjust="spacing" textLength="93" x="12" y="42.0234">eMSP or SCSP</text><rect fill="#E2E2F0" height="46.9766" rx="2.5" ry="2.5" style="stroke:#181818;stroke-width:0.5;" width="71" x="688" y="5"/><text fill="#000000" font-family="sans-serif" font-size="14" lengthAdjust="spacing" textLength="29" x="709" y="25.5352">CPO</text><text fill="#000000" font-family="sans-serif" font-size="14" lengthAdjust="spacing" textLength="57" x="695" y="42.0234">Receiver</text><rect fill="#E2E2F0" height="30.4883" rx="2.5" ry="2.5" style="stroke:#181818;stroke-width:0.5;" width="103" x="862" y="21.4883"/><text fill="#000000" font-family="sans-serif" font-size="14" lengthAdjust="spacing" textLength="89" x="869" y="42.0234">Charge Point</text><rect fill="#FFFFFF" height="85.9316" style="stroke:#181818;stroke-width:1.0;" width="10" x="53.5" y="62.9766"/><rect fill="#FFFFFF" height="14" style="stroke:#181818;stroke-width:1.0;" width="10" x="53.5" y="252.1504"/><rect fill="#FFFFFF" height="58.6211" style="stroke:#181818;stroke-width:1.0;" width="10" x="718.5" y="119.5977"/><rect fill="#FFFFFF" height="58.6211" style="stroke:#181818;stroke-width:1.0;" width="10" x="718.5" y="207.5293"/><rect fill="#FFFFFF" height="29.3105" style="stroke:#181818;stroke-width:1.0;" width="10" x="908.5" y="178.2188"/><path d="M8,67.9766 L8,92.9766 L963,92.9766 L963,77.9766 L953,67.9766 L8,67.9766 " fill="#FEFFDD" style="stroke:#181818;stroke-width:0.5;"/><path d="M953,67.9766 L953,77.9766 L963,77.9766 L953,67.9766 " fill="#FEFFDD" style="stroke:#181818;stroke-width:0.5;"/><text fill="#000000" font-family="sans-serif" font-size="13" lengthAdjust="spacing" textLength="179" x="391.5" y="85.5449">Ongoing Session with id=15</text><polygon fill="#181818" points="706.5,115.5977,716.5,119.5977,706.5,123.5977,710.5,119.5977" style="stroke:#181818;stroke-width:1.0;"/><line style="stroke:#181818;stroke-width:1.0;" x1="63.5" x2="712.5" y1="119.5977" y2="119.5977"/><text fill="#000000" font-family="sans-serif" font-size="13" lengthAdjust="spacing" textLength="636" x="70.5" y="114.8555">DELETE https://server.com/ocpi/2.2.1/chargingprofiles/15?response_url=https://client.com/12345</text><polygon fill="#181818" points="69.5,144.9082,59.5,148.9082,69.5,152.9082,65.5,148.9082" style="stroke:#181818;stroke-width:1.0;"/><line style="stroke:#181818;stroke-width:1.0;stroke-dasharray:2.0,2.0;" x1="63.5" x2="717.5" y1="148.9082" y2="148.9082"/><text fill="#000000" font-family="sans-serif" font-size="13" lengthAdjust="spacing" textLength="474" x="75.5" y="144.166">status_code = 1000, data: {ChargingProfileResponse { result = ACCEPTED }}</text><polygon fill="#181818" points="896.5,174.2188,906.5,178.2188,896.5,182.2188,900.5,178.2188" style="stroke:#181818;stroke-width:1.0;"/><line style="stroke:#181818;stroke-width:1.0;" x1="723.5" x2="902.5" y1="178.2188" y2="178.2188"/><text fill="#000000" font-family="sans-serif" font-size="13" lengthAdjust="spacing" textLength="153" x="730.5" y="173.4766">ClearChargingProfile.req</text><polygon fill="#181818" points="739.5,203.5293,729.5,207.5293,739.5,211.5293,735.5,207.5293" style="stroke:#181818;stroke-width:1.0;"/><line style="stroke:#181818;stroke-width:1.0;" x1="733.5" x2="912.5" y1="207.5293" y2="207.5293"/><text fill="#000000" font-family="sans-serif" font-size="13" lengthAdjust="spacing" textLength="161" x="745.5" y="202.7871">ClearChargingProfile.conf</text><polygon fill="#181818" points="74.5,248.1504,64.5,252.1504,74.5,256.1504,70.5,252.1504" style="stroke:#181818;stroke-width:1.0;"/><line style="stroke:#181818;stroke-width:1.0;" x1="68.5" x2="717.5" y1="252.1504" y2="252.1504"/><text fill="#000000" font-family="sans-serif" font-size="13" lengthAdjust="spacing" textLength="200" x="80.5" y="232.0977">POST https://client.com/12345</text><text fill="#000000" font-family="sans-serif" font-size="13" lengthAdjust="spacing" textLength="239" x="80.5" y="247.4082">ClearProfileResult(result = ACCEPTED)</text><polygon fill="#181818" points="711.5,262.1504,721.5,266.1504,711.5,270.1504,715.5,266.1504" style="stroke:#181818;stroke-width:1.0;"/><line style="stroke:#181818;stroke-width:1.0;stroke-dasharray:2.0,2.0;" x1="58.5" x2="717.5" y1="266.1504" y2="266.1504"/></g></svg>