<?xml version="1.0" encoding="us-ascii" standalone="no"?><svg xmlns="http://www.w3.org/2000/svg" xmlns:xlink="http://www.w3.org/1999/xlink" contentStyleType="text/css" height="502px" preserveAspectRatio="none" style="width:1144px;height:502px;background:#FFFFFF;" version="1.1" viewBox="0 0 1144 502" width="1144px" zoomAndPan="magnify"><defs/><g><rect fill="#FFFFFF" height="205.7949" style="stroke:#181818;stroke-width:1.0;" width="10" x="38" y="95.9531"/><rect fill="#FFFFFF" height="14" style="stroke:#181818;stroke-width:1.0;" width="10" x="38" y="463.6113"/><rect fill="#FFFFFF" height="133.8633" style="stroke:#181818;stroke-width:1.0;" width="10" x="457" y="167.8848"/><rect fill="#FFFFFF" height="72.6211" style="stroke:#181818;stroke-width:1.0;" width="10" x="457" y="404.9902"/><rect fill="#FFFFFF" height="118.5527" style="stroke:#181818;stroke-width:1.0;" width="10" x="876" y="212.5059"/><rect fill="#FFFFFF" height="58.6211" style="stroke:#181818;stroke-width:1.0;" width="10" x="876" y="360.3691"/><rect fill="#FFFFFF" height="29.3105" style="stroke:#181818;stroke-width:1.0;" width="10" x="1082" y="331.0586"/><line style="stroke:#181818;stroke-width:0.5;stroke-dasharray:5.0,5.0;" x1="43" x2="43" y1="85.9531" y2="495.6113"/><line style="stroke:#181818;stroke-width:0.5;stroke-dasharray:5.0,5.0;" x1="461.5" x2="461.5" y1="85.9531" y2="495.6113"/><line style="stroke:#181818;stroke-width:0.5;stroke-dasharray:5.0,5.0;" x1="880.5" x2="880.5" y1="85.9531" y2="495.6113"/><line style="stroke:#181818;stroke-width:0.5;stroke-dasharray:5.0,5.0;" x1="1086.5" x2="1086.5" y1="85.9531" y2="495.6113"/><rect fill="#E2E2F0" height="46.9766" rx="2.5" ry="2.5" style="stroke:#181818;stroke-width:0.5;" width="62" x="12" y="37.9766"/><text fill="#000000" font-family="sans-serif" font-size="14" lengthAdjust="spacing" textLength="34" x="26" y="58.5117">SCSP</text><text fill="#000000" font-family="sans-serif" font-size="14" lengthAdjust="spacing" textLength="48" x="19" y="75">Sender</text><rect fill="#E2E2F0" height="79.9531" rx="2.5" ry="2.5" style="stroke:#181818;stroke-width:0.5;" width="71" x="426.5" y="5"/><text fill="#000000" font-family="sans-serif" font-size="14" lengthAdjust="spacing" textLength="36" x="444" y="25.5352">eMSP</text><text fill="#000000" font-family="sans-serif" font-size="14" lengthAdjust="spacing" textLength="48" x="438" y="42.0234">Sender</text><text fill="#000000" font-family="sans-serif" font-size="14" lengthAdjust="spacing" textLength="10" x="457" y="58.5117">&amp;</text><text fill="#000000" font-family="sans-serif" font-size="14" lengthAdjust="spacing" textLength="57" x="433.5" y="75">Receiver</text><rect fill="#E2E2F0" height="46.9766" rx="2.5" ry="2.5" style="stroke:#181818;stroke-width:0.5;" width="71" x="845.5" y="37.9766"/><text fill="#000000" font-family="sans-serif" font-size="14" lengthAdjust="spacing" textLength="29" x="866.5" y="58.5117">CPO</text><text fill="#000000" font-family="sans-serif" font-size="14" lengthAdjust="spacing" textLength="57" x="852.5" y="75">Receiver</text><rect fill="#E2E2F0" height="30.4883" rx="2.5" ry="2.5" style="stroke:#181818;stroke-width:0.5;" width="103" x="1035.5" y="54.4648"/><text fill="#000000" font-family="sans-serif" font-size="14" lengthAdjust="spacing" textLength="89" x="1042.5" y="75">Charge Point</text><rect fill="#FFFFFF" height="205.7949" style="stroke:#181818;stroke-width:1.0;" width="10" x="38" y="95.9531"/><rect fill="#FFFFFF" height="14" style="stroke:#181818;stroke-width:1.0;" width="10" x="38" y="463.6113"/><rect fill="#FFFFFF" height="133.8633" style="stroke:#181818;stroke-width:1.0;" width="10" x="457" y="167.8848"/><rect fill="#FFFFFF" height="72.6211" style="stroke:#181818;stroke-width:1.0;" width="10" x="457" y="404.9902"/><rect fill="#FFFFFF" height="118.5527" style="stroke:#181818;stroke-width:1.0;" width="10" x="876" y="212.5059"/><rect fill="#FFFFFF" height="58.6211" style="stroke:#181818;stroke-width:1.0;" width="10" x="876" y="360.3691"/><rect fill="#FFFFFF" height="29.3105" style="stroke:#181818;stroke-width:1.0;" width="10" x="1082" y="331.0586"/><path d="M5,100.9531 L5,125.9531 L1126,125.9531 L1126,110.9531 L1116,100.9531 L5,100.9531 " fill="#FEFFDD" style="stroke:#181818;stroke-width:0.5;"/><path d="M1116,100.9531 L1116,110.9531 L1126,110.9531 L1116,100.9531 " fill="#FEFFDD" style="stroke:#181818;stroke-width:0.5;"/><text fill="#000000" font-family="sans-serif" font-size="13" lengthAdjust="spacing" textLength="179" x="471.75" y="118.5215">Ongoing Session with id=15</text><polygon fill="#181818" points="445,163.8848,455,167.8848,445,171.8848,449,167.8848" style="stroke:#181818;stroke-width:1.0;"/><line style="stroke:#181818;stroke-width:1.0;" x1="48" x2="451" y1="167.8848" y2="167.8848"/><text fill="#000000" font-family="sans-serif" font-size="13" lengthAdjust="spacing" textLength="354" x="55" y="147.832">GET https://server.com/ocpi/2.2.1/chargingprofiles/15</text><text fill="#000000" font-family="sans-serif" font-size="13" lengthAdjust="spacing" textLength="254" x="139" y="163.1426">?response_url=https://scsp.com/12345</text><polygon fill="#181818" points="864,208.5059,874,212.5059,864,216.5059,868,212.5059" style="stroke:#181818;stroke-width:1.0;"/><line style="stroke:#181818;stroke-width:1.0;" x1="467" x2="870" y1="212.5059" y2="212.5059"/><text fill="#000000" font-family="sans-serif" font-size="13" lengthAdjust="spacing" textLength="354" x="474" y="192.4531">GET https://server.com/ocpi/2.2.1/chargingprofiles/15</text><text fill="#000000" font-family="sans-serif" font-size="13" lengthAdjust="spacing" textLength="259" x="558" y="207.7637">?response_url=https://emsp.com/789AB</text><polygon fill="#181818" points="478,253.127,468,257.127,478,261.127,474,257.127" style="stroke:#181818;stroke-width:1.0;"/><line style="stroke:#181818;stroke-width:1.0;stroke-dasharray:2.0,2.0;" x1="472" x2="875" y1="257.127" y2="257.127"/><text fill="#000000" font-family="sans-serif" font-size="13" lengthAdjust="spacing" textLength="165" x="484" y="237.0742">status_code = 1000, data:</text><text fill="#000000" font-family="sans-serif" font-size="13" lengthAdjust="spacing" textLength="305" x="496" y="252.3848">{ChargingProfileResponse { result = ACCEPTED }}</text><polygon fill="#181818" points="54,297.748,44,301.748,54,305.748,50,301.748" style="stroke:#181818;stroke-width:1.0;"/><line style="stroke:#181818;stroke-width:1.0;stroke-dasharray:2.0,2.0;" x1="48" x2="461" y1="301.748" y2="301.748"/><text fill="#000000" font-family="sans-serif" font-size="13" lengthAdjust="spacing" textLength="165" x="60" y="281.6953">status_code = 1000, data:</text><text fill="#000000" font-family="sans-serif" font-size="13" lengthAdjust="spacing" textLength="305" x="72" y="297.0059">{ChargingProfileResponse { result = ACCEPTED }}</text><polygon fill="#181818" points="1070,327.0586,1080,331.0586,1070,335.0586,1074,331.0586" style="stroke:#181818;stroke-width:1.0;"/><line style="stroke:#181818;stroke-width:1.0;" x1="881" x2="1076" y1="331.0586" y2="331.0586"/><text fill="#000000" font-family="sans-serif" font-size="13" lengthAdjust="spacing" textLength="169" x="888" y="326.3164">GetCompositeSchedule.req</text><polygon fill="#181818" points="897,356.3691,887,360.3691,897,364.3691,893,360.3691" style="stroke:#181818;stroke-width:1.0;"/><line style="stroke:#181818;stroke-width:1.0;" x1="891" x2="1086" y1="360.3691" y2="360.3691"/><text fill="#000000" font-family="sans-serif" font-size="13" lengthAdjust="spacing" textLength="177" x="903" y="355.627">GetCompositeSchedule.conf</text><polygon fill="#181818" points="478,400.9902,468,404.9902,478,408.9902,474,404.9902" style="stroke:#181818;stroke-width:1.0;"/><line style="stroke:#181818;stroke-width:1.0;" x1="472" x2="875" y1="404.9902" y2="404.9902"/><text fill="#000000" font-family="sans-serif" font-size="13" lengthAdjust="spacing" textLength="199" x="484" y="384.9375">POST https://emsp.com/789AB</text><text fill="#000000" font-family="sans-serif" font-size="13" lengthAdjust="spacing" textLength="390" x="484" y="400.248">ActiveProfileResult(result = ACCEPTED, ActiveChargingProfile)</text><polygon fill="#181818" points="869,414.9902,879,418.9902,869,422.9902,873,418.9902" style="stroke:#181818;stroke-width:1.0;"/><line style="stroke:#181818;stroke-width:1.0;stroke-dasharray:2.0,2.0;" x1="467" x2="875" y1="418.9902" y2="418.9902"/><polygon fill="#181818" points="59,459.6113,49,463.6113,59,467.6113,55,463.6113" style="stroke:#181818;stroke-width:1.0;"/><line style="stroke:#181818;stroke-width:1.0;" x1="53" x2="456" y1="463.6113" y2="463.6113"/><text fill="#000000" font-family="sans-serif" font-size="13" lengthAdjust="spacing" textLength="194" x="65" y="443.5586">POST https://scsp.com/12345</text><text fill="#000000" font-family="sans-serif" font-size="13" lengthAdjust="spacing" textLength="390" x="65" y="458.8691">ActiveProfileResult(result = ACCEPTED, ActiveChargingProfile)</text><polygon fill="#181818" points="450,473.6113,460,477.6113,450,481.6113,454,477.6113" style="stroke:#181818;stroke-width:1.0;"/><line style="stroke:#181818;stroke-width:1.0;stroke-dasharray:2.0,2.0;" x1="43" x2="456" y1="477.6113" y2="477.6113"/></g></svg>