<?xml version="1.0" encoding="us-ascii" standalone="no"?><svg xmlns="http://www.w3.org/2000/svg" xmlns:xlink="http://www.w3.org/1999/xlink" contentStyleType="text/css" height="261px" preserveAspectRatio="none" style="width:1108px;height:261px;background:#FFFFFF;" version="1.1" viewBox="0 0 1108 261" width="1108px" zoomAndPan="magnify"><defs/><g><rect fill="#FFFFFF" height="56.6211" style="stroke:#181818;stroke-width:1.0;" width="10" x="51.5" y="62.9766"/><rect fill="#FFFFFF" height="58.6211" style="stroke:#181818;stroke-width:1.0;" width="10" x="224.5" y="119.5977"/><rect fill="#FFFFFF" height="72.6211" style="stroke:#181818;stroke-width:1.0;" width="10" x="641.5" y="164.2188"/><rect fill="#FFFFFF" height="14" style="stroke:#181818;stroke-width:1.0;" width="10" x="1058.5" y="222.8398"/><line style="stroke:#181818;stroke-width:0.5;stroke-dasharray:5.0,5.0;" x1="56" x2="56" y1="52.9766" y2="254.8398"/><line style="stroke:#181818;stroke-width:0.5;stroke-dasharray:5.0,5.0;" x1="229" x2="229" y1="52.9766" y2="254.8398"/><line style="stroke:#181818;stroke-width:0.5;stroke-dasharray:5.0,5.0;" x1="646.5" x2="646.5" y1="52.9766" y2="254.8398"/><line style="stroke:#181818;stroke-width:0.5;stroke-dasharray:5.0,5.0;" x1="1063.5" x2="1063.5" y1="52.9766" y2="254.8398"/><rect fill="#E2E2F0" height="30.4883" rx="2.5" ry="2.5" style="stroke:#181818;stroke-width:0.5;" width="103" x="5" y="21.4883"/><text fill="#000000" font-family="sans-serif" font-size="14" lengthAdjust="spacing" textLength="89" x="12" y="42.0234">Charge Point</text><rect fill="#E2E2F0" height="46.9766" rx="2.5" ry="2.5" style="stroke:#181818;stroke-width:0.5;" width="71" x="194" y="5"/><text fill="#000000" font-family="sans-serif" font-size="14" lengthAdjust="spacing" textLength="29" x="215" y="25.5352">CPO</text><text fill="#000000" font-family="sans-serif" font-size="14" lengthAdjust="spacing" textLength="57" x="201" y="42.0234">Receiver</text><rect fill="#E2E2F0" height="46.9766" rx="2.5" ry="2.5" style="stroke:#181818;stroke-width:0.5;" width="62" x="615.5" y="5"/><text fill="#000000" font-family="sans-serif" font-size="14" lengthAdjust="spacing" textLength="48" x="622.5" y="25.5352">Sender</text><text fill="#000000" font-family="sans-serif" font-size="14" lengthAdjust="spacing" textLength="36" x="628.5" y="42.0234">eMSP</text><rect fill="#E2E2F0" height="46.9766" rx="2.5" ry="2.5" style="stroke:#181818;stroke-width:0.5;" width="62" x="1032.5" y="5"/><text fill="#000000" font-family="sans-serif" font-size="14" lengthAdjust="spacing" textLength="34" x="1046.5" y="25.5352">SCSP</text><text fill="#000000" font-family="sans-serif" font-size="14" lengthAdjust="spacing" textLength="48" x="1039.5" y="42.0234">Sender</text><rect fill="#FFFFFF" height="56.6211" style="stroke:#181818;stroke-width:1.0;" width="10" x="51.5" y="62.9766"/><rect fill="#FFFFFF" height="58.6211" style="stroke:#181818;stroke-width:1.0;" width="10" x="224.5" y="119.5977"/><rect fill="#FFFFFF" height="72.6211" style="stroke:#181818;stroke-width:1.0;" width="10" x="641.5" y="164.2188"/><rect fill="#FFFFFF" height="14" style="stroke:#181818;stroke-width:1.0;" width="10" x="1058.5" y="222.8398"/><path d="M17,67.9766 L17,92.9766 L1101,92.9766 L1101,77.9766 L1091,67.9766 L17,67.9766 " fill="#FEFFDD" style="stroke:#181818;stroke-width:0.5;"/><path d="M1091,67.9766 L1091,77.9766 L1101,77.9766 L1091,67.9766 " fill="#FEFFDD" style="stroke:#181818;stroke-width:0.5;"/><text fill="#000000" font-family="sans-serif" font-size="13" lengthAdjust="spacing" textLength="179" x="465.25" y="85.5449">Ongoing Session with id=15</text><polygon fill="#181818" points="212.5,115.5977,222.5,119.5977,212.5,123.5977,216.5,119.5977" style="stroke:#181818;stroke-width:1.0;"/><line style="stroke:#181818;stroke-width:1.0;" x1="56.5" x2="218.5" y1="119.5977" y2="119.5977"/><text fill="#000000" font-family="sans-serif" font-size="13" lengthAdjust="spacing" textLength="144" x="63.5" y="114.8555">update ChargingProfile</text><polygon fill="#181818" points="629.5,160.2188,639.5,164.2188,629.5,168.2188,633.5,164.2188" style="stroke:#181818;stroke-width:1.0;"/><line style="stroke:#181818;stroke-width:1.0;" x1="234.5" x2="635.5" y1="164.2188" y2="164.2188"/><text fill="#000000" font-family="sans-serif" font-size="13" lengthAdjust="spacing" textLength="388" x="241.5" y="144.166">PUT https://www.server.com/ocpi/2.2.1/chargingprofiles/15</text><text fill="#000000" font-family="sans-serif" font-size="13" lengthAdjust="spacing" textLength="144" x="273.5" y="159.4766">ActiveChargingProfile()</text><polygon fill="#181818" points="240.5,174.2188,230.5,178.2188,240.5,182.2188,236.5,178.2188" style="stroke:#181818;stroke-width:1.0;"/><line style="stroke:#181818;stroke-width:1.0;stroke-dasharray:2.0,2.0;" x1="234.5" x2="640.5" y1="178.2188" y2="178.2188"/><polygon fill="#181818" points="1046.5,218.8398,1056.5,222.8398,1046.5,226.8398,1050.5,222.8398" style="stroke:#181818;stroke-width:1.0;"/><line style="stroke:#181818;stroke-width:1.0;" x1="651.5" x2="1052.5" y1="222.8398" y2="222.8398"/><text fill="#000000" font-family="sans-serif" font-size="13" lengthAdjust="spacing" textLength="388" x="658.5" y="202.7871">PUT https://www.server.com/ocpi/2.2.1/chargingprofiles/15</text><text fill="#000000" font-family="sans-serif" font-size="13" lengthAdjust="spacing" textLength="144" x="690.5" y="218.0977">ActiveChargingProfile()</text><polygon fill="#181818" points="657.5,232.8398,647.5,236.8398,657.5,240.8398,653.5,236.8398" style="stroke:#181818;stroke-width:1.0;"/><line style="stroke:#181818;stroke-width:1.0;stroke-dasharray:2.0,2.0;" x1="651.5" x2="1062.5" y1="236.8398" y2="236.8398"/></g></svg>