<?xml version="1.0" encoding="UTF-8" standalone="no"?><svg xmlns="http://www.w3.org/2000/svg" xmlns:xlink="http://www.w3.org/1999/xlink" contentScriptType="application/ecmascript" contentStyleType="text/css" height="422px" preserveAspectRatio="none" style="width:921px;height:422px;" version="1.1" viewBox="0 0 921 422" width="921px" zoomAndPan="magnify"><defs><filter height="300%" id="f1qiv9bfk7fail" width="300%" x="-1" y="-1"><feGaussianBlur result="blurOut" stdDeviation="2.0"/><feColorMatrix in="blurOut" result="blurOut2" type="matrix" values="0 0 0 0 0 0 0 0 0 0 0 0 0 0 0 0 0 0 .4 0"/><feOffset dx="4.0" dy="4.0" in="blurOut2" result="blurOut3"/><feBlend in="SourceGraphic" in2="blurOut3" mode="normal"/></filter></defs><g><rect fill="#FFFFFF" filter="url(#f1qiv9bfk7fail)" height="130.2422" style="stroke: #A80036; stroke-width: 1.0;" width="10" x="58.5" y="144.9082"/><rect fill="#FFFFFF" filter="url(#f1qiv9bfk7fail)" height="14" style="stroke: #A80036; stroke-width: 1.0;" width="10" x="58.5" y="378.3926"/><rect fill="#FFFFFF" filter="url(#f1qiv9bfk7fail)" height="72.6211" style="stroke: #A80036; stroke-width: 1.0;" width="10" x="566.5" y="86.2871"/><rect fill="#FFFFFF" filter="url(#f1qiv9bfk7fail)" height="58.6211" style="stroke: #A80036; stroke-width: 1.0;" width="10" x="566.5" y="245.8398"/><rect fill="#FFFFFF" filter="url(#f1qiv9bfk7fail)" height="58.6211" style="stroke: #A80036; stroke-width: 1.0;" width="10" x="566.5" y="333.7715"/><rect fill="#FFFFFF" filter="url(#f1qiv9bfk7fail)" height="50.6211" style="stroke: #A80036; stroke-width: 1.0;" width="10" x="855.5" y="64.9766"/><rect fill="#FFFFFF" filter="url(#f1qiv9bfk7fail)" height="29.3105" style="stroke: #A80036; stroke-width: 1.0;" width="10" x="855.5" y="304.4609"/><line style="stroke: #A80036; stroke-width: 1.0; stroke-dasharray: 5.0,5.0;" x1="63" x2="63" y1="54.9766" y2="410.3926"/><line style="stroke: #A80036; stroke-width: 1.0; stroke-dasharray: 5.0,5.0;" x1="571" x2="571" y1="54.9766" y2="410.3926"/><line style="stroke: #A80036; stroke-width: 1.0; stroke-dasharray: 5.0,5.0;" x1="860" x2="860" y1="54.9766" y2="410.3926"/><rect fill="#FEFECE" filter="url(#f1qiv9bfk7fail)" height="46.9766" style="stroke: #A80036; stroke-width: 1.5;" width="107" x="8" y="3"/><text fill="#000000" font-family="sans-serif" font-size="14" lengthAdjust="spacingAndGlyphs" textLength="48" x="37.5" y="23.5352">Sender</text><text fill="#000000" font-family="sans-serif" font-size="14" lengthAdjust="spacingAndGlyphs" textLength="93" x="15" y="40.0234">eMSP or SCSP</text><rect fill="#FEFECE" filter="url(#f1qiv9bfk7fail)" height="46.9766" style="stroke: #A80036; stroke-width: 1.5;" width="71" x="534" y="3"/><text fill="#000000" font-family="sans-serif" font-size="14" lengthAdjust="spacingAndGlyphs" textLength="29" x="555" y="23.5352">CPO</text><text fill="#000000" font-family="sans-serif" font-size="14" lengthAdjust="spacingAndGlyphs" textLength="57" x="541" y="40.0234">Receiver</text><rect fill="#FEFECE" filter="url(#f1qiv9bfk7fail)" height="30.4883" style="stroke: #A80036; stroke-width: 1.5;" width="103" x="807" y="19.4883"/><text fill="#000000" font-family="sans-serif" font-size="14" lengthAdjust="spacingAndGlyphs" textLength="89" x="814" y="40.0234">Charge Point</text><rect fill="#FFFFFF" filter="url(#f1qiv9bfk7fail)" height="130.2422" style="stroke: #A80036; stroke-width: 1.0;" width="10" x="58.5" y="144.9082"/><rect fill="#FFFFFF" filter="url(#f1qiv9bfk7fail)" height="14" style="stroke: #A80036; stroke-width: 1.0;" width="10" x="58.5" y="378.3926"/><rect fill="#FFFFFF" filter="url(#f1qiv9bfk7fail)" height="72.6211" style="stroke: #A80036; stroke-width: 1.0;" width="10" x="566.5" y="86.2871"/><rect fill="#FFFFFF" filter="url(#f1qiv9bfk7fail)" height="58.6211" style="stroke: #A80036; stroke-width: 1.0;" width="10" x="566.5" y="245.8398"/><rect fill="#FFFFFF" filter="url(#f1qiv9bfk7fail)" height="58.6211" style="stroke: #A80036; stroke-width: 1.0;" width="10" x="566.5" y="333.7715"/><rect fill="#FFFFFF" filter="url(#f1qiv9bfk7fail)" height="50.6211" style="stroke: #A80036; stroke-width: 1.0;" width="10" x="855.5" y="64.9766"/><rect fill="#FFFFFF" filter="url(#f1qiv9bfk7fail)" height="29.3105" style="stroke: #A80036; stroke-width: 1.0;" width="10" x="855.5" y="304.4609"/><polygon fill="#A80036" points="587.5,82.2871,577.5,86.2871,587.5,90.2871,583.5,86.2871" style="stroke: #A80036; stroke-width: 1.0;"/><line style="stroke: #A80036; stroke-width: 1.0;" x1="581.5" x2="854.5" y1="86.2871" y2="86.2871"/><text fill="#000000" font-family="sans-serif" font-size="13" lengthAdjust="spacingAndGlyphs" textLength="208" x="593.5" y="81.5449">StartTransaction.req(Token=200)</text><polygon fill="#A80036" points="848.5,111.5977,858.5,115.5977,848.5,119.5977,852.5,115.5977" style="stroke: #A80036; stroke-width: 1.0;"/><line style="stroke: #A80036; stroke-width: 1.0;" x1="576.5" x2="854.5" y1="115.5977" y2="115.5977"/><text fill="#000000" font-family="sans-serif" font-size="13" lengthAdjust="spacingAndGlyphs" textLength="255" x="583.5" y="110.8555">StartTransaction.conf(TransactionId=15)</text><polygon fill="#A80036" points="79.5,140.9082,69.5,144.9082,79.5,148.9082,75.5,144.9082" style="stroke: #A80036; stroke-width: 1.0;"/><line style="stroke: #A80036; stroke-width: 1.0;" x1="73.5" x2="565.5" y1="144.9082" y2="144.9082"/><text fill="#000000" font-family="sans-serif" font-size="13" lengthAdjust="spacingAndGlyphs" textLength="94" x="85.5" y="140.166">Session(id=15)</text><polygon fill="#A80036" points="559.5,154.9082,569.5,158.9082,559.5,162.9082,563.5,158.9082" style="stroke: #A80036; stroke-width: 1.0;"/><line style="stroke: #A80036; stroke-width: 1.0; stroke-dasharray: 2.0,2.0;" x1="68.5" x2="565.5" y1="158.9082" y2="158.9082"/><line style="stroke: #A80036; stroke-width: 1.0; stroke-dasharray: 2.0,2.0;" x1="68.5" x2="110.5" y1="188.2188" y2="188.2188"/><line style="stroke: #A80036; stroke-width: 1.0; stroke-dasharray: 2.0,2.0;" x1="110.5" x2="110.5" y1="188.2188" y2="201.2188"/><line style="stroke: #A80036; stroke-width: 1.0; stroke-dasharray: 2.0,2.0;" x1="69.5" x2="110.5" y1="201.2188" y2="201.2188"/><polygon fill="#A80036" points="79.5,197.2188,69.5,201.2188,79.5,205.2188,75.5,201.2188" style="stroke: #A80036; stroke-width: 1.0;"/><text fill="#000000" font-family="sans-serif" font-size="13" lengthAdjust="spacingAndGlyphs" textLength="159" x="75.5" y="183.4766">Calculate ChargingProfile</text><polygon fill="#A80036" points="554.5,241.8398,564.5,245.8398,554.5,249.8398,558.5,245.8398" style="stroke: #A80036; stroke-width: 1.0;"/><line style="stroke: #A80036; stroke-width: 1.0;" x1="68.5" x2="560.5" y1="245.8398" y2="245.8398"/><text fill="#000000" font-family="sans-serif" font-size="13" lengthAdjust="spacingAndGlyphs" textLength="354" x="75.5" y="225.7871">PUT https://server.com/ocpi/2.2.1/chargingprofiles/15</text><text fill="#000000" font-family="sans-serif" font-size="13" lengthAdjust="spacingAndGlyphs" textLength="379" x="107.5" y="241.0977">SetChargingProfile(response_url=https://client.com/12345)</text><polygon fill="#A80036" points="74.5,271.1504,64.5,275.1504,74.5,279.1504,70.5,275.1504" style="stroke: #A80036; stroke-width: 1.0;"/><line style="stroke: #A80036; stroke-width: 1.0; stroke-dasharray: 2.0,2.0;" x1="68.5" x2="565.5" y1="275.1504" y2="275.1504"/><text fill="#000000" font-family="sans-serif" font-size="13" lengthAdjust="spacingAndGlyphs" textLength="474" x="80.5" y="270.4082">status_code = 1000, data: {ChargingProfileResponse { result = ACCEPTED }}</text><polygon fill="#A80036" points="843.5,300.4609,853.5,304.4609,843.5,308.4609,847.5,304.4609" style="stroke: #A80036; stroke-width: 1.0;"/><line style="stroke: #A80036; stroke-width: 1.0;" x1="571.5" x2="849.5" y1="304.4609" y2="304.4609"/><text fill="#000000" font-family="sans-serif" font-size="13" lengthAdjust="spacingAndGlyphs" textLength="140" x="578.5" y="299.7188">SetChargingProfile.req</text><polygon fill="#A80036" points="587.5,329.7715,577.5,333.7715,587.5,337.7715,583.5,333.7715" style="stroke: #A80036; stroke-width: 1.0;"/><line style="stroke: #A80036; stroke-width: 1.0;" x1="581.5" x2="859.5" y1="333.7715" y2="333.7715"/><text fill="#000000" font-family="sans-serif" font-size="13" lengthAdjust="spacingAndGlyphs" textLength="148" x="593.5" y="329.0293">SetChargingProfile.conf</text><polygon fill="#A80036" points="79.5,374.3926,69.5,378.3926,79.5,382.3926,75.5,378.3926" style="stroke: #A80036; stroke-width: 1.0;"/><line style="stroke: #A80036; stroke-width: 1.0;" x1="73.5" x2="565.5" y1="378.3926" y2="378.3926"/><text fill="#000000" font-family="sans-serif" font-size="13" lengthAdjust="spacingAndGlyphs" textLength="200" x="85.5" y="358.3398">POST https://client.com/12345</text><text fill="#000000" font-family="sans-serif" font-size="13" lengthAdjust="spacingAndGlyphs" textLength="264" x="85.5" y="373.6504">ChargingProfileResult(result = ACCEPTED)</text><polygon fill="#A80036" points="559.5,388.3926,569.5,392.3926,559.5,396.3926,563.5,392.3926" style="stroke: #A80036; stroke-width: 1.0;"/><line style="stroke: #A80036; stroke-width: 1.0; stroke-dasharray: 2.0,2.0;" x1="63.5" x2="565.5" y1="392.3926" y2="392.3926"/></g></svg>