<?xml version="1.0" encoding="us-ascii" standalone="no"?><svg xmlns="http://www.w3.org/2000/svg" xmlns:xlink="http://www.w3.org/1999/xlink" contentStyleType="text/css" height="654px" preserveAspectRatio="none" style="width:1253px;height:654px;background:#FFFFFF;" version="1.1" viewBox="0 0 1253 654" width="1253px" zoomAndPan="magnify"><defs/><g><rect fill="#FFFFFF" height="234.7949" style="stroke:#181818;stroke-width:1.0;" width="10" x="31" y="219.1953"/><rect fill="#FFFFFF" height="14" style="stroke:#181818;stroke-width:1.0;" width="10" x="31" y="615.8535"/><rect fill="#FFFFFF" height="57.3105" style="stroke:#181818;stroke-width:1.0;" width="10" x="471" y="175.8848"/><rect fill="#FFFFFF" height="133.8633" style="stroke:#181818;stroke-width:1.0;" width="10" x="471" y="320.127"/><rect fill="#FFFFFF" height="72.6211" style="stroke:#181818;stroke-width:1.0;" width="10" x="471" y="557.2324"/><rect fill="#FFFFFF" height="72.6211" style="stroke:#181818;stroke-width:1.0;" width="10" x="902" y="117.2637"/><rect fill="#FFFFFF" height="118.5527" style="stroke:#181818;stroke-width:1.0;" width="10" x="902" y="364.748"/><rect fill="#FFFFFF" height="58.6211" style="stroke:#181818;stroke-width:1.0;" width="10" x="902" y="512.6113"/><rect fill="#FFFFFF" height="50.6211" style="stroke:#181818;stroke-width:1.0;" width="10" x="1191" y="95.9531"/><rect fill="#FFFFFF" height="29.3105" style="stroke:#181818;stroke-width:1.0;" width="10" x="1191" y="483.3008"/><line style="stroke:#181818;stroke-width:0.5;stroke-dasharray:5.0,5.0;" x1="36" x2="36" y1="85.9531" y2="647.8535"/><line style="stroke:#181818;stroke-width:0.5;stroke-dasharray:5.0,5.0;" x1="475.5" x2="475.5" y1="85.9531" y2="647.8535"/><line style="stroke:#181818;stroke-width:0.5;stroke-dasharray:5.0,5.0;" x1="906.5" x2="906.5" y1="85.9531" y2="647.8535"/><line style="stroke:#181818;stroke-width:0.5;stroke-dasharray:5.0,5.0;" x1="1195.5" x2="1195.5" y1="85.9531" y2="647.8535"/><rect fill="#E2E2F0" height="46.9766" rx="2.5" ry="2.5" style="stroke:#181818;stroke-width:0.5;" width="62" x="5" y="37.9766"/><text fill="#000000" font-family="sans-serif" font-size="14" lengthAdjust="spacing" textLength="34" x="19" y="58.5117">SCSP</text><text fill="#000000" font-family="sans-serif" font-size="14" lengthAdjust="spacing" textLength="48" x="12" y="75">Sender</text><rect fill="#E2E2F0" height="79.9531" rx="2.5" ry="2.5" style="stroke:#181818;stroke-width:0.5;" width="71" x="440.5" y="5"/><text fill="#000000" font-family="sans-serif" font-size="14" lengthAdjust="spacing" textLength="36" x="458" y="25.5352">eMSP</text><text fill="#000000" font-family="sans-serif" font-size="14" lengthAdjust="spacing" textLength="48" x="452" y="42.0234">Sender</text><text fill="#000000" font-family="sans-serif" font-size="14" lengthAdjust="spacing" textLength="10" x="471" y="58.5117">&amp;</text><text fill="#000000" font-family="sans-serif" font-size="14" lengthAdjust="spacing" textLength="57" x="447.5" y="75">Receiver</text><rect fill="#E2E2F0" height="46.9766" rx="2.5" ry="2.5" style="stroke:#181818;stroke-width:0.5;" width="71" x="871.5" y="37.9766"/><text fill="#000000" font-family="sans-serif" font-size="14" lengthAdjust="spacing" textLength="29" x="892.5" y="58.5117">CPO</text><text fill="#000000" font-family="sans-serif" font-size="14" lengthAdjust="spacing" textLength="57" x="878.5" y="75">Receiver</text><rect fill="#E2E2F0" height="30.4883" rx="2.5" ry="2.5" style="stroke:#181818;stroke-width:0.5;" width="103" x="1144.5" y="54.4648"/><text fill="#000000" font-family="sans-serif" font-size="14" lengthAdjust="spacing" textLength="89" x="1151.5" y="75">Charge Point</text><rect fill="#FFFFFF" height="234.7949" style="stroke:#181818;stroke-width:1.0;" width="10" x="31" y="219.1953"/><rect fill="#FFFFFF" height="14" style="stroke:#181818;stroke-width:1.0;" width="10" x="31" y="615.8535"/><rect fill="#FFFFFF" height="57.3105" style="stroke:#181818;stroke-width:1.0;" width="10" x="471" y="175.8848"/><rect fill="#FFFFFF" height="133.8633" style="stroke:#181818;stroke-width:1.0;" width="10" x="471" y="320.127"/><rect fill="#FFFFFF" height="72.6211" style="stroke:#181818;stroke-width:1.0;" width="10" x="471" y="557.2324"/><rect fill="#FFFFFF" height="72.6211" style="stroke:#181818;stroke-width:1.0;" width="10" x="902" y="117.2637"/><rect fill="#FFFFFF" height="118.5527" style="stroke:#181818;stroke-width:1.0;" width="10" x="902" y="364.748"/><rect fill="#FFFFFF" height="58.6211" style="stroke:#181818;stroke-width:1.0;" width="10" x="902" y="512.6113"/><rect fill="#FFFFFF" height="50.6211" style="stroke:#181818;stroke-width:1.0;" width="10" x="1191" y="95.9531"/><rect fill="#FFFFFF" height="29.3105" style="stroke:#181818;stroke-width:1.0;" width="10" x="1191" y="483.3008"/><polygon fill="#181818" points="923,113.2637,913,117.2637,923,121.2637,919,117.2637" style="stroke:#181818;stroke-width:1.0;"/><line style="stroke:#181818;stroke-width:1.0;" x1="917" x2="1190" y1="117.2637" y2="117.2637"/><text fill="#000000" font-family="sans-serif" font-size="13" lengthAdjust="spacing" textLength="208" x="929" y="112.5215">StartTransaction.req(Token=200)</text><polygon fill="#181818" points="1184,142.5742,1194,146.5742,1184,150.5742,1188,146.5742" style="stroke:#181818;stroke-width:1.0;"/><line style="stroke:#181818;stroke-width:1.0;" x1="912" x2="1190" y1="146.5742" y2="146.5742"/><text fill="#000000" font-family="sans-serif" font-size="13" lengthAdjust="spacing" textLength="255" x="919" y="141.832">StartTransaction.conf(TransactionId=15)</text><polygon fill="#181818" points="492,171.8848,482,175.8848,492,179.8848,488,175.8848" style="stroke:#181818;stroke-width:1.0;"/><line style="stroke:#181818;stroke-width:1.0;" x1="486" x2="901" y1="175.8848" y2="175.8848"/><text fill="#000000" font-family="sans-serif" font-size="13" lengthAdjust="spacing" textLength="94" x="498" y="171.1426">Session(id=15)</text><polygon fill="#181818" points="895,185.8848,905,189.8848,895,193.8848,899,189.8848" style="stroke:#181818;stroke-width:1.0;"/><line style="stroke:#181818;stroke-width:1.0;stroke-dasharray:2.0,2.0;" x1="481" x2="901" y1="189.8848" y2="189.8848"/><polygon fill="#181818" points="52,215.1953,42,219.1953,52,223.1953,48,219.1953" style="stroke:#181818;stroke-width:1.0;"/><line style="stroke:#181818;stroke-width:1.0;" x1="46" x2="470" y1="219.1953" y2="219.1953"/><text fill="#000000" font-family="sans-serif" font-size="13" lengthAdjust="spacing" textLength="94" x="58" y="214.4531">Session(id=15)</text><polygon fill="#181818" points="464,229.1953,474,233.1953,464,237.1953,468,233.1953" style="stroke:#181818;stroke-width:1.0;"/><line style="stroke:#181818;stroke-width:1.0;stroke-dasharray:2.0,2.0;" x1="41" x2="470" y1="233.1953" y2="233.1953"/><line style="stroke:#181818;stroke-width:1.0;stroke-dasharray:2.0,2.0;" x1="41" x2="83" y1="262.5059" y2="262.5059"/><line style="stroke:#181818;stroke-width:1.0;stroke-dasharray:2.0,2.0;" x1="83" x2="83" y1="262.5059" y2="275.5059"/><line style="stroke:#181818;stroke-width:1.0;stroke-dasharray:2.0,2.0;" x1="42" x2="83" y1="275.5059" y2="275.5059"/><polygon fill="#181818" points="52,271.5059,42,275.5059,52,279.5059,48,275.5059" style="stroke:#181818;stroke-width:1.0;"/><text fill="#000000" font-family="sans-serif" font-size="13" lengthAdjust="spacing" textLength="159" x="48" y="257.7637">Calculate ChargingProfile</text><polygon fill="#181818" points="459,316.127,469,320.127,459,324.127,463,320.127" style="stroke:#181818;stroke-width:1.0;"/><line style="stroke:#181818;stroke-width:1.0;" x1="41" x2="465" y1="320.127" y2="320.127"/><text fill="#000000" font-family="sans-serif" font-size="13" lengthAdjust="spacing" textLength="350" x="48" y="300.0742">PUT https://emsp.com/ocpi/2.2.1/chargingprofiles/15</text><text fill="#000000" font-family="sans-serif" font-size="13" lengthAdjust="spacing" textLength="379" x="80" y="315.3848">SetChargingProfile(response_url=https://client.com/12345)</text><polygon fill="#181818" points="890,360.748,900,364.748,890,368.748,894,364.748" style="stroke:#181818;stroke-width:1.0;"/><line style="stroke:#181818;stroke-width:1.0;" x1="481" x2="896" y1="364.748" y2="364.748"/><text fill="#000000" font-family="sans-serif" font-size="13" lengthAdjust="spacing" textLength="339" x="488" y="344.6953">PUT https://cpo.com/ocpi/2.2.1/chargingprofiles/15</text><text fill="#000000" font-family="sans-serif" font-size="13" lengthAdjust="spacing" textLength="370" x="520" y="360.0059">SetChargingProfile(response_url=https://emsp.com/4567)</text><polygon fill="#181818" points="492,405.3691,482,409.3691,492,413.3691,488,409.3691" style="stroke:#181818;stroke-width:1.0;"/><line style="stroke:#181818;stroke-width:1.0;stroke-dasharray:2.0,2.0;" x1="486" x2="901" y1="409.3691" y2="409.3691"/><text fill="#000000" font-family="sans-serif" font-size="13" lengthAdjust="spacing" textLength="130" x="498" y="389.3164">status_code = 1000,</text><text fill="#000000" font-family="sans-serif" font-size="13" lengthAdjust="spacing" textLength="340" x="502" y="404.627">data: {ChargingProfileResponse { result = ACCEPTED }}</text><polygon fill="#181818" points="47,449.9902,37,453.9902,47,457.9902,43,453.9902" style="stroke:#181818;stroke-width:1.0;"/><line style="stroke:#181818;stroke-width:1.0;stroke-dasharray:2.0,2.0;" x1="41" x2="475" y1="453.9902" y2="453.9902"/><text fill="#000000" font-family="sans-serif" font-size="13" lengthAdjust="spacing" textLength="130" x="53" y="433.9375">status_code = 1000,</text><text fill="#000000" font-family="sans-serif" font-size="13" lengthAdjust="spacing" textLength="340" x="57" y="449.248">data: {ChargingProfileResponse { result = ACCEPTED }}</text><polygon fill="#181818" points="1179,479.3008,1189,483.3008,1179,487.3008,1183,483.3008" style="stroke:#181818;stroke-width:1.0;"/><line style="stroke:#181818;stroke-width:1.0;" x1="907" x2="1185" y1="483.3008" y2="483.3008"/><text fill="#000000" font-family="sans-serif" font-size="13" lengthAdjust="spacing" textLength="140" x="914" y="478.5586">SetChargingProfile.req</text><polygon fill="#181818" points="923,508.6113,913,512.6113,923,516.6113,919,512.6113" style="stroke:#181818;stroke-width:1.0;"/><line style="stroke:#181818;stroke-width:1.0;" x1="917" x2="1195" y1="512.6113" y2="512.6113"/><text fill="#000000" font-family="sans-serif" font-size="13" lengthAdjust="spacing" textLength="148" x="929" y="507.8691">SetChargingProfile.conf</text><polygon fill="#181818" points="492,553.2324,482,557.2324,492,561.2324,488,557.2324" style="stroke:#181818;stroke-width:1.0;"/><line style="stroke:#181818;stroke-width:1.0;" x1="486" x2="901" y1="557.2324" y2="557.2324"/><text fill="#000000" font-family="sans-serif" font-size="13" lengthAdjust="spacing" textLength="191" x="498" y="537.1797">POST https://emsp.com/4567</text><text fill="#000000" font-family="sans-serif" font-size="13" lengthAdjust="spacing" textLength="264" x="498" y="552.4902">ChargingProfileResult(result = ACCEPTED)</text><polygon fill="#181818" points="895,567.2324,905,571.2324,895,575.2324,899,571.2324" style="stroke:#181818;stroke-width:1.0;"/><line style="stroke:#181818;stroke-width:1.0;stroke-dasharray:2.0,2.0;" x1="481" x2="901" y1="571.2324" y2="571.2324"/><polygon fill="#181818" points="52,611.8535,42,615.8535,52,619.8535,48,615.8535" style="stroke:#181818;stroke-width:1.0;"/><line style="stroke:#181818;stroke-width:1.0;" x1="46" x2="470" y1="615.8535" y2="615.8535"/><text fill="#000000" font-family="sans-serif" font-size="13" lengthAdjust="spacing" textLength="200" x="58" y="595.8008">POST https://client.com/12345</text><text fill="#000000" font-family="sans-serif" font-size="13" lengthAdjust="spacing" textLength="264" x="58" y="611.1113">ChargingProfileResult(result = ACCEPTED)</text><polygon fill="#181818" points="464,625.8535,474,629.8535,464,633.8535,468,629.8535" style="stroke:#181818;stroke-width:1.0;"/><line style="stroke:#181818;stroke-width:1.0;stroke-dasharray:2.0,2.0;" x1="36" x2="470" y1="629.8535" y2="629.8535"/></g></svg>