<?xml version="1.0" encoding="us-ascii" standalone="no"?><svg xmlns="http://www.w3.org/2000/svg" xmlns:xlink="http://www.w3.org/1999/xlink" contentStyleType="text/css" height="502px" preserveAspectRatio="none" style="width:1092px;height:502px;background:#FFFFFF;" version="1.1" viewBox="0 0 1092 502" width="1092px" zoomAndPan="magnify"><defs/><g><rect fill="#FFFFFF" height="133.8633" style="stroke:#181818;stroke-width:1.0;" width="10" x="35" y="167.8848"/><rect fill="#FFFFFF" height="14" style="stroke:#181818;stroke-width:1.0;" width="10" x="35" y="463.6113"/><rect fill="#FFFFFF" height="133.8633" style="stroke:#181818;stroke-width:1.0;" width="10" x="435" y="167.8848"/><rect fill="#FFFFFF" height="72.6211" style="stroke:#181818;stroke-width:1.0;" width="10" x="435" y="404.9902"/><rect fill="#FFFFFF" height="118.5527" style="stroke:#181818;stroke-width:1.0;" width="10" x="840" y="212.5059"/><rect fill="#FFFFFF" height="58.6211" style="stroke:#181818;stroke-width:1.0;" width="10" x="840" y="360.3691"/><rect fill="#FFFFFF" height="29.3105" style="stroke:#181818;stroke-width:1.0;" width="10" x="1030" y="331.0586"/><line style="stroke:#181818;stroke-width:0.5;stroke-dasharray:5.0,5.0;" x1="40" x2="40" y1="85.9531" y2="495.6113"/><line style="stroke:#181818;stroke-width:0.5;stroke-dasharray:5.0,5.0;" x1="439.5" x2="439.5" y1="85.9531" y2="495.6113"/><line style="stroke:#181818;stroke-width:0.5;stroke-dasharray:5.0,5.0;" x1="844.5" x2="844.5" y1="85.9531" y2="495.6113"/><line style="stroke:#181818;stroke-width:0.5;stroke-dasharray:5.0,5.0;" x1="1034.5" x2="1034.5" y1="85.9531" y2="495.6113"/><rect fill="#E2E2F0" height="30.4883" rx="2.5" ry="2.5" style="stroke:#181818;stroke-width:0.5;" width="48" x="16" y="54.4648"/><text fill="#000000" font-family="sans-serif" font-size="14" lengthAdjust="spacing" textLength="34" x="23" y="75">SCSP</text><rect fill="#E2E2F0" height="79.9531" rx="2.5" ry="2.5" style="stroke:#181818;stroke-width:0.5;" width="71" x="404.5" y="5"/><text fill="#000000" font-family="sans-serif" font-size="14" lengthAdjust="spacing" textLength="36" x="422" y="25.5352">eMSP</text><text fill="#000000" font-family="sans-serif" font-size="14" lengthAdjust="spacing" textLength="48" x="416" y="42.0234">Sender</text><text fill="#000000" font-family="sans-serif" font-size="14" lengthAdjust="spacing" textLength="10" x="435" y="58.5117">&amp;</text><text fill="#000000" font-family="sans-serif" font-size="14" lengthAdjust="spacing" textLength="57" x="411.5" y="75">Receiver</text><rect fill="#E2E2F0" height="46.9766" rx="2.5" ry="2.5" style="stroke:#181818;stroke-width:0.5;" width="71" x="809.5" y="37.9766"/><text fill="#000000" font-family="sans-serif" font-size="14" lengthAdjust="spacing" textLength="29" x="830.5" y="58.5117">CPO</text><text fill="#000000" font-family="sans-serif" font-size="14" lengthAdjust="spacing" textLength="57" x="816.5" y="75">Receiver</text><rect fill="#E2E2F0" height="30.4883" rx="2.5" ry="2.5" style="stroke:#181818;stroke-width:0.5;" width="103" x="983.5" y="54.4648"/><text fill="#000000" font-family="sans-serif" font-size="14" lengthAdjust="spacing" textLength="89" x="990.5" y="75">Charge Point</text><rect fill="#FFFFFF" height="133.8633" style="stroke:#181818;stroke-width:1.0;" width="10" x="35" y="167.8848"/><rect fill="#FFFFFF" height="14" style="stroke:#181818;stroke-width:1.0;" width="10" x="35" y="463.6113"/><rect fill="#FFFFFF" height="133.8633" style="stroke:#181818;stroke-width:1.0;" width="10" x="435" y="167.8848"/><rect fill="#FFFFFF" height="72.6211" style="stroke:#181818;stroke-width:1.0;" width="10" x="435" y="404.9902"/><rect fill="#FFFFFF" height="118.5527" style="stroke:#181818;stroke-width:1.0;" width="10" x="840" y="212.5059"/><rect fill="#FFFFFF" height="58.6211" style="stroke:#181818;stroke-width:1.0;" width="10" x="840" y="360.3691"/><rect fill="#FFFFFF" height="29.3105" style="stroke:#181818;stroke-width:1.0;" width="10" x="1030" y="331.0586"/><path d="M5,100.9531 L5,125.9531 L1070,125.9531 L1070,110.9531 L1060,100.9531 L5,100.9531 " fill="#FEFFDD" style="stroke:#181818;stroke-width:0.5;"/><path d="M1060,100.9531 L1060,110.9531 L1070,110.9531 L1060,100.9531 " fill="#FEFFDD" style="stroke:#181818;stroke-width:0.5;"/><text fill="#000000" font-family="sans-serif" font-size="13" lengthAdjust="spacing" textLength="179" x="443.75" y="118.5215">Ongoing Session with id=15</text><polygon fill="#181818" points="423,163.8848,433,167.8848,423,171.8848,427,167.8848" style="stroke:#181818;stroke-width:1.0;"/><line style="stroke:#181818;stroke-width:1.0;" x1="45" x2="429" y1="167.8848" y2="167.8848"/><text fill="#000000" font-family="sans-serif" font-size="13" lengthAdjust="spacing" textLength="376" x="52" y="147.832">DELETE https://server.com/ocpi/2.2.1/chargingprofiles/15</text><text fill="#000000" font-family="sans-serif" font-size="13" lengthAdjust="spacing" textLength="254" x="136" y="163.1426">?response_url=https://scsp.com/12345</text><polygon fill="#181818" points="828,208.5059,838,212.5059,828,216.5059,832,212.5059" style="stroke:#181818;stroke-width:1.0;"/><line style="stroke:#181818;stroke-width:1.0;" x1="445" x2="834" y1="212.5059" y2="212.5059"/><text fill="#000000" font-family="sans-serif" font-size="13" lengthAdjust="spacing" textLength="376" x="452" y="192.4531">DELETE https://server.com/ocpi/2.2.1/chargingprofiles/15</text><text fill="#000000" font-family="sans-serif" font-size="13" lengthAdjust="spacing" textLength="259" x="536" y="207.7637">?response_url=https://emsp.com/789AB</text><polygon fill="#181818" points="456,253.127,446,257.127,456,261.127,452,257.127" style="stroke:#181818;stroke-width:1.0;"/><line style="stroke:#181818;stroke-width:1.0;stroke-dasharray:2.0,2.0;" x1="450" x2="839" y1="257.127" y2="257.127"/><text fill="#000000" font-family="sans-serif" font-size="13" lengthAdjust="spacing" textLength="165" x="462" y="237.0742">status_code = 1000, data:</text><text fill="#000000" font-family="sans-serif" font-size="13" lengthAdjust="spacing" textLength="305" x="474" y="252.3848">{ChargingProfileResponse { result = ACCEPTED }}</text><polygon fill="#181818" points="51,297.748,41,301.748,51,305.748,47,301.748" style="stroke:#181818;stroke-width:1.0;"/><line style="stroke:#181818;stroke-width:1.0;stroke-dasharray:2.0,2.0;" x1="45" x2="439" y1="301.748" y2="301.748"/><text fill="#000000" font-family="sans-serif" font-size="13" lengthAdjust="spacing" textLength="165" x="57" y="281.6953">status_code = 1000, data:</text><text fill="#000000" font-family="sans-serif" font-size="13" lengthAdjust="spacing" textLength="305" x="69" y="297.0059">{ChargingProfileResponse { result = ACCEPTED }}</text><polygon fill="#181818" points="1018,327.0586,1028,331.0586,1018,335.0586,1022,331.0586" style="stroke:#181818;stroke-width:1.0;"/><line style="stroke:#181818;stroke-width:1.0;" x1="845" x2="1024" y1="331.0586" y2="331.0586"/><text fill="#000000" font-family="sans-serif" font-size="13" lengthAdjust="spacing" textLength="153" x="852" y="326.3164">ClearChargingProfile.req</text><polygon fill="#181818" points="861,356.3691,851,360.3691,861,364.3691,857,360.3691" style="stroke:#181818;stroke-width:1.0;"/><line style="stroke:#181818;stroke-width:1.0;" x1="855" x2="1034" y1="360.3691" y2="360.3691"/><text fill="#000000" font-family="sans-serif" font-size="13" lengthAdjust="spacing" textLength="161" x="867" y="355.627">ClearChargingProfile.conf</text><polygon fill="#181818" points="456,400.9902,446,404.9902,456,408.9902,452,404.9902" style="stroke:#181818;stroke-width:1.0;"/><line style="stroke:#181818;stroke-width:1.0;" x1="450" x2="839" y1="404.9902" y2="404.9902"/><text fill="#000000" font-family="sans-serif" font-size="13" lengthAdjust="spacing" textLength="199" x="462" y="384.9375">POST https://emsp.com/789AB</text><text fill="#000000" font-family="sans-serif" font-size="13" lengthAdjust="spacing" textLength="239" x="462" y="400.248">ClearProfileResult(result = ACCEPTED)</text><polygon fill="#181818" points="833,414.9902,843,418.9902,833,422.9902,837,418.9902" style="stroke:#181818;stroke-width:1.0;"/><line style="stroke:#181818;stroke-width:1.0;stroke-dasharray:2.0,2.0;" x1="445" x2="839" y1="418.9902" y2="418.9902"/><polygon fill="#181818" points="56,459.6113,46,463.6113,56,467.6113,52,463.6113" style="stroke:#181818;stroke-width:1.0;"/><line style="stroke:#181818;stroke-width:1.0;" x1="50" x2="434" y1="463.6113" y2="463.6113"/><text fill="#000000" font-family="sans-serif" font-size="13" lengthAdjust="spacing" textLength="194" x="62" y="443.5586">POST https://scsp.com/12345</text><text fill="#000000" font-family="sans-serif" font-size="13" lengthAdjust="spacing" textLength="239" x="62" y="458.8691">ClearProfileResult(result = ACCEPTED)</text><polygon fill="#181818" points="428,473.6113,438,477.6113,428,481.6113,432,477.6113" style="stroke:#181818;stroke-width:1.0;"/><line style="stroke:#181818;stroke-width:1.0;stroke-dasharray:2.0,2.0;" x1="40" x2="434" y1="477.6113" y2="477.6113"/></g></svg>