<?xml version="1.0" encoding="UTF-8" standalone="no"?><svg xmlns="http://www.w3.org/2000/svg" xmlns:xlink="http://www.w3.org/1999/xlink" contentScriptType="application/ecmascript" contentStyleType="text/css" height="513px" preserveAspectRatio="none" style="width:1100px;height:513px;" version="1.1" viewBox="0 0 1100 513" width="1100px" zoomAndPan="magnify"><defs><filter height="300%" id="fs1qgp33e2y4o" width="300%" x="-1" y="-1"><feGaussianBlur result="blurOut" stdDeviation="2.0"/><feColorMatrix in="blurOut" result="blurOut2" type="matrix" values="0 0 0 0 0 0 0 0 0 0 0 0 0 0 0 0 0 0 .4 0"/><feOffset dx="4.0" dy="4.0" in="blurOut2" result="blurOut3"/><feBlend in="SourceGraphic" in2="blurOut3" mode="normal"/></filter></defs><g><rect fill="#FFFFFF" filter="url(#fs1qgp33e2y4o)" height="133.8633" style="stroke: #A80036; stroke-width: 1.0;" width="10" x="40" y="173.8848"/><rect fill="#FFFFFF" filter="url(#fs1qgp33e2y4o)" height="14" style="stroke: #A80036; stroke-width: 1.0;" width="10" x="40" y="469.6113"/><rect fill="#FFFFFF" filter="url(#fs1qgp33e2y4o)" height="133.8633" style="stroke: #A80036; stroke-width: 1.0;" width="10" x="440" y="173.8848"/><rect fill="#FFFFFF" filter="url(#fs1qgp33e2y4o)" height="72.6211" style="stroke: #A80036; stroke-width: 1.0;" width="10" x="440" y="410.9902"/><rect fill="#FFFFFF" filter="url(#fs1qgp33e2y4o)" height="118.5527" style="stroke: #A80036; stroke-width: 1.0;" width="10" x="845" y="218.5059"/><rect fill="#FFFFFF" filter="url(#fs1qgp33e2y4o)" height="58.6211" style="stroke: #A80036; stroke-width: 1.0;" width="10" x="845" y="366.3691"/><rect fill="#FFFFFF" filter="url(#fs1qgp33e2y4o)" height="29.3105" style="stroke: #A80036; stroke-width: 1.0;" width="10" x="1035" y="337.0586"/><line style="stroke: #A80036; stroke-width: 1.0; stroke-dasharray: 5.0,5.0;" x1="45" x2="45" y1="87.9531" y2="501.6113"/><line style="stroke: #A80036; stroke-width: 1.0; stroke-dasharray: 5.0,5.0;" x1="444.5" x2="444.5" y1="87.9531" y2="501.6113"/><line style="stroke: #A80036; stroke-width: 1.0; stroke-dasharray: 5.0,5.0;" x1="849.5" x2="849.5" y1="87.9531" y2="501.6113"/><line style="stroke: #A80036; stroke-width: 1.0; stroke-dasharray: 5.0,5.0;" x1="1039.5" x2="1039.5" y1="87.9531" y2="501.6113"/><rect fill="#FEFECE" filter="url(#fs1qgp33e2y4o)" height="30.4883" style="stroke: #A80036; stroke-width: 1.5;" width="48" x="19" y="52.4648"/><text fill="#000000" font-family="sans-serif" font-size="14" lengthAdjust="spacingAndGlyphs" textLength="34" x="26" y="73">SCSP</text><rect fill="#FEFECE" filter="url(#fs1qgp33e2y4o)" height="79.9531" style="stroke: #A80036; stroke-width: 1.5;" width="71" x="407.5" y="3"/><text fill="#000000" font-family="sans-serif" font-size="14" lengthAdjust="spacingAndGlyphs" textLength="36" x="425" y="23.5352">eMSP</text><text fill="#000000" font-family="sans-serif" font-size="14" lengthAdjust="spacingAndGlyphs" textLength="48" x="419" y="40.0234">Sender</text><text fill="#000000" font-family="sans-serif" font-size="14" lengthAdjust="spacingAndGlyphs" textLength="10" x="438" y="56.5117">&amp;</text><text fill="#000000" font-family="sans-serif" font-size="14" lengthAdjust="spacingAndGlyphs" textLength="57" x="414.5" y="73">Receiver</text><rect fill="#FEFECE" filter="url(#fs1qgp33e2y4o)" height="46.9766" style="stroke: #A80036; stroke-width: 1.5;" width="71" x="812.5" y="35.9766"/><text fill="#000000" font-family="sans-serif" font-size="14" lengthAdjust="spacingAndGlyphs" textLength="29" x="833.5" y="56.5117">CPO</text><text fill="#000000" font-family="sans-serif" font-size="14" lengthAdjust="spacingAndGlyphs" textLength="57" x="819.5" y="73">Receiver</text><rect fill="#FEFECE" filter="url(#fs1qgp33e2y4o)" height="30.4883" style="stroke: #A80036; stroke-width: 1.5;" width="103" x="986.5" y="52.4648"/><text fill="#000000" font-family="sans-serif" font-size="14" lengthAdjust="spacingAndGlyphs" textLength="89" x="993.5" y="73">Charge Point</text><rect fill="#FFFFFF" filter="url(#fs1qgp33e2y4o)" height="133.8633" style="stroke: #A80036; stroke-width: 1.0;" width="10" x="40" y="173.8848"/><rect fill="#FFFFFF" filter="url(#fs1qgp33e2y4o)" height="14" style="stroke: #A80036; stroke-width: 1.0;" width="10" x="40" y="469.6113"/><rect fill="#FFFFFF" filter="url(#fs1qgp33e2y4o)" height="133.8633" style="stroke: #A80036; stroke-width: 1.0;" width="10" x="440" y="173.8848"/><rect fill="#FFFFFF" filter="url(#fs1qgp33e2y4o)" height="72.6211" style="stroke: #A80036; stroke-width: 1.0;" width="10" x="440" y="410.9902"/><rect fill="#FFFFFF" filter="url(#fs1qgp33e2y4o)" height="118.5527" style="stroke: #A80036; stroke-width: 1.0;" width="10" x="845" y="218.5059"/><rect fill="#FFFFFF" filter="url(#fs1qgp33e2y4o)" height="58.6211" style="stroke: #A80036; stroke-width: 1.0;" width="10" x="845" y="366.3691"/><rect fill="#FFFFFF" filter="url(#fs1qgp33e2y4o)" height="29.3105" style="stroke: #A80036; stroke-width: 1.0;" width="10" x="1035" y="337.0586"/><path d="M8,102.9531 L8,127.9531 L1077,127.9531 L1077,112.9531 L1067,102.9531 L8,102.9531 " fill="#FBFB77" filter="url(#fs1qgp33e2y4o)" style="stroke: #A80036; stroke-width: 1.0;"/><path d="M1067,102.9531 L1067,112.9531 L1077,112.9531 L1067,102.9531 " fill="#FBFB77" style="stroke: #A80036; stroke-width: 1.0;"/><text fill="#000000" font-family="sans-serif" font-size="13" lengthAdjust="spacingAndGlyphs" textLength="179" x="446.75" y="120.5215">Ongoing Session with id=15</text><polygon fill="#A80036" points="428,169.8848,438,173.8848,428,177.8848,432,173.8848" style="stroke: #A80036; stroke-width: 1.0;"/><line style="stroke: #A80036; stroke-width: 1.0;" x1="50" x2="434" y1="173.8848" y2="173.8848"/><text fill="#000000" font-family="sans-serif" font-size="13" lengthAdjust="spacingAndGlyphs" textLength="376" x="57" y="153.832">DELETE https://server.com/ocpi/2.2.1/chargingprofiles/15</text><text fill="#000000" font-family="sans-serif" font-size="13" lengthAdjust="spacingAndGlyphs" textLength="254" x="141" y="169.1426">?response_url=https://scsp.com/12345</text><polygon fill="#A80036" points="833,214.5059,843,218.5059,833,222.5059,837,218.5059" style="stroke: #A80036; stroke-width: 1.0;"/><line style="stroke: #A80036; stroke-width: 1.0;" x1="450" x2="839" y1="218.5059" y2="218.5059"/><text fill="#000000" font-family="sans-serif" font-size="13" lengthAdjust="spacingAndGlyphs" textLength="376" x="457" y="198.4531">DELETE https://server.com/ocpi/2.2.1/chargingprofiles/15</text><text fill="#000000" font-family="sans-serif" font-size="13" lengthAdjust="spacingAndGlyphs" textLength="259" x="541" y="213.7637">?response_url=https://emsp.com/789AB</text><polygon fill="#A80036" points="461,259.127,451,263.127,461,267.127,457,263.127" style="stroke: #A80036; stroke-width: 1.0;"/><line style="stroke: #A80036; stroke-width: 1.0; stroke-dasharray: 2.0,2.0;" x1="455" x2="844" y1="263.127" y2="263.127"/><text fill="#000000" font-family="sans-serif" font-size="13" lengthAdjust="spacingAndGlyphs" textLength="165" x="467" y="243.0742">status_code = 1000, data:</text><text fill="#000000" font-family="sans-serif" font-size="13" lengthAdjust="spacingAndGlyphs" textLength="305" x="479" y="258.3848">{ChargingProfileResponse { result = ACCEPTED }}</text><polygon fill="#A80036" points="56,303.748,46,307.748,56,311.748,52,307.748" style="stroke: #A80036; stroke-width: 1.0;"/><line style="stroke: #A80036; stroke-width: 1.0; stroke-dasharray: 2.0,2.0;" x1="50" x2="444" y1="307.748" y2="307.748"/><text fill="#000000" font-family="sans-serif" font-size="13" lengthAdjust="spacingAndGlyphs" textLength="165" x="62" y="287.6953">status_code = 1000, data:</text><text fill="#000000" font-family="sans-serif" font-size="13" lengthAdjust="spacingAndGlyphs" textLength="305" x="74" y="303.0059">{ChargingProfileResponse { result = ACCEPTED }}</text><polygon fill="#A80036" points="1023,333.0586,1033,337.0586,1023,341.0586,1027,337.0586" style="stroke: #A80036; stroke-width: 1.0;"/><line style="stroke: #A80036; stroke-width: 1.0;" x1="850" x2="1029" y1="337.0586" y2="337.0586"/><text fill="#000000" font-family="sans-serif" font-size="13" lengthAdjust="spacingAndGlyphs" textLength="153" x="857" y="332.3164">ClearChargingProfile.req</text><polygon fill="#A80036" points="866,362.3691,856,366.3691,866,370.3691,862,366.3691" style="stroke: #A80036; stroke-width: 1.0;"/><line style="stroke: #A80036; stroke-width: 1.0;" x1="860" x2="1039" y1="366.3691" y2="366.3691"/><text fill="#000000" font-family="sans-serif" font-size="13" lengthAdjust="spacingAndGlyphs" textLength="161" x="872" y="361.627">ClearChargingProfile.conf</text><polygon fill="#A80036" points="461,406.9902,451,410.9902,461,414.9902,457,410.9902" style="stroke: #A80036; stroke-width: 1.0;"/><line style="stroke: #A80036; stroke-width: 1.0;" x1="455" x2="844" y1="410.9902" y2="410.9902"/><text fill="#000000" font-family="sans-serif" font-size="13" lengthAdjust="spacingAndGlyphs" textLength="199" x="467" y="390.9375">POST https://emsp.com/789AB</text><text fill="#000000" font-family="sans-serif" font-size="13" lengthAdjust="spacingAndGlyphs" textLength="239" x="467" y="406.248">ClearProfileResult(result = ACCEPTED)</text><polygon fill="#A80036" points="838,420.9902,848,424.9902,838,428.9902,842,424.9902" style="stroke: #A80036; stroke-width: 1.0;"/><line style="stroke: #A80036; stroke-width: 1.0; stroke-dasharray: 2.0,2.0;" x1="450" x2="844" y1="424.9902" y2="424.9902"/><polygon fill="#A80036" points="61,465.6113,51,469.6113,61,473.6113,57,469.6113" style="stroke: #A80036; stroke-width: 1.0;"/><line style="stroke: #A80036; stroke-width: 1.0;" x1="55" x2="439" y1="469.6113" y2="469.6113"/><text fill="#000000" font-family="sans-serif" font-size="13" lengthAdjust="spacingAndGlyphs" textLength="194" x="67" y="449.5586">POST https://scsp.com/12345</text><text fill="#000000" font-family="sans-serif" font-size="13" lengthAdjust="spacingAndGlyphs" textLength="239" x="67" y="464.8691">ClearProfileResult(result = ACCEPTED)</text><polygon fill="#A80036" points="433,479.6113,443,483.6113,433,487.6113,437,483.6113" style="stroke: #A80036; stroke-width: 1.0;"/><line style="stroke: #A80036; stroke-width: 1.0; stroke-dasharray: 2.0,2.0;" x1="45" x2="439" y1="483.6113" y2="483.6113"/></g></svg>