<?xml version="1.0" encoding="UTF-8" standalone="no"?><svg xmlns="http://www.w3.org/2000/svg" xmlns:xlink="http://www.w3.org/1999/xlink" contentScriptType="application/ecmascript" contentStyleType="text/css" height="214px" preserveAspectRatio="none" style="width:715px;height:214px;" version="1.1" viewBox="0 0 715 214" width="715px" zoomAndPan="magnify"><defs><filter height="300%" id="f107vg6gmhqhwq" width="300%" x="-1" y="-1"><feGaussianBlur result="blurOut" stdDeviation="2.0"/><feColorMatrix in="blurOut" result="blurOut2" type="matrix" values="0 0 0 0 0 0 0 0 0 0 0 0 0 0 0 0 0 0 .4 0"/><feOffset dx="4.0" dy="4.0" in="blurOut2" result="blurOut3"/><feBlend in="SourceGraphic" in2="blurOut3" mode="normal"/></filter></defs><g><rect fill="#FFFFFF" filter="url(#f107vg6gmhqhwq)" height="60.6211" style="stroke: #A80036; stroke-width: 1.0;" width="10" x="56.5" y="64.9766"/><rect fill="#FFFFFF" filter="url(#f107vg6gmhqhwq)" height="58.6211" style="stroke: #A80036; stroke-width: 1.0;" width="10" x="229.5" y="125.5977"/><rect fill="#FFFFFF" filter="url(#f107vg6gmhqhwq)" height="14" style="stroke: #A80036; stroke-width: 1.0;" width="10" x="646.5" y="170.2188"/><line style="stroke: #A80036; stroke-width: 1.0; stroke-dasharray: 5.0,5.0;" x1="61" x2="61" y1="54.9766" y2="202.2188"/><line style="stroke: #A80036; stroke-width: 1.0; stroke-dasharray: 5.0,5.0;" x1="234" x2="234" y1="54.9766" y2="202.2188"/><line style="stroke: #A80036; stroke-width: 1.0; stroke-dasharray: 5.0,5.0;" x1="651" x2="651" y1="54.9766" y2="202.2188"/><rect fill="#FEFECE" filter="url(#f107vg6gmhqhwq)" height="30.4883" style="stroke: #A80036; stroke-width: 1.5;" width="103" x="8" y="19.4883"/><text fill="#000000" font-family="sans-serif" font-size="14" lengthAdjust="spacingAndGlyphs" textLength="89" x="15" y="40.0234">Charge Point</text><rect fill="#FEFECE" filter="url(#f107vg6gmhqhwq)" height="46.9766" style="stroke: #A80036; stroke-width: 1.5;" width="71" x="197" y="3"/><text fill="#000000" font-family="sans-serif" font-size="14" lengthAdjust="spacingAndGlyphs" textLength="29" x="218" y="23.5352">CPO</text><text fill="#000000" font-family="sans-serif" font-size="14" lengthAdjust="spacingAndGlyphs" textLength="57" x="204" y="40.0234">Receiver</text><rect fill="#FEFECE" filter="url(#f107vg6gmhqhwq)" height="46.9766" style="stroke: #A80036; stroke-width: 1.5;" width="107" x="596" y="3"/><text fill="#000000" font-family="sans-serif" font-size="14" lengthAdjust="spacingAndGlyphs" textLength="48" x="625.5" y="23.5352">Sender</text><text fill="#000000" font-family="sans-serif" font-size="14" lengthAdjust="spacingAndGlyphs" textLength="93" x="603" y="40.0234">eMSP or SCSP</text><rect fill="#FFFFFF" filter="url(#f107vg6gmhqhwq)" height="60.6211" style="stroke: #A80036; stroke-width: 1.0;" width="10" x="56.5" y="64.9766"/><rect fill="#FFFFFF" filter="url(#f107vg6gmhqhwq)" height="58.6211" style="stroke: #A80036; stroke-width: 1.0;" width="10" x="229.5" y="125.5977"/><rect fill="#FFFFFF" filter="url(#f107vg6gmhqhwq)" height="14" style="stroke: #A80036; stroke-width: 1.0;" width="10" x="646.5" y="170.2188"/><path d="M9,69.9766 L9,94.9766 L703,94.9766 L703,79.9766 L693,69.9766 L9,69.9766 " fill="#FBFB77" filter="url(#f107vg6gmhqhwq)" style="stroke: #A80036; stroke-width: 1.0;"/><path d="M693,69.9766 L693,79.9766 L703,79.9766 L693,69.9766 " fill="#FBFB77" style="stroke: #A80036; stroke-width: 1.0;"/><text fill="#000000" font-family="sans-serif" font-size="13" lengthAdjust="spacingAndGlyphs" textLength="179" x="260" y="87.5449">Ongoing Session with id=15</text><polygon fill="#A80036" points="217.5,121.5977,227.5,125.5977,217.5,129.5977,221.5,125.5977" style="stroke: #A80036; stroke-width: 1.0;"/><line style="stroke: #A80036; stroke-width: 1.0;" x1="61.5" x2="223.5" y1="125.5977" y2="125.5977"/><text fill="#000000" font-family="sans-serif" font-size="13" lengthAdjust="spacingAndGlyphs" textLength="144" x="68.5" y="120.8555">update ChargingProfile</text><polygon fill="#A80036" points="634.5,166.2188,644.5,170.2188,634.5,174.2188,638.5,170.2188" style="stroke: #A80036; stroke-width: 1.0;"/><line style="stroke: #A80036; stroke-width: 1.0;" x1="239.5" x2="640.5" y1="170.2188" y2="170.2188"/><text fill="#000000" font-family="sans-serif" font-size="13" lengthAdjust="spacingAndGlyphs" textLength="388" x="246.5" y="150.166">PUT https://www.server.com/ocpi/2.2.1/chargingprofiles/15</text><text fill="#000000" font-family="sans-serif" font-size="13" lengthAdjust="spacingAndGlyphs" textLength="144" x="278.5" y="165.4766">ActiveChargingProfile()</text><polygon fill="#A80036" points="245.5,180.2188,235.5,184.2188,245.5,188.2188,241.5,184.2188" style="stroke: #A80036; stroke-width: 1.0;"/><line style="stroke: #A80036; stroke-width: 1.0; stroke-dasharray: 2.0,2.0;" x1="239.5" x2="650.5" y1="184.2188" y2="184.2188"/></g></svg>