<?xml version="1.0" encoding="UTF-8" standalone="no"?><svg xmlns="http://www.w3.org/2000/svg" xmlns:xlink="http://www.w3.org/1999/xlink" contentScriptType="application/ecmascript" contentStyleType="text/css" height="302px" preserveAspectRatio="none" style="width:982px;height:302px;" version="1.1" viewBox="0 0 982 302" width="982px" zoomAndPan="magnify"><defs><filter height="300%" id="f1jvis8gh2h4s0" width="300%" x="-1" y="-1"><feGaussianBlur result="blurOut" stdDeviation="2.0"/><feColorMatrix in="blurOut" result="blurOut2" type="matrix" values="0 0 0 0 0 0 0 0 0 0 0 0 0 0 0 0 0 0 .4 0"/><feOffset dx="4.0" dy="4.0" in="blurOut2" result="blurOut3"/><feBlend in="SourceGraphic" in2="blurOut3" mode="normal"/></filter></defs><g><rect fill="#FFFFFF" filter="url(#f1jvis8gh2h4s0)" height="89.9316" style="stroke: #A80036; stroke-width: 1.0;" width="10" x="58.5" y="64.9766"/><rect fill="#FFFFFF" filter="url(#f1jvis8gh2h4s0)" height="14" style="stroke: #A80036; stroke-width: 1.0;" width="10" x="58.5" y="258.1504"/><rect fill="#FFFFFF" filter="url(#f1jvis8gh2h4s0)" height="58.6211" style="stroke: #A80036; stroke-width: 1.0;" width="10" x="723.5" y="125.5977"/><rect fill="#FFFFFF" filter="url(#f1jvis8gh2h4s0)" height="58.6211" style="stroke: #A80036; stroke-width: 1.0;" width="10" x="723.5" y="213.5293"/><rect fill="#FFFFFF" filter="url(#f1jvis8gh2h4s0)" height="29.3105" style="stroke: #A80036; stroke-width: 1.0;" width="10" x="913.5" y="184.2188"/><line style="stroke: #A80036; stroke-width: 1.0; stroke-dasharray: 5.0,5.0;" x1="63" x2="63" y1="54.9766" y2="290.1504"/><line style="stroke: #A80036; stroke-width: 1.0; stroke-dasharray: 5.0,5.0;" x1="728" x2="728" y1="54.9766" y2="290.1504"/><line style="stroke: #A80036; stroke-width: 1.0; stroke-dasharray: 5.0,5.0;" x1="918" x2="918" y1="54.9766" y2="290.1504"/><rect fill="#FEFECE" filter="url(#f1jvis8gh2h4s0)" height="46.9766" style="stroke: #A80036; stroke-width: 1.5;" width="107" x="8" y="3"/><text fill="#000000" font-family="sans-serif" font-size="14" lengthAdjust="spacingAndGlyphs" textLength="48" x="37.5" y="23.5352">Sender</text><text fill="#000000" font-family="sans-serif" font-size="14" lengthAdjust="spacingAndGlyphs" textLength="93" x="15" y="40.0234">eMSP or SCSP</text><rect fill="#FEFECE" filter="url(#f1jvis8gh2h4s0)" height="46.9766" style="stroke: #A80036; stroke-width: 1.5;" width="71" x="691" y="3"/><text fill="#000000" font-family="sans-serif" font-size="14" lengthAdjust="spacingAndGlyphs" textLength="29" x="712" y="23.5352">CPO</text><text fill="#000000" font-family="sans-serif" font-size="14" lengthAdjust="spacingAndGlyphs" textLength="57" x="698" y="40.0234">Receiver</text><rect fill="#FEFECE" filter="url(#f1jvis8gh2h4s0)" height="30.4883" style="stroke: #A80036; stroke-width: 1.5;" width="103" x="865" y="19.4883"/><text fill="#000000" font-family="sans-serif" font-size="14" lengthAdjust="spacingAndGlyphs" textLength="89" x="872" y="40.0234">Charge Point</text><rect fill="#FFFFFF" filter="url(#f1jvis8gh2h4s0)" height="89.9316" style="stroke: #A80036; stroke-width: 1.0;" width="10" x="58.5" y="64.9766"/><rect fill="#FFFFFF" filter="url(#f1jvis8gh2h4s0)" height="14" style="stroke: #A80036; stroke-width: 1.0;" width="10" x="58.5" y="258.1504"/><rect fill="#FFFFFF" filter="url(#f1jvis8gh2h4s0)" height="58.6211" style="stroke: #A80036; stroke-width: 1.0;" width="10" x="723.5" y="125.5977"/><rect fill="#FFFFFF" filter="url(#f1jvis8gh2h4s0)" height="58.6211" style="stroke: #A80036; stroke-width: 1.0;" width="10" x="723.5" y="213.5293"/><rect fill="#FFFFFF" filter="url(#f1jvis8gh2h4s0)" height="29.3105" style="stroke: #A80036; stroke-width: 1.0;" width="10" x="913.5" y="184.2188"/><path d="M11,69.9766 L11,94.9766 L970,94.9766 L970,79.9766 L960,69.9766 L11,69.9766 " fill="#FBFB77" filter="url(#f1jvis8gh2h4s0)" style="stroke: #A80036; stroke-width: 1.0;"/><path d="M960,69.9766 L960,79.9766 L970,79.9766 L960,69.9766 " fill="#FBFB77" style="stroke: #A80036; stroke-width: 1.0;"/><text fill="#000000" font-family="sans-serif" font-size="13" lengthAdjust="spacingAndGlyphs" textLength="179" x="394.5" y="87.5449">Ongoing Session with id=15</text><polygon fill="#A80036" points="711.5,121.5977,721.5,125.5977,711.5,129.5977,715.5,125.5977" style="stroke: #A80036; stroke-width: 1.0;"/><line style="stroke: #A80036; stroke-width: 1.0;" x1="68.5" x2="717.5" y1="125.5977" y2="125.5977"/><text fill="#000000" font-family="sans-serif" font-size="13" lengthAdjust="spacingAndGlyphs" textLength="636" x="75.5" y="120.8555">DELETE https://server.com/ocpi/2.2.1/chargingprofiles/15?response_url=https://client.com/12345</text><polygon fill="#A80036" points="74.5,150.9082,64.5,154.9082,74.5,158.9082,70.5,154.9082" style="stroke: #A80036; stroke-width: 1.0;"/><line style="stroke: #A80036; stroke-width: 1.0; stroke-dasharray: 2.0,2.0;" x1="68.5" x2="722.5" y1="154.9082" y2="154.9082"/><text fill="#000000" font-family="sans-serif" font-size="13" lengthAdjust="spacingAndGlyphs" textLength="474" x="80.5" y="150.166">status_code = 1000, data: {ChargingProfileResponse { result = ACCEPTED }}</text><polygon fill="#A80036" points="901.5,180.2188,911.5,184.2188,901.5,188.2188,905.5,184.2188" style="stroke: #A80036; stroke-width: 1.0;"/><line style="stroke: #A80036; stroke-width: 1.0;" x1="728.5" x2="907.5" y1="184.2188" y2="184.2188"/><text fill="#000000" font-family="sans-serif" font-size="13" lengthAdjust="spacingAndGlyphs" textLength="153" x="735.5" y="179.4766">ClearChargingProfile.req</text><polygon fill="#A80036" points="744.5,209.5293,734.5,213.5293,744.5,217.5293,740.5,213.5293" style="stroke: #A80036; stroke-width: 1.0;"/><line style="stroke: #A80036; stroke-width: 1.0;" x1="738.5" x2="917.5" y1="213.5293" y2="213.5293"/><text fill="#000000" font-family="sans-serif" font-size="13" lengthAdjust="spacingAndGlyphs" textLength="161" x="750.5" y="208.7871">ClearChargingProfile.conf</text><polygon fill="#A80036" points="79.5,254.1504,69.5,258.1504,79.5,262.1504,75.5,258.1504" style="stroke: #A80036; stroke-width: 1.0;"/><line style="stroke: #A80036; stroke-width: 1.0;" x1="73.5" x2="722.5" y1="258.1504" y2="258.1504"/><text fill="#000000" font-family="sans-serif" font-size="13" lengthAdjust="spacingAndGlyphs" textLength="200" x="85.5" y="238.0977">POST https://client.com/12345</text><text fill="#000000" font-family="sans-serif" font-size="13" lengthAdjust="spacingAndGlyphs" textLength="239" x="85.5" y="253.4082">ClearProfileResult(result = ACCEPTED)</text><polygon fill="#A80036" points="716.5,268.1504,726.5,272.1504,716.5,276.1504,720.5,272.1504" style="stroke: #A80036; stroke-width: 1.0;"/><line style="stroke: #A80036; stroke-width: 1.0; stroke-dasharray: 2.0,2.0;" x1="63.5" x2="722.5" y1="272.1504" y2="272.1504"/></g></svg>