<?xml version="1.0" encoding="UTF-8" standalone="no"?><svg xmlns="http://www.w3.org/2000/svg" xmlns:xlink="http://www.w3.org/1999/xlink" contentScriptType="application/ecmascript" contentStyleType="text/css" height="661px" preserveAspectRatio="none" style="width:1261px;height:661px;" version="1.1" viewBox="0 0 1261 661" width="1261px" zoomAndPan="magnify"><defs><filter height="300%" id="fo1cqbz8a9glj" width="300%" x="-1" y="-1"><feGaussianBlur result="blurOut" stdDeviation="2.0"/><feColorMatrix in="blurOut" result="blurOut2" type="matrix" values="0 0 0 0 0 0 0 0 0 0 0 0 0 0 0 0 0 0 .4 0"/><feOffset dx="4.0" dy="4.0" in="blurOut2" result="blurOut3"/><feBlend in="SourceGraphic" in2="blurOut3" mode="normal"/></filter></defs><g><rect fill="#FFFFFF" filter="url(#fo1cqbz8a9glj)" height="234.7949" style="stroke: #A80036; stroke-width: 1.0;" width="10" x="36" y="221.1953"/><rect fill="#FFFFFF" filter="url(#fo1cqbz8a9glj)" height="14" style="stroke: #A80036; stroke-width: 1.0;" width="10" x="36" y="617.8535"/><rect fill="#FFFFFF" filter="url(#fo1cqbz8a9glj)" height="57.3105" style="stroke: #A80036; stroke-width: 1.0;" width="10" x="476" y="177.8848"/><rect fill="#FFFFFF" filter="url(#fo1cqbz8a9glj)" height="133.8633" style="stroke: #A80036; stroke-width: 1.0;" width="10" x="476" y="322.127"/><rect fill="#FFFFFF" filter="url(#fo1cqbz8a9glj)" height="72.6211" style="stroke: #A80036; stroke-width: 1.0;" width="10" x="476" y="559.2324"/><rect fill="#FFFFFF" filter="url(#fo1cqbz8a9glj)" height="72.6211" style="stroke: #A80036; stroke-width: 1.0;" width="10" x="907" y="119.2637"/><rect fill="#FFFFFF" filter="url(#fo1cqbz8a9glj)" height="118.5527" style="stroke: #A80036; stroke-width: 1.0;" width="10" x="907" y="366.748"/><rect fill="#FFFFFF" filter="url(#fo1cqbz8a9glj)" height="58.6211" style="stroke: #A80036; stroke-width: 1.0;" width="10" x="907" y="514.6113"/><rect fill="#FFFFFF" filter="url(#fo1cqbz8a9glj)" height="50.6211" style="stroke: #A80036; stroke-width: 1.0;" width="10" x="1196" y="97.9531"/><rect fill="#FFFFFF" filter="url(#fo1cqbz8a9glj)" height="29.3105" style="stroke: #A80036; stroke-width: 1.0;" width="10" x="1196" y="485.3008"/><line style="stroke: #A80036; stroke-width: 1.0; stroke-dasharray: 5.0,5.0;" x1="41" x2="41" y1="87.9531" y2="649.8535"/><line style="stroke: #A80036; stroke-width: 1.0; stroke-dasharray: 5.0,5.0;" x1="480.5" x2="480.5" y1="87.9531" y2="649.8535"/><line style="stroke: #A80036; stroke-width: 1.0; stroke-dasharray: 5.0,5.0;" x1="911.5" x2="911.5" y1="87.9531" y2="649.8535"/><line style="stroke: #A80036; stroke-width: 1.0; stroke-dasharray: 5.0,5.0;" x1="1200.5" x2="1200.5" y1="87.9531" y2="649.8535"/><rect fill="#FEFECE" filter="url(#fo1cqbz8a9glj)" height="46.9766" style="stroke: #A80036; stroke-width: 1.5;" width="62" x="8" y="35.9766"/><text fill="#000000" font-family="sans-serif" font-size="14" lengthAdjust="spacingAndGlyphs" textLength="34" x="22" y="56.5117">SCSP</text><text fill="#000000" font-family="sans-serif" font-size="14" lengthAdjust="spacingAndGlyphs" textLength="48" x="15" y="73">Sender</text><rect fill="#FEFECE" filter="url(#fo1cqbz8a9glj)" height="79.9531" style="stroke: #A80036; stroke-width: 1.5;" width="71" x="443.5" y="3"/><text fill="#000000" font-family="sans-serif" font-size="14" lengthAdjust="spacingAndGlyphs" textLength="36" x="461" y="23.5352">eMSP</text><text fill="#000000" font-family="sans-serif" font-size="14" lengthAdjust="spacingAndGlyphs" textLength="48" x="455" y="40.0234">Sender</text><text fill="#000000" font-family="sans-serif" font-size="14" lengthAdjust="spacingAndGlyphs" textLength="10" x="474" y="56.5117">&amp;</text><text fill="#000000" font-family="sans-serif" font-size="14" lengthAdjust="spacingAndGlyphs" textLength="57" x="450.5" y="73">Receiver</text><rect fill="#FEFECE" filter="url(#fo1cqbz8a9glj)" height="46.9766" style="stroke: #A80036; stroke-width: 1.5;" width="71" x="874.5" y="35.9766"/><text fill="#000000" font-family="sans-serif" font-size="14" lengthAdjust="spacingAndGlyphs" textLength="29" x="895.5" y="56.5117">CPO</text><text fill="#000000" font-family="sans-serif" font-size="14" lengthAdjust="spacingAndGlyphs" textLength="57" x="881.5" y="73">Receiver</text><rect fill="#FEFECE" filter="url(#fo1cqbz8a9glj)" height="30.4883" style="stroke: #A80036; stroke-width: 1.5;" width="103" x="1147.5" y="52.4648"/><text fill="#000000" font-family="sans-serif" font-size="14" lengthAdjust="spacingAndGlyphs" textLength="89" x="1154.5" y="73">Charge Point</text><rect fill="#FFFFFF" filter="url(#fo1cqbz8a9glj)" height="234.7949" style="stroke: #A80036; stroke-width: 1.0;" width="10" x="36" y="221.1953"/><rect fill="#FFFFFF" filter="url(#fo1cqbz8a9glj)" height="14" style="stroke: #A80036; stroke-width: 1.0;" width="10" x="36" y="617.8535"/><rect fill="#FFFFFF" filter="url(#fo1cqbz8a9glj)" height="57.3105" style="stroke: #A80036; stroke-width: 1.0;" width="10" x="476" y="177.8848"/><rect fill="#FFFFFF" filter="url(#fo1cqbz8a9glj)" height="133.8633" style="stroke: #A80036; stroke-width: 1.0;" width="10" x="476" y="322.127"/><rect fill="#FFFFFF" filter="url(#fo1cqbz8a9glj)" height="72.6211" style="stroke: #A80036; stroke-width: 1.0;" width="10" x="476" y="559.2324"/><rect fill="#FFFFFF" filter="url(#fo1cqbz8a9glj)" height="72.6211" style="stroke: #A80036; stroke-width: 1.0;" width="10" x="907" y="119.2637"/><rect fill="#FFFFFF" filter="url(#fo1cqbz8a9glj)" height="118.5527" style="stroke: #A80036; stroke-width: 1.0;" width="10" x="907" y="366.748"/><rect fill="#FFFFFF" filter="url(#fo1cqbz8a9glj)" height="58.6211" style="stroke: #A80036; stroke-width: 1.0;" width="10" x="907" y="514.6113"/><rect fill="#FFFFFF" filter="url(#fo1cqbz8a9glj)" height="50.6211" style="stroke: #A80036; stroke-width: 1.0;" width="10" x="1196" y="97.9531"/><rect fill="#FFFFFF" filter="url(#fo1cqbz8a9glj)" height="29.3105" style="stroke: #A80036; stroke-width: 1.0;" width="10" x="1196" y="485.3008"/><polygon fill="#A80036" points="928,115.2637,918,119.2637,928,123.2637,924,119.2637" style="stroke: #A80036; stroke-width: 1.0;"/><line style="stroke: #A80036; stroke-width: 1.0;" x1="922" x2="1195" y1="119.2637" y2="119.2637"/><text fill="#000000" font-family="sans-serif" font-size="13" lengthAdjust="spacingAndGlyphs" textLength="208" x="934" y="114.5215">StartTransaction.req(Token=200)</text><polygon fill="#A80036" points="1189,144.5742,1199,148.5742,1189,152.5742,1193,148.5742" style="stroke: #A80036; stroke-width: 1.0;"/><line style="stroke: #A80036; stroke-width: 1.0;" x1="917" x2="1195" y1="148.5742" y2="148.5742"/><text fill="#000000" font-family="sans-serif" font-size="13" lengthAdjust="spacingAndGlyphs" textLength="255" x="924" y="143.832">StartTransaction.conf(TransactionId=15)</text><polygon fill="#A80036" points="497,173.8848,487,177.8848,497,181.8848,493,177.8848" style="stroke: #A80036; stroke-width: 1.0;"/><line style="stroke: #A80036; stroke-width: 1.0;" x1="491" x2="906" y1="177.8848" y2="177.8848"/><text fill="#000000" font-family="sans-serif" font-size="13" lengthAdjust="spacingAndGlyphs" textLength="94" x="503" y="173.1426">Session(id=15)</text><polygon fill="#A80036" points="900,187.8848,910,191.8848,900,195.8848,904,191.8848" style="stroke: #A80036; stroke-width: 1.0;"/><line style="stroke: #A80036; stroke-width: 1.0; stroke-dasharray: 2.0,2.0;" x1="486" x2="906" y1="191.8848" y2="191.8848"/><polygon fill="#A80036" points="57,217.1953,47,221.1953,57,225.1953,53,221.1953" style="stroke: #A80036; stroke-width: 1.0;"/><line style="stroke: #A80036; stroke-width: 1.0;" x1="51" x2="475" y1="221.1953" y2="221.1953"/><text fill="#000000" font-family="sans-serif" font-size="13" lengthAdjust="spacingAndGlyphs" textLength="94" x="63" y="216.4531">Session(id=15)</text><polygon fill="#A80036" points="469,231.1953,479,235.1953,469,239.1953,473,235.1953" style="stroke: #A80036; stroke-width: 1.0;"/><line style="stroke: #A80036; stroke-width: 1.0; stroke-dasharray: 2.0,2.0;" x1="46" x2="475" y1="235.1953" y2="235.1953"/><line style="stroke: #A80036; stroke-width: 1.0; stroke-dasharray: 2.0,2.0;" x1="46" x2="88" y1="264.5059" y2="264.5059"/><line style="stroke: #A80036; stroke-width: 1.0; stroke-dasharray: 2.0,2.0;" x1="88" x2="88" y1="264.5059" y2="277.5059"/><line style="stroke: #A80036; stroke-width: 1.0; stroke-dasharray: 2.0,2.0;" x1="47" x2="88" y1="277.5059" y2="277.5059"/><polygon fill="#A80036" points="57,273.5059,47,277.5059,57,281.5059,53,277.5059" style="stroke: #A80036; stroke-width: 1.0;"/><text fill="#000000" font-family="sans-serif" font-size="13" lengthAdjust="spacingAndGlyphs" textLength="159" x="53" y="259.7637">Calculate ChargingProfile</text><polygon fill="#A80036" points="464,318.127,474,322.127,464,326.127,468,322.127" style="stroke: #A80036; stroke-width: 1.0;"/><line style="stroke: #A80036; stroke-width: 1.0;" x1="46" x2="470" y1="322.127" y2="322.127"/><text fill="#000000" font-family="sans-serif" font-size="13" lengthAdjust="spacingAndGlyphs" textLength="350" x="53" y="302.0742">PUT https://emsp.com/ocpi/2.2.1/chargingprofiles/15</text><text fill="#000000" font-family="sans-serif" font-size="13" lengthAdjust="spacingAndGlyphs" textLength="379" x="85" y="317.3848">SetChargingProfile(response_url=https://client.com/12345)</text><polygon fill="#A80036" points="895,362.748,905,366.748,895,370.748,899,366.748" style="stroke: #A80036; stroke-width: 1.0;"/><line style="stroke: #A80036; stroke-width: 1.0;" x1="486" x2="901" y1="366.748" y2="366.748"/><text fill="#000000" font-family="sans-serif" font-size="13" lengthAdjust="spacingAndGlyphs" textLength="339" x="493" y="346.6953">PUT https://cpo.com/ocpi/2.2.1/chargingprofiles/15</text><text fill="#000000" font-family="sans-serif" font-size="13" lengthAdjust="spacingAndGlyphs" textLength="370" x="525" y="362.0059">SetChargingProfile(response_url=https://emsp.com/4567)</text><polygon fill="#A80036" points="497,407.3691,487,411.3691,497,415.3691,493,411.3691" style="stroke: #A80036; stroke-width: 1.0;"/><line style="stroke: #A80036; stroke-width: 1.0; stroke-dasharray: 2.0,2.0;" x1="491" x2="906" y1="411.3691" y2="411.3691"/><text fill="#000000" font-family="sans-serif" font-size="13" lengthAdjust="spacingAndGlyphs" textLength="130" x="503" y="391.3164">status_code = 1000,</text><text fill="#000000" font-family="sans-serif" font-size="13" lengthAdjust="spacingAndGlyphs" textLength="340" x="507" y="406.627">data: {ChargingProfileResponse { result = ACCEPTED }}</text><polygon fill="#A80036" points="52,451.9902,42,455.9902,52,459.9902,48,455.9902" style="stroke: #A80036; stroke-width: 1.0;"/><line style="stroke: #A80036; stroke-width: 1.0; stroke-dasharray: 2.0,2.0;" x1="46" x2="480" y1="455.9902" y2="455.9902"/><text fill="#000000" font-family="sans-serif" font-size="13" lengthAdjust="spacingAndGlyphs" textLength="130" x="58" y="435.9375">status_code = 1000,</text><text fill="#000000" font-family="sans-serif" font-size="13" lengthAdjust="spacingAndGlyphs" textLength="340" x="62" y="451.248">data: {ChargingProfileResponse { result = ACCEPTED }}</text><polygon fill="#A80036" points="1184,481.3008,1194,485.3008,1184,489.3008,1188,485.3008" style="stroke: #A80036; stroke-width: 1.0;"/><line style="stroke: #A80036; stroke-width: 1.0;" x1="912" x2="1190" y1="485.3008" y2="485.3008"/><text fill="#000000" font-family="sans-serif" font-size="13" lengthAdjust="spacingAndGlyphs" textLength="140" x="919" y="480.5586">SetChargingProfile.req</text><polygon fill="#A80036" points="928,510.6113,918,514.6113,928,518.6113,924,514.6113" style="stroke: #A80036; stroke-width: 1.0;"/><line style="stroke: #A80036; stroke-width: 1.0;" x1="922" x2="1200" y1="514.6113" y2="514.6113"/><text fill="#000000" font-family="sans-serif" font-size="13" lengthAdjust="spacingAndGlyphs" textLength="148" x="934" y="509.8691">SetChargingProfile.conf</text><polygon fill="#A80036" points="497,555.2324,487,559.2324,497,563.2324,493,559.2324" style="stroke: #A80036; stroke-width: 1.0;"/><line style="stroke: #A80036; stroke-width: 1.0;" x1="491" x2="906" y1="559.2324" y2="559.2324"/><text fill="#000000" font-family="sans-serif" font-size="13" lengthAdjust="spacingAndGlyphs" textLength="191" x="503" y="539.1797">POST https://emsp.com/4567</text><text fill="#000000" font-family="sans-serif" font-size="13" lengthAdjust="spacingAndGlyphs" textLength="264" x="503" y="554.4902">ChargingProfileResult(result = ACCEPTED)</text><polygon fill="#A80036" points="900,569.2324,910,573.2324,900,577.2324,904,573.2324" style="stroke: #A80036; stroke-width: 1.0;"/><line style="stroke: #A80036; stroke-width: 1.0; stroke-dasharray: 2.0,2.0;" x1="486" x2="906" y1="573.2324" y2="573.2324"/><polygon fill="#A80036" points="57,613.8535,47,617.8535,57,621.8535,53,617.8535" style="stroke: #A80036; stroke-width: 1.0;"/><line style="stroke: #A80036; stroke-width: 1.0;" x1="51" x2="475" y1="617.8535" y2="617.8535"/><text fill="#000000" font-family="sans-serif" font-size="13" lengthAdjust="spacingAndGlyphs" textLength="200" x="63" y="597.8008">POST https://client.com/12345</text><text fill="#000000" font-family="sans-serif" font-size="13" lengthAdjust="spacingAndGlyphs" textLength="264" x="63" y="613.1113">ChargingProfileResult(result = ACCEPTED)</text><polygon fill="#A80036" points="469,627.8535,479,631.8535,469,635.8535,473,631.8535" style="stroke: #A80036; stroke-width: 1.0;"/><line style="stroke: #A80036; stroke-width: 1.0; stroke-dasharray: 2.0,2.0;" x1="41" x2="475" y1="631.8535" y2="631.8535"/></g></svg>