<?xml version="1.0" encoding="us-ascii" standalone="no"?><svg xmlns="http://www.w3.org/2000/svg" xmlns:xlink="http://www.w3.org/1999/xlink" contentStyleType="text/css" height="291px" preserveAspectRatio="none" style="width:965px;height:291px;background:#FFFFFF;" version="1.1" viewBox="0 0 965 291" width="965px" zoomAndPan="magnify"><defs/><g><rect fill="#FFFFFF" height="85.9316" style="stroke:#181818;stroke-width:1.0;" width="10" x="53.5" y="62.9766"/><rect fill="#FFFFFF" height="14" style="stroke:#181818;stroke-width:1.0;" width="10" x="53.5" y="252.1504"/><rect fill="#FFFFFF" height="58.6211" style="stroke:#181818;stroke-width:1.0;" width="10" x="696.5" y="119.5977"/><rect fill="#FFFFFF" height="58.6211" style="stroke:#181818;stroke-width:1.0;" width="10" x="696.5" y="207.5293"/><rect fill="#FFFFFF" height="29.3105" style="stroke:#181818;stroke-width:1.0;" width="10" x="902.5" y="178.2188"/><line style="stroke:#181818;stroke-width:0.5;stroke-dasharray:5.0,5.0;" x1="58" x2="58" y1="52.9766" y2="284.1504"/><line style="stroke:#181818;stroke-width:0.5;stroke-dasharray:5.0,5.0;" x1="701" x2="701" y1="52.9766" y2="284.1504"/><line style="stroke:#181818;stroke-width:0.5;stroke-dasharray:5.0,5.0;" x1="907" x2="907" y1="52.9766" y2="284.1504"/><rect fill="#E2E2F0" height="46.9766" rx="2.5" ry="2.5" style="stroke:#181818;stroke-width:0.5;" width="107" x="5" y="5"/><text fill="#000000" font-family="sans-serif" font-size="14" lengthAdjust="spacing" textLength="48" x="34.5" y="25.5352">Sender</text><text fill="#000000" font-family="sans-serif" font-size="14" lengthAdjust="spacing" textLength="93" x="12" y="42.0234">eMSP or SCSP</text><rect fill="#E2E2F0" height="46.9766" rx="2.5" ry="2.5" style="stroke:#181818;stroke-width:0.5;" width="71" x="666" y="5"/><text fill="#000000" font-family="sans-serif" font-size="14" lengthAdjust="spacing" textLength="29" x="687" y="25.5352">CPO</text><text fill="#000000" font-family="sans-serif" font-size="14" lengthAdjust="spacing" textLength="57" x="673" y="42.0234">Receiver</text><rect fill="#E2E2F0" height="30.4883" rx="2.5" ry="2.5" style="stroke:#181818;stroke-width:0.5;" width="103" x="856" y="21.4883"/><text fill="#000000" font-family="sans-serif" font-size="14" lengthAdjust="spacing" textLength="89" x="863" y="42.0234">Charge Point</text><rect fill="#FFFFFF" height="85.9316" style="stroke:#181818;stroke-width:1.0;" width="10" x="53.5" y="62.9766"/><rect fill="#FFFFFF" height="14" style="stroke:#181818;stroke-width:1.0;" width="10" x="53.5" y="252.1504"/><rect fill="#FFFFFF" height="58.6211" style="stroke:#181818;stroke-width:1.0;" width="10" x="696.5" y="119.5977"/><rect fill="#FFFFFF" height="58.6211" style="stroke:#181818;stroke-width:1.0;" width="10" x="696.5" y="207.5293"/><rect fill="#FFFFFF" height="29.3105" style="stroke:#181818;stroke-width:1.0;" width="10" x="902.5" y="178.2188"/><path d="M8,67.9766 L8,92.9766 L957,92.9766 L957,77.9766 L947,67.9766 L8,67.9766 " fill="#FEFFDD" style="stroke:#181818;stroke-width:0.5;"/><path d="M947,67.9766 L947,77.9766 L957,77.9766 L947,67.9766 " fill="#FEFFDD" style="stroke:#181818;stroke-width:0.5;"/><text fill="#000000" font-family="sans-serif" font-size="13" lengthAdjust="spacing" textLength="179" x="388.5" y="85.5449">Ongoing Session with id=15</text><polygon fill="#181818" points="684.5,115.5977,694.5,119.5977,684.5,123.5977,688.5,119.5977" style="stroke:#181818;stroke-width:1.0;"/><line style="stroke:#181818;stroke-width:1.0;" x1="63.5" x2="690.5" y1="119.5977" y2="119.5977"/><text fill="#000000" font-family="sans-serif" font-size="13" lengthAdjust="spacing" textLength="614" x="70.5" y="114.8555">GET https://server.com/ocpi/2.2.1/chargingprofiles/15?response_url=https://client.com/12345</text><polygon fill="#181818" points="69.5,144.9082,59.5,148.9082,69.5,152.9082,65.5,148.9082" style="stroke:#181818;stroke-width:1.0;"/><line style="stroke:#181818;stroke-width:1.0;stroke-dasharray:2.0,2.0;" x1="63.5" x2="695.5" y1="148.9082" y2="148.9082"/><text fill="#000000" font-family="sans-serif" font-size="13" lengthAdjust="spacing" textLength="474" x="75.5" y="144.166">status_code = 1000, data: {ChargingProfileResponse { result = ACCEPTED }}</text><polygon fill="#181818" points="890.5,174.2188,900.5,178.2188,890.5,182.2188,894.5,178.2188" style="stroke:#181818;stroke-width:1.0;"/><line style="stroke:#181818;stroke-width:1.0;" x1="701.5" x2="896.5" y1="178.2188" y2="178.2188"/><text fill="#000000" font-family="sans-serif" font-size="13" lengthAdjust="spacing" textLength="169" x="708.5" y="173.4766">GetCompositeSchedule.req</text><polygon fill="#181818" points="717.5,203.5293,707.5,207.5293,717.5,211.5293,713.5,207.5293" style="stroke:#181818;stroke-width:1.0;"/><line style="stroke:#181818;stroke-width:1.0;" x1="711.5" x2="906.5" y1="207.5293" y2="207.5293"/><text fill="#000000" font-family="sans-serif" font-size="13" lengthAdjust="spacing" textLength="177" x="723.5" y="202.7871">GetCompositeSchedule.conf</text><polygon fill="#181818" points="74.5,248.1504,64.5,252.1504,74.5,256.1504,70.5,252.1504" style="stroke:#181818;stroke-width:1.0;"/><line style="stroke:#181818;stroke-width:1.0;" x1="68.5" x2="695.5" y1="252.1504" y2="252.1504"/><text fill="#000000" font-family="sans-serif" font-size="13" lengthAdjust="spacing" textLength="200" x="80.5" y="232.0977">POST https://client.com/12345</text><text fill="#000000" font-family="sans-serif" font-size="13" lengthAdjust="spacing" textLength="390" x="80.5" y="247.4082">ActiveProfileResult(result = ACCEPTED, ActiveChargingProfile)</text><polygon fill="#181818" points="689.5,262.1504,699.5,266.1504,689.5,270.1504,693.5,266.1504" style="stroke:#181818;stroke-width:1.0;"/><line style="stroke:#181818;stroke-width:1.0;stroke-dasharray:2.0,2.0;" x1="58.5" x2="695.5" y1="266.1504" y2="266.1504"/></g></svg>