<?xml version="1.0" encoding="UTF-8" standalone="no"?><svg xmlns="http://www.w3.org/2000/svg" xmlns:xlink="http://www.w3.org/1999/xlink" contentScriptType="application/ecmascript" contentStyleType="text/css" height="272px" preserveAspectRatio="none" style="width:1120px;height:272px;" version="1.1" viewBox="0 0 1120 272" width="1120px" zoomAndPan="magnify"><defs><filter height="300%" id="f1u9zibjprsmo4" width="300%" x="-1" y="-1"><feGaussianBlur result="blurOut" stdDeviation="2.0"/><feColorMatrix in="blurOut" result="blurOut2" type="matrix" values="0 0 0 0 0 0 0 0 0 0 0 0 0 0 0 0 0 0 .4 0"/><feOffset dx="4.0" dy="4.0" in="blurOut2" result="blurOut3"/><feBlend in="SourceGraphic" in2="blurOut3" mode="normal"/></filter></defs><g><rect fill="#FFFFFF" filter="url(#f1u9zibjprsmo4)" height="60.6211" style="stroke: #A80036; stroke-width: 1.0;" width="10" x="56.5" y="64.9766"/><rect fill="#FFFFFF" filter="url(#f1u9zibjprsmo4)" height="58.6211" style="stroke: #A80036; stroke-width: 1.0;" width="10" x="229.5" y="125.5977"/><rect fill="#FFFFFF" filter="url(#f1u9zibjprsmo4)" height="72.6211" style="stroke: #A80036; stroke-width: 1.0;" width="10" x="646.5" y="170.2188"/><rect fill="#FFFFFF" filter="url(#f1u9zibjprsmo4)" height="14" style="stroke: #A80036; stroke-width: 1.0;" width="10" x="1063.5" y="228.8398"/><line style="stroke: #A80036; stroke-width: 1.0; stroke-dasharray: 5.0,5.0;" x1="61" x2="61" y1="54.9766" y2="260.8398"/><line style="stroke: #A80036; stroke-width: 1.0; stroke-dasharray: 5.0,5.0;" x1="234" x2="234" y1="54.9766" y2="260.8398"/><line style="stroke: #A80036; stroke-width: 1.0; stroke-dasharray: 5.0,5.0;" x1="651.5" x2="651.5" y1="54.9766" y2="260.8398"/><line style="stroke: #A80036; stroke-width: 1.0; stroke-dasharray: 5.0,5.0;" x1="1068.5" x2="1068.5" y1="54.9766" y2="260.8398"/><rect fill="#FEFECE" filter="url(#f1u9zibjprsmo4)" height="30.4883" style="stroke: #A80036; stroke-width: 1.5;" width="103" x="8" y="19.4883"/><text fill="#000000" font-family="sans-serif" font-size="14" lengthAdjust="spacingAndGlyphs" textLength="89" x="15" y="40.0234">Charge Point</text><rect fill="#FEFECE" filter="url(#f1u9zibjprsmo4)" height="46.9766" style="stroke: #A80036; stroke-width: 1.5;" width="71" x="197" y="3"/><text fill="#000000" font-family="sans-serif" font-size="14" lengthAdjust="spacingAndGlyphs" textLength="29" x="218" y="23.5352">CPO</text><text fill="#000000" font-family="sans-serif" font-size="14" lengthAdjust="spacingAndGlyphs" textLength="57" x="204" y="40.0234">Receiver</text><rect fill="#FEFECE" filter="url(#f1u9zibjprsmo4)" height="46.9766" style="stroke: #A80036; stroke-width: 1.5;" width="62" x="618.5" y="3"/><text fill="#000000" font-family="sans-serif" font-size="14" lengthAdjust="spacingAndGlyphs" textLength="48" x="625.5" y="23.5352">Sender</text><text fill="#000000" font-family="sans-serif" font-size="14" lengthAdjust="spacingAndGlyphs" textLength="36" x="631.5" y="40.0234">eMSP</text><rect fill="#FEFECE" filter="url(#f1u9zibjprsmo4)" height="46.9766" style="stroke: #A80036; stroke-width: 1.5;" width="62" x="1035.5" y="3"/><text fill="#000000" font-family="sans-serif" font-size="14" lengthAdjust="spacingAndGlyphs" textLength="34" x="1049.5" y="23.5352">SCSP</text><text fill="#000000" font-family="sans-serif" font-size="14" lengthAdjust="spacingAndGlyphs" textLength="48" x="1042.5" y="40.0234">Sender</text><rect fill="#FFFFFF" filter="url(#f1u9zibjprsmo4)" height="60.6211" style="stroke: #A80036; stroke-width: 1.0;" width="10" x="56.5" y="64.9766"/><rect fill="#FFFFFF" filter="url(#f1u9zibjprsmo4)" height="58.6211" style="stroke: #A80036; stroke-width: 1.0;" width="10" x="229.5" y="125.5977"/><rect fill="#FFFFFF" filter="url(#f1u9zibjprsmo4)" height="72.6211" style="stroke: #A80036; stroke-width: 1.0;" width="10" x="646.5" y="170.2188"/><rect fill="#FFFFFF" filter="url(#f1u9zibjprsmo4)" height="14" style="stroke: #A80036; stroke-width: 1.0;" width="10" x="1063.5" y="228.8398"/><path d="M20,69.9766 L20,94.9766 L1108,94.9766 L1108,79.9766 L1098,69.9766 L20,69.9766 " fill="#FBFB77" filter="url(#f1u9zibjprsmo4)" style="stroke: #A80036; stroke-width: 1.0;"/><path d="M1098,69.9766 L1098,79.9766 L1108,79.9766 L1098,69.9766 " fill="#FBFB77" style="stroke: #A80036; stroke-width: 1.0;"/><text fill="#000000" font-family="sans-serif" font-size="13" lengthAdjust="spacingAndGlyphs" textLength="179" x="468.25" y="87.5449">Ongoing Session with id=15</text><polygon fill="#A80036" points="217.5,121.5977,227.5,125.5977,217.5,129.5977,221.5,125.5977" style="stroke: #A80036; stroke-width: 1.0;"/><line style="stroke: #A80036; stroke-width: 1.0;" x1="61.5" x2="223.5" y1="125.5977" y2="125.5977"/><text fill="#000000" font-family="sans-serif" font-size="13" lengthAdjust="spacingAndGlyphs" textLength="144" x="68.5" y="120.8555">update ChargingProfile</text><polygon fill="#A80036" points="634.5,166.2188,644.5,170.2188,634.5,174.2188,638.5,170.2188" style="stroke: #A80036; stroke-width: 1.0;"/><line style="stroke: #A80036; stroke-width: 1.0;" x1="239.5" x2="640.5" y1="170.2188" y2="170.2188"/><text fill="#000000" font-family="sans-serif" font-size="13" lengthAdjust="spacingAndGlyphs" textLength="388" x="246.5" y="150.166">PUT https://www.server.com/ocpi/2.2.1/chargingprofiles/15</text><text fill="#000000" font-family="sans-serif" font-size="13" lengthAdjust="spacingAndGlyphs" textLength="144" x="278.5" y="165.4766">ActiveChargingProfile()</text><polygon fill="#A80036" points="245.5,180.2188,235.5,184.2188,245.5,188.2188,241.5,184.2188" style="stroke: #A80036; stroke-width: 1.0;"/><line style="stroke: #A80036; stroke-width: 1.0; stroke-dasharray: 2.0,2.0;" x1="239.5" x2="645.5" y1="184.2188" y2="184.2188"/><polygon fill="#A80036" points="1051.5,224.8398,1061.5,228.8398,1051.5,232.8398,1055.5,228.8398" style="stroke: #A80036; stroke-width: 1.0;"/><line style="stroke: #A80036; stroke-width: 1.0;" x1="656.5" x2="1057.5" y1="228.8398" y2="228.8398"/><text fill="#000000" font-family="sans-serif" font-size="13" lengthAdjust="spacingAndGlyphs" textLength="388" x="663.5" y="208.7871">PUT https://www.server.com/ocpi/2.2.1/chargingprofiles/15</text><text fill="#000000" font-family="sans-serif" font-size="13" lengthAdjust="spacingAndGlyphs" textLength="144" x="695.5" y="224.0977">ActiveChargingProfile()</text><polygon fill="#A80036" points="662.5,238.8398,652.5,242.8398,662.5,246.8398,658.5,242.8398" style="stroke: #A80036; stroke-width: 1.0;"/><line style="stroke: #A80036; stroke-width: 1.0; stroke-dasharray: 2.0,2.0;" x1="656.5" x2="1067.5" y1="242.8398" y2="242.8398"/></g></svg>