<?xml version="1.0" encoding="UTF-8" standalone="no"?><svg xmlns="http://www.w3.org/2000/svg" xmlns:xlink="http://www.w3.org/1999/xlink" contentScriptType="application/ecmascript" contentStyleType="text/css" height="513px" preserveAspectRatio="none" style="width:1152px;height:513px;" version="1.1" viewBox="0 0 1152 513" width="1152px" zoomAndPan="magnify"><defs><filter height="300%" id="fz2xhx73th76t" width="300%" x="-1" y="-1"><feGaussianBlur result="blurOut" stdDeviation="2.0"/><feColorMatrix in="blurOut" result="blurOut2" type="matrix" values="0 0 0 0 0 0 0 0 0 0 0 0 0 0 0 0 0 0 .4 0"/><feOffset dx="4.0" dy="4.0" in="blurOut2" result="blurOut3"/><feBlend in="SourceGraphic" in2="blurOut3" mode="normal"/></filter></defs><g><rect fill="#FFFFFF" filter="url(#fz2xhx73th76t)" height="209.7949" style="stroke: #A80036; stroke-width: 1.0;" width="10" x="43" y="97.9531"/><rect fill="#FFFFFF" filter="url(#fz2xhx73th76t)" height="14" style="stroke: #A80036; stroke-width: 1.0;" width="10" x="43" y="469.6113"/><rect fill="#FFFFFF" filter="url(#fz2xhx73th76t)" height="133.8633" style="stroke: #A80036; stroke-width: 1.0;" width="10" x="462" y="173.8848"/><rect fill="#FFFFFF" filter="url(#fz2xhx73th76t)" height="72.6211" style="stroke: #A80036; stroke-width: 1.0;" width="10" x="462" y="410.9902"/><rect fill="#FFFFFF" filter="url(#fz2xhx73th76t)" height="118.5527" style="stroke: #A80036; stroke-width: 1.0;" width="10" x="881" y="218.5059"/><rect fill="#FFFFFF" filter="url(#fz2xhx73th76t)" height="58.6211" style="stroke: #A80036; stroke-width: 1.0;" width="10" x="881" y="366.3691"/><rect fill="#FFFFFF" filter="url(#fz2xhx73th76t)" height="29.3105" style="stroke: #A80036; stroke-width: 1.0;" width="10" x="1087" y="337.0586"/><line style="stroke: #A80036; stroke-width: 1.0; stroke-dasharray: 5.0,5.0;" x1="48" x2="48" y1="87.9531" y2="501.6113"/><line style="stroke: #A80036; stroke-width: 1.0; stroke-dasharray: 5.0,5.0;" x1="466.5" x2="466.5" y1="87.9531" y2="501.6113"/><line style="stroke: #A80036; stroke-width: 1.0; stroke-dasharray: 5.0,5.0;" x1="885.5" x2="885.5" y1="87.9531" y2="501.6113"/><line style="stroke: #A80036; stroke-width: 1.0; stroke-dasharray: 5.0,5.0;" x1="1091.5" x2="1091.5" y1="87.9531" y2="501.6113"/><rect fill="#FEFECE" filter="url(#fz2xhx73th76t)" height="46.9766" style="stroke: #A80036; stroke-width: 1.5;" width="62" x="15" y="35.9766"/><text fill="#000000" font-family="sans-serif" font-size="14" lengthAdjust="spacingAndGlyphs" textLength="34" x="29" y="56.5117">SCSP</text><text fill="#000000" font-family="sans-serif" font-size="14" lengthAdjust="spacingAndGlyphs" textLength="48" x="22" y="73">Sender</text><rect fill="#FEFECE" filter="url(#fz2xhx73th76t)" height="79.9531" style="stroke: #A80036; stroke-width: 1.5;" width="71" x="429.5" y="3"/><text fill="#000000" font-family="sans-serif" font-size="14" lengthAdjust="spacingAndGlyphs" textLength="36" x="447" y="23.5352">eMSP</text><text fill="#000000" font-family="sans-serif" font-size="14" lengthAdjust="spacingAndGlyphs" textLength="48" x="441" y="40.0234">Sender</text><text fill="#000000" font-family="sans-serif" font-size="14" lengthAdjust="spacingAndGlyphs" textLength="10" x="460" y="56.5117">&amp;</text><text fill="#000000" font-family="sans-serif" font-size="14" lengthAdjust="spacingAndGlyphs" textLength="57" x="436.5" y="73">Receiver</text><rect fill="#FEFECE" filter="url(#fz2xhx73th76t)" height="46.9766" style="stroke: #A80036; stroke-width: 1.5;" width="71" x="848.5" y="35.9766"/><text fill="#000000" font-family="sans-serif" font-size="14" lengthAdjust="spacingAndGlyphs" textLength="29" x="869.5" y="56.5117">CPO</text><text fill="#000000" font-family="sans-serif" font-size="14" lengthAdjust="spacingAndGlyphs" textLength="57" x="855.5" y="73">Receiver</text><rect fill="#FEFECE" filter="url(#fz2xhx73th76t)" height="30.4883" style="stroke: #A80036; stroke-width: 1.5;" width="103" x="1038.5" y="52.4648"/><text fill="#000000" font-family="sans-serif" font-size="14" lengthAdjust="spacingAndGlyphs" textLength="89" x="1045.5" y="73">Charge Point</text><rect fill="#FFFFFF" filter="url(#fz2xhx73th76t)" height="209.7949" style="stroke: #A80036; stroke-width: 1.0;" width="10" x="43" y="97.9531"/><rect fill="#FFFFFF" filter="url(#fz2xhx73th76t)" height="14" style="stroke: #A80036; stroke-width: 1.0;" width="10" x="43" y="469.6113"/><rect fill="#FFFFFF" filter="url(#fz2xhx73th76t)" height="133.8633" style="stroke: #A80036; stroke-width: 1.0;" width="10" x="462" y="173.8848"/><rect fill="#FFFFFF" filter="url(#fz2xhx73th76t)" height="72.6211" style="stroke: #A80036; stroke-width: 1.0;" width="10" x="462" y="410.9902"/><rect fill="#FFFFFF" filter="url(#fz2xhx73th76t)" height="118.5527" style="stroke: #A80036; stroke-width: 1.0;" width="10" x="881" y="218.5059"/><rect fill="#FFFFFF" filter="url(#fz2xhx73th76t)" height="58.6211" style="stroke: #A80036; stroke-width: 1.0;" width="10" x="881" y="366.3691"/><rect fill="#FFFFFF" filter="url(#fz2xhx73th76t)" height="29.3105" style="stroke: #A80036; stroke-width: 1.0;" width="10" x="1087" y="337.0586"/><path d="M8,102.9531 L8,127.9531 L1133,127.9531 L1133,112.9531 L1123,102.9531 L8,102.9531 " fill="#FBFB77" filter="url(#fz2xhx73th76t)" style="stroke: #A80036; stroke-width: 1.0;"/><path d="M1123,102.9531 L1123,112.9531 L1133,112.9531 L1123,102.9531 " fill="#FBFB77" style="stroke: #A80036; stroke-width: 1.0;"/><text fill="#000000" font-family="sans-serif" font-size="13" lengthAdjust="spacingAndGlyphs" textLength="179" x="474.75" y="120.5215">Ongoing Session with id=15</text><polygon fill="#A80036" points="450,169.8848,460,173.8848,450,177.8848,454,173.8848" style="stroke: #A80036; stroke-width: 1.0;"/><line style="stroke: #A80036; stroke-width: 1.0;" x1="53" x2="456" y1="173.8848" y2="173.8848"/><text fill="#000000" font-family="sans-serif" font-size="13" lengthAdjust="spacingAndGlyphs" textLength="354" x="60" y="153.832">GET https://server.com/ocpi/2.2.1/chargingprofiles/15</text><text fill="#000000" font-family="sans-serif" font-size="13" lengthAdjust="spacingAndGlyphs" textLength="254" x="144" y="169.1426">?response_url=https://scsp.com/12345</text><polygon fill="#A80036" points="869,214.5059,879,218.5059,869,222.5059,873,218.5059" style="stroke: #A80036; stroke-width: 1.0;"/><line style="stroke: #A80036; stroke-width: 1.0;" x1="472" x2="875" y1="218.5059" y2="218.5059"/><text fill="#000000" font-family="sans-serif" font-size="13" lengthAdjust="spacingAndGlyphs" textLength="354" x="479" y="198.4531">GET https://server.com/ocpi/2.2.1/chargingprofiles/15</text><text fill="#000000" font-family="sans-serif" font-size="13" lengthAdjust="spacingAndGlyphs" textLength="259" x="563" y="213.7637">?response_url=https://emsp.com/789AB</text><polygon fill="#A80036" points="483,259.127,473,263.127,483,267.127,479,263.127" style="stroke: #A80036; stroke-width: 1.0;"/><line style="stroke: #A80036; stroke-width: 1.0; stroke-dasharray: 2.0,2.0;" x1="477" x2="880" y1="263.127" y2="263.127"/><text fill="#000000" font-family="sans-serif" font-size="13" lengthAdjust="spacingAndGlyphs" textLength="165" x="489" y="243.0742">status_code = 1000, data:</text><text fill="#000000" font-family="sans-serif" font-size="13" lengthAdjust="spacingAndGlyphs" textLength="305" x="501" y="258.3848">{ChargingProfileResponse { result = ACCEPTED }}</text><polygon fill="#A80036" points="59,303.748,49,307.748,59,311.748,55,307.748" style="stroke: #A80036; stroke-width: 1.0;"/><line style="stroke: #A80036; stroke-width: 1.0; stroke-dasharray: 2.0,2.0;" x1="53" x2="466" y1="307.748" y2="307.748"/><text fill="#000000" font-family="sans-serif" font-size="13" lengthAdjust="spacingAndGlyphs" textLength="165" x="65" y="287.6953">status_code = 1000, data:</text><text fill="#000000" font-family="sans-serif" font-size="13" lengthAdjust="spacingAndGlyphs" textLength="305" x="77" y="303.0059">{ChargingProfileResponse { result = ACCEPTED }}</text><polygon fill="#A80036" points="1075,333.0586,1085,337.0586,1075,341.0586,1079,337.0586" style="stroke: #A80036; stroke-width: 1.0;"/><line style="stroke: #A80036; stroke-width: 1.0;" x1="886" x2="1081" y1="337.0586" y2="337.0586"/><text fill="#000000" font-family="sans-serif" font-size="13" lengthAdjust="spacingAndGlyphs" textLength="169" x="893" y="332.3164">GetCompositeSchedule.req</text><polygon fill="#A80036" points="902,362.3691,892,366.3691,902,370.3691,898,366.3691" style="stroke: #A80036; stroke-width: 1.0;"/><line style="stroke: #A80036; stroke-width: 1.0;" x1="896" x2="1091" y1="366.3691" y2="366.3691"/><text fill="#000000" font-family="sans-serif" font-size="13" lengthAdjust="spacingAndGlyphs" textLength="177" x="908" y="361.627">GetCompositeSchedule.conf</text><polygon fill="#A80036" points="483,406.9902,473,410.9902,483,414.9902,479,410.9902" style="stroke: #A80036; stroke-width: 1.0;"/><line style="stroke: #A80036; stroke-width: 1.0;" x1="477" x2="880" y1="410.9902" y2="410.9902"/><text fill="#000000" font-family="sans-serif" font-size="13" lengthAdjust="spacingAndGlyphs" textLength="199" x="489" y="390.9375">POST https://emsp.com/789AB</text><text fill="#000000" font-family="sans-serif" font-size="13" lengthAdjust="spacingAndGlyphs" textLength="390" x="489" y="406.248">ActiveProfileResult(result = ACCEPTED, ActiveChargingProfile)</text><polygon fill="#A80036" points="874,420.9902,884,424.9902,874,428.9902,878,424.9902" style="stroke: #A80036; stroke-width: 1.0;"/><line style="stroke: #A80036; stroke-width: 1.0; stroke-dasharray: 2.0,2.0;" x1="472" x2="880" y1="424.9902" y2="424.9902"/><polygon fill="#A80036" points="64,465.6113,54,469.6113,64,473.6113,60,469.6113" style="stroke: #A80036; stroke-width: 1.0;"/><line style="stroke: #A80036; stroke-width: 1.0;" x1="58" x2="461" y1="469.6113" y2="469.6113"/><text fill="#000000" font-family="sans-serif" font-size="13" lengthAdjust="spacingAndGlyphs" textLength="194" x="70" y="449.5586">POST https://scsp.com/12345</text><text fill="#000000" font-family="sans-serif" font-size="13" lengthAdjust="spacingAndGlyphs" textLength="390" x="70" y="464.8691">ActiveProfileResult(result = ACCEPTED, ActiveChargingProfile)</text><polygon fill="#A80036" points="455,479.6113,465,483.6113,455,487.6113,459,483.6113" style="stroke: #A80036; stroke-width: 1.0;"/><line style="stroke: #A80036; stroke-width: 1.0; stroke-dasharray: 2.0,2.0;" x1="48" x2="461" y1="483.6113" y2="483.6113"/></g></svg>