<?xml version="1.0" encoding="us-ascii" standalone="no"?><svg xmlns="http://www.w3.org/2000/svg" xmlns:xlink="http://www.w3.org/1999/xlink" contentStyleType="text/css" height="359.375px" preserveAspectRatio="none" style="width:486px;height:359px;background:#FFFFFF;" version="1.1" viewBox="0 0 486 359" width="486.4583px" zoomAndPan="magnify"><defs/><g><rect fill="#FFFFFF" height="247.3083" style="stroke:#181818;stroke-width:1.0416666666666667;" width="10.4167" x="27.0833" y="86.5723"/><rect fill="#FFFFFF" height="247.3083" style="stroke:#181818;stroke-width:1.0416666666666667;" width="10.4167" x="200" y="86.5723"/><rect fill="#FFFFFF" height="62.4288" style="stroke:#181818;stroke-width:1.0416666666666667;" width="10.4167" x="372.9167" y="209.023"/><line style="stroke:#181818;stroke-width:0.5208333333333334;stroke-dasharray:5.0,5.0;" x1="32.2917" x2="32.2917" y1="38.0086" y2="352.6306"/><line style="stroke:#181818;stroke-width:0.5208333333333334;stroke-dasharray:5.0,5.0;" x1="205.2083" x2="205.2083" y1="38.0086" y2="352.6306"/><line style="stroke:#181818;stroke-width:0.5208333333333334;stroke-dasharray:5.0,5.0;" x1="297.3958" x2="297.3958" y1="38.0086" y2="352.6306"/><line style="stroke:#181818;stroke-width:0.5208333333333334;stroke-dasharray:5.0,5.0;" x1="377.6042" x2="377.6042" y1="38.0086" y2="352.6306"/><line style="stroke:#181818;stroke-width:0.5208333333333334;stroke-dasharray:5.0,5.0;" x1="449.4792" x2="449.4792" y1="38.0086" y2="352.6306"/><rect fill="#E2E2F0" height="31.7586" rx="2.6042" ry="2.6042" style="stroke:#181818;stroke-width:0.5208333333333334;" width="54.1667" x="5.2083" y="5.2083"/><text fill="#000000" font-family="sans-serif" font-size="14.5833" lengthAdjust="spacing" textLength="39.5833" x="12.5" y="26.5991">CPO1</text><rect fill="#E2E2F0" height="31.7586" rx="2.6042" ry="2.6042" style="stroke:#181818;stroke-width:0.5208333333333334;" width="43.75" x="183.3333" y="5.2083"/><text fill="#000000" font-family="sans-serif" font-size="14.5833" lengthAdjust="spacing" textLength="29.1667" x="190.625" y="26.5991">HUB</text><rect fill="#E2E2F0" height="31.7586" rx="2.6042" ry="2.6042" style="stroke:#181818;stroke-width:0.5208333333333334;" width="61.4583" x="267.1875" y="5.2083"/><text fill="#000000" font-family="sans-serif" font-size="14.5833" lengthAdjust="spacing" textLength="46.875" x="274.4792" y="26.5991">eMSP1</text><rect fill="#E2E2F0" height="31.7586" rx="2.6042" ry="2.6042" style="stroke:#181818;stroke-width:0.5208333333333334;" width="61.4583" x="347.3958" y="5.2083"/><text fill="#000000" font-family="sans-serif" font-size="14.5833" lengthAdjust="spacing" textLength="46.875" x="354.6875" y="26.5991">eMSP2</text><rect fill="#E2E2F0" height="31.7586" rx="2.6042" ry="2.6042" style="stroke:#181818;stroke-width:0.5208333333333334;" width="61.4583" x="419.2708" y="5.2083"/><text fill="#000000" font-family="sans-serif" font-size="14.5833" lengthAdjust="spacing" textLength="46.875" x="426.5625" y="26.5991">eMSP3</text><rect fill="#FFFFFF" height="247.3083" style="stroke:#181818;stroke-width:1.0416666666666667;" width="10.4167" x="27.0833" y="86.5723"/><rect fill="#FFFFFF" height="247.3083" style="stroke:#181818;stroke-width:1.0416666666666667;" width="10.4167" x="200" y="86.5723"/><rect fill="#FFFFFF" height="62.4288" style="stroke:#181818;stroke-width:1.0416666666666667;" width="10.4167" x="372.9167" y="209.023"/><polygon fill="#181818" points="187.5,82.4056,197.9167,86.5723,187.5,90.7389,191.6667,86.5723" style="stroke:#181818;stroke-width:1.0416666666666667;"/><line style="stroke:#181818;stroke-width:1.0416666666666667;" x1="37.5" x2="193.75" y1="86.5723" y2="86.5723"/><text fill="#000000" font-family="sans-serif" font-size="13.5417" lengthAdjust="spacing" textLength="67.7083" x="44.7917" y="65.684">HTTP: GET</text><text fill="#000000" font-family="sans-serif" font-size="13.5417" lengthAdjust="spacing" textLength="81.25" x="44.7917" y="81.6325">FROM: CPO1</text><line style="stroke:#181818;stroke-width:1.0416666666666667;stroke-dasharray:2.0,2.0;" x1="210.4167" x2="254.1667" y1="133.0526" y2="133.0526"/><line style="stroke:#181818;stroke-width:1.0416666666666667;stroke-dasharray:2.0,2.0;" x1="254.1667" x2="254.1667" y1="133.0526" y2="146.5942"/><line style="stroke:#181818;stroke-width:1.0416666666666667;stroke-dasharray:2.0,2.0;" x1="211.4583" x2="254.1667" y1="146.5942" y2="146.5942"/><polygon fill="#181818" points="221.875,142.4276,211.4583,146.5942,221.875,150.7609,217.7083,146.5942" style="stroke:#181818;stroke-width:1.0416666666666667;"/><text fill="#000000" font-family="sans-serif" font-size="13.5417" lengthAdjust="spacing" textLength="67.7083" x="217.7083" y="112.1643">Determine</text><text fill="#000000" font-family="sans-serif" font-size="13.5417" lengthAdjust="spacing" textLength="47.9167" x="217.7083" y="128.1128">routing</text><polygon fill="#181818" points="360.4167,204.8564,370.8333,209.023,360.4167,213.1897,364.5833,209.023" style="stroke:#181818;stroke-width:1.0416666666666667;"/><line style="stroke:#181818;stroke-width:1.0416666666666667;" x1="210.4167" x2="366.6667" y1="209.023" y2="209.023"/><text fill="#000000" font-family="sans-serif" font-size="13.5417" lengthAdjust="spacing" textLength="67.7083" x="217.7083" y="172.1863">HTTP: GET</text><text fill="#000000" font-family="sans-serif" font-size="13.5417" lengthAdjust="spacing" textLength="61.4583" x="217.7083" y="188.1348">TO: MSP2</text><text fill="#000000" font-family="sans-serif" font-size="13.5417" lengthAdjust="spacing" textLength="81.25" x="217.7083" y="204.0833">FROM: CPO1</text><polygon fill="#181818" points="221.875,267.2852,211.4583,271.4518,221.875,275.6185,217.7083,271.4518" style="stroke:#181818;stroke-width:1.0416666666666667;"/><line style="stroke:#181818;stroke-width:1.0416666666666667;" x1="215.625" x2="377.0833" y1="271.4518" y2="271.4518"/><text fill="#000000" font-family="sans-serif" font-size="13.5417" lengthAdjust="spacing" textLength="137.5" x="228.125" y="234.6151">HTTP: RESPONSE 200</text><text fill="#000000" font-family="sans-serif" font-size="13.5417" lengthAdjust="spacing" textLength="62.5" x="228.125" y="250.5636">TO: CPO1</text><text fill="#000000" font-family="sans-serif" font-size="13.5417" lengthAdjust="spacing" textLength="80.2083" x="228.125" y="266.512">FROM: MSP2</text><polygon fill="#181818" points="43.75,329.7139,33.3333,333.8806,43.75,338.0473,39.5833,333.8806" style="stroke:#181818;stroke-width:1.0416666666666667;"/><line style="stroke:#181818;stroke-width:1.0416666666666667;" x1="37.5" x2="204.1667" y1="333.8806" y2="333.8806"/><text fill="#000000" font-family="sans-serif" font-size="13.5417" lengthAdjust="spacing" textLength="137.5" x="50" y="297.0439">HTTP: RESPONSE 200</text><text fill="#000000" font-family="sans-serif" font-size="13.5417" lengthAdjust="spacing" textLength="62.5" x="50" y="312.9924">TO: CPO1</text><text fill="#000000" font-family="sans-serif" font-size="13.5417" lengthAdjust="spacing" textLength="80.2083" x="50" y="328.9408">FROM: MSP2</text></g></svg>