<?xml version="1.0" encoding="us-ascii" standalone="no"?><svg xmlns="http://www.w3.org/2000/svg" xmlns:xlink="http://www.w3.org/1999/xlink" contentStyleType="text/css" height="564.5833px" preserveAspectRatio="none" style="width:558px;height:564px;background:#FFFFFF;" version="1.1" viewBox="0 0 558 564" width="558.3333px" zoomAndPan="magnify"><defs/><g><rect fill="#FFFFFF" height="62.4288" style="stroke:#181818;stroke-width:1.0416666666666667;" width="10.4167" x="27.0833" y="477.0935"/><rect fill="#FFFFFF" height="62.4288" style="stroke:#181818;stroke-width:1.0416666666666667;" width="10.4167" x="200" y="102.5208"/><rect fill="#FFFFFF" height="62.4288" style="stroke:#181818;stroke-width:1.0416666666666667;" width="10.4167" x="200" y="227.3783"/><rect fill="#FFFFFF" height="62.4288" style="stroke:#181818;stroke-width:1.0416666666666667;" width="10.4167" x="200" y="352.2359"/><rect fill="#FFFFFF" height="62.4288" style="stroke:#181818;stroke-width:1.0416666666666667;" width="10.4167" x="200" y="477.0935"/><rect fill="#FFFFFF" height="62.4288" style="stroke:#181818;stroke-width:1.0416666666666667;" width="10.4167" x="372.9167" y="102.5208"/><rect fill="#FFFFFF" height="62.4288" style="stroke:#181818;stroke-width:1.0416666666666667;" width="10.4167" x="444.7917" y="352.2359"/><rect fill="#FFFFFF" height="62.4288" style="stroke:#181818;stroke-width:1.0416666666666667;" width="10.4167" x="516.6667" y="227.3783"/><line style="stroke:#181818;stroke-width:0.5208333333333334;stroke-dasharray:5.0,5.0;" x1="32.2917" x2="32.2917" y1="38.0086" y2="558.2723"/><line style="stroke:#181818;stroke-width:0.5208333333333334;stroke-dasharray:5.0,5.0;" x1="205.2083" x2="205.2083" y1="38.0086" y2="558.2723"/><line style="stroke:#181818;stroke-width:0.5208333333333334;stroke-dasharray:5.0,5.0;" x1="377.6042" x2="377.6042" y1="38.0086" y2="558.2723"/><line style="stroke:#181818;stroke-width:0.5208333333333334;stroke-dasharray:5.0,5.0;" x1="449.4792" x2="449.4792" y1="38.0086" y2="558.2723"/><line style="stroke:#181818;stroke-width:0.5208333333333334;stroke-dasharray:5.0,5.0;" x1="521.3542" x2="521.3542" y1="38.0086" y2="558.2723"/><rect fill="#E2E2F0" height="31.7586" rx="2.6042" ry="2.6042" style="stroke:#181818;stroke-width:0.5208333333333334;" width="54.1667" x="5.2083" y="5.2083"/><text fill="#000000" font-family="sans-serif" font-size="14.5833" lengthAdjust="spacing" textLength="39.5833" x="12.5" y="26.5991">CPO1</text><rect fill="#E2E2F0" height="31.7586" rx="2.6042" ry="2.6042" style="stroke:#181818;stroke-width:0.5208333333333334;" width="43.75" x="183.3333" y="5.2083"/><text fill="#000000" font-family="sans-serif" font-size="14.5833" lengthAdjust="spacing" textLength="29.1667" x="190.625" y="26.5991">HUB</text><rect fill="#E2E2F0" height="31.7586" rx="2.6042" ry="2.6042" style="stroke:#181818;stroke-width:0.5208333333333334;" width="61.4583" x="347.3958" y="5.2083"/><text fill="#000000" font-family="sans-serif" font-size="14.5833" lengthAdjust="spacing" textLength="46.875" x="354.6875" y="26.5991">eMSP1</text><rect fill="#E2E2F0" height="31.7586" rx="2.6042" ry="2.6042" style="stroke:#181818;stroke-width:0.5208333333333334;" width="61.4583" x="419.2708" y="5.2083"/><text fill="#000000" font-family="sans-serif" font-size="14.5833" lengthAdjust="spacing" textLength="46.875" x="426.5625" y="26.5991">eMSP2</text><rect fill="#E2E2F0" height="31.7586" rx="2.6042" ry="2.6042" style="stroke:#181818;stroke-width:0.5208333333333334;" width="61.4583" x="491.1458" y="5.2083"/><text fill="#000000" font-family="sans-serif" font-size="14.5833" lengthAdjust="spacing" textLength="46.875" x="498.4375" y="26.5991">eMSP3</text><rect fill="#FFFFFF" height="62.4288" style="stroke:#181818;stroke-width:1.0416666666666667;" width="10.4167" x="27.0833" y="477.0935"/><rect fill="#FFFFFF" height="62.4288" style="stroke:#181818;stroke-width:1.0416666666666667;" width="10.4167" x="200" y="102.5208"/><rect fill="#FFFFFF" height="62.4288" style="stroke:#181818;stroke-width:1.0416666666666667;" width="10.4167" x="200" y="227.3783"/><rect fill="#FFFFFF" height="62.4288" style="stroke:#181818;stroke-width:1.0416666666666667;" width="10.4167" x="200" y="352.2359"/><rect fill="#FFFFFF" height="62.4288" style="stroke:#181818;stroke-width:1.0416666666666667;" width="10.4167" x="200" y="477.0935"/><rect fill="#FFFFFF" height="62.4288" style="stroke:#181818;stroke-width:1.0416666666666667;" width="10.4167" x="372.9167" y="102.5208"/><rect fill="#FFFFFF" height="62.4288" style="stroke:#181818;stroke-width:1.0416666666666667;" width="10.4167" x="444.7917" y="352.2359"/><rect fill="#FFFFFF" height="62.4288" style="stroke:#181818;stroke-width:1.0416666666666667;" width="10.4167" x="516.6667" y="227.3783"/><polygon fill="#181818" points="221.875,98.3541,211.4583,102.5208,221.875,106.6874,217.7083,102.5208" style="stroke:#181818;stroke-width:1.0416666666666667;"/><line style="stroke:#181818;stroke-width:1.0416666666666667;" x1="215.625" x2="371.875" y1="102.5208" y2="102.5208"/><text fill="#000000" font-family="sans-serif" font-size="13.5417" lengthAdjust="spacing" textLength="67.7083" x="228.125" y="65.684">HTTP: PUT</text><text fill="#000000" font-family="sans-serif" font-size="13.5417" lengthAdjust="spacing" textLength="50" x="228.125" y="81.6325">TO:HUB</text><text fill="#000000" font-family="sans-serif" font-size="13.5417" lengthAdjust="spacing" textLength="80.2083" x="228.125" y="97.581">FROM: MSP1</text><polygon fill="#181818" points="365.625,160.7829,376.0417,164.9495,365.625,169.1162,369.7917,164.9495" style="stroke:#181818;stroke-width:1.0416666666666667;"/><line style="stroke:#181818;stroke-width:1.0416666666666667;" x1="205.2083" x2="371.875" y1="164.9495" y2="164.9495"/><text fill="#000000" font-family="sans-serif" font-size="13.5417" lengthAdjust="spacing" textLength="137.5" x="212.5" y="128.1128">HTTP: RESPONSE 200</text><text fill="#000000" font-family="sans-serif" font-size="13.5417" lengthAdjust="spacing" textLength="61.4583" x="212.5" y="144.0613">TO: MSP1</text><text fill="#000000" font-family="sans-serif" font-size="13.5417" lengthAdjust="spacing" textLength="72.9167" x="212.5" y="160.0098">FROM: HUB</text><polygon fill="#181818" points="221.875,223.2117,211.4583,227.3783,221.875,231.545,217.7083,227.3783" style="stroke:#181818;stroke-width:1.0416666666666667;"/><line style="stroke:#181818;stroke-width:1.0416666666666667;" x1="215.625" x2="515.625" y1="227.3783" y2="227.3783"/><text fill="#000000" font-family="sans-serif" font-size="13.5417" lengthAdjust="spacing" textLength="67.7083" x="228.125" y="190.5416">HTTP: PUT</text><text fill="#000000" font-family="sans-serif" font-size="13.5417" lengthAdjust="spacing" textLength="50" x="228.125" y="206.4901">TO:HUB</text><text fill="#000000" font-family="sans-serif" font-size="13.5417" lengthAdjust="spacing" textLength="80.2083" x="228.125" y="222.4386">FROM: MSP3</text><polygon fill="#181818" points="509.375,285.6405,519.7917,289.8071,509.375,293.9738,513.5417,289.8071" style="stroke:#181818;stroke-width:1.0416666666666667;"/><line style="stroke:#181818;stroke-width:1.0416666666666667;" x1="205.2083" x2="515.625" y1="289.8071" y2="289.8071"/><text fill="#000000" font-family="sans-serif" font-size="13.5417" lengthAdjust="spacing" textLength="137.5" x="212.5" y="252.9704">HTTP: RESPONSE 200</text><text fill="#000000" font-family="sans-serif" font-size="13.5417" lengthAdjust="spacing" textLength="61.4583" x="212.5" y="268.9189">TO: MSP3</text><text fill="#000000" font-family="sans-serif" font-size="13.5417" lengthAdjust="spacing" textLength="72.9167" x="212.5" y="284.8674">FROM: HUB</text><polygon fill="#181818" points="221.875,348.0693,211.4583,352.2359,221.875,356.4026,217.7083,352.2359" style="stroke:#181818;stroke-width:1.0416666666666667;"/><line style="stroke:#181818;stroke-width:1.0416666666666667;" x1="215.625" x2="443.75" y1="352.2359" y2="352.2359"/><text fill="#000000" font-family="sans-serif" font-size="13.5417" lengthAdjust="spacing" textLength="67.7083" x="228.125" y="315.3992">HTTP: PUT</text><text fill="#000000" font-family="sans-serif" font-size="13.5417" lengthAdjust="spacing" textLength="50" x="228.125" y="331.3477">TO:HUB</text><text fill="#000000" font-family="sans-serif" font-size="13.5417" lengthAdjust="spacing" textLength="80.2083" x="228.125" y="347.2961">FROM: MSP2</text><polygon fill="#181818" points="437.5,410.498,447.9167,414.6647,437.5,418.8314,441.6667,414.6647" style="stroke:#181818;stroke-width:1.0416666666666667;"/><line style="stroke:#181818;stroke-width:1.0416666666666667;" x1="205.2083" x2="443.75" y1="414.6647" y2="414.6647"/><text fill="#000000" font-family="sans-serif" font-size="13.5417" lengthAdjust="spacing" textLength="137.5" x="212.5" y="377.828">HTTP: RESPONSE 200</text><text fill="#000000" font-family="sans-serif" font-size="13.5417" lengthAdjust="spacing" textLength="61.4583" x="212.5" y="393.7764">TO: MSP2</text><text fill="#000000" font-family="sans-serif" font-size="13.5417" lengthAdjust="spacing" textLength="72.9167" x="212.5" y="409.7249">FROM: HUB</text><polygon fill="#181818" points="187.5,472.9268,197.9167,477.0935,187.5,481.2602,191.6667,477.0935" style="stroke:#181818;stroke-width:1.0416666666666667;"/><line style="stroke:#181818;stroke-width:1.0416666666666667;" x1="37.5" x2="193.75" y1="477.0935" y2="477.0935"/><text fill="#000000" font-family="sans-serif" font-size="13.5417" lengthAdjust="spacing" textLength="67.7083" x="44.7917" y="440.2568">HTTP: GET</text><text fill="#000000" font-family="sans-serif" font-size="13.5417" lengthAdjust="spacing" textLength="50" x="44.7917" y="456.2052">TO:HUB</text><text fill="#000000" font-family="sans-serif" font-size="13.5417" lengthAdjust="spacing" textLength="81.25" x="44.7917" y="472.1537">FROM: CPO1</text><polygon fill="#181818" points="43.75,535.3556,33.3333,539.5223,43.75,543.689,39.5833,539.5223" style="stroke:#181818;stroke-width:1.0416666666666667;"/><line style="stroke:#181818;stroke-width:1.0416666666666667;" x1="37.5" x2="204.1667" y1="539.5223" y2="539.5223"/><text fill="#000000" font-family="sans-serif" font-size="13.5417" lengthAdjust="spacing" textLength="137.5" x="50" y="502.6855">HTTP: RESPONSE 200</text><text fill="#000000" font-family="sans-serif" font-size="13.5417" lengthAdjust="spacing" textLength="62.5" x="50" y="518.634">TO: CPO1</text><text fill="#000000" font-family="sans-serif" font-size="13.5417" lengthAdjust="spacing" textLength="72.9167" x="50" y="534.5825">FROM: HUB</text></g></svg>