<?xml version="1.0" encoding="us-ascii" standalone="no"?><svg xmlns="http://www.w3.org/2000/svg" xmlns:xlink="http://www.w3.org/1999/xlink" contentStyleType="text/css" height="440.625px" preserveAspectRatio="none" style="width:583px;height:440px;background:#FFFFFF;" version="1.1" viewBox="0 0 583 440" width="583.3333px" zoomAndPan="magnify"><defs/><g><rect fill="#FFFFFF" height="312.144" style="stroke:#181818;stroke-width:1.0416666666666667;" width="10.4167" x="27.0833" y="102.5208"/><rect fill="#FFFFFF" height="312.144" style="stroke:#181818;stroke-width:1.0416666666666667;" width="10.4167" x="200" y="102.5208"/><rect fill="#FFFFFF" height="187.2864" style="stroke:#181818;stroke-width:1.0416666666666667;" width="10.4167" x="372.9167" y="164.9495"/><rect fill="#FFFFFF" height="62.4288" style="stroke:#181818;stroke-width:1.0416666666666667;" width="10.4167" x="545.8333" y="227.3783"/><line style="stroke:#181818;stroke-width:0.5208333333333334;stroke-dasharray:5.0,5.0;" x1="32.2917" x2="32.2917" y1="38.0086" y2="433.4147"/><line style="stroke:#181818;stroke-width:0.5208333333333334;stroke-dasharray:5.0,5.0;" x1="204.6875" x2="204.6875" y1="38.0086" y2="433.4147"/><line style="stroke:#181818;stroke-width:0.5208333333333334;stroke-dasharray:5.0,5.0;" x1="377.6042" x2="377.6042" y1="38.0086" y2="433.4147"/><line style="stroke:#181818;stroke-width:0.5208333333333334;stroke-dasharray:5.0,5.0;" x1="550.5208" x2="550.5208" y1="38.0086" y2="433.4147"/><rect fill="#E2E2F0" height="31.7586" rx="2.6042" ry="2.6042" style="stroke:#181818;stroke-width:0.5208333333333334;" width="54.1667" x="5.2083" y="5.2083"/><text fill="#000000" font-family="sans-serif" font-size="14.5833" lengthAdjust="spacing" textLength="39.5833" x="12.5" y="26.5991">CPO1</text><rect fill="#E2E2F0" height="31.7586" rx="2.6042" ry="2.6042" style="stroke:#181818;stroke-width:0.5208333333333334;" width="53.125" x="178.6458" y="5.2083"/><text fill="#000000" font-family="sans-serif" font-size="14.5833" lengthAdjust="spacing" textLength="38.5417" x="185.9375" y="26.5991">HUB1</text><rect fill="#E2E2F0" height="31.7586" rx="2.6042" ry="2.6042" style="stroke:#181818;stroke-width:0.5208333333333334;" width="53.125" x="351.5625" y="5.2083"/><text fill="#000000" font-family="sans-serif" font-size="14.5833" lengthAdjust="spacing" textLength="38.5417" x="358.8542" y="26.5991">HUB2</text><rect fill="#E2E2F0" height="31.7586" rx="2.6042" ry="2.6042" style="stroke:#181818;stroke-width:0.5208333333333334;" width="53.125" x="524.4792" y="5.2083"/><text fill="#000000" font-family="sans-serif" font-size="14.5833" lengthAdjust="spacing" textLength="38.5417" x="531.7708" y="26.5991">MSP1</text><rect fill="#FFFFFF" height="312.144" style="stroke:#181818;stroke-width:1.0416666666666667;" width="10.4167" x="27.0833" y="102.5208"/><rect fill="#FFFFFF" height="312.144" style="stroke:#181818;stroke-width:1.0416666666666667;" width="10.4167" x="200" y="102.5208"/><rect fill="#FFFFFF" height="187.2864" style="stroke:#181818;stroke-width:1.0416666666666667;" width="10.4167" x="372.9167" y="164.9495"/><rect fill="#FFFFFF" height="62.4288" style="stroke:#181818;stroke-width:1.0416666666666667;" width="10.4167" x="545.8333" y="227.3783"/><polygon fill="#181818" points="187.5,98.3541,197.9167,102.5208,187.5,106.6874,191.6667,102.5208" style="stroke:#181818;stroke-width:1.0416666666666667;"/><line style="stroke:#181818;stroke-width:1.0416666666666667;" x1="37.5" x2="193.75" y1="102.5208" y2="102.5208"/><text fill="#000000" font-family="sans-serif" font-size="13.5417" lengthAdjust="spacing" textLength="67.7083" x="44.7917" y="65.684">HTTP: PUT</text><text fill="#000000" font-family="sans-serif" font-size="13.5417" lengthAdjust="spacing" textLength="61.4583" x="44.7917" y="81.6325">TO: MSP1</text><text fill="#000000" font-family="sans-serif" font-size="13.5417" lengthAdjust="spacing" textLength="81.25" x="44.7917" y="97.581">FROM: CPO1</text><polygon fill="#181818" points="360.4167,160.7829,370.8333,164.9495,360.4167,169.1162,364.5833,164.9495" style="stroke:#181818;stroke-width:1.0416666666666667;"/><line style="stroke:#181818;stroke-width:1.0416666666666667;" x1="210.4167" x2="366.6667" y1="164.9495" y2="164.9495"/><text fill="#000000" font-family="sans-serif" font-size="13.5417" lengthAdjust="spacing" textLength="67.7083" x="217.7083" y="128.1128">HTTP: PUT</text><text fill="#000000" font-family="sans-serif" font-size="13.5417" lengthAdjust="spacing" textLength="61.4583" x="217.7083" y="144.0613">TO: MSP1</text><text fill="#000000" font-family="sans-serif" font-size="13.5417" lengthAdjust="spacing" textLength="81.25" x="217.7083" y="160.0098">FROM: CPO1</text><polygon fill="#181818" points="533.3333,223.2117,543.75,227.3783,533.3333,231.545,537.5,227.3783" style="stroke:#181818;stroke-width:1.0416666666666667;"/><line style="stroke:#181818;stroke-width:1.0416666666666667;" x1="383.3333" x2="539.5833" y1="227.3783" y2="227.3783"/><text fill="#000000" font-family="sans-serif" font-size="13.5417" lengthAdjust="spacing" textLength="67.7083" x="390.625" y="190.5416">HTTP: PUT</text><text fill="#000000" font-family="sans-serif" font-size="13.5417" lengthAdjust="spacing" textLength="61.4583" x="390.625" y="206.4901">TO: MSP1</text><text fill="#000000" font-family="sans-serif" font-size="13.5417" lengthAdjust="spacing" textLength="81.25" x="390.625" y="222.4386">FROM: CPO1</text><polygon fill="#181818" points="394.7917,285.6405,384.375,289.8071,394.7917,293.9738,390.625,289.8071" style="stroke:#181818;stroke-width:1.0416666666666667;"/><line style="stroke:#181818;stroke-width:1.0416666666666667;" x1="388.5417" x2="550" y1="289.8071" y2="289.8071"/><text fill="#000000" font-family="sans-serif" font-size="13.5417" lengthAdjust="spacing" textLength="137.5" x="401.0417" y="252.9704">HTTP: RESPONSE 200</text><text fill="#000000" font-family="sans-serif" font-size="13.5417" lengthAdjust="spacing" textLength="62.5" x="401.0417" y="268.9189">TO: CPO1</text><text fill="#000000" font-family="sans-serif" font-size="13.5417" lengthAdjust="spacing" textLength="80.2083" x="401.0417" y="284.8674">FROM: MSP1</text><polygon fill="#181818" points="221.875,348.0693,211.4583,352.2359,221.875,356.4026,217.7083,352.2359" style="stroke:#181818;stroke-width:1.0416666666666667;"/><line style="stroke:#181818;stroke-width:1.0416666666666667;" x1="215.625" x2="377.0833" y1="352.2359" y2="352.2359"/><text fill="#000000" font-family="sans-serif" font-size="13.5417" lengthAdjust="spacing" textLength="137.5" x="228.125" y="315.3992">HTTP: RESPONSE 200</text><text fill="#000000" font-family="sans-serif" font-size="13.5417" lengthAdjust="spacing" textLength="62.5" x="228.125" y="331.3477">TO: CPO1</text><text fill="#000000" font-family="sans-serif" font-size="13.5417" lengthAdjust="spacing" textLength="80.2083" x="228.125" y="347.2961">FROM: MSP1</text><polygon fill="#181818" points="43.75,410.498,33.3333,414.6647,43.75,418.8314,39.5833,414.6647" style="stroke:#181818;stroke-width:1.0416666666666667;"/><line style="stroke:#181818;stroke-width:1.0416666666666667;" x1="37.5" x2="204.1667" y1="414.6647" y2="414.6647"/><text fill="#000000" font-family="sans-serif" font-size="13.5417" lengthAdjust="spacing" textLength="137.5" x="50" y="377.828">HTTP: RESPONSE 200</text><text fill="#000000" font-family="sans-serif" font-size="13.5417" lengthAdjust="spacing" textLength="62.5" x="50" y="393.7764">TO: CPO1</text><text fill="#000000" font-family="sans-serif" font-size="13.5417" lengthAdjust="spacing" textLength="80.2083" x="50" y="409.7249">FROM: MSP1</text></g></svg>