<?xml version="1.0" encoding="us-ascii" standalone="no"?><svg xmlns="http://www.w3.org/2000/svg" xmlns:xlink="http://www.w3.org/1999/xlink" contentStyleType="text/css" height="564.5833px" preserveAspectRatio="none" style="width:542px;height:564px;background:#FFFFFF;" version="1.1" viewBox="0 0 542 564" width="542.7083px" zoomAndPan="magnify"><defs/><g><rect fill="#FFFFFF" height="62.4288" style="stroke:#181818;stroke-width:1.0416666666666667;" width="10.4167" x="27.0833" y="102.5208"/><rect fill="#FFFFFF" height="437.0015" style="stroke:#181818;stroke-width:1.0416666666666667;" width="10.4167" x="205.2083" y="102.5208"/><rect fill="#FFFFFF" height="62.4288" style="stroke:#181818;stroke-width:1.0416666666666667;" width="10.4167" x="378.125" y="227.3783"/><rect fill="#FFFFFF" height="62.4288" style="stroke:#181818;stroke-width:1.0416666666666667;" width="10.4167" x="441.6667" y="352.2359"/><rect fill="#FFFFFF" height="62.4288" style="stroke:#181818;stroke-width:1.0416666666666667;" width="10.4167" x="505.2083" y="477.0935"/><line style="stroke:#181818;stroke-width:0.5208333333333334;stroke-dasharray:5.0,5.0;" x1="32.2917" x2="32.2917" y1="38.0086" y2="558.2723"/><line style="stroke:#181818;stroke-width:0.5208333333333334;stroke-dasharray:5.0,5.0;" x1="210.4167" x2="210.4167" y1="38.0086" y2="558.2723"/><line style="stroke:#181818;stroke-width:0.5208333333333334;stroke-dasharray:5.0,5.0;" x1="382.8125" x2="382.8125" y1="38.0086" y2="558.2723"/><line style="stroke:#181818;stroke-width:0.5208333333333334;stroke-dasharray:5.0,5.0;" x1="446.3542" x2="446.3542" y1="38.0086" y2="558.2723"/><line style="stroke:#181818;stroke-width:0.5208333333333334;stroke-dasharray:5.0,5.0;" x1="509.8958" x2="509.8958" y1="38.0086" y2="558.2723"/><rect fill="#E2E2F0" height="31.7586" rx="2.6042" ry="2.6042" style="stroke:#181818;stroke-width:0.5208333333333334;" width="54.1667" x="5.2083" y="5.2083"/><text fill="#000000" font-family="sans-serif" font-size="14.5833" lengthAdjust="spacing" textLength="39.5833" x="12.5" y="26.5991">CPO1</text><rect fill="#E2E2F0" height="31.7586" rx="2.6042" ry="2.6042" style="stroke:#181818;stroke-width:0.5208333333333334;" width="43.75" x="188.5417" y="5.2083"/><text fill="#000000" font-family="sans-serif" font-size="14.5833" lengthAdjust="spacing" textLength="29.1667" x="195.8333" y="26.5991">HUB</text><rect fill="#E2E2F0" height="31.7586" rx="2.6042" ry="2.6042" style="stroke:#181818;stroke-width:0.5208333333333334;" width="53.125" x="356.7708" y="5.2083"/><text fill="#000000" font-family="sans-serif" font-size="14.5833" lengthAdjust="spacing" textLength="38.5417" x="364.0625" y="26.5991">MSP1</text><rect fill="#E2E2F0" height="31.7586" rx="2.6042" ry="2.6042" style="stroke:#181818;stroke-width:0.5208333333333334;" width="53.125" x="420.3125" y="5.2083"/><text fill="#000000" font-family="sans-serif" font-size="14.5833" lengthAdjust="spacing" textLength="38.5417" x="427.6042" y="26.5991">MSP2</text><rect fill="#E2E2F0" height="31.7586" rx="2.6042" ry="2.6042" style="stroke:#181818;stroke-width:0.5208333333333334;" width="53.125" x="483.8542" y="5.2083"/><text fill="#000000" font-family="sans-serif" font-size="14.5833" lengthAdjust="spacing" textLength="38.5417" x="491.1458" y="26.5991">MSP3</text><rect fill="#FFFFFF" height="62.4288" style="stroke:#181818;stroke-width:1.0416666666666667;" width="10.4167" x="27.0833" y="102.5208"/><rect fill="#FFFFFF" height="437.0015" style="stroke:#181818;stroke-width:1.0416666666666667;" width="10.4167" x="205.2083" y="102.5208"/><rect fill="#FFFFFF" height="62.4288" style="stroke:#181818;stroke-width:1.0416666666666667;" width="10.4167" x="378.125" y="227.3783"/><rect fill="#FFFFFF" height="62.4288" style="stroke:#181818;stroke-width:1.0416666666666667;" width="10.4167" x="441.6667" y="352.2359"/><rect fill="#FFFFFF" height="62.4288" style="stroke:#181818;stroke-width:1.0416666666666667;" width="10.4167" x="505.2083" y="477.0935"/><polygon fill="#181818" points="192.7083,98.3541,203.125,102.5208,192.7083,106.6874,196.875,102.5208" style="stroke:#181818;stroke-width:1.0416666666666667;"/><line style="stroke:#181818;stroke-width:1.0416666666666667;" x1="37.5" x2="198.9583" y1="102.5208" y2="102.5208"/><text fill="#000000" font-family="sans-serif" font-size="13.5417" lengthAdjust="spacing" textLength="67.7083" x="44.7917" y="65.684">HTTP: PUT</text><text fill="#000000" font-family="sans-serif" font-size="13.5417" lengthAdjust="spacing" textLength="54.1667" x="44.7917" y="81.6325">TO: HUB</text><text fill="#000000" font-family="sans-serif" font-size="13.5417" lengthAdjust="spacing" textLength="81.25" x="44.7917" y="97.581">FROM: CPO1</text><polygon fill="#181818" points="43.75,160.7829,33.3333,164.9495,43.75,169.1162,39.5833,164.9495" style="stroke:#181818;stroke-width:1.0416666666666667;"/><line style="stroke:#181818;stroke-width:1.0416666666666667;" x1="37.5" x2="204.1667" y1="164.9495" y2="164.9495"/><text fill="#000000" font-family="sans-serif" font-size="13.5417" lengthAdjust="spacing" textLength="142.7083" x="50" y="128.1128">HTTP: RESPONSE 200?</text><text fill="#000000" font-family="sans-serif" font-size="13.5417" lengthAdjust="spacing" textLength="62.5" x="50" y="144.0613">TO: CPO1</text><text fill="#000000" font-family="sans-serif" font-size="13.5417" lengthAdjust="spacing" textLength="72.9167" x="50" y="160.0098">FROM: HUB</text><polygon fill="#181818" points="365.625,223.2117,376.0417,227.3783,365.625,231.545,369.7917,227.3783" style="stroke:#181818;stroke-width:1.0416666666666667;"/><line style="stroke:#181818;stroke-width:1.0416666666666667;" x1="215.625" x2="371.875" y1="227.3783" y2="227.3783"/><text fill="#000000" font-family="sans-serif" font-size="13.5417" lengthAdjust="spacing" textLength="67.7083" x="222.9167" y="190.5416">HTTP: PUT</text><text fill="#000000" font-family="sans-serif" font-size="13.5417" lengthAdjust="spacing" textLength="61.4583" x="222.9167" y="206.4901">TO: MSP1</text><text fill="#000000" font-family="sans-serif" font-size="13.5417" lengthAdjust="spacing" textLength="72.9167" x="222.9167" y="222.4386">FROM: HUB</text><polygon fill="#181818" points="227.0833,285.6405,216.6667,289.8071,227.0833,293.9738,222.9167,289.8071" style="stroke:#181818;stroke-width:1.0416666666666667;"/><line style="stroke:#181818;stroke-width:1.0416666666666667;" x1="220.8333" x2="382.2917" y1="289.8071" y2="289.8071"/><text fill="#000000" font-family="sans-serif" font-size="13.5417" lengthAdjust="spacing" textLength="137.5" x="233.3333" y="252.9704">HTTP: RESPONSE 401</text><text fill="#000000" font-family="sans-serif" font-size="13.5417" lengthAdjust="spacing" textLength="54.1667" x="233.3333" y="268.9189">TO: HUB</text><text fill="#000000" font-family="sans-serif" font-size="13.5417" lengthAdjust="spacing" textLength="80.2083" x="233.3333" y="284.8674">FROM: MSP1</text><polygon fill="#181818" points="429.1667,348.0693,439.5833,352.2359,429.1667,356.4026,433.3333,352.2359" style="stroke:#181818;stroke-width:1.0416666666666667;"/><line style="stroke:#181818;stroke-width:1.0416666666666667;" x1="215.625" x2="435.4167" y1="352.2359" y2="352.2359"/><text fill="#000000" font-family="sans-serif" font-size="13.5417" lengthAdjust="spacing" textLength="67.7083" x="222.9167" y="315.3992">HTTP: PUT</text><text fill="#000000" font-family="sans-serif" font-size="13.5417" lengthAdjust="spacing" textLength="61.4583" x="222.9167" y="331.3477">TO: MSP2</text><text fill="#000000" font-family="sans-serif" font-size="13.5417" lengthAdjust="spacing" textLength="72.9167" x="222.9167" y="347.2961">FROM: HUB</text><polygon fill="#181818" points="227.0833,410.498,216.6667,414.6647,227.0833,418.8314,222.9167,414.6647" style="stroke:#181818;stroke-width:1.0416666666666667;"/><line style="stroke:#181818;stroke-width:1.0416666666666667;" x1="220.8333" x2="445.8333" y1="414.6647" y2="414.6647"/><text fill="#000000" font-family="sans-serif" font-size="13.5417" lengthAdjust="spacing" textLength="137.5" x="233.3333" y="377.828">HTTP: RESPONSE 200</text><text fill="#000000" font-family="sans-serif" font-size="13.5417" lengthAdjust="spacing" textLength="54.1667" x="233.3333" y="393.7764">TO: HUB</text><text fill="#000000" font-family="sans-serif" font-size="13.5417" lengthAdjust="spacing" textLength="80.2083" x="233.3333" y="409.7249">FROM: MSP2</text><polygon fill="#181818" points="492.7083,472.9268,503.125,477.0935,492.7083,481.2602,496.875,477.0935" style="stroke:#181818;stroke-width:1.0416666666666667;"/><line style="stroke:#181818;stroke-width:1.0416666666666667;" x1="215.625" x2="498.9583" y1="477.0935" y2="477.0935"/><text fill="#000000" font-family="sans-serif" font-size="13.5417" lengthAdjust="spacing" textLength="67.7083" x="222.9167" y="440.2568">HTTP: PUT</text><text fill="#000000" font-family="sans-serif" font-size="13.5417" lengthAdjust="spacing" textLength="61.4583" x="222.9167" y="456.2052">TO: MSP3</text><text fill="#000000" font-family="sans-serif" font-size="13.5417" lengthAdjust="spacing" textLength="72.9167" x="222.9167" y="472.1537">FROM: HUB</text><polygon fill="#181818" points="221.875,535.3556,211.4583,539.5223,221.875,543.689,217.7083,539.5223" style="stroke:#181818;stroke-width:1.0416666666666667;"/><line style="stroke:#181818;stroke-width:1.0416666666666667;" x1="215.625" x2="509.375" y1="539.5223" y2="539.5223"/><text fill="#000000" font-family="sans-serif" font-size="13.5417" lengthAdjust="spacing" textLength="137.5" x="228.125" y="502.6855">HTTP: RESPONSE 200</text><text fill="#000000" font-family="sans-serif" font-size="13.5417" lengthAdjust="spacing" textLength="54.1667" x="228.125" y="518.634">TO: HUB</text><text fill="#000000" font-family="sans-serif" font-size="13.5417" lengthAdjust="spacing" textLength="80.2083" x="228.125" y="534.5825">FROM: MSP3</text></g></svg>