<?xml version="1.0" encoding="us-ascii" standalone="no"?><svg xmlns="http://www.w3.org/2000/svg" xmlns:xlink="http://www.w3.org/1999/xlink" contentStyleType="text/css" height="49px" preserveAspectRatio="none" style="width:380px;height:49px;background:#FFFFFF;" version="1.1" viewBox="0 0 380 49" width="380px" zoomAndPan="magnify"><defs/><g><!--entity eMSP--><g id="elem_eMSP"><rect fill="#F1F1F1" height="36.4883" rx="2.5" ry="2.5" style="stroke:#181818;stroke-width:0.5;" width="56" x="7" y="7"/><text fill="#000000" font-family="sans-serif" font-size="14" lengthAdjust="spacing" textLength="36" x="17" y="30.5352">eMSP</text></g><!--entity CPO--><g id="elem_CPO"><rect fill="#F1F1F1" height="36.4883" rx="2.5" ry="2.5" style="stroke:#181818;stroke-width:0.5;" width="49" x="155" y="7"/><text fill="#000000" font-family="sans-serif" font-size="14" lengthAdjust="spacing" textLength="29" x="165" y="30.5352">CPO</text></g><!--entity CP--><g id="elem_CP"><rect fill="#F1F1F1" height="36.4883" rx="2.5" ry="2.5" style="stroke:#181818;stroke-width:0.5;" width="109" x="265" y="7"/><text fill="#000000" font-family="sans-serif" font-size="14" lengthAdjust="spacing" textLength="89" x="275" y="30.5352">Charge Point</text></g><!--link eMSP to CPO--><g id="link_eMSP_CPO"><path d="M69.26,25.25 C93.37,25.25 125.68,25.25 148.89,25.25 " fill="none" id="eMSP-CPO" style="stroke:#181818;stroke-width:1.0;"/><polygon fill="#181818" points="64.48,25.25,73.48,29.25,69.48,25.25,73.48,21.25,64.48,25.25" style="stroke:#181818;stroke-width:1.0;"/><polygon fill="#181818" points="153.89,25.25,144.89,21.25,148.89,25.25,144.89,29.25,153.89,25.25" style="stroke:#181818;stroke-width:1.0;"/><text fill="#000000" font-family="sans-serif" font-size="13" lengthAdjust="spacing" textLength="30" x="94" y="21.8184">OCPI</text></g><!--link CPO to CP--><g id="link_CPO_CP"><path d="M209.9,25.25 C224.24,25.25 242.03,25.25 259.04,25.25 " fill="none" id="CPO-CP" style="stroke:#181818;stroke-width:1.0;"/><polygon fill="#181818" points="205.22,25.25,214.22,29.25,210.22,25.25,214.22,21.25,205.22,25.25" style="stroke:#181818;stroke-width:1.0;"/><polygon fill="#181818" points="263.77,25.25,254.77,21.25,258.77,25.25,254.77,29.25,263.77,25.25" style="stroke:#181818;stroke-width:1.0;"/></g></g></svg>