<?xml version="1.0" encoding="UTF-8" standalone="no"?><svg xmlns="http://www.w3.org/2000/svg" xmlns:xlink="http://www.w3.org/1999/xlink" contentScriptType="application/ecmascript" contentStyleType="text/css" height="54px" preserveAspectRatio="none" style="width:530px;height:54px;" version="1.1" viewBox="0 0 530 54" width="530px" zoomAndPan="magnify"><defs><filter height="300%" id="f119t84fjr37mp" width="300%" x="-1" y="-1"><feGaussianBlur result="blurOut" stdDeviation="2.0"/><feColorMatrix in="blurOut" result="blurOut2" type="matrix" values="0 0 0 0 0 0 0 0 0 0 0 0 0 0 0 0 0 0 .4 0"/><feOffset dx="4.0" dy="4.0" in="blurOut2" result="blurOut3"/><feBlend in="SourceGraphic" in2="blurOut3" mode="normal"/></filter></defs><g><!--entity SCSP--><rect fill="#FEFECE" filter="url(#f119t84fjr37mp)" height="36.4883" style="stroke: #A80036; stroke-width: 1.5;" width="54" x="6" y="7.51"/><text fill="#000000" font-family="sans-serif" font-size="14" lengthAdjust="spacingAndGlyphs" textLength="34" x="16" y="31.0452">SCSP</text><!--entity eMSP--><rect fill="#FEFECE" filter="url(#f119t84fjr37mp)" height="36.4883" style="stroke: #A80036; stroke-width: 1.5;" width="56" x="152" y="7.51"/><text fill="#000000" font-family="sans-serif" font-size="14" lengthAdjust="spacingAndGlyphs" textLength="36" x="162" y="31.0452">eMSP</text><!--entity CPO--><rect fill="#FEFECE" filter="url(#f119t84fjr37mp)" height="36.4883" style="stroke: #A80036; stroke-width: 1.5;" width="49" x="300" y="7.51"/><text fill="#000000" font-family="sans-serif" font-size="14" lengthAdjust="spacingAndGlyphs" textLength="29" x="310" y="31.0452">CPO</text><!--entity CP--><rect fill="#FEFECE" filter="url(#f119t84fjr37mp)" height="36.4883" style="stroke: #A80036; stroke-width: 1.5;" width="109" x="410" y="7.51"/><text fill="#000000" font-family="sans-serif" font-size="14" lengthAdjust="spacingAndGlyphs" textLength="89" x="420" y="31.0452">Charge Point</text><!--link SCSP to eMSP--><path d="M66.25,25.76 C89.99,25.76 122.16,25.76 146.07,25.76 " fill="none" id="SCSP-eMSP" style="stroke: #A80036; stroke-width: 1.0;"/><polygon fill="#A80036" points="150.95,25.76,141.95,21.76,145.95,25.76,141.95,29.76,150.95,25.76" style="stroke: #A80036; stroke-width: 1.0;"/><polygon fill="#A80036" points="61.26,25.76,70.26,29.76,66.26,25.76,70.26,21.76,61.26,25.76" style="stroke: #A80036; stroke-width: 1.0;"/><text fill="#000000" font-family="sans-serif" font-size="13" lengthAdjust="spacingAndGlyphs" textLength="30" x="91" y="22.3284">OCPI</text><!--link eMSP to CPO--><path d="M214.26,25.76 C238.37,25.76 270.68,25.76 293.89,25.76 " fill="none" id="eMSP-CPO" style="stroke: #A80036; stroke-width: 1.0;"/><polygon fill="#A80036" points="298.89,25.76,289.89,21.76,293.89,25.76,289.89,29.76,298.89,25.76" style="stroke: #A80036; stroke-width: 1.0;"/><polygon fill="#A80036" points="209.48,25.76,218.48,29.76,214.48,25.76,218.48,21.76,209.48,25.76" style="stroke: #A80036; stroke-width: 1.0;"/><text fill="#000000" font-family="sans-serif" font-size="13" lengthAdjust="spacingAndGlyphs" textLength="30" x="239" y="22.3284">OCPI</text><!--link CPO to CP--><path d="M354.9,25.76 C369.24,25.76 387.03,25.76 404.04,25.76 " fill="none" id="CPO-CP" style="stroke: #A80036; stroke-width: 1.0;"/><polygon fill="#A80036" points="408.77,25.76,399.77,21.76,403.77,25.76,399.77,29.76,408.77,25.76" style="stroke: #A80036; stroke-width: 1.0;"/><polygon fill="#A80036" points="350.22,25.76,359.22,29.76,355.22,25.76,359.22,21.76,350.22,25.76" style="stroke: #A80036; stroke-width: 1.0;"/></g></svg>