<?xml version="1.0" encoding="UTF-8" standalone="no"?><svg xmlns="http://www.w3.org/2000/svg" xmlns:xlink="http://www.w3.org/1999/xlink" contentScriptType="application/ecmascript" contentStyleType="text/css" height="54px" preserveAspectRatio="none" style="width:384px;height:54px;" version="1.1" viewBox="0 0 384 54" width="384px" zoomAndPan="magnify"><defs><filter height="300%" id="f1hn7n4nlh3pek" width="300%" x="-1" y="-1"><feGaussianBlur result="blurOut" stdDeviation="2.0"/><feColorMatrix in="blurOut" result="blurOut2" type="matrix" values="0 0 0 0 0 0 0 0 0 0 0 0 0 0 0 0 0 0 .4 0"/><feOffset dx="4.0" dy="4.0" in="blurOut2" result="blurOut3"/><feBlend in="SourceGraphic" in2="blurOut3" mode="normal"/></filter></defs><g><!--entity eMSP--><rect fill="#FEFECE" filter="url(#f1hn7n4nlh3pek)" height="36.4883" style="stroke: #A80036; stroke-width: 1.5;" width="56" x="6" y="7.51"/><text fill="#000000" font-family="sans-serif" font-size="14" lengthAdjust="spacingAndGlyphs" textLength="36" x="16" y="31.0452">eMSP</text><!--entity CPO--><rect fill="#FEFECE" filter="url(#f1hn7n4nlh3pek)" height="36.4883" style="stroke: #A80036; stroke-width: 1.5;" width="49" x="154" y="7.51"/><text fill="#000000" font-family="sans-serif" font-size="14" lengthAdjust="spacingAndGlyphs" textLength="29" x="164" y="31.0452">CPO</text><!--entity CP--><rect fill="#FEFECE" filter="url(#f1hn7n4nlh3pek)" height="36.4883" style="stroke: #A80036; stroke-width: 1.5;" width="109" x="264" y="7.51"/><text fill="#000000" font-family="sans-serif" font-size="14" lengthAdjust="spacingAndGlyphs" textLength="89" x="274" y="31.0452">Charge Point</text><!--link eMSP to CPO--><path d="M68.26,25.76 C92.37,25.76 124.68,25.76 147.89,25.76 " fill="none" id="eMSP-CPO" style="stroke: #A80036; stroke-width: 1.0;"/><polygon fill="#A80036" points="152.89,25.76,143.89,21.76,147.89,25.76,143.89,29.76,152.89,25.76" style="stroke: #A80036; stroke-width: 1.0;"/><polygon fill="#A80036" points="63.48,25.76,72.48,29.76,68.48,25.76,72.48,21.76,63.48,25.76" style="stroke: #A80036; stroke-width: 1.0;"/><text fill="#000000" font-family="sans-serif" font-size="13" lengthAdjust="spacingAndGlyphs" textLength="30" x="93" y="22.3284">OCPI</text><!--link CPO to CP--><path d="M208.9,25.76 C223.24,25.76 241.03,25.76 258.04,25.76 " fill="none" id="CPO-CP" style="stroke: #A80036; stroke-width: 1.0;"/><polygon fill="#A80036" points="262.77,25.76,253.77,21.76,257.77,25.76,253.77,29.76,262.77,25.76" style="stroke: #A80036; stroke-width: 1.0;"/><polygon fill="#A80036" points="204.22,25.76,213.22,29.76,209.22,25.76,213.22,21.76,204.22,25.76" style="stroke: #A80036; stroke-width: 1.0;"/></g></svg>