<?xml version="1.0" encoding="us-ascii" standalone="no"?><svg xmlns="http://www.w3.org/2000/svg" xmlns:xlink="http://www.w3.org/1999/xlink" contentStyleType="text/css" height="120px" preserveAspectRatio="none" style="width:380px;height:120px;background:#FFFFFF;" version="1.1" viewBox="0 0 380 120" width="380px" zoomAndPan="magnify"><defs/><g><!--entity eMSP--><g id="elem_eMSP"><rect fill="#F1F1F1" height="36.4883" rx="2.5" ry="2.5" style="stroke:#181818;stroke-width:0.5;" width="56" x="7" y="7"/><text fill="#000000" font-family="sans-serif" font-size="14" lengthAdjust="spacing" textLength="36" x="17" y="30.5352">eMSP</text></g><!--entity SCSP--><g id="elem_SCSP"><rect fill="#F1F1F1" height="36.4883" rx="2.5" ry="2.5" style="stroke:#181818;stroke-width:0.5;" width="54" x="8" y="78"/><text fill="#000000" font-family="sans-serif" font-size="14" lengthAdjust="spacing" textLength="34" x="18" y="101.5352">SCSP</text></g><!--entity CPO--><g id="elem_CPO"><rect fill="#F1F1F1" height="36.4883" rx="2.5" ry="2.5" style="stroke:#181818;stroke-width:0.5;" width="49" x="155" y="43"/><text fill="#000000" font-family="sans-serif" font-size="14" lengthAdjust="spacing" textLength="29" x="165" y="66.5352">CPO</text></g><!--entity CP--><g id="elem_CP"><rect fill="#F1F1F1" height="36.4883" rx="2.5" ry="2.5" style="stroke:#181818;stroke-width:0.5;" width="109" x="265" y="43"/><text fill="#000000" font-family="sans-serif" font-size="14" lengthAdjust="spacing" textLength="89" x="275" y="66.5352">Charge Point</text></g><!--link eMSP to CPO--><g id="link_eMSP_CPO"><path d="M69.26,33.65 C93.47,39.76 125.95,47.97 149.19,53.84 " fill="none" id="eMSP-CPO" style="stroke:#181818;stroke-width:1.0;"/><polygon fill="#181818" points="64.48,32.19,72.2201,38.2803,69.3265,33.4195,74.1873,30.5259,64.48,32.19" style="stroke:#181818;stroke-width:1.0;"/><polygon fill="#181818" points="153.89,55.28,146.1499,49.1897,149.0435,54.0505,144.1827,56.9441,153.89,55.28" style="stroke:#181818;stroke-width:1.0;"/><text fill="#000000" font-family="sans-serif" font-size="13" lengthAdjust="spacing" textLength="30" x="94" y="36.8184">OCPI</text></g><!--link SCSP to CPO--><g id="link_SCSP_CPO"><path d="M68.14,94.6 C85.26,93.14 106.54,90.4 125,85.25 C133.13,82.98 141.6,79.66 149.34,76.22 " fill="none" id="SCSP-CPO" style="stroke:#181818;stroke-width:1.0;"/><polygon fill="#181818" points="63.5,95.04,72.7911,98.3074,68.484,94.6401,72.1513,90.3331,63.5,95.04" style="stroke:#181818;stroke-width:1.0;"/><polygon fill="#181818" points="153.57,73.82,143.7219,73.94,149.026,75.9062,147.0598,81.2104,153.57,73.82" style="stroke:#181818;stroke-width:1.0;"/><text fill="#000000" font-family="sans-serif" font-size="13" lengthAdjust="spacing" textLength="30" x="94" y="81.8184">OCPI</text></g><!--link CPO to CP--><g id="link_CPO_CP"><path d="M209.9,61.25 C224.24,61.25 242.03,61.25 259.04,61.25 " fill="none" id="CPO-CP" style="stroke:#181818;stroke-width:1.0;"/><polygon fill="#181818" points="205.22,61.25,214.22,65.25,210.22,61.25,214.22,57.25,205.22,61.25" style="stroke:#181818;stroke-width:1.0;"/><polygon fill="#181818" points="263.77,61.25,254.77,57.25,258.77,61.25,254.77,65.25,263.77,61.25" style="stroke:#181818;stroke-width:1.0;"/></g></g></svg>