<?xml version="1.0" encoding="us-ascii" standalone="no"?><svg xmlns="http://www.w3.org/2000/svg" xmlns:xlink="http://www.w3.org/1999/xlink" contentStyleType="text/css" height="49px" preserveAspectRatio="none" style="width:526px;height:49px;background:#FFFFFF;" version="1.1" viewBox="0 0 526 49" width="526px" zoomAndPan="magnify"><defs/><g><!--entity SCSP--><g id="elem_SCSP"><rect fill="#F1F1F1" height="36.4883" rx="2.5" ry="2.5" style="stroke:#181818;stroke-width:0.5;" width="54" x="7" y="7"/><text fill="#000000" font-family="sans-serif" font-size="14" lengthAdjust="spacing" textLength="34" x="17" y="30.5352">SCSP</text></g><!--entity eMSP--><g id="elem_eMSP"><rect fill="#F1F1F1" height="36.4883" rx="2.5" ry="2.5" style="stroke:#181818;stroke-width:0.5;" width="56" x="153" y="7"/><text fill="#000000" font-family="sans-serif" font-size="14" lengthAdjust="spacing" textLength="36" x="163" y="30.5352">eMSP</text></g><!--entity CPO--><g id="elem_CPO"><rect fill="#F1F1F1" height="36.4883" rx="2.5" ry="2.5" style="stroke:#181818;stroke-width:0.5;" width="49" x="301" y="7"/><text fill="#000000" font-family="sans-serif" font-size="14" lengthAdjust="spacing" textLength="29" x="311" y="30.5352">CPO</text></g><!--entity CP--><g id="elem_CP"><rect fill="#F1F1F1" height="36.4883" rx="2.5" ry="2.5" style="stroke:#181818;stroke-width:0.5;" width="109" x="411" y="7"/><text fill="#000000" font-family="sans-serif" font-size="14" lengthAdjust="spacing" textLength="89" x="421" y="30.5352">Charge Point</text></g><!--link SCSP to eMSP--><g id="link_SCSP_eMSP"><path d="M67.25,25.25 C90.99,25.25 123.16,25.25 147.07,25.25 " fill="none" id="SCSP-eMSP" style="stroke:#181818;stroke-width:1.0;"/><polygon fill="#181818" points="62.26,25.25,71.26,29.25,67.26,25.25,71.26,21.25,62.26,25.25" style="stroke:#181818;stroke-width:1.0;"/><polygon fill="#181818" points="151.95,25.25,142.95,21.25,146.95,25.25,142.95,29.25,151.95,25.25" style="stroke:#181818;stroke-width:1.0;"/><text fill="#000000" font-family="sans-serif" font-size="13" lengthAdjust="spacing" textLength="30" x="92" y="21.8184">OCPI</text></g><!--link eMSP to CPO--><g id="link_eMSP_CPO"><path d="M215.26,25.25 C239.37,25.25 271.68,25.25 294.89,25.25 " fill="none" id="eMSP-CPO" style="stroke:#181818;stroke-width:1.0;"/><polygon fill="#181818" points="210.48,25.25,219.48,29.25,215.48,25.25,219.48,21.25,210.48,25.25" style="stroke:#181818;stroke-width:1.0;"/><polygon fill="#181818" points="299.89,25.25,290.89,21.25,294.89,25.25,290.89,29.25,299.89,25.25" style="stroke:#181818;stroke-width:1.0;"/><text fill="#000000" font-family="sans-serif" font-size="13" lengthAdjust="spacing" textLength="30" x="240" y="21.8184">OCPI</text></g><!--link CPO to CP--><g id="link_CPO_CP"><path d="M355.9,25.25 C370.24,25.25 388.03,25.25 405.04,25.25 " fill="none" id="CPO-CP" style="stroke:#181818;stroke-width:1.0;"/><polygon fill="#181818" points="351.22,25.25,360.22,29.25,356.22,25.25,360.22,21.25,351.22,25.25" style="stroke:#181818;stroke-width:1.0;"/><polygon fill="#181818" points="409.77,25.25,400.77,21.25,404.77,25.25,400.77,29.25,409.77,25.25" style="stroke:#181818;stroke-width:1.0;"/></g></g></svg>