<?xml version="1.0" encoding="UTF-8" standalone="no"?><svg xmlns="http://www.w3.org/2000/svg" xmlns:xlink="http://www.w3.org/1999/xlink" contentScriptType="application/ecmascript" contentStyleType="text/css" height="125px" preserveAspectRatio="none" style="width:384px;height:125px;" version="1.1" viewBox="0 0 384 125" width="384px" zoomAndPan="magnify"><defs><filter height="300%" id="f1190gr1tl3cv8" width="300%" x="-1" y="-1"><feGaussianBlur result="blurOut" stdDeviation="2.0"/><feColorMatrix in="blurOut" result="blurOut2" type="matrix" values="0 0 0 0 0 0 0 0 0 0 0 0 0 0 0 0 0 0 .4 0"/><feOffset dx="4.0" dy="4.0" in="blurOut2" result="blurOut3"/><feBlend in="SourceGraphic" in2="blurOut3" mode="normal"/></filter></defs><g><!--entity eMSP--><rect fill="#FEFECE" filter="url(#f1190gr1tl3cv8)" height="36.4883" style="stroke: #A80036; stroke-width: 1.5;" width="56" x="6" y="7.51"/><text fill="#000000" font-family="sans-serif" font-size="14" lengthAdjust="spacingAndGlyphs" textLength="36" x="16" y="31.0452">eMSP</text><!--entity SCSP--><rect fill="#FEFECE" filter="url(#f1190gr1tl3cv8)" height="36.4883" style="stroke: #A80036; stroke-width: 1.5;" width="54" x="7" y="78.51"/><text fill="#000000" font-family="sans-serif" font-size="14" lengthAdjust="spacingAndGlyphs" textLength="34" x="17" y="102.0452">SCSP</text><!--entity CPO--><rect fill="#FEFECE" filter="url(#f1190gr1tl3cv8)" height="36.4883" style="stroke: #A80036; stroke-width: 1.5;" width="49" x="154" y="43.51"/><text fill="#000000" font-family="sans-serif" font-size="14" lengthAdjust="spacingAndGlyphs" textLength="29" x="164" y="67.0452">CPO</text><!--entity CP--><rect fill="#FEFECE" filter="url(#f1190gr1tl3cv8)" height="36.4883" style="stroke: #A80036; stroke-width: 1.5;" width="109" x="264" y="43.51"/><text fill="#000000" font-family="sans-serif" font-size="14" lengthAdjust="spacingAndGlyphs" textLength="89" x="274" y="67.0452">Charge Point</text><!--link eMSP to CPO--><path d="M68.26,34.16 C92.47,40.27 124.95,48.48 148.19,54.35 " fill="none" id="eMSP-CPO" style="stroke: #A80036; stroke-width: 1.0;"/><polygon fill="#A80036" points="152.89,55.79,145.1499,49.6997,148.0435,54.5605,143.1827,57.4541,152.89,55.79" style="stroke: #A80036; stroke-width: 1.0;"/><polygon fill="#A80036" points="63.48,32.7,71.2201,38.7903,68.3265,33.9295,73.1873,31.0359,63.48,32.7" style="stroke: #A80036; stroke-width: 1.0;"/><text fill="#000000" font-family="sans-serif" font-size="13" lengthAdjust="spacingAndGlyphs" textLength="30" x="93" y="37.3284">OCPI</text><!--link SCSP to CPO--><path d="M67.14,95.11 C84.26,93.65 105.54,90.91 124,85.76 C132.13,83.49 140.6,80.17 148.34,76.73 " fill="none" id="SCSP-CPO" style="stroke: #A80036; stroke-width: 1.0;"/><polygon fill="#A80036" points="152.57,74.33,142.7219,74.45,148.026,76.4162,146.0598,81.7204,152.57,74.33" style="stroke: #A80036; stroke-width: 1.0;"/><polygon fill="#A80036" points="62.5,95.55,71.7911,98.8174,67.484,95.1501,71.1513,90.8431,62.5,95.55" style="stroke: #A80036; stroke-width: 1.0;"/><text fill="#000000" font-family="sans-serif" font-size="13" lengthAdjust="spacingAndGlyphs" textLength="30" x="93" y="82.3284">OCPI</text><!--link CPO to CP--><path d="M208.9,61.76 C223.24,61.76 241.03,61.76 258.04,61.76 " fill="none" id="CPO-CP" style="stroke: #A80036; stroke-width: 1.0;"/><polygon fill="#A80036" points="262.77,61.76,253.77,57.76,257.77,61.76,253.77,65.76,262.77,61.76" style="stroke: #A80036; stroke-width: 1.0;"/><polygon fill="#A80036" points="204.22,61.76,213.22,65.76,209.22,61.76,213.22,57.76,204.22,61.76" style="stroke: #A80036; stroke-width: 1.0;"/></g></svg>