<?xml version="1.0" encoding="us-ascii" standalone="no"?><svg xmlns="http://www.w3.org/2000/svg" xmlns:xlink="http://www.w3.org/1999/xlink" contentStyleType="text/css" height="599px" preserveAspectRatio="none" style="width:631px;height:599px;background:#FFFFFF;" version="1.1" viewBox="0 0 631 599" width="631px" zoomAndPan="magnify"><defs/><g><text fill="#000000" font-family="sans-serif" font-size="14" font-weight="bold" lengthAdjust="spacing" textLength="151" x="238.5" y="28.5352">OCPI Update process</text><rect fill="#FFFFFF" height="462.6582" style="stroke:#181818;stroke-width:1.0;" width="10" x="31" y="105.2871"/><rect fill="#FFFFFF" height="29.3105" style="stroke:#181818;stroke-width:1.0;" width="10" x="302" y="105.2871"/><rect fill="#FFFFFF" height="29.3105" style="stroke:#181818;stroke-width:1.0;" width="10" x="302" y="206.2188"/><rect fill="#FFFFFF" height="225.4844" style="stroke:#181818;stroke-width:1.0;" width="10" x="302" y="307.1504"/><line style="stroke:#181818;stroke-width:0.5;stroke-dasharray:5.0,5.0;" x1="36" x2="36" y1="73.9766" y2="592.9453"/><line style="stroke:#181818;stroke-width:0.5;stroke-dasharray:5.0,5.0;" x1="306.5" x2="306.5" y1="73.9766" y2="592.9453"/><rect fill="#E2E2F0" height="30.4883" rx="2.5" ry="2.5" style="stroke:#181818;stroke-width:0.5;" width="62" x="5" y="42.4883"/><text fill="#000000" font-family="sans-serif" font-size="14" lengthAdjust="spacing" textLength="48" x="12" y="63.0234">Sender</text><rect fill="#E2E2F0" height="30.4883" rx="2.5" ry="2.5" style="stroke:#181818;stroke-width:0.5;" width="71" x="271.5" y="42.4883"/><text fill="#000000" font-family="sans-serif" font-size="14" lengthAdjust="spacing" textLength="57" x="278.5" y="63.0234">Receiver</text><rect fill="#FFFFFF" height="462.6582" style="stroke:#181818;stroke-width:1.0;" width="10" x="31" y="105.2871"/><rect fill="#FFFFFF" height="29.3105" style="stroke:#181818;stroke-width:1.0;" width="10" x="302" y="105.2871"/><rect fill="#FFFFFF" height="29.3105" style="stroke:#181818;stroke-width:1.0;" width="10" x="302" y="206.2188"/><rect fill="#FFFFFF" height="225.4844" style="stroke:#181818;stroke-width:1.0;" width="10" x="302" y="307.1504"/><polygon fill="#181818" points="290,101.2871,300,105.2871,290,109.2871,294,105.2871" style="stroke:#181818;stroke-width:1.0;"/><line style="stroke:#181818;stroke-width:1.0;" x1="41" x2="296" y1="105.2871" y2="105.2871"/><text fill="#000000" font-family="sans-serif" font-size="13" lengthAdjust="spacing" textLength="152" x="48" y="100.5449">GET /ocpi/cpo/versions</text><polygon fill="#181818" points="52,130.5977,42,134.5977,52,138.5977,48,134.5977" style="stroke:#181818;stroke-width:1.0;"/><line style="stroke:#181818;stroke-width:1.0;stroke-dasharray:2.0,2.0;" x1="46" x2="306" y1="134.5977" y2="134.5977"/><text fill="#000000" font-family="sans-serif" font-size="13" lengthAdjust="spacing" textLength="114" x="58" y="129.8555">Available versions</text><line style="stroke:#181818;stroke-width:1.0;" x1="41" x2="83" y1="163.9082" y2="163.9082"/><line style="stroke:#181818;stroke-width:1.0;" x1="83" x2="83" y1="163.9082" y2="176.9082"/><line style="stroke:#181818;stroke-width:1.0;" x1="42" x2="83" y1="176.9082" y2="176.9082"/><polygon fill="#181818" points="52,172.9082,42,176.9082,52,180.9082,48,176.9082" style="stroke:#181818;stroke-width:1.0;"/><text fill="#000000" font-family="sans-serif" font-size="13" lengthAdjust="spacing" textLength="226" x="48" y="159.166">Pick latest mutual version (e.g. 2.0).</text><polygon fill="#181818" points="290,202.2188,300,206.2188,290,210.2188,294,206.2188" style="stroke:#181818;stroke-width:1.0;"/><line style="stroke:#181818;stroke-width:1.0;" x1="41" x2="296" y1="206.2188" y2="206.2188"/><text fill="#000000" font-family="sans-serif" font-size="13" lengthAdjust="spacing" textLength="126" x="48" y="201.4766">GET /ocpi/cpo/2.0/</text><polygon fill="#181818" points="52,231.5293,42,235.5293,52,239.5293,48,235.5293" style="stroke:#181818;stroke-width:1.0;"/><line style="stroke:#181818;stroke-width:1.0;stroke-dasharray:2.0,2.0;" x1="46" x2="306" y1="235.5293" y2="235.5293"/><text fill="#000000" font-family="sans-serif" font-size="13" lengthAdjust="spacing" textLength="177" x="58" y="230.7871">Available endpoints for v2.0</text><line style="stroke:#181818;stroke-width:1.0;" x1="41" x2="83" y1="264.8398" y2="264.8398"/><line style="stroke:#181818;stroke-width:1.0;" x1="83" x2="83" y1="264.8398" y2="277.8398"/><line style="stroke:#181818;stroke-width:1.0;" x1="42" x2="83" y1="277.8398" y2="277.8398"/><polygon fill="#181818" points="52,273.8398,42,277.8398,52,281.8398,48,277.8398" style="stroke:#181818;stroke-width:1.0;"/><text fill="#000000" font-family="sans-serif" font-size="13" lengthAdjust="spacing" textLength="176" x="48" y="260.0977">Store version and endpoints</text><polygon fill="#181818" points="290,303.1504,300,307.1504,290,311.1504,294,307.1504" style="stroke:#181818;stroke-width:1.0;"/><line style="stroke:#181818;stroke-width:1.0;" x1="41" x2="296" y1="307.1504" y2="307.1504"/><text fill="#000000" font-family="sans-serif" font-size="13" lengthAdjust="spacing" textLength="195" x="48" y="302.4082">PUT /ocpi/cpo/2.0/credentials</text><polygon fill="#181818" points="52,332.4609,42,336.4609,52,340.4609,48,336.4609" style="stroke:#181818;stroke-width:1.0;"/><line style="stroke:#181818;stroke-width:1.0;" x1="46" x2="301" y1="336.4609" y2="336.4609"/><text fill="#000000" font-family="sans-serif" font-size="13" lengthAdjust="spacing" textLength="163" x="58" y="331.7188">GET /ocpi/emsp/versions</text><polygon fill="#181818" points="290,361.7715,300,365.7715,290,369.7715,294,365.7715" style="stroke:#181818;stroke-width:1.0;"/><line style="stroke:#181818;stroke-width:1.0;stroke-dasharray:2.0,2.0;" x1="41" x2="296" y1="365.7715" y2="365.7715"/><text fill="#000000" font-family="sans-serif" font-size="13" lengthAdjust="spacing" textLength="114" x="48" y="361.0293">Available versions</text><polygon fill="#181818" points="52,391.082,42,395.082,52,399.082,48,395.082" style="stroke:#181818;stroke-width:1.0;"/><line style="stroke:#181818;stroke-width:1.0;" x1="46" x2="301" y1="395.082" y2="395.082"/><text fill="#000000" font-family="sans-serif" font-size="13" lengthAdjust="spacing" textLength="137" x="58" y="390.3398">GET /ocpi/emsp/2.0/</text><polygon fill="#181818" points="290,438.7031,300,442.7031,290,446.7031,294,442.7031" style="stroke:#181818;stroke-width:1.0;"/><line style="stroke:#181818;stroke-width:1.0;stroke-dasharray:2.0,2.0;" x1="41" x2="296" y1="442.7031" y2="442.7031"/><text fill="#000000" font-family="sans-serif" font-size="13" lengthAdjust="spacing" textLength="177" x="48" y="437.9609">Available endpoints for v2.0</text><path d="M317,408.082 L317,463.082 L624,463.082 L624,418.082 L614,408.082 L317,408.082 " fill="#FEFFDD" style="stroke:#181818;stroke-width:0.5;"/><path d="M614,408.082 L614,418.082 L624,418.082 L614,408.082 " fill="#FEFFDD" style="stroke:#181818;stroke-width:0.5;"/><text fill="#000000" font-family="sans-serif" font-size="13" lengthAdjust="spacing" textLength="276" x="323" y="425.6504">The Receiver knows it's version 2.0 because</text><text fill="#000000" font-family="sans-serif" font-size="13" lengthAdjust="spacing" textLength="286" x="323" y="440.9609">of the endpoint the Sender has used. The URL</text><text fill="#000000" font-family="sans-serif" font-size="13" lengthAdjust="spacing" textLength="248" x="323" y="456.2715">is retrieved from the available versions.</text><line style="stroke:#181818;stroke-width:1.0;" x1="312" x2="354" y1="490.3242" y2="490.3242"/><line style="stroke:#181818;stroke-width:1.0;" x1="354" x2="354" y1="490.3242" y2="503.3242"/><line style="stroke:#181818;stroke-width:1.0;" x1="313" x2="354" y1="503.3242" y2="503.3242"/><polygon fill="#181818" points="323,499.3242,313,503.3242,323,507.3242,319,503.3242" style="stroke:#181818;stroke-width:1.0;"/><text fill="#000000" font-family="sans-serif" font-size="13" lengthAdjust="spacing" textLength="176" x="319" y="485.582">Store version and endpoints</text><polygon fill="#181818" points="52,528.6348,42,532.6348,52,536.6348,48,532.6348" style="stroke:#181818;stroke-width:1.0;"/><line style="stroke:#181818;stroke-width:1.0;stroke-dasharray:2.0,2.0;" x1="46" x2="306" y1="532.6348" y2="532.6348"/><text fill="#000000" font-family="sans-serif" font-size="13" lengthAdjust="spacing" textLength="237" x="58" y="527.8926">Return updated credentials for Sender</text><line style="stroke:#181818;stroke-width:1.0;" x1="41" x2="83" y1="566.9453" y2="566.9453"/><line style="stroke:#181818;stroke-width:1.0;" x1="83" x2="83" y1="566.9453" y2="579.9453"/><line style="stroke:#181818;stroke-width:1.0;" x1="36" x2="83" y1="579.9453" y2="579.9453"/><polygon fill="#181818" points="46,575.9453,36,579.9453,46,583.9453,42,579.9453" style="stroke:#181818;stroke-width:1.0;"/><text fill="#000000" font-family="sans-serif" font-size="13" lengthAdjust="spacing" textLength="160" x="48" y="562.2031">Store updated credentials</text></g></svg>