<?xml version="1.0" encoding="UTF-8" standalone="no"?><svg xmlns="http://www.w3.org/2000/svg" xmlns:xlink="http://www.w3.org/1999/xlink" contentScriptType="application/ecmascript" contentStyleType="text/css" height="603px" preserveAspectRatio="none" style="width:641px;height:603px;" version="1.1" viewBox="0 0 641 603" width="641px" zoomAndPan="magnify"><defs><filter height="300%" id="f1rzcjyvemqsrr" width="300%" x="-1" y="-1"><feGaussianBlur result="blurOut" stdDeviation="2.0"/><feColorMatrix in="blurOut" result="blurOut2" type="matrix" values="0 0 0 0 0 0 0 0 0 0 0 0 0 0 0 0 0 0 .4 0"/><feOffset dx="4.0" dy="4.0" in="blurOut2" result="blurOut3"/><feBlend in="SourceGraphic" in2="blurOut3" mode="normal"/></filter></defs><g><text fill="#000000" font-family="sans-serif" font-size="14" font-weight="bold" lengthAdjust="spacingAndGlyphs" textLength="151" x="245" y="23.5352">OCPI Update process</text><rect fill="#FFFFFF" filter="url(#f1rzcjyvemqsrr)" height="466.6582" style="stroke: #A80036; stroke-width: 1.0;" width="10" x="36" y="100.2871"/><rect fill="#FFFFFF" filter="url(#f1rzcjyvemqsrr)" height="29.3105" style="stroke: #A80036; stroke-width: 1.0;" width="10" x="307" y="100.2871"/><rect fill="#FFFFFF" filter="url(#f1rzcjyvemqsrr)" height="29.3105" style="stroke: #A80036; stroke-width: 1.0;" width="10" x="307" y="201.2188"/><rect fill="#FFFFFF" filter="url(#f1rzcjyvemqsrr)" height="229.4844" style="stroke: #A80036; stroke-width: 1.0;" width="10" x="307" y="302.1504"/><line style="stroke: #A80036; stroke-width: 1.0; stroke-dasharray: 5.0,5.0;" x1="41" x2="41" y1="68.9766" y2="591.9453"/><line style="stroke: #A80036; stroke-width: 1.0; stroke-dasharray: 5.0,5.0;" x1="311.5" x2="311.5" y1="68.9766" y2="591.9453"/><rect fill="#FEFECE" filter="url(#f1rzcjyvemqsrr)" height="30.4883" style="stroke: #A80036; stroke-width: 1.5;" width="62" x="8" y="33.4883"/><text fill="#000000" font-family="sans-serif" font-size="14" lengthAdjust="spacingAndGlyphs" textLength="48" x="15" y="54.0234">Sender</text><rect fill="#FEFECE" filter="url(#f1rzcjyvemqsrr)" height="30.4883" style="stroke: #A80036; stroke-width: 1.5;" width="71" x="274.5" y="33.4883"/><text fill="#000000" font-family="sans-serif" font-size="14" lengthAdjust="spacingAndGlyphs" textLength="57" x="281.5" y="54.0234">Receiver</text><rect fill="#FFFFFF" filter="url(#f1rzcjyvemqsrr)" height="466.6582" style="stroke: #A80036; stroke-width: 1.0;" width="10" x="36" y="100.2871"/><rect fill="#FFFFFF" filter="url(#f1rzcjyvemqsrr)" height="29.3105" style="stroke: #A80036; stroke-width: 1.0;" width="10" x="307" y="100.2871"/><rect fill="#FFFFFF" filter="url(#f1rzcjyvemqsrr)" height="29.3105" style="stroke: #A80036; stroke-width: 1.0;" width="10" x="307" y="201.2188"/><rect fill="#FFFFFF" filter="url(#f1rzcjyvemqsrr)" height="229.4844" style="stroke: #A80036; stroke-width: 1.0;" width="10" x="307" y="302.1504"/><polygon fill="#A80036" points="295,96.2871,305,100.2871,295,104.2871,299,100.2871" style="stroke: #A80036; stroke-width: 1.0;"/><line style="stroke: #A80036; stroke-width: 1.0;" x1="46" x2="301" y1="100.2871" y2="100.2871"/><text fill="#000000" font-family="sans-serif" font-size="13" lengthAdjust="spacingAndGlyphs" textLength="152" x="53" y="95.5449">GET /ocpi/cpo/versions</text><polygon fill="#A80036" points="57,125.5977,47,129.5977,57,133.5977,53,129.5977" style="stroke: #A80036; stroke-width: 1.0;"/><line style="stroke: #A80036; stroke-width: 1.0; stroke-dasharray: 2.0,2.0;" x1="51" x2="311" y1="129.5977" y2="129.5977"/><text fill="#000000" font-family="sans-serif" font-size="13" lengthAdjust="spacingAndGlyphs" textLength="114" x="63" y="124.8555">Available versions</text><line style="stroke: #A80036; stroke-width: 1.0;" x1="46" x2="88" y1="158.9082" y2="158.9082"/><line style="stroke: #A80036; stroke-width: 1.0;" x1="88" x2="88" y1="158.9082" y2="171.9082"/><line style="stroke: #A80036; stroke-width: 1.0;" x1="47" x2="88" y1="171.9082" y2="171.9082"/><polygon fill="#A80036" points="57,167.9082,47,171.9082,57,175.9082,53,171.9082" style="stroke: #A80036; stroke-width: 1.0;"/><text fill="#000000" font-family="sans-serif" font-size="13" lengthAdjust="spacingAndGlyphs" textLength="226" x="53" y="154.166">Pick latest mutual version (e.g. 2.0).</text><polygon fill="#A80036" points="295,197.2188,305,201.2188,295,205.2188,299,201.2188" style="stroke: #A80036; stroke-width: 1.0;"/><line style="stroke: #A80036; stroke-width: 1.0;" x1="46" x2="301" y1="201.2188" y2="201.2188"/><text fill="#000000" font-family="sans-serif" font-size="13" lengthAdjust="spacingAndGlyphs" textLength="126" x="53" y="196.4766">GET /ocpi/cpo/2.0/</text><polygon fill="#A80036" points="57,226.5293,47,230.5293,57,234.5293,53,230.5293" style="stroke: #A80036; stroke-width: 1.0;"/><line style="stroke: #A80036; stroke-width: 1.0; stroke-dasharray: 2.0,2.0;" x1="51" x2="311" y1="230.5293" y2="230.5293"/><text fill="#000000" font-family="sans-serif" font-size="13" lengthAdjust="spacingAndGlyphs" textLength="177" x="63" y="225.7871">Available endpoints for v2.0</text><line style="stroke: #A80036; stroke-width: 1.0;" x1="46" x2="88" y1="259.8398" y2="259.8398"/><line style="stroke: #A80036; stroke-width: 1.0;" x1="88" x2="88" y1="259.8398" y2="272.8398"/><line style="stroke: #A80036; stroke-width: 1.0;" x1="47" x2="88" y1="272.8398" y2="272.8398"/><polygon fill="#A80036" points="57,268.8398,47,272.8398,57,276.8398,53,272.8398" style="stroke: #A80036; stroke-width: 1.0;"/><text fill="#000000" font-family="sans-serif" font-size="13" lengthAdjust="spacingAndGlyphs" textLength="176" x="53" y="255.0977">Store version and endpoints</text><polygon fill="#A80036" points="295,298.1504,305,302.1504,295,306.1504,299,302.1504" style="stroke: #A80036; stroke-width: 1.0;"/><line style="stroke: #A80036; stroke-width: 1.0;" x1="46" x2="301" y1="302.1504" y2="302.1504"/><text fill="#000000" font-family="sans-serif" font-size="13" lengthAdjust="spacingAndGlyphs" textLength="195" x="53" y="297.4082">PUT /ocpi/cpo/2.0/credentials</text><polygon fill="#A80036" points="57,327.4609,47,331.4609,57,335.4609,53,331.4609" style="stroke: #A80036; stroke-width: 1.0;"/><line style="stroke: #A80036; stroke-width: 1.0;" x1="51" x2="306" y1="331.4609" y2="331.4609"/><text fill="#000000" font-family="sans-serif" font-size="13" lengthAdjust="spacingAndGlyphs" textLength="163" x="63" y="326.7188">GET /ocpi/emsp/versions</text><polygon fill="#A80036" points="295,356.7715,305,360.7715,295,364.7715,299,360.7715" style="stroke: #A80036; stroke-width: 1.0;"/><line style="stroke: #A80036; stroke-width: 1.0; stroke-dasharray: 2.0,2.0;" x1="46" x2="301" y1="360.7715" y2="360.7715"/><text fill="#000000" font-family="sans-serif" font-size="13" lengthAdjust="spacingAndGlyphs" textLength="114" x="53" y="356.0293">Available versions</text><polygon fill="#A80036" points="57,386.082,47,390.082,57,394.082,53,390.082" style="stroke: #A80036; stroke-width: 1.0;"/><line style="stroke: #A80036; stroke-width: 1.0;" x1="51" x2="306" y1="390.082" y2="390.082"/><text fill="#000000" font-family="sans-serif" font-size="13" lengthAdjust="spacingAndGlyphs" textLength="137" x="63" y="385.3398">GET /ocpi/emsp/2.0/</text><polygon fill="#A80036" points="295,435.7031,305,439.7031,295,443.7031,299,439.7031" style="stroke: #A80036; stroke-width: 1.0;"/><line style="stroke: #A80036; stroke-width: 1.0; stroke-dasharray: 2.0,2.0;" x1="46" x2="301" y1="439.7031" y2="439.7031"/><text fill="#000000" font-family="sans-serif" font-size="13" lengthAdjust="spacingAndGlyphs" textLength="177" x="53" y="434.9609">Available endpoints for v2.0</text><path d="M322,403.082 L322,458.082 L629,458.082 L629,413.082 L619,403.082 L322,403.082 " fill="#FBFB77" filter="url(#f1rzcjyvemqsrr)" style="stroke: #A80036; stroke-width: 1.0;"/><path d="M619,403.082 L619,413.082 L629,413.082 L619,403.082 " fill="#FBFB77" style="stroke: #A80036; stroke-width: 1.0;"/><text fill="#000000" font-family="sans-serif" font-size="13" lengthAdjust="spacingAndGlyphs" textLength="276" x="328" y="420.6504">The Receiver knows it's version 2.0 because</text><text fill="#000000" font-family="sans-serif" font-size="13" lengthAdjust="spacingAndGlyphs" textLength="286" x="328" y="435.9609">of the endpoint the Sender has used. The URL</text><text fill="#000000" font-family="sans-serif" font-size="13" lengthAdjust="spacingAndGlyphs" textLength="248" x="328" y="451.2715">is retrieved from the available versions.</text><line style="stroke: #A80036; stroke-width: 1.0;" x1="317" x2="359" y1="489.3242" y2="489.3242"/><line style="stroke: #A80036; stroke-width: 1.0;" x1="359" x2="359" y1="489.3242" y2="502.3242"/><line style="stroke: #A80036; stroke-width: 1.0;" x1="318" x2="359" y1="502.3242" y2="502.3242"/><polygon fill="#A80036" points="328,498.3242,318,502.3242,328,506.3242,324,502.3242" style="stroke: #A80036; stroke-width: 1.0;"/><text fill="#000000" font-family="sans-serif" font-size="13" lengthAdjust="spacingAndGlyphs" textLength="176" x="324" y="484.582">Store version and endpoints</text><polygon fill="#A80036" points="57,527.6348,47,531.6348,57,535.6348,53,531.6348" style="stroke: #A80036; stroke-width: 1.0;"/><line style="stroke: #A80036; stroke-width: 1.0; stroke-dasharray: 2.0,2.0;" x1="51" x2="311" y1="531.6348" y2="531.6348"/><text fill="#000000" font-family="sans-serif" font-size="13" lengthAdjust="spacingAndGlyphs" textLength="237" x="63" y="526.8926">Return updated credentials for Sender</text><line style="stroke: #A80036; stroke-width: 1.0;" x1="46" x2="88" y1="565.9453" y2="565.9453"/><line style="stroke: #A80036; stroke-width: 1.0;" x1="88" x2="88" y1="565.9453" y2="578.9453"/><line style="stroke: #A80036; stroke-width: 1.0;" x1="41" x2="88" y1="578.9453" y2="578.9453"/><polygon fill="#A80036" points="51,574.9453,41,578.9453,51,582.9453,47,578.9453" style="stroke: #A80036; stroke-width: 1.0;"/><text fill="#000000" font-family="sans-serif" font-size="13" lengthAdjust="spacingAndGlyphs" textLength="160" x="53" y="561.2031">Store updated credentials</text></g></svg>